<svg width="38" height="38" viewBox="0 0 38 38" fill="none" xmlns="http://www.w3.org/2000/svg">
<path d="M27.3711 19.1241H9.98964C9.64319 19.1241 9.36328 18.8442 9.36328 18.4978C9.36328 18.1513 9.64319 17.8714 9.98964 17.8714H25.8581L22.0568 14.0702C21.8122 13.8255 21.8122 13.4282 22.0568 13.1835C22.3015 12.9388 22.6989 12.9388 22.9435 13.1835L27.8154 18.0554C27.9955 18.2355 28.0484 18.5036 27.9505 18.7385C27.8526 18.9715 27.6236 19.1241 27.3711 19.1241Z" fill="#F52929"/>
<path d="M22.494 24.0019C22.3335 24.0019 22.173 23.9412 22.0517 23.8179C21.807 23.5732 21.807 23.1759 22.0517 22.9312L26.9294 18.0534C27.1741 17.8088 27.5715 17.8088 27.8161 18.0534C28.0608 18.2981 28.0608 18.6955 27.8161 18.9401L22.9384 23.8179C22.815 23.9412 22.6545 24.0019 22.494 24.0019Z" fill="#F52929"/>
</svg>
