<svg width="16" height="10" viewBox="0 0 16 10" fill="none" xmlns="http://www.w3.org/2000/svg">
<path d="M14.8639 8.86284C14.6156 9.11239 14.2127 9.11238 13.9645 8.86284L13.9644 8.86288L13.963 8.86126L7.99999 2.31842L2.03705 8.86068L2.03708 8.86071L2.03554 8.86226C1.78726 9.1118 1.38436 9.1118 1.1361 8.86226C0.88825 8.61313 0.887983 8.20936 1.13531 7.95992L7.51901 0.954882L7.51898 0.954849L7.52053 0.953292C7.65286 0.820303 7.82778 0.763457 7.9995 0.771624C8.17167 0.764064 8.34648 0.820843 8.47939 0.953793L8.47943 0.953755L8.48099 0.955465L14.8647 7.96048C15.112 8.20994 15.1118 8.61371 14.8639 8.86284ZM14.8639 8.86284L14.8285 8.82758M14.8639 8.86284L14.8285 8.82758M14.8285 8.82758C14.5997 9.05747 14.2286 9.05747 13.9999 8.82758L14.8285 7.99495C15.0572 8.22484 15.0572 8.59768 14.8285 8.82758Z" fill="#F52929" stroke="#F52929" stroke-width="0.1"/>
</svg>
