<svg width="38" height="38" viewBox="0 0 38 38" fill="none" xmlns="http://www.w3.org/2000/svg">
<path d="M10.6289 19.1241H28.0104C28.3568 19.1241 28.6367 18.8442 28.6367 18.4978C28.6367 18.1513 28.3568 17.8714 28.0104 17.8714H12.1419L15.9432 14.0702C16.1878 13.8255 16.1878 13.4282 15.9432 13.1835C15.6985 12.9388 15.3011 12.9388 15.0565 13.1835L10.1846 18.0554C10.0045 18.2355 9.95164 18.5036 10.0495 18.7385C10.1474 18.9715 10.3764 19.1241 10.6289 19.1241Z" fill="#E4E4E4"/>
<path d="M15.506 24.0019C15.6665 24.0019 15.827 23.9412 15.9483 23.8179C16.193 23.5732 16.193 23.1759 15.9483 22.9312L11.0706 18.0534C10.8259 17.8088 10.4285 17.8088 10.1839 18.0534C9.9392 18.2981 9.9392 18.6955 10.1839 18.9401L15.0616 23.8179C15.185 23.9412 15.3455 24.0019 15.506 24.0019Z" fill="#E4E4E4"/>
</svg>
