<svg width="22" height="18" viewBox="0 0 22 18" fill="none" xmlns="http://www.w3.org/2000/svg">
<g opacity="0.8">
<path d="M19.495 10.2687H2.45186C2.06681 10.2687 1.69752 10.1158 1.42524 9.84348C1.15296 9.5712 1 9.20191 1 8.81685C1 8.4318 1.15296 8.06251 1.42524 7.79023C1.69752 7.51795 2.06681 7.36499 2.45186 7.36499H19.495C19.8801 7.36499 20.2493 7.51795 20.5216 7.79023C20.7939 8.06251 20.9469 8.4318 20.9469 8.81685C20.9469 9.20191 20.7939 9.5712 20.5216 9.84348C20.2493 10.1158 19.8801 10.2687 19.495 10.2687Z" fill="white"/>
<path d="M12.5041 17.6163C12.2167 17.6164 11.9358 17.5311 11.6969 17.3714C11.4579 17.2117 11.2718 16.9846 11.162 16.719C11.0523 16.4534 11.0238 16.1611 11.0803 15.8793C11.1367 15.5975 11.2755 15.3388 11.4791 15.136L17.8185 8.81689L11.4791 2.4978C11.3402 2.3641 11.2294 2.20408 11.153 2.02708C11.0766 1.85008 11.0363 1.65965 11.0343 1.46688C11.0323 1.27412 11.0687 1.08289 11.1414 0.904346C11.2141 0.725804 11.3216 0.563528 11.4577 0.426985C11.5938 0.290441 11.7557 0.182365 11.934 0.109062C12.1123 0.0357582 12.3034 -0.00130483 12.4961 3.50739e-05C12.6889 0.00137497 12.8795 0.0410907 13.0567 0.116866C13.234 0.19264 13.3944 0.302957 13.5286 0.441379L20.9005 7.78839C21.0359 7.92327 21.1433 8.08356 21.2166 8.26006C21.2899 8.43655 21.3277 8.62578 21.3277 8.81689C21.3277 9.008 21.2899 9.19723 21.2166 9.37372C21.1433 9.55021 21.0359 9.7105 20.9005 9.84539L13.5286 17.1924C13.3941 17.327 13.2343 17.4337 13.0586 17.5064C12.8828 17.5791 12.6944 17.6165 12.5041 17.6163Z" fill="white"/>
</g>
</svg>
