<svg width="24" height="26" viewBox="0 0 24 26" fill="none" xmlns="http://www.w3.org/2000/svg">
<path d="M19.4998 25.1875H4.4998C3.1218 25.1875 1.9998 24.048 1.9998 22.6485V3.35161C1.9998 1.95208 3.1218 0.812549 4.4998 0.812549H19.4998C20.8778 0.812549 21.9998 1.95208 21.9998 3.35161V22.6485C21.9998 24.048 20.8778 25.1875 19.4998 25.1875ZM4.4998 1.82817C3.6728 1.82817 2.9998 2.51169 2.9998 3.35161V22.6485C2.9998 23.4884 3.6728 24.1719 4.4998 24.1719H19.4998C20.3268 24.1719 20.9998 23.4884 20.9998 22.6485V3.35161C20.9998 2.51169 20.3268 1.82817 19.4998 1.82817H4.4998Z" fill="white"/>
<path fill-rule="evenodd" clip-rule="evenodd" d="M19.4998 25.3876H4.4998C3.00844 25.3876 1.7998 24.1555 1.7998 22.6485V3.35161C1.7998 1.84456 3.00844 0.612549 4.4998 0.612549H19.4998C20.9912 0.612549 22.1998 1.84456 22.1998 3.35161V22.6485C22.1998 24.1555 20.9912 25.3876 19.4998 25.3876ZM4.4998 2.02817C3.78617 2.02817 3.1998 2.61921 3.1998 3.35161V22.6485C3.1998 23.3809 3.78617 23.9719 4.4998 23.9719H19.4998C20.2134 23.9719 20.7998 23.3809 20.7998 22.6485V3.35161C20.7998 2.61921 20.2134 2.02817 19.4998 2.02817H4.4998ZM4.4998 25.1875H19.4998C20.8778 25.1875 21.9998 24.048 21.9998 22.6485V3.35161C21.9998 1.95208 20.8778 0.812549 19.4998 0.812549H4.4998C3.1218 0.812549 1.9998 1.95208 1.9998 3.35161V22.6485C1.9998 24.048 3.1218 25.1875 4.4998 25.1875ZM2.9998 3.35161C2.9998 2.51169 3.6728 1.82817 4.4998 1.82817H19.4998C20.3268 1.82817 20.9998 2.51169 20.9998 3.35161V22.6485C20.9998 23.4884 20.3268 24.1719 19.4998 24.1719H4.4998C3.6728 24.1719 2.9998 23.4884 2.9998 22.6485V3.35161Z" fill="white"/>
<path d="M17.4998 8.93755H6.4998C5.6728 8.93755 4.9998 8.25403 4.9998 7.41411V5.38286C4.9998 4.54294 5.6728 3.85942 6.4998 3.85942H17.4998C18.3268 3.85942 18.9998 4.54294 18.9998 5.38286V7.41411C18.9998 8.25403 18.3268 8.93755 17.4998 8.93755ZM6.4998 4.87505C6.2238 4.87505 5.9998 5.10255 5.9998 5.38286V7.41411C5.9998 7.69442 6.2238 7.92192 6.4998 7.92192H17.4998C17.7758 7.92192 17.9998 7.69442 17.9998 7.41411V5.38286C17.9998 5.10255 17.7758 4.87505 17.4998 4.87505H6.4998Z" fill="white"/>
<path fill-rule="evenodd" clip-rule="evenodd" d="M17.4998 9.13755H6.4998C5.55944 9.13755 4.7998 8.36156 4.7998 7.41411V5.38286C4.7998 4.43542 5.55944 3.65942 6.4998 3.65942H17.4998C18.4402 3.65942 19.1998 4.43542 19.1998 5.38286V7.41411C19.1998 8.36156 18.4402 9.13755 17.4998 9.13755ZM6.4998 5.07505C6.33717 5.07505 6.1998 5.21007 6.1998 5.38286V7.41411C6.1998 7.5869 6.33717 7.72192 6.4998 7.72192H17.4998C17.6624 7.72192 17.7998 7.5869 17.7998 7.41411V5.38286C17.7998 5.21007 17.6624 5.07505 17.4998 5.07505H6.4998ZM6.4998 8.93755H17.4998C18.3268 8.93755 18.9998 8.25403 18.9998 7.41411V5.38286C18.9998 4.54294 18.3268 3.85942 17.4998 3.85942H6.4998C5.6728 3.85942 4.9998 4.54294 4.9998 5.38286V7.41411C4.9998 8.25403 5.6728 8.93755 6.4998 8.93755ZM5.9998 5.38286C5.9998 5.10255 6.2238 4.87505 6.4998 4.87505H17.4998C17.7758 4.87505 17.9998 5.10255 17.9998 5.38286V7.41411C17.9998 7.69442 17.7758 7.92192 17.4998 7.92192H6.4998C6.2238 7.92192 5.9998 7.69442 5.9998 7.41411V5.38286Z" fill="white"/>
<path d="M7.9998 15.0313C7.7238 15.0313 7.4998 14.8038 7.4998 14.5235V11.4766C7.4998 11.1963 7.7238 10.9688 7.9998 10.9688C8.2758 10.9688 8.4998 11.1963 8.4998 11.4766V14.5235C8.4998 14.8038 8.2758 15.0313 7.9998 15.0313Z" fill="white"/>
<path fill-rule="evenodd" clip-rule="evenodd" d="M7.9998 15.2313C7.61044 15.2313 7.2998 14.9113 7.2998 14.5235V11.4766C7.2998 11.0888 7.61044 10.7688 7.9998 10.7688C8.38917 10.7688 8.6998 11.0888 8.6998 11.4766V14.5235C8.6998 14.9113 8.38917 15.2313 7.9998 15.2313ZM7.4998 14.5235C7.4998 14.8038 7.7238 15.0313 7.9998 15.0313C8.2758 15.0313 8.4998 14.8038 8.4998 14.5235V11.4766C8.4998 11.1963 8.2758 10.9688 7.9998 10.9688C7.7238 10.9688 7.4998 11.1963 7.4998 11.4766V14.5235Z" fill="white"/>
<path d="M9.49981 13.5079H6.4998C6.2238 13.5079 5.9998 13.2804 5.9998 13C5.9998 12.7197 6.2238 12.4922 6.4998 12.4922H9.49981C9.77581 12.4922 9.99981 12.7197 9.99981 13C9.99981 13.2804 9.77581 13.5079 9.49981 13.5079Z" fill="white"/>
<path fill-rule="evenodd" clip-rule="evenodd" d="M9.49981 13.7079H6.4998C6.11044 13.7079 5.7998 13.3879 5.7998 13C5.7998 12.6122 6.11044 12.2922 6.4998 12.2922H9.49981C9.88917 12.2922 10.1998 12.6122 10.1998 13C10.1998 13.3879 9.88917 13.7079 9.49981 13.7079ZM6.4998 13.5079H9.49981C9.77581 13.5079 9.99981 13.2804 9.99981 13C9.99981 12.7197 9.77581 12.4922 9.49981 12.4922H6.4998C6.2238 12.4922 5.9998 12.7197 5.9998 13C5.9998 13.2804 6.2238 13.5079 6.4998 13.5079Z" fill="white"/>
<path d="M17.4998 13.5079H14.4998C14.2238 13.5079 13.9998 13.2804 13.9998 13C13.9998 12.7197 14.2238 12.4922 14.4998 12.4922H17.4998C17.7758 12.4922 17.9998 12.7197 17.9998 13C17.9998 13.2804 17.7758 13.5079 17.4998 13.5079Z" fill="white"/>
<path fill-rule="evenodd" clip-rule="evenodd" d="M17.4998 13.7079H14.4998C14.1104 13.7079 13.7998 13.3879 13.7998 13C13.7998 12.6122 14.1104 12.2922 14.4998 12.2922H17.4998C17.8892 12.2922 18.1998 12.6122 18.1998 13C18.1998 13.3879 17.8892 13.7079 17.4998 13.7079ZM14.4998 13.5079H17.4998C17.7758 13.5079 17.9998 13.2804 17.9998 13C17.9998 12.7197 17.7758 12.4922 17.4998 12.4922H14.4998C14.2238 12.4922 13.9998 12.7197 13.9998 13C13.9998 13.2804 14.2238 13.5079 14.4998 13.5079Z" fill="white"/>
<path d="M17.4998 18.0782H14.4998C14.2238 18.0782 13.9998 17.8507 13.9998 17.5704C13.9998 17.29 14.2238 17.0625 14.4998 17.0625H17.4998C17.7758 17.0625 17.9998 17.29 17.9998 17.5704C17.9998 17.8507 17.7758 18.0782 17.4998 18.0782Z" fill="white"/>
<path fill-rule="evenodd" clip-rule="evenodd" d="M17.4998 18.2782H14.4998C14.1104 18.2782 13.7998 17.9582 13.7998 17.5704C13.7998 17.1825 14.1104 16.8625 14.4998 16.8625H17.4998C17.8892 16.8625 18.1998 17.1825 18.1998 17.5704C18.1998 17.9582 17.8892 18.2782 17.4998 18.2782ZM14.4998 18.0782H17.4998C17.7758 18.0782 17.9998 17.8507 17.9998 17.5704C17.9998 17.29 17.7758 17.0625 17.4998 17.0625H14.4998C14.2238 17.0625 13.9998 17.29 13.9998 17.5704C13.9998 17.8507 14.2238 18.0782 14.4998 18.0782Z" fill="white"/>
<path d="M17.4998 21.125H14.4998C14.2238 21.125 13.9998 20.8975 13.9998 20.6172C13.9998 20.3369 14.2238 20.1094 14.4998 20.1094H17.4998C17.7758 20.1094 17.9998 20.3369 17.9998 20.6172C17.9998 20.8975 17.7758 21.125 17.4998 21.125Z" fill="white"/>
<path fill-rule="evenodd" clip-rule="evenodd" d="M17.4998 21.325H14.4998C14.1104 21.325 13.7998 21.0051 13.7998 20.6172C13.7998 20.2294 14.1104 19.9094 14.4998 19.9094H17.4998C17.8892 19.9094 18.1998 20.2294 18.1998 20.6172C18.1998 21.0051 17.8892 21.325 17.4998 21.325ZM14.4998 21.125H17.4998C17.7758 21.125 17.9998 20.8975 17.9998 20.6172C17.9998 20.3369 17.7758 20.1094 17.4998 20.1094H14.4998C14.2238 20.1094 13.9998 20.3369 13.9998 20.6172C13.9998 20.8975 14.2238 21.125 14.4998 21.125Z" fill="white"/>
<path d="M6.50006 21.125C6.37206 21.125 6.24406 21.0753 6.14606 20.9767C5.95106 20.7787 5.95106 20.4567 6.14606 20.2587L9.14606 17.2118C9.34106 17.0138 9.65806 17.0138 9.85306 17.2118C10.0481 17.4099 10.0481 17.7318 9.85306 17.9299L6.85306 20.9767C6.75606 21.0753 6.62806 21.125 6.50006 21.125Z" fill="white"/>
<path fill-rule="evenodd" clip-rule="evenodd" d="M6.00426 21.1178L6.00354 21.1171C5.73189 20.8412 5.73189 20.3943 6.00354 20.1184L9.00354 17.0715C9.27689 16.7939 9.72222 16.7939 9.99557 17.0715C10.2672 17.3474 10.2672 17.7943 9.99557 18.0702L6.99557 21.1171C6.85977 21.255 6.67989 21.325 6.50006 21.325C6.32004 21.325 6.14064 21.2549 6.00426 21.1178ZM6.14606 20.9767C6.24406 21.0753 6.37206 21.125 6.50006 21.125C6.62806 21.125 6.75606 21.0753 6.85306 20.9767L9.85306 17.9299C10.0481 17.7318 10.0481 17.4099 9.85306 17.2118C9.65806 17.0138 9.34106 17.0138 9.14606 17.2118L6.14606 20.2587C5.95106 20.4567 5.95106 20.7787 6.14606 20.9767Z" fill="white"/>
<path d="M9.50005 21.125C9.37205 21.125 9.24405 21.0753 9.14605 20.9767L6.14605 17.9299C5.95105 17.7318 5.95105 17.4099 6.14605 17.2118C6.34105 17.0138 6.65806 17.0138 6.85306 17.2118L9.85305 20.2587C10.0481 20.4567 10.0481 20.7787 9.85305 20.9767C9.75605 21.0753 9.62805 21.125 9.50005 21.125Z" fill="white"/>
<path fill-rule="evenodd" clip-rule="evenodd" d="M9.00426 21.1178L9.00354 21.1171L6.00354 18.0702C5.73189 17.7943 5.73189 17.3474 6.00354 17.0715C6.27689 16.7939 6.72222 16.7939 6.99557 17.0715L9.99557 20.1184C10.2672 20.3943 10.2672 20.8412 9.99557 21.1171C9.85977 21.255 9.67989 21.325 9.50005 21.325C9.32004 21.325 9.14064 21.2549 9.00426 21.1178ZM9.14605 20.9767C9.24405 21.0753 9.37205 21.125 9.50005 21.125C9.62805 21.125 9.75605 21.0753 9.85305 20.9767C10.0481 20.7787 10.0481 20.4567 9.85305 20.2587L6.85306 17.2118C6.65806 17.0138 6.34105 17.0138 6.14605 17.2118C5.95105 17.4099 5.95105 17.7318 6.14605 17.9299L9.14605 20.9767Z" fill="white"/>
</svg>
