<svg width="20" height="20" viewBox="0 0 20 20" fill="none" xmlns="http://www.w3.org/2000/svg">
<g opacity="0.9">
<path fill-rule="evenodd" clip-rule="evenodd" d="M7.74632 12.8184C7.59011 12.9746 7.33684 12.9746 7.18063 12.8184C7.02442 12.6622 7.02442 12.4089 7.18063 12.2527L9.43392 9.99941L7.18101 7.7465C7.0248 7.59029 7.0248 7.33703 7.18101 7.18082C7.33722 7.02461 7.59049 7.02461 7.7467 7.18082L9.99961 9.43373L12.2525 7.18082C12.4087 7.02461 12.662 7.02461 12.8182 7.18082C12.9744 7.33703 12.9744 7.59029 12.8182 7.7465L10.5653 9.99941L12.8186 12.2527C12.9748 12.4089 12.9748 12.6622 12.8186 12.8184C12.6624 12.9746 12.4091 12.9746 12.2529 12.8184L9.99961 10.5651L7.74632 12.8184Z" fill="#53555A"/>
<circle cx="10" cy="10" r="7.6" stroke="#53555A" stroke-width="0.8"/>
</g>
</svg>
