<svg width="21" height="29" viewBox="0 0 21 29" fill="none" xmlns="http://www.w3.org/2000/svg">
<path d="M20.5039 7.21782C20.3954 6.83094 20.175 6.41871 20.012 6.05779C18.0614 1.59822 13.7995 0 10.3581 0C5.7513 0 0.677408 2.93875 0 8.9962V10.2338C0 10.2854 0.0187106 10.7494 0.0452881 10.9814C0.425028 13.8683 2.81949 16.9363 4.60776 19.8232C6.53169 22.9161 8.52805 25.9587 10.5059 29C11.7255 27.0153 12.9407 25.0045 14.1325 23.0712C14.4573 22.5038 14.8344 21.9368 15.1595 21.3952C15.3763 21.0346 15.7903 20.6741 15.9795 20.3386C17.9033 16.9876 21 13.6108 21 10.2854V8.9192C21.0001 8.55869 20.5303 7.29556 20.5039 7.21782ZM10.4425 13.4304C9.08831 13.4304 7.60606 12.7862 6.87444 11.0073C6.76543 10.7241 6.77422 10.1566 6.77422 10.1046V9.30548C6.77422 7.0376 8.79837 6.00628 10.5593 6.00628C12.7272 6.00628 14.4038 7.65628 14.4038 9.71865C14.4038 11.781 12.6104 13.4304 10.4425 13.4304Z" fill="#F52929"/>
</svg>
