<svg width="32" height="32" viewBox="0 0 32 32" fill="none" xmlns="http://www.w3.org/2000/svg">
<path fill-rule="evenodd" clip-rule="evenodd" d="M21.8087 21.3397L21.8695 21.2785C22.2205 20.9247 22.742 20.3991 23.4665 20.3991C23.8686 20.3991 24.2869 20.569 24.725 21.0072C25.1558 21.4379 25.2665 21.8543 25.2665 22.1324C25.2665 22.8569 24.7408 23.3784 24.387 23.7294L24.3251 23.791L19.8584 28.2577C19.3634 28.7526 18.6147 29.0658 17.8665 29.0658C17.1838 29.0658 16.5021 28.8185 15.9412 28.2577C14.6973 27.0138 14.9408 25.2742 15.9412 24.2738L21.0079 19.2072C21.5931 18.622 22.1675 18.2429 22.7297 18.0555L22.8665 18.0099V8.19909H18.7331C18.5786 8.19909 18.4653 8.14844 18.3912 8.07433C18.3171 8.00022 18.2665 7.88697 18.2665 7.73242V3.86576H6.13314C5.48935 3.86576 4.93314 4.42197 4.93314 5.06576V25.6658C4.93314 26.3095 5.48935 26.8658 6.13314 26.8658H12.8665C13.021 26.8658 13.1343 26.9164 13.2084 26.9905C13.2825 27.0646 13.3331 27.1779 13.3331 27.3324C13.3331 27.487 13.2825 27.6002 13.2084 27.6743C13.1343 27.7484 13.021 27.7991 12.8665 27.7991H6.13314C4.97693 27.7991 3.9998 26.822 3.9998 25.6658V5.06576C3.9998 3.90955 4.97693 2.93242 6.13314 2.93242H19.1775L19.1798 2.93409C19.1884 2.94054 19.1992 2.94974 19.213 2.96271C19.2269 2.97574 19.2413 2.99008 19.2584 3.00718L23.8605 7.34263C23.8767 7.3588 23.8904 7.37255 23.9029 7.38588C23.9158 7.39971 23.925 7.41049 23.9315 7.41909L23.9331 7.42135V7.46576C23.9331 7.51518 23.9454 7.55689 23.9563 7.58598C23.9663 7.61271 23.9788 7.63761 23.9863 7.65273L23.9876 7.6552C23.994 7.66802 23.9976 7.67538 23.9998 7.68039V17.7324H24.1998C25.1306 17.7324 26.0151 18.1648 26.8558 19.0046C27.6935 19.9078 28.0806 20.8571 28.0416 21.8076C28.0026 22.7609 27.5334 23.7497 26.5905 24.7255L22.3251 28.991C22.2317 29.0844 22.0837 29.1324 21.9998 29.1324C21.9159 29.1324 21.7679 29.0844 21.6746 28.991C21.486 28.8024 21.486 28.5291 21.6746 28.3405L25.9412 24.0738C26.6913 23.3238 27.0979 22.5943 27.1164 21.8541C27.135 21.1108 26.7612 20.411 26.0746 19.7243C25.4138 19.0636 24.6953 18.7292 23.9401 18.766C23.1894 18.8026 22.4453 19.2041 21.725 19.9243L16.6584 24.991C16.3925 25.2569 16.172 25.6833 16.1258 26.1546C16.0788 26.6334 16.2121 27.1609 16.6584 27.6072C17.1367 28.0855 17.6815 28.2213 18.1648 28.1644C18.635 28.1091 19.0454 27.8719 19.2797 27.602L23.7436 23.1381C23.8428 23.039 23.9995 22.8822 24.1318 22.7147C24.1985 22.6301 24.263 22.5379 24.3116 22.4445C24.3588 22.3538 24.3998 22.2453 24.3998 22.1324C24.3998 22.0889 24.3996 22.0181 24.3537 21.9263C24.3143 21.8474 24.2462 21.7627 24.1412 21.6577C24.064 21.5805 23.9679 21.5034 23.8694 21.4443C23.7775 21.3891 23.6555 21.3324 23.5331 21.3324C23.3318 21.3324 23.1205 21.4503 22.9562 21.5714C22.7873 21.6958 22.6273 21.8543 22.5153 22.0007L19.5251 24.991C19.3365 25.1796 19.0631 25.1796 18.8746 24.991C18.686 24.8024 18.686 24.5291 18.8746 24.3405L21.8079 21.3405L21.8087 21.3397ZM19.2665 7.26576V4.39389L21.6746 6.72432L22.216 7.26576H19.2665Z" fill="#53555A"/>
<path d="M8.7998 12.9991C8.7998 12.8445 8.85045 12.7313 8.92456 12.6572C8.99867 12.5831 9.11192 12.5324 9.26647 12.5324H18.5331C18.6877 12.5324 18.8009 12.5831 18.875 12.6572C18.9492 12.7313 18.9998 12.8445 18.9998 12.9991C18.9998 13.1536 18.9492 13.2669 18.875 13.341C18.8009 13.4151 18.6877 13.4658 18.5331 13.4658H9.26647C9.03037 13.4658 8.7998 13.2759 8.7998 12.9991Z" fill="#53555A"/>
<path d="M18.5331 17.7991H9.26647C9.03037 17.7991 8.7998 17.6092 8.7998 17.3324C8.7998 17.1779 8.85045 17.0646 8.92456 16.9905C8.99867 16.9164 9.11192 16.8658 9.26647 16.8658H18.5331C18.6877 16.8658 18.8009 16.9164 18.875 16.9905C18.9492 17.0646 18.9998 17.1779 18.9998 17.3324C18.9998 17.487 18.9492 17.6002 18.875 17.6743C18.8009 17.7484 18.6877 17.7991 18.5331 17.7991Z" fill="#53555A"/>
<path d="M14.7331 22.0658H9.26647C9.03037 22.0658 8.7998 21.8759 8.7998 21.5991C8.7998 21.4445 8.85045 21.3313 8.92456 21.2572C8.99867 21.1831 9.11192 21.1324 9.26647 21.1324H14.7331C14.8877 21.1324 15.0009 21.1831 15.0751 21.2572C15.1492 21.3313 15.1998 21.4445 15.1998 21.5991C15.1998 21.7536 15.1492 21.8669 15.0751 21.941C15.0009 22.0151 14.8877 22.0658 14.7331 22.0658Z" fill="#53555A"/>
</svg>
