<svg width="32" height="32" viewBox="0 0 32 32" fill="none" xmlns="http://www.w3.org/2000/svg">
<path fill-rule="evenodd" clip-rule="evenodd" d="M21.8097 21.3407L21.8705 21.2795C22.2215 20.9257 22.7429 20.4001 23.4674 20.4001C23.8696 20.4001 24.2879 20.57 24.726 21.0082C25.1567 21.4389 25.2674 21.8553 25.2674 22.1334C25.2674 22.8579 24.7418 23.3793 24.388 23.7303L24.326 23.792L19.8594 28.2586C19.3644 28.7536 18.6157 29.0667 17.8674 29.0667C17.1848 29.0667 16.5031 28.8195 15.9422 28.2586C14.6983 27.0147 14.9418 25.2752 15.9422 24.2748L21.0089 19.2082C21.5941 18.623 22.1684 18.2439 22.7307 18.0565L22.8674 18.0109V8.20007H18.7341C18.5796 8.20007 18.4663 8.14942 18.3922 8.07531C18.3181 8.0012 18.2674 7.88795 18.2674 7.7334V3.86673H6.13411C5.49032 3.86673 4.93411 4.42294 4.93411 5.06673V25.6667C4.93411 26.3105 5.49032 26.8667 6.13411 26.8667H12.8674C13.022 26.8667 13.1352 26.9174 13.2094 26.9915C13.2835 27.0656 13.3341 27.1789 13.3341 27.3334C13.3341 27.488 13.2835 27.6012 13.2094 27.6753C13.1352 27.7494 13.022 27.8001 12.8674 27.8001H6.13411C4.9779 27.8001 4.00078 26.8229 4.00078 25.6667V5.06673C4.00078 3.91052 4.9779 2.9334 6.13411 2.9334H19.1785L19.1808 2.93507C19.1894 2.94152 19.2002 2.95072 19.214 2.96368C19.2279 2.97672 19.2423 2.99105 19.2594 3.00815L23.8615 7.3436C23.8776 7.35978 23.8913 7.37353 23.9038 7.38685C23.9168 7.40068 23.926 7.41146 23.9324 7.42007L23.9341 7.42232V7.46673C23.9341 7.51616 23.9464 7.55787 23.9573 7.58696C23.9673 7.61369 23.9798 7.63859 23.9873 7.6537L23.9886 7.65617C23.995 7.66899 23.9986 7.67636 24.0008 7.68137V17.7334H24.2008C25.1316 17.7334 26.016 18.1658 26.8568 19.0055C27.6944 19.9087 28.0816 20.8581 28.0426 21.8085C28.0035 22.7619 27.5344 23.7507 26.5915 24.7265L22.326 28.992C22.2327 29.0854 22.0846 29.1334 22.0008 29.1334C21.9169 29.1334 21.7689 29.0854 21.6755 28.992C21.487 28.8034 21.487 28.5301 21.6755 28.3415L25.9422 24.0748C26.6923 23.3248 27.0989 22.5952 27.1174 21.8551C27.136 21.1118 26.7622 20.4119 26.0755 19.7253C25.4148 19.0646 24.6962 18.7301 23.941 18.767C23.1904 18.8036 22.4462 19.2051 21.726 19.9253L16.6594 24.992C16.3934 25.2579 16.1729 25.6842 16.1267 26.1556C16.0798 26.6344 16.2131 27.1619 16.6594 27.6082C17.1377 28.0865 17.6825 28.2222 18.1658 28.1654C18.636 28.11 19.0463 27.8729 19.2807 27.603L23.7446 23.1391C23.8438 23.0399 24.0005 22.8832 24.1328 22.7157C24.1995 22.6311 24.264 22.5389 24.3126 22.4455C24.3598 22.3548 24.4008 22.2463 24.4008 22.1334C24.4008 22.0899 24.4006 22.0191 24.3547 21.9273C24.3152 21.8484 24.2472 21.7637 24.1422 21.6586C24.065 21.5815 23.9689 21.5044 23.8703 21.4452C23.7785 21.3901 23.6565 21.3334 23.5341 21.3334C23.3328 21.3334 23.1214 21.4513 22.9571 21.5724C22.7883 21.6968 22.6282 21.8553 22.5163 22.0017L19.526 24.992C19.3375 25.1805 19.0641 25.1805 18.8755 24.992C18.687 24.8034 18.687 24.5301 18.8755 24.3415L21.8089 21.3415L21.8097 21.3407ZM19.2674 7.26673V4.39487L21.6756 6.72529L22.217 7.26673H19.2674Z" fill="#DADADA"/>
<path d="M8.80078 13.0001C8.80078 12.8455 8.85143 12.7323 8.92554 12.6582C8.99965 12.584 9.1129 12.5334 9.26745 12.5334H18.5341C18.6887 12.5334 18.8019 12.584 18.876 12.6582C18.9501 12.7323 19.0008 12.8455 19.0008 13.0001C19.0008 13.1546 18.9501 13.2679 18.876 13.342C18.8019 13.4161 18.6887 13.4667 18.5341 13.4667H9.26745C9.03135 13.4667 8.80078 13.2768 8.80078 13.0001Z" fill="#DADADA"/>
<path d="M18.5341 17.8001H9.26745C9.03135 17.8001 8.80078 17.6102 8.80078 17.3334C8.80078 17.1788 8.85143 17.0656 8.92554 16.9915C8.99965 16.9174 9.1129 16.8667 9.26745 16.8667H18.5341C18.6887 16.8667 18.8019 16.9174 18.876 16.9915C18.9501 17.0656 19.0008 17.1788 19.0008 17.3334C19.0008 17.4879 18.9501 17.6012 18.876 17.6753C18.8019 17.7494 18.6887 17.8001 18.5341 17.8001Z" fill="#DADADA"/>
<path d="M14.7341 22.0667H9.26745C9.03135 22.0667 8.80078 21.8768 8.80078 21.6001C8.80078 21.4455 8.85143 21.3323 8.92554 21.2582C8.99965 21.184 9.1129 21.1334 9.26745 21.1334H14.7341C14.8887 21.1334 15.0019 21.184 15.076 21.2582C15.1501 21.3323 15.2008 21.4455 15.2008 21.6001C15.2008 21.7546 15.1501 21.8679 15.076 21.942C15.0019 22.0161 14.8887 22.0667 14.7341 22.0667Z" fill="#DADADA"/>
</svg>
