<svg width="15" height="16" viewBox="0 0 15 16" fill="none" xmlns="http://www.w3.org/2000/svg">
<g clip-path="url(#clip0_859_13638)">
<path d="M14.9985 13.0867C14.9776 12.5065 14.7359 11.965 14.318 11.562C13.4997 10.773 12.8141 10.3175 12.1604 10.1286C11.2596 9.86825 10.4253 10.105 9.68065 10.8322C9.67954 10.8333 9.67842 10.8344 9.67731 10.8355L8.88512 11.6218C8.39003 11.3427 7.42734 10.7299 6.38724 9.6898L6.31013 9.61275C5.26986 8.57251 4.65711 7.60963 4.37829 7.1151L5.16462 6.32289C5.16574 6.32177 5.16685 6.32066 5.16796 6.31952C5.89514 5.57497 6.13186 4.74065 5.87156 3.8398C5.68262 3.1861 5.22714 2.50049 4.43806 1.6822C4.03511 1.26434 3.49368 1.02264 2.91345 1.00172C2.33287 0.980776 1.77577 1.18287 1.3437 1.5707L1.32688 1.58582C1.31909 1.59282 1.31147 1.60005 1.30403 1.60747C0.4439 2.46759 -0.00697888 3.67172 8.16674e-05 5.08972C0.0121227 7.49857 1.33602 10.2533 3.54146 12.4587C3.95733 12.8746 4.42997 13.2861 4.94624 13.682C5.20303 13.8789 5.57082 13.8304 5.76773 13.5735C5.96466 13.3167 5.91609 12.9489 5.65927 12.752C5.18364 12.3873 4.7499 12.0098 4.37009 11.6301C2.37802 9.63806 1.18244 7.19089 1.17193 5.08389C1.16651 3.99182 1.49501 3.08031 2.12205 2.44673L2.12654 2.44269C2.55243 2.0604 3.19722 2.08366 3.59454 2.49566C5.11151 4.06884 5.00167 4.81155 4.33136 5.49891L3.24521 6.59321C3.07488 6.76483 3.02745 7.02346 3.12579 7.24436C3.15336 7.30629 3.82042 8.78031 5.4817 10.4416L5.55884 10.5186C7.21992 12.1797 8.69396 12.8467 8.75589 12.8743C8.97673 12.9727 9.23542 12.9253 9.40702 12.7549L10.5013 11.6687C11.1888 10.9984 11.9315 10.8886 13.5046 12.4056C13.9166 12.8029 13.9399 13.4477 13.5577 13.8735L13.5535 13.8781C12.9251 14.5001 12.0233 14.8283 10.9431 14.8283C10.9342 14.8283 10.9253 14.8283 10.9164 14.8282C10.053 14.8239 9.05314 14.5872 8.02508 14.1438C7.72801 14.0156 7.38316 14.1526 7.25501 14.4498C7.12684 14.7469 7.2638 15.0917 7.56096 15.2198C8.7493 15.7324 9.87623 15.9949 10.9105 16.0001C10.9215 16.0001 10.9324 16.0002 10.9434 16.0002C12.3471 16.0002 13.5393 15.5496 14.3928 14.6962C14.4002 14.6887 14.4074 14.6811 14.4144 14.6733L14.4296 14.6564C14.8174 14.2244 15.0195 13.6669 14.9985 13.0867Z" fill="#FCFBFB"/>
</g>
<defs>
<clipPath id="clip0_859_13638">
<rect width="15" height="16" fill="white"/>
</clipPath>
</defs>
</svg>
