<svg width="15" height="16" viewBox="0 0 15 16" fill="none" xmlns="http://www.w3.org/2000/svg">
<path d="M12.0962 3.90379C10.8685 2.67613 9.23621 2 7.5 2C5.76379 2 4.1315 2.67613 2.90379 3.90379C1.67613 5.1315 1 6.76379 1 8.5C1 10.2362 1.67613 11.8685 2.90379 13.0962C4.1315 14.3239 5.76379 15 7.5 15C8.68861 15 9.8516 14.6761 10.8633 14.0633C11.1032 13.918 11.1798 13.6057 11.0345 13.3658C10.8892 13.1259 10.5769 13.0493 10.3371 13.1946C9.4841 13.7113 8.50306 13.9844 7.5 13.9844C4.4759 13.9844 2.01562 11.5241 2.01562 8.5C2.01562 5.4759 4.4759 3.01562 7.5 3.01562C10.5241 3.01562 12.9844 5.4759 12.9844 8.5C12.9844 9.58136 12.6628 10.6339 12.0544 11.544C11.8985 11.7771 11.9612 12.0925 12.1943 12.2483C12.4275 12.4042 12.7428 12.3416 12.8987 12.1084C13.6192 11.0308 14 9.78301 14 8.5C14 6.76379 13.3239 5.1315 12.0962 3.90379Z" fill="#FCFBFB"/>
<path d="M7.5001 3.92969C7.21964 3.92969 6.99229 4.15704 6.99229 4.4375V8.28966L5.13019 10.1518C4.93186 10.3501 4.93186 10.6716 5.13019 10.8699C5.22934 10.9691 5.35929 11.0186 5.48926 11.0186C5.61924 11.0186 5.74919 10.9691 5.84834 10.8699L7.85917 8.85907C7.95441 8.76386 8.00791 8.63467 8.00791 8.5V4.4375C8.00791 4.15704 7.78057 3.92969 7.5001 3.92969Z" fill="#FCFBFB"/>
</svg>
