<svg width="15" height="16" viewBox="0 0 15 16" fill="none" xmlns="http://www.w3.org/2000/svg">
<path d="M7.5 3.34375C5.48071 3.34375 3.83789 4.98657 3.83789 7.00586C3.83789 9.02515 5.48071 10.668 7.5 10.668C7.84104 10.668 8.17896 10.621 8.50436 10.5284C8.81561 10.4398 8.99607 10.1157 8.90751 9.80441C8.81889 9.49319 8.4948 9.31267 8.18353 9.40129C7.96251 9.46419 7.73253 9.49609 7.5 9.49609C6.12688 9.49609 5.00977 8.37897 5.00977 7.00586C5.00977 5.63274 6.12688 4.51562 7.5 4.51562C8.87312 4.51562 9.99023 5.63274 9.99023 7.00586C9.99023 7.25017 9.95508 7.49131 9.88573 7.72255C9.79277 8.03251 9.9687 8.35914 10.2787 8.4521C10.5887 8.545 10.9152 8.36916 11.0082 8.05917C11.1103 7.71865 11.1621 7.36428 11.1621 7.00586C11.1621 4.98657 9.51929 3.34375 7.5 3.34375Z" fill="#FCFBFB"/>
<path d="M11.7444 2.75676C10.6103 1.62391 9.10289 1 7.49991 1C5.8969 1 4.38955 1.62391 3.25547 2.75679C2.1215 3.88958 1.49599 5.39608 1.49414 7.00009C1.49528 8.16771 1.8196 9.26318 2.48558 10.3492C3.06229 11.2895 3.81149 12.11 4.60468 12.9786C5.38242 13.8303 6.18659 14.7111 6.82884 15.7271C6.93621 15.897 7.12318 16 7.32413 16H7.67569C7.87664 16 8.06361 15.897 8.17099 15.7271C8.81323 14.711 9.6174 13.8303 10.3951 12.9786C11.1883 12.11 11.9375 11.2895 12.5142 10.3491C13.1803 9.26315 13.5045 8.16766 13.5057 6.9988C13.5039 5.39605 12.8783 3.88955 11.7444 2.75676ZM9.52978 12.1884C8.83825 12.9457 8.12672 13.725 7.49991 14.6212C6.87314 13.725 6.16157 12.9457 5.47005 12.1884C3.96656 10.5419 2.66807 9.11992 2.66602 7.00018C2.66906 4.33785 4.83756 2.17188 7.49991 2.17188C10.1623 2.17188 12.3308 4.33785 12.3338 6.99892C12.3318 9.11992 11.0333 10.5419 9.52978 12.1884Z" fill="#FCFBFB"/>
</svg>
