<svg width="16" height="24" viewBox="0 0 16 24" fill="none" xmlns="http://www.w3.org/2000/svg">
<g opacity="0.7">
<path d="M4.6 9.74922C4.6 9.63331 4.63798 9.54837 4.69357 9.49279C4.74915 9.4372 4.83409 9.39922 4.95 9.39922H11.9C12.0159 9.39922 12.1009 9.4372 12.1564 9.49279C12.212 9.54837 12.25 9.63331 12.25 9.74922C12.25 9.86513 12.212 9.95007 12.1564 10.0057C12.1009 10.0612 12.0159 10.0992 11.9 10.0992H4.95C4.77293 10.0992 4.6 9.9568 4.6 9.74922Z" fill="#53555A"/>
<path d="M11.9 13.3492H4.95C4.77293 13.3492 4.6 13.2068 4.6 12.9992C4.6 12.8833 4.63798 12.7984 4.69357 12.7428C4.74915 12.6872 4.83409 12.6492 4.95 12.6492H11.9C12.0159 12.6492 12.1009 12.6872 12.1564 12.7428C12.212 12.7984 12.25 12.8833 12.25 12.9992C12.25 13.1151 12.212 13.2001 12.1564 13.2557C12.1009 13.3112 12.0159 13.3492 11.9 13.3492Z" fill="#53555A"/>
<path d="M9.05 16.5492H4.95C4.77293 16.5492 4.6 16.4068 4.6 16.1992C4.6 16.0833 4.63798 15.9984 4.69357 15.9428C4.74915 15.8872 4.83409 15.8492 4.95 15.8492H9.05C9.16591 15.8492 9.25085 15.8872 9.30644 15.9428C9.36202 15.9984 9.4 16.0833 9.4 16.1992C9.4 16.3151 9.36202 16.4001 9.30644 16.4557C9.25085 16.5112 9.16591 16.5492 9.05 16.5492Z" fill="#53555A"/>
<path fill-rule="evenodd" clip-rule="evenodd" d="M7.65 20.8492H2.6C1.73284 20.8492 1 20.1164 1 19.2492V3.79922C1 2.93206 1.73284 2.19922 2.6 2.19922H12.3833L12.385 2.20047C12.3915 2.20531 12.3995 2.21221 12.4099 2.22193C12.4203 2.23171 12.4311 2.24246 12.4439 2.25528L15.8955 5.50687C15.9701 5.58147 16 5.62402 16 5.76019V13.2992V19.2492C16 20.114 15.115 20.8492 14.2525 20.8492H7.65ZM11.7936 6.05565C11.8491 6.11124 11.9341 6.14922 12.05 6.14922H15.15V13.5073V19.2492C15.15 19.7315 14.7325 20.1492 14.2525 20.1492H7.65H2.6C2.11716 20.1492 1.7 19.7321 1.7 19.2492V3.79922C1.7 3.31638 2.11716 2.89922 2.6 2.89922H11.7V5.79922C11.7 5.91513 11.738 6.00007 11.7936 6.05565ZM12.45 5.44922V3.29532L14.2561 5.04314L14.6621 5.44922H12.45Z" fill="#53555A"/>
</g>
</svg>
