<svg width="64" height="19" viewBox="0 0 64 19" fill="none" xmlns="http://www.w3.org/2000/svg">
<g opacity="0.5">
<path d="M7.5 3.34375C5.48071 3.34375 3.83789 4.98657 3.83789 7.00586C3.83789 9.02515 5.48071 10.668 7.5 10.668C7.84104 10.668 8.17896 10.621 8.50436 10.5284C8.81561 10.4398 8.99607 10.1157 8.90751 9.80441C8.81889 9.49319 8.4948 9.31267 8.18353 9.40129C7.96251 9.46419 7.73253 9.49609 7.5 9.49609C6.12688 9.49609 5.00977 8.37897 5.00977 7.00586C5.00977 5.63274 6.12688 4.51562 7.5 4.51562C8.87312 4.51562 9.99023 5.63274 9.99023 7.00586C9.99023 7.25017 9.95508 7.49131 9.88573 7.72255C9.79277 8.03251 9.9687 8.35914 10.2787 8.4521C10.5887 8.545 10.9152 8.36916 11.0082 8.05917C11.1103 7.71865 11.1621 7.36428 11.1621 7.00586C11.1621 4.98657 9.51929 3.34375 7.5 3.34375Z" fill="#FCFBFB"/>
<path d="M11.7444 2.75676C10.6103 1.62391 9.10289 1 7.49991 1C5.8969 1 4.38955 1.62391 3.25547 2.75679C2.1215 3.88958 1.49599 5.39608 1.49414 7.00009C1.49528 8.16771 1.8196 9.26318 2.48558 10.3492C3.06229 11.2895 3.81149 12.11 4.60468 12.9786C5.38242 13.8303 6.18659 14.7111 6.82884 15.7271C6.93621 15.897 7.12318 16 7.32413 16H7.67569C7.87664 16 8.06361 15.897 8.17099 15.7271C8.81323 14.711 9.6174 13.8303 10.3951 12.9786C11.1883 12.11 11.9375 11.2895 12.5142 10.3491C13.1803 9.26315 13.5045 8.16766 13.5057 6.9988C13.5039 5.39605 12.8783 3.88955 11.7444 2.75676ZM9.52978 12.1884C8.83825 12.9457 8.12672 13.725 7.49991 14.6212C6.87314 13.725 6.16157 12.9457 5.47005 12.1884C3.96656 10.5419 2.66807 9.11992 2.66602 7.00018C2.66906 4.33785 4.83756 2.17188 7.49991 2.17188C10.1623 2.17188 12.3308 4.33785 12.3338 6.99892C12.3318 9.11992 11.0333 10.5419 9.52978 12.1884Z" fill="#FCFBFB"/>
</g>
<g opacity="0.5">
<path d="M61.0962 4.90379C59.8685 3.67613 58.2362 3 56.5 3C54.7638 3 53.1315 3.67613 51.9038 4.90379C50.6761 6.1315 50 7.76379 50 9.5C50 11.2362 50.6761 12.8685 51.9038 14.0962C53.1315 15.3239 54.7638 16 56.5 16C57.6886 16 58.8516 15.6761 59.8633 15.0633C60.1032 14.918 60.1798 14.6057 60.0345 14.3658C59.8892 14.1259 59.5769 14.0493 59.3371 14.1946C58.4841 14.7113 57.5031 14.9844 56.5 14.9844C53.4759 14.9844 51.0156 12.5241 51.0156 9.5C51.0156 6.4759 53.4759 4.01562 56.5 4.01562C59.5241 4.01562 61.9844 6.4759 61.9844 9.5C61.9844 10.5814 61.6628 11.6339 61.0544 12.544C60.8985 12.7771 60.9612 13.0925 61.1943 13.2483C61.4275 13.4042 61.7428 13.3416 61.8987 13.1084C62.6192 12.0308 63 10.783 63 9.5C63 7.76379 62.3239 6.1315 61.0962 4.90379Z" fill="#FCFBFB"/>
<path d="M56.5001 4.92969C56.2196 4.92969 55.9923 5.15704 55.9923 5.4375V9.28966L54.1302 11.1518C53.9319 11.3501 53.9319 11.6716 54.1302 11.8699C54.2293 11.9691 54.3593 12.0186 54.4893 12.0186C54.6192 12.0186 54.7492 11.9691 54.8483 11.8699L56.8592 9.85907C56.9544 9.76386 57.0079 9.63467 57.0079 9.5V5.4375C57.0079 5.15704 56.7806 4.92969 56.5001 4.92969Z" fill="#FCFBFB"/>
</g>
<g opacity="0.5">
<path d="M46.4531 11.9079C46.7552 11.9079 47 11.6789 47 11.3964V8.04604C47 6.91785 46.0187 6 44.8125 6H35.1875C33.9813 6 33 6.91785 33 8.04604V13.954C33 15.0821 33.9813 16 35.1875 16H44.8125C46.0187 16 47 15.0821 47 13.954C47 13.6715 46.7552 13.4425 46.4531 13.4425C46.1511 13.4425 45.9062 13.6715 45.9062 13.954C45.9062 14.5181 45.4156 14.977 44.8125 14.977H35.1875C34.5844 14.977 34.0938 14.5181 34.0938 13.954V8.15442L38.8449 10.9177C39.2011 11.1249 39.6006 11.2285 40 11.2285C40.3994 11.2285 40.7989 11.1249 41.1551 10.9177L45.9062 8.15442V11.3964C45.9062 11.6789 46.1511 11.9079 46.4531 11.9079ZM40.5776 10.049C40.2213 10.2561 39.7787 10.2562 39.4224 10.049L34.5501 7.21514C34.7297 7.09427 34.9499 7.02302 35.1875 7.02302H44.8125C45.0501 7.02302 45.2703 7.0943 45.4499 7.21517L40.5776 10.049Z" fill="#FCFBFB"/>
</g>
<g opacity="0.5" clip-path="url(#clip0_1030_891)">
<path d="M30.9985 15.0865C30.9776 14.5062 30.7359 13.9648 30.318 13.5618C29.4997 12.7727 28.8141 12.3172 28.1604 12.1283C27.2596 11.868 26.4253 12.1047 25.6806 12.8319C25.6795 12.833 25.6784 12.8341 25.6773 12.8352L24.8851 13.6215C24.39 13.3424 23.4273 12.7297 22.3872 11.6896L22.3101 11.6125C21.2699 10.5723 20.6571 9.60939 20.3783 9.11486L21.1646 8.32264C21.1657 8.32153 21.1668 8.32041 21.168 8.31927C21.8951 7.57472 22.1319 6.74041 21.8716 5.83956C21.6826 5.18585 21.2271 4.50025 20.4381 3.68196C20.0351 3.2641 19.4937 3.0224 18.9135 3.00148C18.3329 2.98053 17.7758 3.18262 17.3437 3.57045L17.3269 3.58557C17.3191 3.59257 17.3115 3.59981 17.304 3.60722C16.4439 4.46735 15.993 5.67148 16.0001 7.08948C16.0121 9.49833 17.336 12.2531 19.5415 14.4585C19.9573 14.8743 20.43 15.2859 20.9462 15.6818C21.203 15.8786 21.5708 15.8301 21.7677 15.5733C21.9647 15.3165 21.9161 14.9487 21.6593 14.7518C21.1836 14.3871 20.7499 14.0096 20.3701 13.6299C18.378 11.6378 17.1824 9.19065 17.1719 7.08365C17.1665 5.99158 17.495 5.08006 18.1221 4.44649L18.1265 4.44245C18.5524 4.06015 19.1972 4.08341 19.5945 4.49541C21.1115 6.0686 21.0017 6.8113 20.3314 7.49867L19.2452 8.59296C19.0749 8.76458 19.0274 9.02322 19.1258 9.24412C19.1534 9.30605 19.8204 10.7801 21.4817 12.4413L21.5588 12.5184C23.2199 14.1795 24.694 14.8465 24.7559 14.8741C24.9767 14.9725 25.2354 14.925 25.407 14.7547L26.5013 13.6685C27.1888 12.9982 27.9315 12.8884 29.5046 14.4053C29.9166 14.8026 29.9399 15.4474 29.5577 15.8733L29.5535 15.8779C28.9251 16.4998 28.0233 16.8281 26.9431 16.8281C26.9342 16.8281 26.9253 16.8281 26.9164 16.828C26.053 16.8237 25.0531 16.587 24.0251 16.1436C23.728 16.0154 23.3832 16.1523 23.255 16.4495C23.1268 16.7467 23.2638 17.0914 23.561 17.2196C24.7493 17.7322 25.8762 17.9947 26.9105 17.9999C26.9215 17.9999 26.9324 17.9999 26.9434 17.9999C28.3471 17.9999 29.5393 17.5494 30.3928 16.6959C30.4002 16.6885 30.4074 16.6809 30.4144 16.6731L30.4296 16.6562C30.8174 16.2241 31.0195 15.6667 30.9985 15.0865Z" fill="#FCFBFB"/>
</g>
<defs>
<clipPath id="clip0_1030_891">
<rect width="15" height="18" fill="white" transform="translate(16)"/>
</clipPath>
</defs>
</svg>
