<svg width="83" height="82" viewBox="0 0 83 82" fill="none" xmlns="http://www.w3.org/2000/svg">
<path fill-rule="evenodd" clip-rule="evenodd" d="M41.9876 72C59.1033 72 72.9783 58.1208 72.9783 41C72.9783 23.8792 59.1033 10 41.9876 10C24.8719 10 10.9969 23.8792 10.9969 41C10.9969 58.1208 24.8719 72 41.9876 72ZM41.9876 75C60.7596 75 75.9774 59.7777 75.9774 41C75.9774 22.2223 60.7596 7 41.9876 7C23.2155 7 7.9978 22.2223 7.9978 41C7.9978 59.7777 23.2155 75 41.9876 75Z" fill="url(#paint0_linear_859_13569)"/>
<path d="M77.0844 26.458C78.6099 30.142 79.5438 34.0373 79.8576 38L79.9761 41H82.9752C82.9752 39.9975 82.9385 38.9969 82.8654 38C82.5458 33.6428 81.5315 29.3582 79.8552 25.31C77.7954 20.3356 74.7763 15.8158 70.9702 12.0086C67.1642 8.20142 62.6457 5.18138 57.6728 3.12094C53.6259 1.44413 49.3425 0.429572 44.9866 0.109901C43.9901 0.0367639 42.9897 0 41.9875 0V3L44.9866 3.1186C48.9482 3.43243 52.8423 4.36663 56.5251 5.89258C61.1341 7.80226 65.322 10.6013 68.8495 14.1299C72.3771 17.6586 75.1753 21.8477 77.0844 26.458Z" fill="url(#paint1_linear_859_13569)"/>
<defs>
<linearGradient id="paint0_linear_859_13569" x1="75.9774" y1="7" x2="7.97737" y2="74.9796" gradientUnits="userSpaceOnUse">
<stop stop-color="#FC1212"/>
<stop offset="0.515625" stop-color="#FFA7A7"/>
</linearGradient>
<linearGradient id="paint1_linear_859_13569" x1="82.9752" y1="0" x2="0.975227" y2="81.9753" gradientUnits="userSpaceOnUse">
<stop stop-color="#FC1212"/>
<stop offset="0.515625" stop-color="#FFA7A7"/>
</linearGradient>
</defs>
</svg>
