<svg width="169" height="41" viewBox="0 0 169 41" fill="none" xmlns="http://www.w3.org/2000/svg">
<path d="M61.408 5.528H58.46C58.152 3.988 57.2793 3.218 55.842 3.218C54.0233 3.218 53.114 4.58933 53.114 7.332V9.488C53.114 12.2307 54.0233 13.602 55.842 13.602C56.59 13.602 57.1693 13.4187 57.58 13.052C57.9907 12.6853 58.284 12.0987 58.46 11.292H61.386C60.902 14.5627 59.054 16.198 55.842 16.198C54.0087 16.198 52.5787 15.6333 51.552 14.504C50.54 13.36 50.034 11.688 50.034 9.488V7.332C50.034 5.11733 50.54 3.44533 51.552 2.316C52.5787 1.18667 54.0087 0.621999 55.842 0.621999C57.3967 0.621999 58.6507 1.04 59.604 1.876C60.5573 2.69733 61.1587 3.91467 61.408 5.528ZM62.127 7.376V5H71.367V7.376H68.133V16H65.339V7.376H62.127ZM72.9712 15.296C72.2819 14.68 71.9372 13.8293 71.9372 12.744C71.9372 11.6587 72.3039 10.83 73.0372 10.258C73.7706 9.686 74.7606 9.4 76.0072 9.4H78.1852V8.762C78.1852 8.13133 78.0532 7.706 77.7892 7.486C77.5252 7.25133 77.0046 7.134 76.2272 7.134C75.6552 7.134 75.2226 7.19267 74.9292 7.31C74.6359 7.42733 74.3792 7.662 74.1592 8.014L72.1792 6.628C72.5752 5.968 73.1032 5.49867 73.7632 5.22C74.4379 4.94133 75.3472 4.802 76.4912 4.802C78.0459 4.802 79.1752 5.10267 79.8792 5.704C80.5832 6.30533 80.9352 7.332 80.9352 8.784V16H78.1852V15.032C77.7159 15.8093 76.9239 16.198 75.8092 16.198C74.6212 16.198 73.6752 15.8973 72.9712 15.296ZM78.1852 11.886V11.468H76.3372C75.2372 11.468 74.6872 11.8787 74.6872 12.7C74.6872 13.5213 75.2226 13.932 76.2932 13.932C76.9532 13.932 77.4299 13.778 77.7232 13.47C78.0312 13.1473 78.1852 12.6193 78.1852 11.886ZM84.0665 8.63V5H92.3605V16H89.5665V7.376H86.7285V9.928C86.7285 11.0573 86.6771 11.9007 86.5745 12.458C86.4865 13.0447 86.3105 13.602 86.0465 14.13C85.3571 15.45 84.0885 16.154 82.2405 16.242V13.778C83.0031 13.558 83.5018 13.118 83.7365 12.458C83.9565 11.8567 84.0665 10.5807 84.0665 8.63ZM94.5947 16V5H97.4107V8.784H99.0827C102.177 8.784 103.725 9.97933 103.725 12.37C103.725 13.5433 103.351 14.4453 102.603 15.076C101.855 15.692 100.755 16 99.3027 16H94.5947ZM98.8847 11.16H97.4107V13.624H99.1487C100.19 13.624 100.711 13.206 100.711 12.37C100.711 11.5633 100.102 11.16 98.8847 11.16ZM105.711 0.819999H108.791V13.404H114.291V0.819999H117.371V13.404H119.571V18.86H116.777V16H105.711V0.819999ZM127.466 12.876L129.556 14.328C128.837 15.5747 127.495 16.198 125.53 16.198C123.975 16.198 122.773 15.7507 121.922 14.856C121.071 13.9467 120.646 12.7367 120.646 11.226V9.73C120.646 8.11667 121.035 6.892 121.812 6.056C122.589 5.22 123.711 4.802 125.178 4.802C128.199 4.802 129.71 6.518 129.71 9.95V11.204H123.44C123.469 12.9493 124.159 13.822 125.508 13.822C126.036 13.822 126.432 13.756 126.696 13.624C126.975 13.4773 127.231 13.228 127.466 12.876ZM126.894 9.202C126.821 7.85267 126.256 7.178 125.2 7.178C124.144 7.178 123.557 7.85267 123.44 9.202H126.894ZM131.741 5H134.557V9.18H138.011V5H140.827V16H138.011V11.578H134.557V16H131.741V5ZM141.941 7.376V5H151.181V7.376H147.947V16H145.153V7.376H141.941ZM161.828 9.73V11.226C161.828 12.7073 161.454 13.91 160.706 14.834C159.972 15.7433 158.916 16.198 157.538 16.198C156.438 16.198 155.631 15.9853 155.118 15.56V20.18H152.302V5H155.118V5.726C155.66 5.11 156.474 4.802 157.56 4.802C158.865 4.802 159.899 5.242 160.662 6.122C161.439 6.98733 161.828 8.19 161.828 9.73ZM157.076 13.822C158.366 13.822 159.012 12.898 159.012 11.05V9.906C159.012 8.08733 158.366 7.178 157.076 7.178C155.77 7.178 155.118 8.00667 155.118 9.664V11.05C155.118 11.974 155.264 12.6707 155.558 13.14C155.866 13.5947 156.372 13.822 157.076 13.822Z" fill="#F3F3F3"/>
<path d="M50.116 24.545V22.79H54.274V29H53.014V23.861H51.376V24.545C51.376 25.517 51.352 26.243 51.304 26.723C51.256 27.191 51.178 27.563 51.07 27.839C50.8 28.553 50.149 28.967 49.117 29.081V27.767C49.543 27.683 49.813 27.491 49.927 27.191C50.053 26.867 50.116 25.985 50.116 24.545ZM57.0307 27.821L56.6527 29H55.3027L57.4627 22.79H58.6687L60.8287 29H59.4877L59.1097 27.821H57.0307ZM58.7677 26.759L58.0657 24.572L57.3637 26.759H58.7677ZM63.7589 26.309H63.1019V25.247H63.7769C64.4369 25.247 64.7669 24.995 64.7669 24.491C64.7669 24.005 64.4579 23.762 63.8399 23.762C63.5399 23.762 63.3029 23.825 63.1289 23.951C62.9609 24.071 62.8289 24.26 62.7329 24.518H61.6259C61.6799 23.978 61.9199 23.54 62.3459 23.204C62.7659 22.874 63.2789 22.709 63.8849 22.709C64.4909 22.709 64.9979 22.853 65.4059 23.141C65.8199 23.429 66.0269 23.84 66.0269 24.374C66.0269 24.962 65.7569 25.415 65.2169 25.733C65.8889 26.009 66.2249 26.504 66.2249 27.218C66.2249 27.794 66.0149 28.25 65.5949 28.586C65.1809 28.916 64.6079 29.081 63.8759 29.081C62.4839 29.081 61.6709 28.454 61.4369 27.2H62.6429C62.7569 27.488 62.9039 27.698 63.0839 27.83C63.2699 27.956 63.5189 28.019 63.8309 28.019C64.5869 28.019 64.9649 27.734 64.9649 27.164C64.9649 26.594 64.5629 26.309 63.7589 26.309ZM67.5821 29V22.79H71.4521V23.861H68.8421V25.256H71.1821V26.318H68.8421V27.938H71.4521V29H67.5821ZM75.0012 26.813H74.0382V29H72.7782V22.79H75.0012C75.7392 22.79 76.3092 22.961 76.7112 23.303C77.1192 23.639 77.3232 24.131 77.3232 24.779C77.3232 25.421 77.1162 25.922 76.7022 26.282C76.2942 26.636 75.7272 26.813 75.0012 26.813ZM74.0382 23.861V25.751H74.8212C75.2532 25.751 75.5682 25.673 75.7662 25.517C75.9642 25.361 76.0632 25.115 76.0632 24.779C76.0632 24.167 75.6492 23.861 74.8212 23.861H74.0382ZM78.5368 22.79H79.7968V25.256H81.9478V22.79H83.2078V29H81.9478V26.318H79.7968V29H78.5368V22.79ZM85.9731 27.821L85.5951 29H84.2451L86.4051 22.79H87.6111L89.7711 29H88.4301L88.0521 27.821H85.9731ZM87.7101 26.759L87.0081 24.572L86.3061 26.759H87.7101ZM93.0494 26.561L91.7624 29H90.3764L91.8164 26.399C91.0244 26.117 90.6284 25.541 90.6284 24.671C90.6284 24.059 90.8324 23.594 91.2404 23.276C91.6544 22.952 92.2334 22.79 92.9774 22.79H95.1734V29H93.9134V26.561H93.0494ZM93.0674 25.499H93.9134V23.861H93.0674C92.6594 23.861 92.3594 23.924 92.1674 24.05C91.9814 24.176 91.8884 24.383 91.8884 24.671C91.8884 24.965 91.9754 25.178 92.1494 25.31C92.3234 25.436 92.6294 25.499 93.0674 25.499ZM101.773 26.813H100.81V29H99.5497V22.79H101.773C102.511 22.79 103.081 22.961 103.483 23.303C103.891 23.639 104.095 24.131 104.095 24.779C104.095 25.421 103.888 25.922 103.474 26.282C103.066 26.636 102.499 26.813 101.773 26.813ZM100.81 23.861V25.751H101.593C102.025 25.751 102.34 25.673 102.538 25.517C102.736 25.361 102.835 25.115 102.835 24.779C102.835 24.167 102.421 23.861 101.593 23.861H100.81ZM105.308 29V22.79H109.178V23.861H106.568V25.256H108.908V26.318H106.568V27.938H109.178V29H105.308ZM112.457 26.309H111.8V25.247H112.475C113.135 25.247 113.465 24.995 113.465 24.491C113.465 24.005 113.156 23.762 112.538 23.762C112.238 23.762 112.001 23.825 111.827 23.951C111.659 24.071 111.527 24.26 111.431 24.518H110.324C110.378 23.978 110.618 23.54 111.044 23.204C111.464 22.874 111.977 22.709 112.583 22.709C113.189 22.709 113.696 22.853 114.104 23.141C114.518 23.429 114.725 23.84 114.725 24.374C114.725 24.962 114.455 25.415 113.915 25.733C114.587 26.009 114.923 26.504 114.923 27.218C114.923 27.794 114.713 28.25 114.293 28.586C113.879 28.916 113.306 29.081 112.574 29.081C111.182 29.081 110.369 28.454 110.135 27.2H111.341C111.455 27.488 111.602 27.698 111.782 27.83C111.968 27.956 112.217 28.019 112.529 28.019C113.285 28.019 113.663 27.734 113.663 27.164C113.663 26.594 113.261 26.309 112.457 26.309ZM119.179 25.796L121.159 29H119.665L118.072 26.408H117.541V29H116.281V22.79H117.541V25.346H118.045L119.467 22.79H120.853L119.179 25.796ZM123.479 27.821L123.101 29H121.751L123.911 22.79H125.117L127.277 29H125.936L125.558 27.821H123.479ZM125.216 26.759L124.514 24.572L123.812 26.759H125.216ZM131.016 29V22.79H132.276V26.687L134.868 22.79H135.876V29H134.616V25.148L132.051 29H131.016ZM140.248 22.79H144.055V23.861H141.508V29H140.248V22.79ZM145.119 29V22.79H146.379V26.687L148.971 22.79H149.979V29H148.719V25.148L146.154 29H145.119ZM151.651 22.79H155.737V23.861H152.911V25.067H153.874C154.63 25.067 155.206 25.244 155.602 25.598C155.998 25.952 156.196 26.429 156.196 27.029C156.196 27.629 155.998 28.109 155.602 28.469C155.206 28.823 154.63 29 153.874 29H151.651V22.79ZM153.802 26.129H152.911V27.938H153.802C154.558 27.938 154.936 27.635 154.936 27.029C154.936 26.429 154.558 26.129 153.802 26.129ZM160.361 25.796L162.341 29H160.847L159.254 26.408H158.723V29H157.463V22.79H158.723V25.346H159.227L160.649 22.79H162.035L160.361 25.796ZM164.662 27.821L164.284 29H162.934L165.094 22.79H166.3L168.46 29H167.119L166.741 27.821H164.662ZM166.399 26.759L165.697 24.572L164.995 26.759H166.399ZM49.612 33.79H50.791L52.537 37.174L54.265 33.79H55.462V40H54.256V36.148L52.906 38.884H52.141L50.809 36.175V40H49.612V33.79ZM57.1372 40V33.79H61.0072V34.861H58.3972V36.256H60.7372V37.318H58.3972V38.938H61.0072V40H57.1372ZM61.7933 34.861V33.79H66.4733V34.861H64.7633V40H63.5033V34.861H61.7933ZM68.3545 38.821L67.9765 40H66.6265L68.7865 33.79H69.9925L72.1525 40H70.8115L70.4335 38.821H68.3545ZM70.0915 37.759L69.3895 35.572L68.6875 37.759H70.0915ZM73.8096 35.545V33.79H77.9676V40H76.7076V34.861H75.0696V35.545C75.0696 36.517 75.0456 37.243 74.9976 37.723C74.9496 38.191 74.8716 38.563 74.7636 38.839C74.4936 39.553 73.8426 39.967 72.8106 40.081V38.767C73.2366 38.683 73.5066 38.491 73.6206 38.191C73.7466 37.867 73.8096 36.985 73.8096 35.545ZM80.1482 35.545V33.79H84.3062V40H83.0462V34.861H81.4082V35.545C81.4082 36.517 81.3842 37.243 81.3362 37.723C81.2882 38.191 81.2102 38.563 81.1022 38.839C80.8322 39.553 80.1812 39.967 79.1492 40.081V38.767C79.5752 38.683 79.8452 38.491 79.9592 38.191C80.0852 37.867 80.1482 36.985 80.1482 35.545ZM87.0629 38.821L86.6849 40H85.3349L87.4949 33.79H88.7009L90.8609 40H89.5199L89.1419 38.821H87.0629ZM88.7999 37.759L88.0979 35.572L87.3959 37.759H88.7999Z" fill="#ECECEC"/>
<path fill-rule="evenodd" clip-rule="evenodd" d="M0 2.65217C0 1.7397 0.739703 1 1.65217 1H18.3156C18.7538 1 19.1741 1.17407 19.4839 1.48391L37.5161 19.5161C37.8259 19.8259 38 20.2462 38 20.6844V37.3478C38 38.2603 37.2603 39 36.3478 39H1.65217C0.739703 39 0 38.2603 0 37.3478V2.65217ZM10.45 16.2C13.0734 16.2 15.2 14.0733 15.2 11.45C15.2 8.82661 13.0734 6.69997 10.45 6.69997C7.82666 6.69997 5.70002 8.82661 5.70002 11.45C5.70002 14.0733 7.82666 16.2 10.45 16.2ZM15.2 28.55C15.2 31.1733 13.0734 33.3 10.45 33.3C7.82666 33.3 5.70002 31.1733 5.70002 28.55C5.70002 25.9266 7.82666 23.8 10.45 23.8C13.0734 23.8 15.2 25.9266 15.2 28.55ZM27.5499 33.3C30.1733 33.3 32.2999 31.1733 32.2999 28.55C32.2999 25.9266 30.1733 23.8 27.5499 23.8C24.9266 23.8 22.7999 25.9266 22.7999 28.55C22.7999 31.1733 24.9266 33.3 27.5499 33.3ZM20.9 20C20.9 21.0493 20.0493 21.9 19 21.9C17.9507 21.9 17.1 21.0493 17.1 20C17.1 18.9507 17.9507 18.1 19 18.1C20.0493 18.1 20.9 18.9507 20.9 20ZM2.85001 38.05C3.89936 38.05 4.75001 37.1993 4.75001 36.15C4.75001 35.1006 3.89936 34.25 2.85001 34.25C1.80067 34.25 0.950015 35.1006 0.950015 36.15C0.950015 37.1993 1.80067 38.05 2.85001 38.05ZM37.05 36.15C37.05 37.1993 36.1993 38.05 35.15 38.05C34.1006 38.05 33.25 37.1993 33.25 36.15C33.25 35.1006 34.1006 34.25 35.15 34.25C36.1993 34.25 37.05 35.1006 37.05 36.15ZM2.85004 5.74999C3.89938 5.74999 4.75004 4.89933 4.75004 3.84999C4.75004 2.80065 3.89938 1.94999 2.85004 1.94999C1.8007 1.94999 0.950044 2.80065 0.950044 3.84999C0.950044 4.89933 1.8007 5.74999 2.85004 5.74999Z" fill="#F3F3F3"/>
</svg>
