<svg width="8" height="11" viewBox="0 0 8 11" fill="none" xmlns="http://www.w3.org/2000/svg">
<path d="M7.811 2.73779C7.76967 2.59105 7.68573 2.43468 7.62363 2.29778C6.88055 0.606222 5.25694 0 3.94596 0C2.19097 0 0.25806 1.1147 0 3.41235V3.88178C0 3.90137 0.00712784 4.07734 0.0172526 4.16537C0.161915 5.26038 1.07409 6.42413 1.75534 7.51913C2.48826 8.69232 3.24878 9.8464 4.00225 11C4.46686 10.2472 4.92979 9.48447 5.38381 8.75114C5.50755 8.53593 5.65119 8.32085 5.77506 8.11543C5.85763 7.97866 6.01536 7.84189 6.08742 7.71463C6.82032 6.44359 8 5.16273 8 3.90134V3.38315C8.00003 3.2464 7.82107 2.76728 7.811 2.73779ZM3.97809 5.0943C3.46221 5.0943 2.89755 4.84996 2.61883 4.17517C2.57731 4.06775 2.58066 3.85249 2.58066 3.83277V3.52966C2.58066 2.66943 3.35176 2.27824 4.02258 2.27824C4.84844 2.27824 5.48717 2.90411 5.48717 3.68638C5.48717 4.46864 4.80395 5.0943 3.97809 5.0943Z" fill="#F52929"/>
</svg>
