<svg width="108" height="36" viewBox="0 0 108 36" fill="none" xmlns="http://www.w3.org/2000/svg">
<g opacity="0.6">
<path d="M33.9551 19.8109C33.955 19.8108 33.955 19.8107 33.9549 19.8105L27.9132 4.64025C27.785 4.31792 27.4196 4.16057 27.0973 4.28879C27.0971 4.28887 27.0968 4.28895 27.0966 4.28911L2.58608 14.049C2.48612 14.0921 2.39944 14.1611 2.33481 14.2487C2.13097 14.3546 2.0022 14.5643 2 14.794V31.1263C2 31.4733 2.28126 31.7545 2.62817 31.7545H29.0112C29.3581 31.7545 29.6394 31.4733 29.6394 31.1263V22.2064L33.6044 20.6271C33.9267 20.4986 34.0836 20.1332 33.9551 19.8109ZM28.3831 30.4982H3.25634V15.4221H28.3831V30.4982ZM12.481 14.1689L22.999 9.9778C23.9378 10.9645 25.2385 11.5253 26.6003 11.5306L27.6494 14.1689H12.481ZM29.6394 20.857V14.794C29.6394 14.4471 29.3581 14.1658 29.0112 14.1658H29.0012L27.6701 10.8227C27.6553 10.7948 27.6381 10.7683 27.6186 10.7435C27.5512 10.441 27.2711 10.2346 26.9622 10.2598C25.695 10.3754 24.4554 9.84157 23.6687 8.84144C23.4729 8.59983 23.1288 8.53977 22.8627 8.70073C22.8329 8.70427 22.8033 8.70976 22.7742 8.71707L9.93314 13.8304C9.77775 13.8913 9.65345 14.0121 9.58827 14.1658H5.68861L26.9785 5.68867L32.556 19.6937L29.6394 20.857Z" fill="#F52929"/>
<path d="M4.96023 26.2567C6.17982 26.6172 7.13417 27.5703 7.49615 28.7894C7.57553 29.0556 7.82028 29.2379 8.09793 29.238C8.13052 29.2359 8.16287 29.2311 8.19467 29.2235C8.22286 29.2315 8.25168 29.2374 8.28073 29.2411H23.3568C23.3827 29.2377 23.4083 29.2325 23.4334 29.2254C23.7473 29.3017 24.0635 29.1093 24.1399 28.7954C24.1402 28.7942 24.1405 28.7931 24.1407 28.792C24.5018 27.5716 25.4563 26.6171 26.6766 26.256C26.9726 26.1656 27.1565 25.8707 27.1076 25.5651C27.116 25.5346 27.122 25.5035 27.1258 25.4721V20.4467C27.1221 20.4153 27.1158 20.3842 27.1069 20.3538C27.1562 20.0481 26.9722 19.753 26.676 19.6628C25.4556 19.3018 24.5014 18.3469 24.1414 17.1262C24.0504 16.8283 23.7526 16.6439 23.4453 16.6953C23.4163 16.6872 23.3867 16.6813 23.3568 16.6777H8.28073C8.24909 16.6815 8.21776 16.6878 8.18713 16.6966C7.88161 16.6479 7.58684 16.8317 7.49615 17.1275C7.13487 18.3476 6.18045 19.3018 4.96023 19.6628C4.66429 19.7532 4.48039 20.0482 4.52931 20.3538C4.52114 20.3843 4.51525 20.4153 4.51172 20.4467V25.4721C4.51533 25.5016 4.52122 25.5308 4.52931 25.5594C4.4778 25.867 4.66209 26.1652 4.96023 26.2567ZM5.76806 20.7018C7.02942 20.1952 8.02915 19.1954 8.53577 17.9341H23.1011C23.608 19.1954 24.6079 20.1952 25.8694 20.7018V25.2171C24.6085 25.7242 23.6089 26.7238 23.1017 27.9848H8.53577C8.0286 26.7238 7.02903 25.7242 5.76806 25.2171V20.7018Z" fill="#F52929"/>
<path d="M15.8198 26.7294C17.9014 26.7294 19.5888 25.042 19.5888 22.9604C19.5888 20.8788 17.9014 19.1914 15.8198 19.1914C13.7382 19.1914 12.0508 20.8788 12.0508 22.9604C12.0528 25.0411 13.7391 26.7274 15.8198 26.7294ZM15.8198 20.4477C17.2075 20.4477 18.3325 21.5727 18.3325 22.9604C18.3325 24.3481 17.2075 25.4731 15.8198 25.4731C14.4321 25.4731 13.3071 24.3481 13.3071 22.9604C13.3071 21.5727 14.4321 20.4477 15.8198 20.4477Z" fill="#F52929"/>
<path d="M8.911 23.9021C9.43136 23.9021 9.85326 23.4802 9.85326 22.9598C9.85326 22.4395 9.43136 22.0176 8.911 22.0176C8.39064 22.0176 7.96875 22.4395 7.96875 22.9598C7.96875 23.4803 8.39064 23.9021 8.911 23.9021ZM8.911 22.6457C9.08446 22.6457 9.22509 22.7864 9.22509 22.9598C9.22509 23.1333 9.08446 23.2739 8.911 23.2739C8.73755 23.2739 8.59692 23.1333 8.59692 22.9598C8.59692 22.7864 8.73755 22.6457 8.911 22.6457Z" fill="#F52929"/>
<path d="M22.7294 23.9021C23.2497 23.9021 23.6716 23.4802 23.6716 22.9598C23.6716 22.4395 23.2497 22.0176 22.7294 22.0176C22.209 22.0176 21.7871 22.4395 21.7871 22.9598C21.7871 23.4803 22.209 23.9021 22.7294 23.9021ZM22.7294 22.6457C22.9028 22.6457 23.0434 22.7864 23.0434 22.9598C23.0434 23.1333 22.9028 23.2739 22.7294 23.2739C22.5559 23.2739 22.4153 23.1333 22.4153 22.9598C22.4153 22.7864 22.5559 22.6457 22.7294 22.6457Z" fill="#F52929"/>
</g>
<g opacity="0.6">
<path d="M69.4313 8.05144C69.0167 7.56132 68.4361 7.26194 67.7963 7.20851L45.2615 5.32689C44.6217 5.27345 43.9995 5.47239 43.5094 5.88695C43.0212 6.29989 42.7222 6.87757 42.6671 7.51426L42.2137 11.7677H40.4034C39.0782 11.7677 38 12.8459 38 14.1712V28.2775C38 29.6027 39.0782 30.6809 40.4034 30.6809H63.0167C64.342 30.6809 65.4201 29.6027 65.4201 28.2775V25.9892L66.2226 26.0562C66.2903 26.0618 66.3576 26.0646 66.4243 26.0646C67.6598 26.0646 68.7131 25.1141 68.8177 23.8611L69.9915 9.80368C70.0449 9.16387 69.8459 8.54163 69.4313 8.05144V8.05144ZM40.4034 13.0177H63.0167C63.6526 13.0177 64.1701 13.5352 64.1701 14.1712V15.4565H39.25V14.1712C39.25 13.5352 39.7674 13.0177 40.4034 13.0177V13.0177ZM39.25 16.7065H64.1701V19.2996H39.25V16.7065ZM63.0167 29.4309H40.4034C39.7674 29.4309 39.25 28.9135 39.25 28.2775V20.5496H64.1701V28.2775C64.1701 28.9135 63.6526 29.4309 63.0167 29.4309ZM68.7458 9.69962L67.572 23.757C67.5191 24.3908 66.9603 24.8636 66.3266 24.8105L65.4201 24.7348V14.1712C65.4201 12.8459 64.342 11.7677 63.0167 11.7677H43.4709L43.9108 7.64026C43.9113 7.63551 43.9117 7.63082 43.9121 7.62601C43.965 6.9922 44.5235 6.51945 45.1575 6.57257L67.6923 8.45419C67.9994 8.47982 68.2781 8.6235 68.477 8.85875C68.6759 9.094 68.7714 9.39256 68.7458 9.69962V9.69962Z" fill="#F52929"/>
<path d="M61.5542 22.4082H55.5391C55.1939 22.4082 54.9141 22.688 54.9141 23.0332V26.9575C54.9141 27.3027 55.1939 27.5825 55.5391 27.5825H61.5542C61.8994 27.5825 62.1792 27.3027 62.1792 26.9575V23.0332C62.1792 22.688 61.8994 22.4082 61.5542 22.4082ZM60.9292 26.3325H56.1641V23.6582H60.9292V26.3325Z" fill="#F52929"/>
</g>
<g opacity="0.6">
<path d="M89.9982 5.08984C88.4933 5.08984 87.2695 6.31366 87.2695 7.81847C87.2695 9.32328 88.4933 10.547 89.9982 10.547C91.503 10.547 92.7267 9.32322 92.7267 7.81847C92.7267 6.31373 91.5029 5.08984 89.9982 5.08984ZM89.9982 9.18343C89.2458 9.18343 88.6332 8.57088 88.6332 7.81847C88.6332 7.06607 89.2458 6.45352 89.9982 6.45352C90.7506 6.45352 91.3631 7.06607 91.3631 7.81847C91.3631 8.57088 90.7506 9.18343 89.9982 9.18343Z" fill="#F52929"/>
<path d="M104.318 13.2727C104.695 13.2727 105 12.9696 105 12.5928V9.86579C105 9.62545 104.873 9.40243 104.666 9.2799L91.3289 1.35928C91.3229 1.35525 91.3169 1.35193 91.311 1.34861C90.482 0.889212 89.5472 0.875278 88.6702 1.35794L75.3336 9.2799C75.1265 9.40237 75 9.62545 75 9.86579V12.5928C75 12.9696 75.305 13.2727 75.6818 13.2727H77.7273V25.5459C76.2231 25.5459 75 26.7689 75 28.2729V30.3182C75 30.695 75.305 30.9999 75.6818 30.9999H104.318C104.695 30.9999 105 30.695 105 30.3182V28.2729C105 26.7689 103.777 25.5459 102.273 25.5459V13.2727H104.318ZM103.636 28.2727V29.6363H76.3636V28.2727C76.3636 27.521 76.9755 26.909 77.7272 26.909H78.4091H101.591H102.273C103.024 26.909 103.636 27.5209 103.636 28.2727ZM79.0909 25.5454V13.2727H81.8182V25.5454H79.0909ZM83.1818 25.5454V13.2727H87.2727V25.5454H83.1818ZM88.6363 25.5454V13.2727H91.3636V25.5454H88.6363ZM92.7272 25.5454V13.2727H96.8181V25.5454H92.7272ZM98.1818 25.5454V13.2727H100.909V25.5454H98.1818ZM76.3636 11.9091V10.2518L89.3468 2.53874C89.7716 2.30505 90.223 2.30569 90.6425 2.53407L103.636 10.2518V11.9091H76.3636Z" fill="#F52929"/>
</g>
</svg>
