<svg width="305" height="50" viewBox="0 0 305 50" fill="none" xmlns="http://www.w3.org/2000/svg">
<path d="M57.3243 9.44258C57.2081 9.34339 57.0604 9.28889 56.9076 9.28889C56.7549 9.28889 56.6071 9.34339 56.491 9.44258C56.3737 9.55968 56.3078 9.71854 56.3076 9.88424V20.7176C56.3078 20.8833 56.3737 21.0421 56.491 21.1592C56.5474 21.217 56.6148 21.263 56.6892 21.2945C56.7636 21.326 56.8435 21.3423 56.9243 21.3426C57.0901 21.3426 57.249 21.2767 57.3662 21.1595C57.4835 21.0423 57.5493 20.8833 57.5493 20.7176V9.88424C57.5439 9.79917 57.5212 9.71611 57.4825 9.64015C57.4438 9.5642 57.3899 9.49696 57.3243 9.44258Z" fill="url(#paint0_linear_1142_537)"/>
<path d="M95.791 9.44258C95.6708 9.3313 95.5131 9.26948 95.3493 9.26948C95.1855 9.26948 95.0278 9.3313 94.9076 9.44258C94.7904 9.55968 94.7245 9.71854 94.7243 9.88424V20.7176C94.7243 20.8833 94.7902 21.0423 94.9074 21.1595C95.0246 21.2767 95.1835 21.3426 95.3493 21.3426C95.5151 21.3426 95.674 21.2767 95.7912 21.1595C95.9085 21.0423 95.9743 20.8833 95.9743 20.7176V9.88424C95.9742 9.71854 95.9082 9.55968 95.791 9.44258Z" fill="url(#paint1_linear_1142_537)"/>
<path d="M84.2076 1.47591C83.6736 0.945175 82.9522 0.64584 82.1993 0.642578C81.0802 0.644785 80.0077 1.09089 79.2172 1.88299C78.4266 2.6751 77.9826 3.74848 77.9826 4.86758V11.7592C77.9808 11.8416 77.9961 11.9234 78.0277 11.9994C78.0593 12.0755 78.1064 12.1441 78.166 12.2009C78.2224 12.2587 78.2898 12.3047 78.3642 12.3362C78.4386 12.3676 78.5185 12.384 78.5993 12.3842C78.7636 12.3843 78.9214 12.3196 79.0383 12.2041C79.1553 12.0887 79.2221 11.9319 79.2243 11.7676V4.86758C79.2237 4.47578 79.3007 4.08775 79.4509 3.72588C79.6011 3.36402 79.8215 3.03548 80.0993 2.75924C80.6573 2.20318 81.4116 1.88889 82.1993 1.88424C82.4105 1.88247 82.6199 1.92366 82.8148 2.00532C83.0096 2.08697 83.1858 2.20739 83.3326 2.35924C83.4808 2.50667 83.5984 2.68199 83.6785 2.87508C83.7586 3.06817 83.7996 3.2752 83.7993 3.48424C83.7995 3.64995 83.8654 3.80881 83.9826 3.92591C84.1019 4.03904 84.26 4.1021 84.4243 4.1021C84.5887 4.1021 84.7468 4.03904 84.866 3.92591C84.9229 3.86752 84.9677 3.79842 84.9977 3.72261C85.0278 3.64679 85.0425 3.56578 85.041 3.48424C85.0425 3.1109 84.9696 2.74099 84.8266 2.39616C84.6835 2.05132 84.4731 1.73847 84.2076 1.47591Z" fill="url(#paint2_linear_1142_537)"/>
<path d="M64.241 44.8592C64.1845 44.8014 64.1171 44.7555 64.0427 44.724C63.9683 44.6925 63.8884 44.6762 63.8076 44.6759H56.8826C56.8019 44.6762 56.7219 44.6925 56.6475 44.724C56.5731 44.7555 56.5057 44.8014 56.4493 44.8592C56.3903 44.9148 56.3436 44.982 56.312 45.0566C56.2804 45.1312 56.2648 45.2116 56.266 45.2926V48.7342C56.2641 48.8166 56.2795 48.8984 56.311 48.9744C56.3426 49.0505 56.3897 49.1191 56.4493 49.1759C56.5057 49.2337 56.5731 49.2797 56.6475 49.3112C56.7219 49.3426 56.8019 49.359 56.8826 49.3592H63.816C63.9792 49.3514 64.1337 49.283 64.2493 49.1676C64.3062 49.1092 64.351 49.0401 64.381 48.9643C64.4111 48.8885 64.4258 48.8074 64.4243 48.7259V45.2926C64.4255 45.2116 64.4098 45.1312 64.3783 45.0566C64.3467 44.982 64.2999 44.9148 64.241 44.8592ZM63.191 45.9176V48.1176H57.5076V45.9176H63.191Z" fill="url(#paint3_linear_1142_537)"/>
<path d="M95.5493 44.8592C95.4929 44.8014 95.4255 44.7555 95.3511 44.724C95.2767 44.6925 95.1968 44.6762 95.116 44.6759H88.191C88.0267 44.6759 87.8689 44.7406 87.752 44.856C87.635 44.9714 87.5682 45.1283 87.566 45.2926V48.7342C87.566 48.9 87.6318 49.059 87.749 49.1762C87.8662 49.2934 88.0252 49.3592 88.191 49.3592H95.116C95.2813 49.3573 95.4395 49.2916 95.5576 49.1759C95.6146 49.1175 95.6593 49.0484 95.6894 48.9726C95.7194 48.8968 95.7341 48.8158 95.7326 48.7342V45.2926C95.7338 45.2116 95.7182 45.1312 95.6866 45.0566C95.655 44.982 95.6083 44.9148 95.5493 44.8592ZM94.491 45.9176V48.1176H88.816V45.9176H94.491Z" fill="url(#paint4_linear_1142_537)"/>
<path d="M58.941 20.2676C58.8836 20.2088 58.8148 20.1622 58.7389 20.1307C58.663 20.0992 58.5815 20.0834 58.4993 20.0842H55.2743C55.11 20.0842 54.9523 20.1489 54.8353 20.2643C54.7183 20.3798 54.6515 20.5366 54.6493 20.7009V27.8509C54.6447 27.9398 54.6586 28.0286 54.6901 28.1119C54.7217 28.1951 54.7702 28.2708 54.8326 28.3342C54.9497 28.4515 55.1086 28.5174 55.2743 28.5176H58.4993C58.6675 28.5178 58.8291 28.452 58.9493 28.3342C59.0627 28.2153 59.1255 28.0569 59.1243 27.8926V20.7009C59.1255 20.6199 59.1098 20.5395 59.0783 20.4649C59.0467 20.3903 58.9999 20.3231 58.941 20.2676ZM55.891 27.2342V21.3259H57.8826V27.2342H55.891Z" fill="url(#paint5_linear_1142_537)"/>
<path d="M97.166 20.2676C97.0514 20.1516 96.8956 20.0857 96.7326 20.0842H93.4993C93.3364 20.0864 93.1808 20.1521 93.0656 20.2672C92.9505 20.3824 92.8848 20.538 92.8826 20.7009V27.8509C92.8808 27.9332 92.8961 28.015 92.9277 28.0911C92.9593 28.1671 93.0064 28.2358 93.066 28.2926C93.1224 28.3504 93.1898 28.3964 93.2642 28.4278C93.3386 28.4593 93.4185 28.4757 93.4993 28.4759H96.741C96.9053 28.4737 97.0621 28.4069 97.1775 28.2899C97.293 28.173 97.3577 28.0152 97.3576 27.8509V20.7009C97.3563 20.6195 97.3387 20.5393 97.3057 20.4648C97.2728 20.3904 97.2253 20.3233 97.166 20.2676ZM96.1076 21.3259V27.2342H94.116V21.3259H96.1076Z" fill="url(#paint6_linear_1142_537)"/>
<path d="M97.166 27.4092C97.1088 27.3529 97.0411 27.3085 96.9668 27.2785C96.8924 27.2484 96.8128 27.2334 96.7326 27.2342H55.2743C55.1928 27.2328 55.1118 27.2475 55.0359 27.2775C54.9601 27.3075 54.891 27.3523 54.8326 27.4092C54.7169 27.5273 54.6512 27.6856 54.6493 27.8509L54.6493 30.5676C54.6493 30.7333 54.7152 30.8923 54.8324 31.0095C54.9496 31.1267 55.1085 31.1926 55.2743 31.1926H96.7326C96.897 31.1904 97.0538 31.1236 97.1692 31.0066C97.2846 30.8896 97.3493 30.7319 97.3493 30.5676V27.8509C97.3492 27.6852 97.2832 27.5263 97.166 27.4092ZM96.1076 28.4759V29.9509H55.891V28.4759H96.1076Z" fill="url(#paint7_linear_1142_537)"/>
<path d="M95.791 11.3259C95.6739 11.2087 95.515 11.1427 95.3493 11.1426H86.666C86.5002 11.1426 86.3412 11.2084 86.224 11.3256C86.1068 11.4428 86.041 11.6018 86.041 11.7676C86.0412 11.8484 86.0576 11.9283 86.089 12.0027C86.1205 12.0771 86.1665 12.1445 86.2243 12.2009C86.3414 12.3182 86.5003 12.3841 86.666 12.3842H94.7243V16.6676H86.666C86.5002 16.6676 86.3412 16.7334 86.224 16.8506C86.1068 16.9678 86.041 17.1268 86.041 17.2926C86.0412 17.3734 86.0576 17.4533 86.089 17.5277C86.1205 17.6021 86.1665 17.6695 86.2243 17.7259C86.3414 17.8432 86.5003 17.9091 86.666 17.9092H95.3493C95.5133 17.9087 95.6711 17.8462 95.791 17.7342C95.9067 17.6161 95.9724 17.4579 95.9743 17.2926V11.7676C95.9742 11.6019 95.9082 11.443 95.791 11.3259Z" fill="url(#paint8_linear_1142_537)"/>
<path d="M82.616 16.8592C82.5014 16.7433 82.3456 16.6774 82.1826 16.6759H57.5076V11.7676C57.5075 11.6019 57.4416 11.443 57.3243 11.3259C57.2089 11.2251 57.0609 11.1695 56.9076 11.1695C56.7544 11.1695 56.6064 11.2251 56.491 11.3259C56.3737 11.443 56.3078 11.6019 56.3076 11.7676V17.3009C56.3098 17.4638 56.3755 17.6194 56.4906 17.7346C56.6058 17.8498 56.7614 17.9154 56.9243 17.9176H82.1826C82.3456 17.9161 82.5014 17.8502 82.616 17.7342C82.6738 17.6778 82.7198 17.6104 82.7512 17.536C82.7827 17.4616 82.7991 17.3817 82.7993 17.3009C82.7992 17.1352 82.7332 16.9763 82.616 16.8592Z" fill="url(#paint9_linear_1142_537)"/>
<path d="M87.0993 6.49258C86.9848 6.3766 86.829 6.31068 86.666 6.30925H82.1826C82.0186 6.30976 81.8608 6.37227 81.741 6.48425C81.6275 6.60318 81.5648 6.76156 81.566 6.92591V18.7009C81.5647 18.7812 81.5795 18.8609 81.6096 18.9353C81.6396 19.0098 81.6843 19.0774 81.741 19.1342C81.8581 19.2515 82.0169 19.3174 82.1826 19.3176H86.666C86.7463 19.3169 86.8257 19.2999 86.8993 19.2676C86.9779 19.2393 87.049 19.1937 87.1076 19.1342C87.1624 19.0751 87.2074 19.0076 87.241 18.9342C87.2527 18.8541 87.2527 18.7727 87.241 18.6926V6.92591C87.2517 6.76856 87.2009 6.6132 87.0993 6.49258ZM86.041 7.55091V18.0759H82.8076V7.55091H86.041Z" fill="url(#paint10_linear_1142_537)"/>
<path d="M87.0993 3.18424C86.9816 3.07421 86.8271 3.01184 86.666 3.00924H82.1826C82.0186 3.00976 81.8608 3.07227 81.741 3.18424C81.684 3.24264 81.6393 3.31174 81.6092 3.38755C81.5792 3.46336 81.5645 3.54438 81.566 3.62591V6.95925C81.5645 7.04078 81.5792 7.1218 81.6092 7.19761C81.6393 7.27342 81.684 7.34252 81.741 7.40091C81.8581 7.51816 82.0169 7.5841 82.1826 7.58425H86.666C86.7488 7.57325 86.8283 7.54485 86.8993 7.50091C86.9772 7.46754 87.048 7.41944 87.1076 7.35925C87.1641 7.30145 87.2093 7.23362 87.241 7.15925C87.2529 7.08192 87.2529 7.00323 87.241 6.92591L87.241 3.59258C87.2438 3.44395 87.1936 3.29918 87.0993 3.18424ZM86.041 4.25091V6.30925H82.8076V4.25091H86.041Z" fill="url(#paint11_linear_1142_537)"/>
<path d="M85.9993 18.2592C85.8822 18.142 85.7233 18.0761 85.5576 18.0759H83.441C83.2769 18.0764 83.1192 18.1389 82.9993 18.2509C82.8821 18.368 82.8161 18.5269 82.816 18.6926V21.9342C82.816 22.1 82.8818 22.259 82.999 22.3762C83.1162 22.4934 83.2752 22.5592 83.441 22.5592H85.5493C85.7122 22.5571 85.8678 22.4914 85.983 22.3762C86.0982 22.2611 86.1638 22.1055 86.166 21.9426V18.6926C86.169 18.5319 86.1092 18.3765 85.9993 18.2592ZM84.941 19.3176V21.3176H84.1076V19.3176H84.941Z" fill="url(#paint12_linear_1142_537)"/>
<path d="M95.5493 30.1342C95.4929 30.0764 95.4255 30.0305 95.3511 29.999C95.2767 29.9675 95.1968 29.9512 95.116 29.9509H56.8826C56.7198 29.9531 56.5642 30.0187 56.449 30.1339C56.3338 30.2491 56.2681 30.4047 56.266 30.5676V45.2926C56.2661 45.4583 56.3321 45.6171 56.4493 45.7342C56.5057 45.792 56.5731 45.838 56.6475 45.8695C56.7219 45.901 56.8019 45.9173 56.8826 45.9176H95.116C95.1968 45.9173 95.2767 45.901 95.3511 45.8695C95.4255 45.838 95.4929 45.792 95.5493 45.7342C95.665 45.6161 95.7307 45.4579 95.7326 45.2926V30.5676C95.7312 30.4046 95.6653 30.2488 95.5493 30.1342ZM94.491 31.1926V44.6759H57.5076V31.1926H94.491Z" fill="url(#paint13_linear_1142_537)"/>
<path d="M82.666 11.3259C82.5489 11.2087 82.39 11.1427 82.2243 11.1426H56.6326V12.3842H82.1826C82.3098 12.3958 82.4374 12.3675 82.5479 12.3034C82.6583 12.2392 82.7461 12.1424 82.7991 12.0263C82.8522 11.9101 82.8679 11.7803 82.844 11.6549C82.8202 11.5294 82.758 11.4145 82.666 11.3259Z" fill="url(#paint14_linear_1142_537)"/>
<path fill-rule="evenodd" clip-rule="evenodd" d="M228.758 24.6729C228.835 24.7019 228.916 24.7159 228.999 24.7159C229.083 24.7159 229.163 24.7019 229.24 24.673L229.242 24.6724L247.938 17.7842C248.213 17.6837 248.397 17.4205 248.397 17.1271C248.397 16.8349 248.213 16.5707 247.936 16.4679L235.145 11.7648C234.781 11.6329 234.377 11.8192 234.245 12.1805C234.111 12.5437 234.298 12.9475 234.661 13.0804L245.667 17.1268L228.999 23.2683L212.332 17.1267L223.337 13.0827C223.701 12.9476 223.887 12.5449 223.754 12.1825C223.622 11.8212 223.216 11.6347 222.854 11.7666L210.062 16.4701C209.786 16.5708 209.602 16.8346 209.602 17.1271C209.602 17.4205 209.785 17.6835 210.06 17.7839L228.758 24.6729Z" fill="url(#paint15_linear_1142_537)"/>
<path fill-rule="evenodd" clip-rule="evenodd" d="M228.762 48.2903C228.836 48.3185 228.915 48.3326 228.999 48.3326C229.083 48.3326 229.163 48.3186 229.24 48.2897L229.242 48.289L239.692 44.4516C240.055 44.3166 240.241 43.9141 240.109 43.5519C239.973 43.1872 239.57 43.0013 239.21 43.135L228.999 46.8849L218.792 43.1354C218.429 43.0022 218.025 43.189 217.892 43.5513C217.759 43.9165 217.946 44.3183 218.308 44.4513L228.762 48.2903Z" fill="url(#paint16_linear_1142_537)"/>
<path fill-rule="evenodd" clip-rule="evenodd" d="M210.303 36.0519C209.916 36.0519 209.602 35.738 209.602 35.3513V17.1271C209.602 16.7404 209.916 16.4264 210.303 16.4264C210.69 16.4264 211.003 16.7404 211.003 17.1271V35.3513C211.003 35.738 210.69 36.0519 210.303 36.0519Z" fill="url(#paint17_linear_1142_537)"/>
<path fill-rule="evenodd" clip-rule="evenodd" d="M246.995 35.3513C246.995 35.738 247.309 36.0519 247.696 36.0519C248.083 36.0519 248.396 35.738 248.396 35.3513L248.397 17.1271C248.397 16.7404 248.083 16.4264 247.696 16.4264C247.309 16.4264 246.995 16.7404 246.995 17.1271V35.3513Z" fill="url(#paint18_linear_1142_537)"/>
<path fill-rule="evenodd" clip-rule="evenodd" d="M228.299 16.143C228.299 16.5297 228.613 16.8437 228.999 16.8437C229.386 16.8437 229.7 16.5297 229.7 16.143V8.27082C229.7 7.88415 229.386 7.57019 228.999 7.57019C228.613 7.57019 228.299 7.88415 228.299 8.27082V16.143Z" fill="url(#paint19_linear_1142_537)"/>
<path fill-rule="evenodd" clip-rule="evenodd" d="M246.097 43.0895C246.235 43.226 246.414 43.2944 246.594 43.2944C246.773 43.2944 246.952 43.2257 247.088 43.0901C247.361 42.817 247.361 42.3725 247.088 42.0994L242.286 37.2974C242.013 37.0243 241.568 37.0243 241.295 37.2974C241.022 37.5705 241.022 38.0149 241.295 38.288L246.097 43.0895Z" fill="url(#paint20_linear_1142_537)"/>
<path fill-rule="evenodd" clip-rule="evenodd" d="M210.908 43.0896C211.046 43.226 211.225 43.2944 211.405 43.2944C211.585 43.2944 211.764 43.2257 211.899 43.0901L216.701 38.288C216.974 38.0149 216.974 37.5705 216.701 37.2974C216.428 37.0243 215.984 37.0243 215.711 37.2974L210.909 42.0994C210.636 42.3724 210.635 42.8164 210.908 43.0896Z" fill="url(#paint21_linear_1142_537)"/>
<path fill-rule="evenodd" clip-rule="evenodd" d="M228.999 48.3326C228.613 48.3326 228.299 48.0187 228.299 47.632V24.0153C228.299 23.6286 228.613 23.3147 228.999 23.3147C229.386 23.3147 229.7 23.6286 229.7 24.0153V47.632C229.7 48.0187 229.386 48.3326 228.999 48.3326Z" fill="url(#paint22_linear_1142_537)"/>
<path fill-rule="evenodd" clip-rule="evenodd" d="M225.347 5.31873C225.347 7.33298 226.985 8.97144 228.999 8.97144C231.013 8.97144 232.652 7.33298 232.652 5.31873C232.652 3.30448 231.013 1.66602 228.999 1.66602C226.985 1.66602 225.347 3.30448 225.347 5.31873ZM226.748 5.31873C226.748 4.07781 227.758 3.06727 228.999 3.06727C230.24 3.06727 231.251 4.07781 231.251 5.31873C231.251 6.55965 230.24 7.57019 228.999 7.57019C227.758 7.57019 226.748 6.55965 226.748 5.31873Z" fill="url(#paint23_linear_1142_537)"/>
<path fill-rule="evenodd" clip-rule="evenodd" d="M245.027 44.6799C245.027 46.6942 246.666 48.3326 248.68 48.3326C250.694 48.3326 252.333 46.6942 252.333 44.6799C252.333 42.6657 250.694 41.0272 248.68 41.0272C246.666 41.0272 245.027 42.6657 245.027 44.6799ZM246.428 44.6799C246.428 43.439 247.439 42.4284 248.68 42.4284C249.921 42.4284 250.931 43.439 250.931 44.6799C250.931 45.9208 249.921 46.9314 248.68 46.9314C247.439 46.9314 246.428 45.9208 246.428 44.6799Z" fill="url(#paint24_linear_1142_537)"/>
<path fill-rule="evenodd" clip-rule="evenodd" d="M205.666 44.6799C205.666 46.6942 207.304 48.3326 209.319 48.3326C211.333 48.3326 212.971 46.6942 212.971 44.6799C212.971 42.6657 211.333 41.0272 209.319 41.0272C207.304 41.0272 205.666 42.6657 205.666 44.6799ZM207.067 44.6799C207.067 43.439 208.078 42.4284 209.319 42.4284C210.56 42.4284 211.57 43.439 211.57 44.6799C211.57 45.9208 210.56 46.9314 209.319 46.9314C208.078 46.9314 207.067 45.9208 207.067 44.6799Z" fill="url(#paint25_linear_1142_537)"/>
<path d="M122.02 13.8307H111.896C111.517 13.8307 111.21 13.5169 111.21 13.1305C111.21 12.7441 111.517 12.4304 111.896 12.4304H122.02C122.399 12.4304 122.706 12.7441 122.706 13.1305C122.706 13.5169 122.399 13.8307 122.02 13.8307Z" fill="url(#paint26_linear_1142_537)"/>
<path d="M118.424 19.7648H107.485C107.106 19.7648 106.799 19.451 106.799 19.0646C106.799 18.6782 107.106 18.3645 107.485 18.3645H118.424C118.802 18.3645 119.11 18.6782 119.11 19.0646C119.11 19.451 118.804 19.7648 118.424 19.7648Z" fill="url(#paint27_linear_1142_537)"/>
<path d="M117.4 25.7002H108.551C108.173 25.7002 107.865 25.3864 107.865 25C107.865 24.6136 108.173 24.2998 108.551 24.2998H117.4C117.779 24.2998 118.086 24.6136 118.086 25C118.086 25.3864 117.779 25.7002 117.4 25.7002Z" fill="url(#paint28_linear_1142_537)"/>
<path d="M105.11 25.7002H102.686C102.307 25.7002 102 25.3864 102 25C102 24.6136 102.307 24.2998 102.686 24.2998H105.11C105.489 24.2998 105.796 24.6136 105.796 25C105.796 25.3864 105.489 25.7002 105.11 25.7002Z" fill="url(#paint29_linear_1142_537)"/>
<path d="M118.424 31.6343H107.485C107.106 31.6343 106.799 31.3205 106.799 30.9341C106.799 30.5477 107.106 30.2339 107.485 30.2339H118.424C118.802 30.2339 119.11 30.5477 119.11 30.9341C119.11 31.3218 118.802 31.6343 118.424 31.6343Z" fill="url(#paint30_linear_1142_537)"/>
<path d="M122.02 37.5696H111.896C111.517 37.5696 111.21 37.2559 111.21 36.8695C111.21 36.4831 111.517 36.1693 111.896 36.1693H122.02C122.399 36.1693 122.706 36.4831 122.706 36.8695C122.706 37.2559 122.4 37.5696 122.02 37.5696Z" fill="url(#paint31_linear_1142_537)"/>
<path d="M140.269 31.7312C140.094 31.7312 139.917 31.6623 139.784 31.5259L134.896 26.5393C134.629 26.2664 134.629 25.8226 134.896 25.5497C135.164 25.2767 135.599 25.2767 135.866 25.5497L140.754 30.5362C141.021 30.8091 141.021 31.2529 140.754 31.5259C140.62 31.6636 140.444 31.7312 140.269 31.7312Z" fill="url(#paint32_linear_1142_537)"/>
<path d="M134.357 43C131.976 43 129.665 42.5243 127.49 41.5857C125.389 40.6789 123.502 39.3806 121.882 37.7278C120.262 36.075 118.99 34.1505 118.101 32.0067C117.181 29.7876 116.715 27.4295 116.715 25C116.715 22.5705 117.181 20.2124 118.101 17.9933C118.99 15.8495 120.262 13.925 121.882 12.2722C123.502 10.6194 125.389 9.3211 127.49 8.41434C129.665 7.4757 131.976 7 134.357 7C136.739 7 139.05 7.4757 141.225 8.41434C143.326 9.3211 145.212 10.6194 146.832 12.2722C148.452 13.925 149.725 15.8495 150.614 17.9933C151.534 20.2124 152 22.5705 152 25C152 27.4295 151.534 29.7876 150.614 32.0067C149.725 34.1505 148.452 36.075 146.832 37.7278C145.212 39.3806 143.326 40.6789 141.225 41.5857C139.049 42.5243 136.739 43 134.357 43ZM134.357 8.40031C125.386 8.40031 118.087 15.847 118.087 25C118.087 34.153 125.386 41.5997 134.357 41.5997C143.329 41.5997 150.627 34.153 150.627 25C150.627 15.847 143.329 8.40031 134.357 8.40031Z" fill="url(#paint33_linear_1142_537)"/>
<path d="M134.357 27.1553C133.192 27.1553 132.245 26.1886 132.245 25C132.245 23.8114 133.192 22.8447 134.357 22.8447C135.522 22.8447 136.47 23.8114 136.47 25C136.47 26.1886 135.521 27.1553 134.357 27.1553ZM134.357 24.245C133.95 24.245 133.618 24.5842 133.618 25C133.618 25.4158 133.95 25.755 134.357 25.755C134.765 25.755 135.098 25.4158 135.098 25C135.098 24.5842 134.765 24.245 134.357 24.245Z" fill="url(#paint34_linear_1142_537)"/>
<path d="M134.357 24.2578C133.979 24.2578 133.671 23.944 133.671 23.5576V18.0495C133.671 17.663 133.979 17.3493 134.357 17.3493C134.736 17.3493 135.044 17.663 135.044 18.0495V23.5576C135.044 23.944 134.736 24.2578 134.357 24.2578Z" fill="url(#paint35_linear_1142_537)"/>
<path d="M134.357 13.6253C133.979 13.6253 133.671 13.3116 133.671 12.9252V10.7648C133.671 10.3783 133.979 10.0646 134.357 10.0646C134.736 10.0646 135.044 10.3783 135.044 10.7648V12.9252C135.044 13.3116 134.736 13.6253 134.357 13.6253Z" fill="url(#paint36_linear_1142_537)"/>
<path d="M125.989 17.1618C125.813 17.1618 125.638 17.093 125.504 16.9565L124.006 15.4286C123.739 15.1557 123.739 14.7119 124.006 14.439C124.274 14.1661 124.709 14.1661 124.976 14.439L126.474 15.9668C126.741 16.2398 126.741 16.6836 126.474 16.9565C126.34 17.093 126.164 17.1618 125.989 17.1618Z" fill="url(#paint37_linear_1142_537)"/>
<path d="M122.521 25.7002H120.404C120.025 25.7002 119.718 25.3864 119.718 25C119.718 24.6136 120.025 24.2998 120.404 24.2998H122.521C122.9 24.2998 123.207 24.6136 123.207 25C123.209 25.3864 122.901 25.7002 122.521 25.7002Z" fill="url(#paint38_linear_1142_537)"/>
<path d="M124.491 35.7663C124.315 35.7663 124.14 35.6975 124.006 35.561C123.739 35.2881 123.739 34.8443 124.006 34.5713L125.504 33.0435C125.771 32.7706 126.206 32.7706 126.474 33.0435C126.741 33.3164 126.741 33.7602 126.474 34.0332L124.976 35.561C124.843 35.6975 124.666 35.7663 124.491 35.7663Z" fill="url(#paint39_linear_1142_537)"/>
<path d="M134.357 39.9354C133.979 39.9354 133.671 39.6216 133.671 39.2352V37.0748C133.671 36.6884 133.979 36.3747 134.357 36.3747C134.736 36.3747 135.044 36.6884 135.044 37.0748V39.2352C135.044 39.6229 134.736 39.9354 134.357 39.9354Z" fill="url(#paint40_linear_1142_537)"/>
<path d="M144.224 35.7663C144.049 35.7663 143.872 35.6975 143.739 35.561L142.241 34.0332C141.974 33.7602 141.974 33.3164 142.241 33.0435C142.509 32.7706 142.944 32.7706 143.211 33.0435L144.709 34.5713C144.976 34.8443 144.976 35.2881 144.709 35.561C144.575 35.6975 144.399 35.7663 144.224 35.7663Z" fill="url(#paint41_linear_1142_537)"/>
<path d="M148.31 25.7002H146.192C145.814 25.7002 145.506 25.3864 145.506 25C145.506 24.6136 145.814 24.2998 146.192 24.2998H148.31C148.689 24.2998 148.996 24.6136 148.996 25C148.996 25.3864 148.689 25.7002 148.31 25.7002Z" fill="url(#paint42_linear_1142_537)"/>
<path d="M142.725 17.1618C142.55 17.1618 142.374 17.093 142.24 16.9565C141.972 16.6836 141.972 16.2398 142.24 15.9668L143.737 14.439C144.005 14.1661 144.44 14.1661 144.707 14.439C144.975 14.7119 144.975 15.1557 144.707 15.4286L143.21 16.9565C143.076 17.0942 142.901 17.1618 142.725 17.1618Z" fill="url(#paint43_linear_1142_537)"/>
<path d="M300.968 24.3017H290.763C290.377 24.3017 290.064 24.6147 290.064 25.0007C290.064 30.5499 285.55 35.0645 280.001 35.0645C274.451 35.0645 269.937 30.5499 269.937 25.0007C269.937 24.6147 269.624 24.3017 269.238 24.3017H259.033C258.647 24.3017 258.334 24.6147 258.334 25.0007V27.8383C258.334 28.1275 258.512 28.3867 258.782 28.4906L261.916 29.697C262.35 31.3714 263.014 32.9723 263.893 34.4656L262.529 37.5369C262.412 37.8011 262.469 38.1103 262.673 38.3148L266.687 42.3279C266.891 42.5322 267.2 42.5897 267.464 42.4724L270.537 41.1078C272.03 41.9871 273.631 42.6507 275.304 43.0842L276.511 46.2195C276.615 46.4893 276.874 46.6673 277.163 46.6673H282.838C283.127 46.6673 283.387 46.4893 283.491 46.2195L284.697 43.0851C286.371 42.6513 287.972 41.9876 289.466 41.1082L292.537 42.4724C292.801 42.5897 293.11 42.5325 293.315 42.3278L297.328 38.3146C297.532 38.1102 297.59 37.801 297.472 37.5368L296.108 34.4644C296.987 32.9709 297.651 31.3704 298.084 29.6973L301.219 28.4906C301.489 28.3868 301.667 28.1275 301.667 27.8383V25.0007C301.667 24.6147 301.354 24.3017 300.968 24.3017ZM300.269 27.3583L297.243 28.5234C297.028 28.6061 296.867 28.7897 296.814 29.0138C296.39 30.7927 295.688 32.4868 294.726 34.0491C294.605 34.2453 294.589 34.4886 294.683 34.6992L296 37.6656L292.666 41L289.7 39.683C289.49 39.5895 289.247 39.6057 289.05 39.7266C287.488 40.6885 285.794 41.391 284.014 41.8145C283.79 41.8678 283.606 42.0282 283.523 42.2433L282.358 45.2695H277.643L276.478 42.2426C276.395 42.0275 276.211 41.8671 275.987 41.8138C274.208 41.3904 272.514 40.688 270.952 39.7261C270.756 39.6051 270.512 39.589 270.302 39.6825L267.336 41L264.001 37.6657L265.318 34.7004C265.412 34.4898 265.395 34.2466 265.274 34.0502C264.313 32.4885 263.61 30.794 263.187 29.0136C263.133 28.7894 262.973 28.6059 262.758 28.5231L259.732 27.3584V25.6996H268.56C268.922 31.6956 273.915 36.4623 280.001 36.4623C286.086 36.4623 291.079 31.6956 291.441 25.6996H300.269V27.3583ZM285.795 25.0007C285.795 24.6147 285.482 24.3017 285.096 24.3017H274.905C274.519 24.3017 274.206 24.6147 274.206 25.0007C274.206 28.1958 276.806 30.7953 280.001 30.7953C283.196 30.7953 285.795 28.1958 285.795 25.0007ZM275.659 25.6996H284.342C284.006 27.793 282.187 29.3974 280.001 29.3974C277.814 29.3974 275.995 27.793 275.659 25.6996ZM300.968 12.2198H290.661V10.5655C290.661 10.1795 290.348 9.86657 289.962 9.86657H285.256C284.87 9.86657 284.557 10.1795 284.557 10.5655V12.2198H259.033C258.647 12.2198 258.334 12.5327 258.334 12.9187C258.334 13.3047 258.647 13.6176 259.033 13.6176H284.557V15.2719C284.557 15.6579 284.87 15.9708 285.256 15.9708H289.962C290.348 15.9708 290.661 15.6579 290.661 15.2719V13.6176H300.968C301.354 13.6176 301.667 13.3047 301.667 12.9187C301.667 12.5327 301.354 12.2198 300.968 12.2198ZM289.263 14.573H285.955V11.2644H289.263V14.573ZM259.033 7.08503H272.457V8.73929C272.457 9.12527 272.77 9.43822 273.156 9.43822H277.862C278.248 9.43822 278.561 9.12527 278.561 8.73929V7.08503H300.968C301.354 7.08503 301.667 6.77208 301.667 6.3861C301.667 6.00012 301.354 5.68718 300.968 5.68718H278.561V4.03291C278.561 3.64693 278.248 3.33398 277.862 3.33398H273.156C272.77 3.33398 272.457 3.64693 272.457 4.03291V5.68718H259.033C258.647 5.68718 258.334 6.00012 258.334 6.3861C258.334 6.77208 258.647 7.08503 259.033 7.08503ZM273.855 4.73183H277.163V8.04028H273.855V4.73183ZM300.968 18.7524H272.182V17.0981C272.182 16.7121 271.869 16.3992 271.483 16.3992H266.776C266.39 16.3992 266.077 16.7121 266.077 17.0981V18.7524H259.033C258.647 18.7524 258.334 19.0653 258.334 19.4513C258.334 19.8373 258.647 20.1502 259.033 20.1502H266.077V21.8045C266.077 22.1904 266.39 22.5034 266.776 22.5034H271.483C271.869 22.5034 272.182 22.1904 272.182 21.8045V20.1502H300.968C301.354 20.1502 301.667 19.8373 301.667 19.4513C301.667 19.0653 301.354 18.7524 300.968 18.7524ZM270.784 21.1055H267.475V17.7971H270.784V21.1055Z" fill="url(#paint44_linear_1142_537)"/>
<path fill-rule="evenodd" clip-rule="evenodd" d="M7.33572 40.1403C6.93507 40.2949 6.67087 40.6802 6.67087 41.1096C6.67087 41.5391 6.93507 41.9243 7.33572 42.079L7.33779 42.0798C13.1936 44.4337 17.0159 45.9885 19.5429 47.0164C20.8833 47.5616 21.8593 47.9586 22.581 48.248C23.623 48.6658 24.1225 48.8541 24.4167 48.939C24.6535 49.0073 24.7451 49.0062 24.9059 49.0043C24.9343 49.004 24.965 49.0037 24.999 49.0037C25.033 49.0037 25.0636 49.004 25.0921 49.0043C25.253 49.0062 25.3451 49.0073 25.5825 48.939C25.8773 48.8541 26.3775 48.6658 27.42 48.248C28.1587 47.9519 29.1641 47.543 30.5538 46.9777C33.0815 45.9495 36.8808 44.4041 42.6602 42.0798L42.661 42.0795C43.0607 41.9215 43.3233 41.5354 43.3233 41.1056C43.3233 40.6759 43.0608 40.2898 42.6612 40.1318L25.6434 33.4219V30.6914V29.6713L26.1499 29.6713C26.6646 29.6681 27.1395 29.3922 27.3968 28.9464L27.3982 28.944C27.8328 28.2198 28.1846 27.6389 28.4696 27.1683C28.9153 26.4324 29.1976 25.9664 29.3772 25.6439C29.5241 25.38 29.5953 25.2241 29.6316 25.1024C29.6663 24.9859 29.671 24.8946 29.671 24.7497V21.9583L29.6939 21.92C30.9248 19.8672 31.8427 18.3424 32.527 17.2056C33.2516 16.002 33.7144 15.2332 34.0099 14.7328C34.299 14.2431 34.4223 14.0196 34.4748 13.8993C34.4998 13.842 34.5039 13.8186 34.505 13.8074C34.5057 13.8008 34.5059 13.7936 34.5055 13.7802C34.5052 13.7687 34.504 13.7454 34.504 13.7222V9.53352H37.0817C37.8824 9.53352 38.5316 8.88437 38.5316 8.0836V2.44501C38.5316 1.64424 37.8824 0.995087 37.0817 0.995087H12.9163C12.1155 0.995087 11.4664 1.64424 11.4664 2.44501V8.0836C11.4664 8.88437 12.1155 9.53352 12.9163 9.53352H15.4939V13.7222C15.4939 13.7417 15.4931 13.7599 15.4925 13.7725L15.4921 13.7804C15.4916 13.7938 15.4917 13.8001 15.4922 13.8056C15.4929 13.8144 15.4959 13.8352 15.5199 13.8906C15.5704 14.0072 15.6914 14.227 15.9791 14.7147C16.2848 15.233 16.7723 16.0433 17.5493 17.3348C18.2251 18.4579 19.1197 19.9449 20.3041 21.92L20.327 21.9583V24.7738C20.327 24.9242 20.3277 25.0106 20.3574 25.122C20.3881 25.2369 20.4521 25.3857 20.5941 25.6449C20.8049 26.0294 21.1721 26.6304 21.8155 27.6831C22.041 28.0522 22.3006 28.4769 22.5992 28.9673L22.6012 28.9705C22.8585 29.4163 23.3334 29.6922 23.8481 29.6955L24.3546 29.6955V29.9765V33.4462L7.33572 40.1403ZM25.6555 47.5903L25.6547 47.5906C25.2336 47.7583 24.7643 47.7583 24.3433 47.5906L24.3424 47.5903L18.0307 45.0349L25.2692 41.6564C25.4862 41.5563 25.6306 41.344 25.6434 41.1055V34.8077L41.6647 41.1074L25.6555 47.5903ZM24.1935 13.0778C23.8376 13.0778 23.5491 13.3663 23.5491 13.7222C23.5491 14.0781 23.8376 14.3666 24.1935 14.3666H32.7184L28.6586 21.1329H21.3393L17.2796 14.3666H20.1659C20.5218 14.3666 20.8103 14.0781 20.8103 13.7222C20.8103 13.3663 20.5218 13.0778 20.1659 13.0778H16.7827V9.53352H33.2152V13.0778H24.1935ZM14.6884 4.05604C14.6884 4.41193 14.9769 4.70045 15.3328 4.70045C15.6887 4.70045 15.9772 4.41193 15.9772 4.05604V2.28391H17.9105V4.05604C17.9105 4.41193 18.199 4.70045 18.5549 4.70045C18.9108 4.70045 19.1993 4.41193 19.1993 4.05604V2.28391H21.1325V4.05604C21.1325 4.41193 21.421 4.70045 21.7769 4.70045C22.1328 4.70045 22.4213 4.41193 22.4213 4.05604V2.28391H24.3546V4.05604C24.3546 4.41193 24.6431 4.70045 24.999 4.70045C25.3549 4.70045 25.6434 4.41193 25.6434 4.05604V2.28391H27.5766V4.05604C27.5766 4.41193 27.8651 4.70045 28.221 4.70045C28.5769 4.70045 28.8654 4.41193 28.8654 4.05604V2.28391H30.7987V4.05604C30.7987 4.41193 31.0872 4.70045 31.4431 4.70045C31.799 4.70045 32.0875 4.41193 32.0875 4.05604V2.28391H34.0207V4.05604C34.0207 4.41193 34.3092 4.70045 34.6651 4.70045C35.021 4.70045 35.3095 4.41193 35.3095 4.05604V2.28391H37.2428V8.2447H12.7552V2.28391H14.6884V4.05604ZM24.3546 34.8077V40.6972L16.3922 44.3702L8.3332 41.1074L24.3546 34.8077ZM28.3821 24.8185L26.242 28.3825H23.7559L21.6158 24.8185V22.4217H28.3821V24.8185Z" fill="url(#paint45_linear_1142_537)"/>
<path fill-rule="evenodd" clip-rule="evenodd" d="M32.8633 22.4743C33.3811 21.279 34.4552 20.3147 36.0051 19.8033C36.2238 19.7308 36.4649 19.7804 36.6371 19.9336C36.8093 20.0868 36.8867 20.3202 36.8401 20.5459C36.7936 20.7716 36.6301 20.9554 36.4114 21.0279C35.2471 21.4133 34.4316 22.0982 34.0457 22.9897C33.6598 23.8812 33.7158 24.9509 34.2376 26.0814L34.24 26.0868L34.2429 26.0919C34.944 27.3588 35.0181 28.8792 34.4435 30.2082C33.8689 31.5373 32.7105 32.5247 31.3073 32.8818L31.3029 32.8831C30.9696 32.9782 30.6209 32.7927 30.5134 32.4633C30.406 32.1341 30.5779 31.779 30.9025 31.659C32.0645 31.2453 32.8765 30.553 33.261 29.6655C33.6459 28.7771 33.5899 27.721 33.0718 26.6063C32.3755 25.1153 32.3455 23.6695 32.8633 22.4743Z" fill="url(#paint46_linear_1142_537)"/>
<path fill-rule="evenodd" clip-rule="evenodd" d="M42.4602 13.1173L42.5109 13.2703L42.4613 13.117C42.6251 13.064 42.7608 12.9476 42.8383 12.7939C42.9158 12.6402 42.9285 12.4619 42.8738 12.2988C42.7605 11.9634 42.398 11.7822 42.0618 11.8928L42.0513 11.8959C40.6504 12.2536 39.494 13.2399 38.9197 14.5668C38.3453 15.8937 38.4177 17.4118 39.1157 18.678L39.1207 18.6877C39.6429 19.8067 39.6986 20.8726 39.3128 21.7649C38.9272 22.657 38.1122 23.3479 36.948 23.7415L36.9471 23.7418C36.609 23.8539 36.4257 24.219 36.5379 24.5572C36.65 24.8953 37.0153 25.0785 37.3534 24.9664C38.9033 24.455 39.9775 23.4907 40.4953 22.2964C41.013 21.1022 40.983 19.6585 40.2867 18.1717L40.2862 18.1704C39.7686 17.0401 39.7127 15.9706 40.0975 15.0792C40.4823 14.1877 41.2958 13.5027 42.4602 13.1173Z" fill="url(#paint47_linear_1142_537)"/>
<g clip-path="url(#clip0_1142_537)">
<path d="M185.813 32.8132C185.813 31.9844 185.483 31.1895 184.897 30.6034C184.311 30.0174 183.516 29.6882 182.688 29.6882H172.633L173.313 24.3132C173.316 24.282 173.316 24.2505 173.313 24.2194C173.313 19.8913 170.25 18.7507 168.625 18.7507C168.45 18.7442 168.277 18.7969 168.136 18.9004C167.994 19.0038 167.891 19.152 167.844 19.321L164.719 30.1725C164.194 31.2076 163.38 32.068 162.375 32.6491V32.0319C162.375 31.8247 162.293 31.626 162.146 31.4795C162 31.333 161.801 31.2507 161.594 31.2507H153.781C153.574 31.2507 153.375 31.333 153.229 31.4795C153.082 31.626 153 31.8247 153 32.0319V49.2194C153 49.4266 153.082 49.6253 153.229 49.7718C153.375 49.9183 153.574 50.0007 153.781 50.0007H161.594C161.801 50.0007 162 49.9183 162.146 49.7718C162.293 49.6253 162.375 49.4266 162.375 49.2194V48.696L166.852 50.0007C166.921 50.0126 166.993 50.0126 167.063 50.0007H180.344C180.936 49.9923 181.513 49.816 182.009 49.4924C182.504 49.1687 182.898 48.7109 183.143 48.1724C183.389 47.6338 183.476 47.0365 183.396 46.4501C183.315 45.8637 183.069 45.3123 182.688 44.86C183.074 44.6271 183.406 44.3131 183.66 43.9395C183.914 43.566 184.084 43.1419 184.158 42.6963C184.233 42.2508 184.21 41.7945 184.09 41.3588C183.971 40.9231 183.759 40.5184 183.469 40.1725C183.856 39.9396 184.188 39.6256 184.442 39.252C184.696 38.8785 184.865 38.4544 184.94 38.0088C185.014 37.5633 184.991 37.107 184.872 36.6713C184.753 36.2356 184.541 35.8309 184.25 35.485C184.72 35.2137 185.111 34.8246 185.385 34.3561C185.659 33.8876 185.806 33.3558 185.813 32.8132ZM160.813 48.4382H154.563V32.8132H160.813V48.4382ZM180.344 48.4382H167.172L162.375 47.071V34.2819C164.719 33.7428 166.133 30.9538 166.195 30.821C166.217 30.7755 166.235 30.7285 166.25 30.6803L169.195 20.3835C170.109 20.5866 171.734 21.3444 171.75 24.1725L170.969 30.3757C170.955 30.4847 170.965 30.5953 170.998 30.7003C171.03 30.8053 171.084 30.9023 171.156 30.985C171.23 31.0694 171.322 31.1367 171.424 31.1826C171.527 31.2284 171.638 31.2516 171.75 31.2507H182.688C183.102 31.2507 183.499 31.4153 183.792 31.7083C184.085 32.0013 184.25 32.3988 184.25 32.8132C184.25 33.2276 184.085 33.625 183.792 33.918C183.499 34.211 183.102 34.3757 182.688 34.3757H178.781C178.574 34.3757 178.375 34.458 178.229 34.6045C178.082 34.751 178 34.9497 178 35.1569C178 35.3641 178.082 35.5628 178.229 35.7093C178.375 35.8558 178.574 35.9382 178.781 35.9382H181.906C182.321 35.9382 182.718 36.1028 183.011 36.3958C183.304 36.6888 183.469 37.0863 183.469 37.5007C183.469 37.9151 183.304 38.3125 183.011 38.6055C182.718 38.8985 182.321 39.0632 181.906 39.0632H178C177.793 39.0632 177.594 39.1455 177.448 39.292C177.301 39.4385 177.219 39.6372 177.219 39.8444C177.219 40.0516 177.301 40.2503 177.448 40.3968C177.594 40.5433 177.793 40.6257 178 40.6257H181.125C181.539 40.6257 181.937 40.7903 182.23 41.0833C182.523 41.3763 182.688 41.7738 182.688 42.1882C182.688 42.6026 182.523 43 182.23 43.293C181.937 43.586 181.539 43.7507 181.125 43.7507H177.219C177.012 43.7507 176.813 43.833 176.666 43.9795C176.52 44.126 176.438 44.3247 176.438 44.5319C176.438 44.7391 176.52 44.9378 176.666 45.0843C176.813 45.2308 177.012 45.3132 177.219 45.3132H180.344C180.758 45.3132 181.156 45.4778 181.449 45.7708C181.742 46.0638 181.906 46.4613 181.906 46.8757C181.906 47.2901 181.742 47.6875 181.449 47.9805C181.156 48.2735 180.758 48.4382 180.344 48.4382Z" fill="url(#paint48_linear_1142_537)"/>
<path d="M185.831 0.834905C181.544 0.834905 177.432 2.56085 174.401 5.63305C171.37 8.70525 169.667 12.8721 169.667 17.2168C169.667 17.4143 169.744 17.6037 169.882 17.7433C170.02 17.883 170.207 17.9614 170.401 17.9614C170.596 17.9614 170.783 17.883 170.921 17.7433C171.059 17.6037 171.136 17.4143 171.136 17.2168C171.137 14.393 171.93 11.6276 173.423 9.24314C174.915 6.85871 177.046 4.95351 179.567 3.74975C182.087 2.54599 184.894 2.09328 187.658 2.44441C190.423 2.79554 193.032 3.93605 195.182 5.73291C197.331 7.52978 198.932 9.90894 199.798 12.5929C200.664 15.2769 200.759 18.1551 200.073 20.8919C199.386 23.6286 197.946 26.1111 195.92 28.0497C193.894 29.9884 191.366 31.3034 188.63 31.8414C188.436 31.8601 188.256 31.9566 188.131 32.1095C188.007 32.2624 187.947 32.4593 187.965 32.6567C187.984 32.8542 188.079 33.0362 188.23 33.1626C188.381 33.2889 188.575 33.3494 188.77 33.3306H188.91C192.893 32.5926 196.457 30.3663 198.899 27.0923C201.34 23.8184 202.48 19.7351 202.093 15.6502C201.706 11.5654 199.82 7.77645 196.809 5.03302C193.797 2.28958 189.88 0.791422 185.831 0.834905Z" fill="url(#paint49_linear_1142_537)"/>
<path fill-rule="evenodd" clip-rule="evenodd" d="M179.245 16.4773C179.402 16.3172 179.614 16.2279 179.833 16.2279H182V6.85671C182 6.62848 182.089 6.41032 182.245 6.25005C182.402 6.08991 182.614 6.00065 182.833 6.00065H187.833C189.379 6.00065 190.863 6.62867 191.957 7.7478C193.051 8.86707 193.667 10.3859 193.667 11.9703C193.667 13.5548 193.051 15.0736 191.957 16.1929C190.863 17.312 189.379 17.94 187.833 17.94H183.667V21.3416H186.833C187.053 21.3416 187.265 21.4308 187.421 21.591C187.578 21.7512 187.667 21.9694 187.667 22.1976C187.667 22.4259 187.578 22.644 187.421 22.8043C187.265 22.9644 187.053 23.0537 186.833 23.0537H183.667V27.3113C183.667 27.5395 183.578 27.7576 183.421 27.9179C183.265 28.0781 183.053 28.1673 182.833 28.1673C182.614 28.1673 182.402 28.0781 182.245 27.9179C182.089 27.7576 182 27.5395 182 27.3113V23.0537H179.833C179.614 23.0537 179.402 22.9644 179.245 22.8043C179.089 22.644 179 22.4259 179 22.1976C179 21.9694 179.089 21.7512 179.245 21.591C179.402 21.4308 179.614 21.3416 179.833 21.3416H182V17.94H179.833C179.614 17.94 179.402 17.8508 179.245 17.6906C179.089 17.5304 179 17.3122 179 17.084C179 16.8558 179.089 16.6376 179.245 16.4773ZM187.833 7.71277C188.94 7.71277 190 8.16227 190.781 8.96112C191.562 9.75984 192 10.8424 192 11.9703C192 13.0983 191.562 14.1809 190.781 14.9796C190 15.7784 188.94 16.2279 187.833 16.2279H183.667V7.71277H187.833Z" fill="url(#paint50_linear_1142_537)"/>
</g>
<defs>
<linearGradient id="paint0_linear_1142_537" x1="53.866" y1="41.7996" x2="91.722" y2="-5.35481" gradientUnits="userSpaceOnUse">
<stop stop-color="#FC1212"/>
<stop offset="1" stop-color="#FFA7A7"/>
</linearGradient>
<linearGradient id="paint1_linear_1142_537" x1="53.866" y1="41.7996" x2="91.722" y2="-5.35481" gradientUnits="userSpaceOnUse">
<stop stop-color="#FC1212"/>
<stop offset="1" stop-color="#FFA7A7"/>
</linearGradient>
<linearGradient id="paint2_linear_1142_537" x1="53.866" y1="41.7996" x2="91.722" y2="-5.35481" gradientUnits="userSpaceOnUse">
<stop stop-color="#FC1212"/>
<stop offset="1" stop-color="#FFA7A7"/>
</linearGradient>
<linearGradient id="paint3_linear_1142_537" x1="53.866" y1="41.7996" x2="91.722" y2="-5.35481" gradientUnits="userSpaceOnUse">
<stop stop-color="#FC1212"/>
<stop offset="1" stop-color="#FFA7A7"/>
</linearGradient>
<linearGradient id="paint4_linear_1142_537" x1="53.866" y1="41.7996" x2="91.722" y2="-5.35481" gradientUnits="userSpaceOnUse">
<stop stop-color="#FC1212"/>
<stop offset="1" stop-color="#FFA7A7"/>
</linearGradient>
<linearGradient id="paint5_linear_1142_537" x1="53.866" y1="41.7996" x2="91.722" y2="-5.35481" gradientUnits="userSpaceOnUse">
<stop stop-color="#FC1212"/>
<stop offset="1" stop-color="#FFA7A7"/>
</linearGradient>
<linearGradient id="paint6_linear_1142_537" x1="53.866" y1="41.7996" x2="91.722" y2="-5.35481" gradientUnits="userSpaceOnUse">
<stop stop-color="#FC1212"/>
<stop offset="1" stop-color="#FFA7A7"/>
</linearGradient>
<linearGradient id="paint7_linear_1142_537" x1="53.866" y1="41.7996" x2="91.722" y2="-5.35481" gradientUnits="userSpaceOnUse">
<stop stop-color="#FC1212"/>
<stop offset="1" stop-color="#FFA7A7"/>
</linearGradient>
<linearGradient id="paint8_linear_1142_537" x1="53.866" y1="41.7996" x2="91.722" y2="-5.35481" gradientUnits="userSpaceOnUse">
<stop stop-color="#FC1212"/>
<stop offset="1" stop-color="#FFA7A7"/>
</linearGradient>
<linearGradient id="paint9_linear_1142_537" x1="53.866" y1="41.7996" x2="91.722" y2="-5.35481" gradientUnits="userSpaceOnUse">
<stop stop-color="#FC1212"/>
<stop offset="1" stop-color="#FFA7A7"/>
</linearGradient>
<linearGradient id="paint10_linear_1142_537" x1="53.866" y1="41.7996" x2="91.722" y2="-5.35481" gradientUnits="userSpaceOnUse">
<stop stop-color="#FC1212"/>
<stop offset="1" stop-color="#FFA7A7"/>
</linearGradient>
<linearGradient id="paint11_linear_1142_537" x1="53.866" y1="41.7996" x2="91.722" y2="-5.35481" gradientUnits="userSpaceOnUse">
<stop stop-color="#FC1212"/>
<stop offset="1" stop-color="#FFA7A7"/>
</linearGradient>
<linearGradient id="paint12_linear_1142_537" x1="53.866" y1="41.7996" x2="91.722" y2="-5.35481" gradientUnits="userSpaceOnUse">
<stop stop-color="#FC1212"/>
<stop offset="1" stop-color="#FFA7A7"/>
</linearGradient>
<linearGradient id="paint13_linear_1142_537" x1="53.866" y1="41.7996" x2="91.722" y2="-5.35481" gradientUnits="userSpaceOnUse">
<stop stop-color="#FC1212"/>
<stop offset="1" stop-color="#FFA7A7"/>
</linearGradient>
<linearGradient id="paint14_linear_1142_537" x1="53.866" y1="41.7996" x2="91.722" y2="-5.35481" gradientUnits="userSpaceOnUse">
<stop stop-color="#FC1212"/>
<stop offset="1" stop-color="#FFA7A7"/>
</linearGradient>
<linearGradient id="paint15_linear_1142_537" x1="204.811" y1="41.0911" x2="239.773" y2="-8.58447" gradientUnits="userSpaceOnUse">
<stop stop-color="#FC1212"/>
<stop offset="1" stop-color="#FFA7A7"/>
</linearGradient>
<linearGradient id="paint16_linear_1142_537" x1="204.811" y1="41.0911" x2="239.773" y2="-8.58447" gradientUnits="userSpaceOnUse">
<stop stop-color="#FC1212"/>
<stop offset="1" stop-color="#FFA7A7"/>
</linearGradient>
<linearGradient id="paint17_linear_1142_537" x1="204.811" y1="41.0911" x2="239.773" y2="-8.58447" gradientUnits="userSpaceOnUse">
<stop stop-color="#FC1212"/>
<stop offset="1" stop-color="#FFA7A7"/>
</linearGradient>
<linearGradient id="paint18_linear_1142_537" x1="204.811" y1="41.0911" x2="239.773" y2="-8.58447" gradientUnits="userSpaceOnUse">
<stop stop-color="#FC1212"/>
<stop offset="1" stop-color="#FFA7A7"/>
</linearGradient>
<linearGradient id="paint19_linear_1142_537" x1="204.811" y1="41.0911" x2="239.773" y2="-8.58447" gradientUnits="userSpaceOnUse">
<stop stop-color="#FC1212"/>
<stop offset="1" stop-color="#FFA7A7"/>
</linearGradient>
<linearGradient id="paint20_linear_1142_537" x1="204.811" y1="41.0911" x2="239.773" y2="-8.58447" gradientUnits="userSpaceOnUse">
<stop stop-color="#FC1212"/>
<stop offset="1" stop-color="#FFA7A7"/>
</linearGradient>
<linearGradient id="paint21_linear_1142_537" x1="204.811" y1="41.0911" x2="239.773" y2="-8.58447" gradientUnits="userSpaceOnUse">
<stop stop-color="#FC1212"/>
<stop offset="1" stop-color="#FFA7A7"/>
</linearGradient>
<linearGradient id="paint22_linear_1142_537" x1="204.811" y1="41.0911" x2="239.773" y2="-8.58447" gradientUnits="userSpaceOnUse">
<stop stop-color="#FC1212"/>
<stop offset="1" stop-color="#FFA7A7"/>
</linearGradient>
<linearGradient id="paint23_linear_1142_537" x1="204.811" y1="41.0911" x2="239.773" y2="-8.58447" gradientUnits="userSpaceOnUse">
<stop stop-color="#FC1212"/>
<stop offset="1" stop-color="#FFA7A7"/>
</linearGradient>
<linearGradient id="paint24_linear_1142_537" x1="204.811" y1="41.0911" x2="239.773" y2="-8.58447" gradientUnits="userSpaceOnUse">
<stop stop-color="#FC1212"/>
<stop offset="1" stop-color="#FFA7A7"/>
</linearGradient>
<linearGradient id="paint25_linear_1142_537" x1="204.811" y1="41.0911" x2="239.773" y2="-8.58447" gradientUnits="userSpaceOnUse">
<stop stop-color="#FC1212"/>
<stop offset="1" stop-color="#FFA7A7"/>
</linearGradient>
<linearGradient id="paint26_linear_1142_537" x1="101.084" y1="37.4136" x2="124.189" y2="-8.18156" gradientUnits="userSpaceOnUse">
<stop stop-color="#FC1212"/>
<stop offset="1" stop-color="#FFA7A7"/>
</linearGradient>
<linearGradient id="paint27_linear_1142_537" x1="101.084" y1="37.4136" x2="124.189" y2="-8.18156" gradientUnits="userSpaceOnUse">
<stop stop-color="#FC1212"/>
<stop offset="1" stop-color="#FFA7A7"/>
</linearGradient>
<linearGradient id="paint28_linear_1142_537" x1="101.084" y1="37.4136" x2="124.189" y2="-8.18156" gradientUnits="userSpaceOnUse">
<stop stop-color="#FC1212"/>
<stop offset="1" stop-color="#FFA7A7"/>
</linearGradient>
<linearGradient id="paint29_linear_1142_537" x1="101.084" y1="37.4136" x2="124.189" y2="-8.18156" gradientUnits="userSpaceOnUse">
<stop stop-color="#FC1212"/>
<stop offset="1" stop-color="#FFA7A7"/>
</linearGradient>
<linearGradient id="paint30_linear_1142_537" x1="101.084" y1="37.4136" x2="124.189" y2="-8.18156" gradientUnits="userSpaceOnUse">
<stop stop-color="#FC1212"/>
<stop offset="1" stop-color="#FFA7A7"/>
</linearGradient>
<linearGradient id="paint31_linear_1142_537" x1="101.084" y1="37.4136" x2="124.189" y2="-8.18156" gradientUnits="userSpaceOnUse">
<stop stop-color="#FC1212"/>
<stop offset="1" stop-color="#FFA7A7"/>
</linearGradient>
<linearGradient id="paint32_linear_1142_537" x1="101.084" y1="37.4136" x2="124.189" y2="-8.18156" gradientUnits="userSpaceOnUse">
<stop stop-color="#FC1212"/>
<stop offset="1" stop-color="#FFA7A7"/>
</linearGradient>
<linearGradient id="paint33_linear_1142_537" x1="101.084" y1="37.4136" x2="124.189" y2="-8.18156" gradientUnits="userSpaceOnUse">
<stop stop-color="#FC1212"/>
<stop offset="1" stop-color="#FFA7A7"/>
</linearGradient>
<linearGradient id="paint34_linear_1142_537" x1="101.084" y1="37.4136" x2="124.189" y2="-8.18156" gradientUnits="userSpaceOnUse">
<stop stop-color="#FC1212"/>
<stop offset="1" stop-color="#FFA7A7"/>
</linearGradient>
<linearGradient id="paint35_linear_1142_537" x1="101.084" y1="37.4136" x2="124.189" y2="-8.18156" gradientUnits="userSpaceOnUse">
<stop stop-color="#FC1212"/>
<stop offset="1" stop-color="#FFA7A7"/>
</linearGradient>
<linearGradient id="paint36_linear_1142_537" x1="101.084" y1="37.4136" x2="124.189" y2="-8.18156" gradientUnits="userSpaceOnUse">
<stop stop-color="#FC1212"/>
<stop offset="1" stop-color="#FFA7A7"/>
</linearGradient>
<linearGradient id="paint37_linear_1142_537" x1="101.084" y1="37.4136" x2="124.189" y2="-8.18156" gradientUnits="userSpaceOnUse">
<stop stop-color="#FC1212"/>
<stop offset="1" stop-color="#FFA7A7"/>
</linearGradient>
<linearGradient id="paint38_linear_1142_537" x1="101.084" y1="37.4136" x2="124.189" y2="-8.18156" gradientUnits="userSpaceOnUse">
<stop stop-color="#FC1212"/>
<stop offset="1" stop-color="#FFA7A7"/>
</linearGradient>
<linearGradient id="paint39_linear_1142_537" x1="101.084" y1="37.4136" x2="124.189" y2="-8.18156" gradientUnits="userSpaceOnUse">
<stop stop-color="#FC1212"/>
<stop offset="1" stop-color="#FFA7A7"/>
</linearGradient>
<linearGradient id="paint40_linear_1142_537" x1="101.084" y1="37.4136" x2="124.189" y2="-8.18156" gradientUnits="userSpaceOnUse">
<stop stop-color="#FC1212"/>
<stop offset="1" stop-color="#FFA7A7"/>
</linearGradient>
<linearGradient id="paint41_linear_1142_537" x1="101.084" y1="37.4136" x2="124.189" y2="-8.18156" gradientUnits="userSpaceOnUse">
<stop stop-color="#FC1212"/>
<stop offset="1" stop-color="#FFA7A7"/>
</linearGradient>
<linearGradient id="paint42_linear_1142_537" x1="101.084" y1="37.4136" x2="124.189" y2="-8.18156" gradientUnits="userSpaceOnUse">
<stop stop-color="#FC1212"/>
<stop offset="1" stop-color="#FFA7A7"/>
</linearGradient>
<linearGradient id="paint43_linear_1142_537" x1="101.084" y1="37.4136" x2="124.189" y2="-8.18156" gradientUnits="userSpaceOnUse">
<stop stop-color="#FC1212"/>
<stop offset="1" stop-color="#FFA7A7"/>
</linearGradient>
<linearGradient id="paint44_linear_1142_537" x1="257.54" y1="39.943" x2="290.005" y2="-6.18431" gradientUnits="userSpaceOnUse">
<stop stop-color="#FC1212"/>
<stop offset="1" stop-color="#FFA7A7"/>
</linearGradient>
<linearGradient id="paint45_linear_1142_537" x1="5.83238" y1="41.666" x2="44.1657" y2="-0.000647272" gradientUnits="userSpaceOnUse">
<stop stop-color="#FC1212"/>
<stop offset="1" stop-color="#FFA7A7"/>
</linearGradient>
<linearGradient id="paint46_linear_1142_537" x1="30.1977" y1="30.9805" x2="40.2952" y2="23.8449" gradientUnits="userSpaceOnUse">
<stop stop-color="#FC1212"/>
<stop offset="1" stop-color="#FFA7A7"/>
</linearGradient>
<linearGradient id="paint47_linear_1142_537" x1="36.2206" y1="23.0717" x2="46.3341" y2="15.8933" gradientUnits="userSpaceOnUse">
<stop stop-color="#FC1212"/>
<stop offset="1" stop-color="#FFA7A7"/>
</linearGradient>
<linearGradient id="paint48_linear_1142_537" x1="152.099" y1="42.3787" x2="188.943" y2="-9.96127" gradientUnits="userSpaceOnUse">
<stop stop-color="#FC1212"/>
<stop offset="1" stop-color="#FFA7A7"/>
</linearGradient>
<linearGradient id="paint49_linear_1142_537" x1="152.099" y1="42.3787" x2="188.943" y2="-9.96127" gradientUnits="userSpaceOnUse">
<stop stop-color="#FC1212"/>
<stop offset="1" stop-color="#FFA7A7"/>
</linearGradient>
<linearGradient id="paint50_linear_1142_537" x1="152.099" y1="42.3787" x2="188.943" y2="-9.96127" gradientUnits="userSpaceOnUse">
<stop stop-color="#FC1212"/>
<stop offset="1" stop-color="#FFA7A7"/>
</linearGradient>
<clipPath id="clip0_1142_537">
<rect width="50" height="50" fill="white" transform="translate(153)"/>
</clipPath>
</defs>
</svg>
