<svg width="30" height="21" viewBox="0 0 30 21" fill="none" xmlns="http://www.w3.org/2000/svg">

<path d="M28.2063 9.9035C28.2063 14.543 24.4452 18.3041 19.8057 18.3041C16.3378 18.3041 13.3606 16.2027 12.0782 13.2037C11.645 12.1906 7.50488 9.72497 7.50488 8.55341C7.50488 7.38185 11.645 7.6164 12.0782 6.60328C13.3606 3.60434 16.3378 1.50293 19.8057 1.50293C24.4452 1.50293 28.2063 5.26399 28.2063 9.9035Z" fill="white"/>
<path fill-rule="evenodd" clip-rule="evenodd" d="M11.4629 9.34766C13.9982 10.8135 15.497 13.1506 17.0537 14.1581C20.5965 16.4497 24.1764 14.059 24.4324 10.3386C20.3322 11.7012 15.753 10.0042 11.4629 9.34766Z" fill="#FFC90D"/>
<path d="M8.06001 8.77782C8.81563 9.52518 9.55474 10.2849 10.2732 11.0199C12.1024 12.8945 13.8077 14.6411 15.2199 15.6569C16.9334 16.8874 18.5686 17.3664 20.0344 17.3127C21.0749 17.2714 22.0453 16.9576 22.9041 16.4538C23.7919 15.9336 24.5599 15.2068 25.1669 14.3604C26.1166 13.0391 26.6492 11.4535 26.5914 9.93397C26.5832 9.74403 26.5708 9.54996 26.546 9.36002C26.5666 9.54996 26.5832 9.74403 26.5914 9.93809C27.7269 9.64493 28.8005 8.90995 29.8286 8.208C29.8617 8.39794 29.8906 8.59201 29.9153 8.7902C29.9566 9.12466 29.9855 9.44673 29.9938 9.74816C30.0351 10.8754 29.8699 12.0192 29.5189 13.1258C29.1597 14.2613 28.6147 15.3472 27.9169 16.3217C27.475 16.9369 26.963 17.5191 26.3932 18.0394C25.8399 18.5473 25.2371 19.0015 24.5929 19.3772C23.9116 19.7777 23.1808 20.0998 22.4045 20.331C21.6654 20.5499 20.8891 20.682 20.0881 20.7151C18.965 20.7563 17.7882 20.5994 16.5825 20.203C15.447 19.8273 14.2867 19.241 13.1264 18.4069C11.4541 17.2053 9.65797 15.3637 7.72968 13.3859L7.72142 13.3776C6.9245 12.5642 6.10694 11.7219 5.26873 10.9002C4.42227 10.0702 3.56341 9.26092 2.6963 8.52181L0.627623 6.75043C0.7804 6.68436 0.929048 6.62243 1.0777 6.55636L0.0165164 6.21777H0L0.623494 6.75043C0.776271 6.68436 0.924919 6.62243 1.07357 6.55636L8.05175 8.77782H8.05588H8.06001ZM10.1287 7.952L10.0957 7.96851C9.59603 8.19561 9.07576 8.41033 8.54311 8.60852L8.53072 8.61265C9.07576 8.41033 9.60842 8.19148 10.1287 7.95613V7.952Z" fill="#FFC90D"/>
<path fill-rule="evenodd" clip-rule="evenodd" d="M17.4038 6.50648C17.1932 6.60971 16.9827 6.72945 16.7638 6.85746C16.4417 7.05152 16.1114 7.27036 15.7728 7.52224C15.4549 7.76173 15.0668 8.00947 14.6332 8.24483C13.7042 8.75271 12.5645 9.20278 11.4414 9.3473C14.2327 10.6315 15.4714 13.1502 17.0322 14.1577C19.0802 15.4831 20.9796 15.2395 22.3381 14.2733C20.9301 15.2643 18.9853 15.4088 17.0529 14.1577C15.4962 13.1502 14.2533 10.6356 11.4621 9.3473C15.7522 10.0038 20.3314 11.7009 24.4316 10.3383C24.4316 10.1979 24.4274 10.0575 24.415 9.92125C24.2705 8.24896 23.2919 6.67165 21.6898 6.05641L17.4038 6.51061V6.50648ZM17.4038 6.50648C19.0968 5.66002 20.5502 5.6146 21.6898 6.05228L17.4038 6.50648ZM23.1309 13.559C23.9319 12.6671 24.4109 11.4944 24.4316 10.3465C24.3407 11.6183 23.8659 12.7332 23.1309 13.559Z" fill="#FFB616"/>
<path fill-rule="evenodd" clip-rule="evenodd" d="M29.8285 8.21192C28.8003 8.90974 27.7268 9.64472 26.5913 9.94202C26.5376 8.57941 26.1247 7.24158 25.3856 6.13911C24.8488 5.3422 24.1386 4.66915 23.2715 4.21082C22.3961 3.74836 21.3432 3.49649 20.1292 3.54604C18.2464 3.61623 15.9836 4.3925 13.3616 6.14737C11.6893 7.27049 9.951 8.11695 8.05574 8.77761L0.0205078 6.21757L3.38985 6.08543C3.8936 6.04414 4.39323 5.98221 4.90111 5.89962C5.41311 5.81704 5.90861 5.70969 6.39584 5.57755L6.85417 5.43304L7.30011 5.27613C8.02683 5.01187 8.72465 4.69806 9.37292 4.36773C10.1244 3.98372 10.8057 3.57494 11.3714 3.19506C12.9198 2.15453 14.398 1.3989 15.7978 0.878636C17.2843 0.329465 18.6675 0.0528154 19.9475 0.00739523C20.8518 -0.0256376 21.7107 0.0528154 22.5159 0.226238C23.3499 0.407918 24.1221 0.696955 24.8323 1.06857L25.1378 1.23787L25.4475 1.42368C26.4013 2.01414 27.19 2.72847 27.8259 3.55429C28.4659 4.38012 28.9573 5.31329 29.3247 6.34144L29.3289 6.3497C29.4238 6.6057 29.5023 6.85345 29.5725 7.08881C29.6386 7.32416 29.7046 7.57604 29.7583 7.84443C29.7831 7.96418 29.8078 8.08805 29.8285 8.20779V8.21192Z" fill="#FFB616"/>

</svg>
