<svg width="272" height="43" viewBox="0 0 272 43" fill="none" xmlns="http://www.w3.org/2000/svg">
<path d="M28.4593 41.2234H2.91437C2.61548 41.2235 2.3233 41.1359 2.07478 40.9719C1.82626 40.8079 1.63256 40.5748 1.51818 40.3021C1.4038 40.0293 1.37387 39.7292 1.43219 39.4397C1.4905 39.1501 1.63444 38.8842 1.8458 38.6754C2.12931 38.3957 2.51356 38.2383 2.91437 38.2383H28.4593C28.8601 38.2383 29.2444 38.3957 29.5279 38.6754C29.7393 38.8842 29.8832 39.1501 29.9415 39.4397C29.9998 39.7292 29.9699 40.0293 29.8555 40.3021C29.7411 40.5748 29.5474 40.8079 29.2989 40.9719C29.0504 41.1359 28.7582 41.2235 28.4593 41.2234ZM29.9705 3.26972C29.9729 3.36839 29.9551 3.46652 29.918 3.55817C29.8809 3.64981 29.8253 3.73306 29.7547 3.80285C29.684 3.87264 29.5997 3.92752 29.5069 3.96416C29.4141 4.0008 29.3148 4.01844 29.2149 4.016H27.7038C27.5037 4.01507 27.3121 3.93614 27.1706 3.79639C27.0291 3.65663 26.9492 3.46736 26.9482 3.26972V1.74162C26.9458 1.64295 26.9636 1.54482 27.0007 1.45317C27.0378 1.36153 27.0934 1.27828 27.164 1.20849C27.2347 1.1387 27.319 1.08382 27.4118 1.04718C27.5045 1.01054 27.6039 0.992902 27.7038 0.995339H29.2509C29.3508 0.992902 29.4501 1.01054 29.5429 1.04718C29.6357 1.08382 29.72 1.1387 29.7906 1.20849C29.8613 1.27828 29.9168 1.36153 29.9539 1.45317C29.991 1.54482 30.0089 1.64295 30.0064 1.74162L29.9705 3.26972ZM4.3895 3.26972C4.38855 3.46736 4.30865 3.65663 4.16716 3.79639C4.02567 3.93614 3.83404 4.01507 3.63394 4.016H2.08685C1.88676 4.01507 1.69513 3.93614 1.55364 3.79639C1.41215 3.65663 1.33224 3.46736 1.3313 3.26972V1.74162C1.33224 1.54398 1.41215 1.35471 1.55364 1.21495C1.69513 1.0752 1.88676 0.996274 2.08685 0.995339H3.63394C3.83404 0.996274 4.02567 1.0752 4.16716 1.21495C4.30865 1.35471 4.38855 1.54398 4.3895 1.74162V3.26972ZM2.87839 25.054C2.47849 25.0512 2.09577 24.8931 1.813 24.6138C1.53022 24.3345 1.3701 23.9564 1.36728 23.5615V6.64575C1.36728 6.2499 1.52648 5.87026 1.80987 5.59035C2.09326 5.31044 2.47762 5.15319 2.87839 5.15319C3.27916 5.15319 3.66352 5.31044 3.94691 5.59035C4.23029 5.87026 4.3895 6.2499 4.3895 6.64575V23.5615C4.39133 23.758 4.35353 23.953 4.27833 24.135C4.16495 24.409 3.9709 24.6431 3.7213 24.807C3.47171 24.9708 3.17807 25.0569 2.87839 25.054Z" fill="#00A0DE"/>
<path d="M28.4592 25.0544C28.0593 25.0516 27.6766 24.8935 27.3938 24.6141C27.1111 24.3348 26.9509 23.9568 26.9481 23.5618V6.64613C26.9481 6.25027 27.1073 5.87064 27.3907 5.59073C27.6741 5.31082 28.0585 5.15356 28.4592 5.15356C28.86 5.15356 29.2444 5.31082 29.5278 5.59073C29.8111 5.87064 29.9703 6.25027 29.9703 6.64613V23.5618C29.9723 23.7584 29.9345 23.9533 29.8592 24.1352C29.784 24.3172 29.6727 24.4825 29.532 24.6215C29.3913 24.7604 29.224 24.8703 29.0398 24.9446C28.8556 25.019 28.6582 25.0563 28.4592 25.0544ZM24.2137 4.01637H7.0878C6.68703 4.01637 6.30268 3.85912 6.01929 3.57921C5.7359 3.2993 5.57669 2.91966 5.57669 2.52381C5.57669 2.12796 5.7359 1.74832 6.01929 1.46841C6.30268 1.1885 6.68703 1.03125 7.0878 1.03125H24.2137C24.6136 1.03404 24.9963 1.19219 25.2791 1.4715C25.5619 1.7508 25.722 2.12882 25.7248 2.52381C25.7298 2.72115 25.6941 2.91742 25.6199 3.10071C25.5457 3.284 25.4345 3.45049 25.2932 3.59007C25.1519 3.72965 24.9834 3.83941 24.7978 3.91269C24.6122 3.98597 24.4135 4.02125 24.2137 4.01637ZM29.9703 26.9379C29.9694 26.7402 29.8895 26.5509 29.748 26.4112C29.6065 26.2714 29.4149 26.1925 29.2148 26.1916H27.7037C27.5036 26.1925 27.312 26.2714 27.1705 26.4112C27.029 26.5509 26.9491 26.7402 26.9481 26.9379V28.466C26.9491 28.6636 27.029 28.8529 27.1705 28.9926C27.312 29.1324 27.5036 29.2113 27.7037 29.2122H29.2508C29.4509 29.2113 29.6425 29.1324 29.784 28.9926C29.9255 28.8529 30.0054 28.6636 30.0063 28.466L29.9703 26.9379ZM4.42537 26.9379C4.42784 26.8392 4.40998 26.7411 4.37288 26.6494C4.33579 26.5578 4.28022 26.4745 4.20957 26.4047C4.13891 26.3349 4.05463 26.2801 3.96185 26.2434C3.86906 26.2068 3.76971 26.1891 3.66981 26.1916H2.12272C1.92263 26.1925 1.731 26.2714 1.58951 26.4112C1.44802 26.5509 1.36811 26.7402 1.36717 26.9379V28.466C1.3647 28.5646 1.38256 28.6628 1.41965 28.7544C1.45675 28.8461 1.51231 28.9293 1.58297 28.9991C1.65363 29.0689 1.73791 29.1238 1.83069 29.1604C1.92348 29.197 2.02283 29.2147 2.12272 29.2122H3.66981C3.86991 29.2113 4.06154 29.1324 4.20303 28.9926C4.34452 28.8529 4.42442 28.6636 4.42537 28.466V26.9379ZM24.2137 26.1916H7.0878C6.68703 26.1916 6.30268 26.3488 6.01929 26.6287C5.7359 26.9087 5.57669 27.2883 5.57669 27.6841C5.57669 28.08 5.7359 28.4596 6.01929 28.7395C6.30268 29.0195 6.68703 29.1767 7.0878 29.1767H24.2137C24.6136 29.1739 24.9963 29.0158 25.2791 28.7365C25.5619 28.4572 25.722 28.0791 25.7248 27.6841C25.7298 27.4868 25.6941 27.2905 25.6199 27.1072C25.5457 26.924 25.4345 26.7575 25.2932 26.6179C25.1519 26.4783 24.9834 26.3685 24.7978 26.2953C24.6122 26.222 24.4135 26.1867 24.2137 26.1916ZM24.3217 24.9833C23.9492 24.9771 23.5915 24.8383 23.3143 24.5924L6.00844 7.57009C5.73591 7.30392 5.57957 6.94302 5.57285 6.56452C5.56613 6.18602 5.70955 5.81992 5.97246 5.54447C6.23674 5.27922 6.5958 5.12692 6.97252 5.12027C7.34924 5.11363 7.71357 5.25317 7.98727 5.50894L25.2931 22.5313C25.5656 22.7974 25.722 23.1583 25.7287 23.5368C25.7354 23.9153 25.592 24.2814 25.3291 24.5569C25.2003 24.6931 25.0442 24.8014 24.8708 24.8748C24.6974 24.9482 24.5103 24.9852 24.3217 24.9833Z" fill="#00A0DE"/>
<path d="M7.01589 24.9834C6.8272 24.9853 6.6402 24.9483 6.46676 24.8749C6.29333 24.8015 6.13726 24.6932 6.00848 24.557C5.74556 24.2815 5.60215 23.9154 5.60887 23.5369C5.61559 23.1584 5.77192 22.7975 6.04446 22.5314L23.3503 5.50905C23.4827 5.37671 23.641 5.27229 23.8155 5.20212C23.9899 5.13195 24.177 5.09748 24.3654 5.10081C24.5538 5.10413 24.7395 5.14517 24.9113 5.22145C25.0831 5.29773 25.2375 5.40766 25.3651 5.54459C25.628 5.82004 25.7714 6.18613 25.7647 6.56463C25.758 6.94314 25.6016 7.30403 25.3291 7.57021L8.02329 24.5925C7.7461 24.8384 7.38839 24.9772 7.01589 24.9834ZM53.6445 12.7942H49.4709L49.6148 12.8297H53.1408L53.6445 12.7942ZM141.361 29.0347L144.419 18.9421L147.477 29.0347H151.723L146.434 13.3272H142.404L142.296 13.6471L137.115 29.0347H141.361ZM117.507 13.2562H112.758L107.361 18.4801V13.2562H103.367V28.9991H107.361V23.8818L108.44 22.709L113.693 28.9991H118.622L111.139 19.6884L117.507 13.2562Z" fill="#00A0DE"/>
<path d="M76.8148 13.2552V14.7478C76.8148 14.7123 76.7789 14.7123 76.7789 14.6767C75.2678 12.8288 72.5334 12.8288 72.4974 12.8288H72.3535C68.6477 12.7933 65.8413 15.2453 64.7979 18.5858C64.5356 19.4018 64.4022 20.2529 64.4022 21.109V21.4288C64.4714 23.5183 65.3427 25.5036 66.8393 26.9819C68.336 28.4602 70.3459 29.3208 72.4614 29.3891C73.5768 29.3891 75.1958 29.1404 76.1313 28.2519C76.3745 28.0277 76.5914 27.7772 76.7789 27.5057V28.9982H80.9884V13.2908L76.8148 13.2552ZM76.8148 23.0635C76.7789 23.1346 76.7429 23.2412 76.7069 23.3123C76.321 24.0518 75.7389 24.674 75.0228 25.1121C74.3068 25.5503 73.4836 25.788 72.6413 25.7999C71.6159 25.8079 70.6211 25.4552 69.835 24.8048C69.3528 24.3834 68.961 23.8702 68.6829 23.2966C68.4048 22.7231 68.2461 22.0997 68.2159 21.4643V21.18C68.2188 20.3872 68.4163 19.6065 68.7916 18.9057C69.1775 18.1661 69.7596 17.544 70.4756 17.1058C71.1917 16.6677 72.0149 16.4299 72.8572 16.4181C73.8826 16.41 74.8774 16.7628 75.6635 17.4131C76.168 17.8585 76.5724 18.4032 76.8508 19.0123C77.1078 19.5595 77.2544 20.151 77.2826 20.7536V21.0379C77.2556 21.7358 77.0969 22.4228 76.8148 23.0635ZM130.351 13.3619V14.8544C130.351 14.8189 130.315 14.8189 130.315 14.7833C128.804 12.9709 126.07 12.9354 126.07 12.9354H125.926C122.256 12.8999 119.45 15.3519 118.406 18.6569C118.147 19.4615 118.013 20.3001 118.011 21.1445V21.4643C118.191 25.8354 121.716 29.3181 126.034 29.3891C127.149 29.3891 128.732 29.1404 129.704 28.2519C129.947 28.0277 130.164 27.7772 130.351 27.5057V28.9982H134.525V13.3619H130.351ZM130.351 23.1346C130.315 23.2057 130.279 23.3123 130.243 23.3833C129.855 24.1185 129.272 24.7353 128.556 25.1674C127.839 25.5995 127.017 25.8304 126.178 25.8354C125.154 25.8367 124.161 25.4848 123.371 24.8404C122.893 24.4234 122.503 23.9163 122.225 23.3489C121.947 22.7814 121.786 22.1649 121.752 21.5354V21.2511C121.755 20.4582 121.953 19.6777 122.328 18.9767C122.712 18.2458 123.29 17.6316 123.999 17.1998C124.709 16.7679 125.524 16.5346 126.358 16.5247C127.382 16.5234 128.375 16.8753 129.164 17.5197C129.668 17.9651 130.073 18.5098 130.351 19.1189C130.604 19.6551 130.75 20.234 130.783 20.8247V21.109C130.79 21.8073 130.642 22.4985 130.351 23.1346ZM61.9556 20.5404C61.8959 19.3137 61.5498 18.1173 60.9446 17.0446C60.3391 15.9719 59.4907 15.052 58.4656 14.3569C56.4149 12.6867 53.3567 12.7577 53.3567 12.7577H49.1831V7.78252H59.0053V3.83789H45.1895V28.9271H53.5006C53.6931 28.93 53.8856 28.9181 54.0762 28.8916C55.7501 28.7909 57.3566 28.2044 58.6943 27.2055C60.032 26.2067 61.0413 24.8399 61.5958 23.2767C61.8552 22.4846 61.9887 21.6573 61.9916 20.8247C61.9953 20.7286 61.9831 20.6326 61.9556 20.5404ZM56.8466 22.8503C56.4981 23.3964 56.0409 23.8669 55.5028 24.2334C54.9649 24.6 54.3571 24.8549 53.7164 24.9825H49.1831V16.6668L52.6011 16.6313H53.6805C53.7884 16.6668 53.9323 16.6668 54.0402 16.7024C54.6612 16.8328 55.2488 17.0867 55.7672 17.4486C56.2519 17.803 56.6537 18.2561 56.9455 18.7774C57.2371 19.2986 57.412 19.8756 57.4582 20.4693V20.7181C57.4705 21.4725 57.2578 22.2142 56.8466 22.8503ZM100.057 28.4652C100.06 28.446 100.058 28.4264 100.051 28.4079C100.045 28.3895 100.035 28.3728 100.021 28.3586C100.024 28.3394 100.022 28.3198 100.015 28.3013C100.009 28.2829 99.9989 28.2662 99.9852 28.2519V28.1809C99.8431 26.8827 99.7711 25.5778 99.7693 24.2718V13.042H95.5598V21.3933C95.5238 22.0329 95.3799 23.2057 94.8762 23.9519C94.5409 24.4178 94.0987 24.7991 93.586 25.0646C93.0733 25.3301 92.5049 25.4726 91.926 25.48H91.6021C90.9866 25.4149 90.3951 25.2079 89.8752 24.8759C89.1711 24.395 88.6515 23.694 88.4 22.8858V22.8503C88.2817 22.4086 88.2094 21.9562 88.1842 21.4999C88.1625 21.3706 88.1504 21.24 88.1482 21.109C87.9323 17.9462 88.1482 13.0776 88.1482 13.0776L88.0402 13.042H84.0826V21.3577C84.1035 22.6502 84.3218 23.9321 84.7302 25.1602C84.9535 25.7249 85.2434 26.2616 85.5937 26.7594C85.6577 26.8697 85.7433 26.9663 85.8455 27.0437C85.9513 27.1412 86.0477 27.2483 86.1334 27.3635C86.6684 27.9044 87.3034 28.3386 88.0043 28.6428H88.0402C88.9641 29.0172 89.9563 29.1986 90.9545 29.1759C91.1351 29.1844 91.3161 29.1724 91.4942 29.1404C91.4942 29.1404 94.2286 29.1759 95.8117 26.9726C95.8476 27.5767 95.9556 28.4652 96.2434 28.785H100.129C100.122 28.6753 100.098 28.5674 100.057 28.4652Z" fill="#00A0DE"/>
<path d="M267.467 23.5612C267.099 24.2689 266.543 24.8644 265.858 25.2838C265.174 25.7032 264.386 25.9308 263.581 25.9422C261.206 25.9422 259.264 23.9876 259.12 21.5V21.2157C259.114 20.4261 259.299 19.6464 259.659 18.9414C260.012 18.2109 260.565 17.5934 261.257 17.1599C261.949 16.7263 262.751 16.4943 263.57 16.4907C264.389 16.487 265.193 16.7117 265.888 17.1389C266.584 17.5661 267.144 18.1786 267.503 18.9058L267.575 19.048L271.101 17.6265L271.029 17.4843C270.39 16.0127 269.333 14.7558 267.986 13.8663C266.638 12.9768 265.058 12.4929 263.437 12.4736C259.767 12.4736 256.565 14.8901 255.45 18.5149C255.193 19.3686 255.059 20.254 255.054 21.1447V21.4645C255.234 26.1199 258.904 29.7802 263.437 29.7802C265.022 29.7671 266.57 29.309 267.902 28.4596C269.234 27.6103 270.293 26.4042 270.957 24.9827L271.029 24.8405L267.575 23.4546L267.467 23.5612ZM195.185 14.0372C195.035 13.9224 194.879 13.8156 194.717 13.7174C194.681 13.6819 194.646 13.6819 194.61 13.6463L194.322 13.4686L194.178 13.3976C193.998 13.2909 193.818 13.2199 193.674 13.1488C193.602 13.1133 193.566 13.1133 193.494 13.0777C193.422 13.0422 193.314 13.0067 193.206 12.9711C193.098 12.9356 193.098 12.9356 193.026 12.9H192.99C192.847 12.8645 192.703 12.7934 192.595 12.7579C192.487 12.7224 192.415 12.7224 192.343 12.6868C192.271 12.6513 192.163 12.6513 192.091 12.6157C192.019 12.5802 191.875 12.5802 191.731 12.5447C191.659 12.5447 191.551 12.5091 191.479 12.5091C191.35 12.4797 191.217 12.4678 191.084 12.4736H190.904C190.724 12.4736 190.58 12.4381 190.4 12.4381H190.364C190.147 12.432 189.931 12.4441 189.716 12.4736H189.608C189.429 12.5091 189.249 12.5091 189.069 12.5447L188.925 12.5802L188.421 12.6868L188.313 12.7224C188.133 12.7579 187.953 12.829 187.774 12.8645L187.702 12.9L187.126 13.1488C185.284 13.9854 183.795 15.4308 182.916 17.2356L182.844 17.3777C182.679 17.7363 182.535 18.1042 182.413 18.4794C182.156 19.3331 182.022 20.2185 182.017 21.1091V21.429C182.051 22.1486 182.16 22.8632 182.341 23.5612L182.377 23.7389C182.489 24.0896 182.621 24.4336 182.772 24.7695C182.808 24.8405 182.844 24.8761 182.844 24.9471L182.916 25.0893C183.087 25.4212 183.279 25.7418 183.492 26.0488L183.564 26.1199L184.248 26.9728L184.32 27.0438C184.394 27.1354 184.479 27.2188 184.571 27.2926L184.607 27.3281C184.767 27.491 184.935 27.6452 185.111 27.7901C185.147 27.8257 185.183 27.8612 185.219 27.8612C185.291 27.9323 185.399 28.0033 185.471 28.0744L185.543 28.11C185.723 28.2166 185.867 28.3587 186.047 28.4653L186.155 28.5364L186.442 28.7141L186.55 28.7852C186.73 28.8562 186.874 28.9629 187.054 29.0339C187.126 29.0695 187.162 29.0695 187.234 29.105C187.306 29.1405 187.414 29.1761 187.522 29.2116C187.63 29.2471 187.666 29.2472 187.738 29.2827C187.881 29.3182 188.025 29.3893 188.133 29.4248C188.241 29.4604 188.313 29.4604 188.385 29.4959C188.457 29.5314 188.565 29.5314 188.637 29.567C188.709 29.6025 188.853 29.6025 188.997 29.6381C189.069 29.6381 189.177 29.6736 189.249 29.6736C189.378 29.703 189.511 29.715 189.644 29.7091H189.824C190.004 29.7091 190.148 29.7447 190.364 29.7447C190.581 29.7507 190.797 29.7386 191.012 29.7091H191.12C191.301 29.7031 191.482 29.6793 191.659 29.6381L191.803 29.6025L192.307 29.4959L192.415 29.4604C192.595 29.4248 192.775 29.3538 192.954 29.3182L193.062 29.2827L193.602 29.0695H193.638C195.487 28.2433 196.979 26.7948 197.848 24.9827L197.92 24.8405L194.106 23.2769L194.034 23.4191C193.66 24.1196 193.102 24.7075 192.418 25.1203C191.734 25.5332 190.95 25.7558 190.148 25.7645C189.553 25.7738 188.963 25.6525 188.421 25.4091C187.054 24.6629 186.334 23.7744 186.119 22.5662H198.171V22.424C198.351 21.1091 198.531 16.5248 195.185 14.0372ZM194.394 19.4389H186.406C186.478 19.2612 186.55 19.119 186.622 18.9414C186.982 18.2143 187.539 17.6002 188.232 17.1673C188.924 16.7344 189.725 16.4997 190.544 16.4893C191.139 16.48 191.729 16.6013 192.271 16.8447C193.287 17.4108 194.046 18.3386 194.394 19.4389ZM176.548 21.1802L176.476 21.3224C175.109 23.81 172.806 25.267 170.288 25.267C166.258 25.267 162.984 21.4645 162.984 16.7736C162.984 12.0827 166.258 8.28021 170.288 8.28021C173.238 8.28021 175.901 10.3414 177.016 13.5042L177.088 13.6463L181.297 11.8695L181.225 11.7273C179.355 6.85872 175.073 3.73145 170.252 3.73145C163.704 3.73145 158.379 9.55954 158.379 16.7381C158.379 23.9166 163.704 29.7447 170.252 29.7447C174.425 29.7447 178.347 27.2926 180.506 23.3124L180.65 23.0637V23.0281L176.548 21.1802ZM217.276 18.6926C216.125 15.0323 213.031 12.6513 209.397 12.6513H209.109C209.073 12.6513 206.483 12.6868 204.864 14.3571V13.0777H200.186V38.6645H204.864V28.4298C204.984 28.5709 205.116 28.7017 205.259 28.8207H205.295C206.411 29.8513 208.174 30.029 209.181 30.029C211.409 29.9728 213.53 29.0759 215.11 27.5229C216.689 25.9696 217.606 23.878 217.672 21.6777V21.3579C217.705 20.4531 217.571 19.55 217.276 18.6926ZM206.051 17.6265C206.846 16.9927 207.835 16.6422 208.857 16.6314C209.7 16.6422 210.523 16.8794 211.24 17.3177C211.956 17.756 212.538 18.3787 212.923 19.119C213.294 19.8344 213.491 20.6251 213.498 21.429V21.7133C213.465 22.348 213.304 22.9698 213.026 23.5431C212.748 24.1163 212.359 24.6297 211.879 25.0538C211.084 25.6875 210.095 26.0381 209.073 26.0488C208.23 26.0381 207.407 25.8008 206.691 25.3626C205.974 24.9243 205.392 24.3015 205.007 23.5612C204.971 23.4901 204.935 23.3835 204.899 23.3124C204.608 22.6635 204.461 21.961 204.468 21.2513V20.967C204.504 20.3657 204.651 19.7758 204.899 19.2257C205.161 18.6162 205.554 18.0707 206.051 17.6265ZM235.158 23.7744C235.149 23.2746 235.039 22.7816 234.835 22.324C234.631 21.8664 234.337 21.4535 233.97 21.1091L233.934 21.0736C233.621 20.7754 233.284 20.5022 232.927 20.2562L233.179 19.9009C233.562 19.5825 233.87 19.1855 234.081 18.7374C234.292 18.2893 234.402 17.801 234.402 17.3067C234.402 15.4232 232.495 13.5042 230.301 13.1843L228.933 13.1133H228.717L219.831 13.1488V29.1761H224.184L226.343 29.1405H229.689C232.064 28.9629 234.15 27.5058 234.87 25.5157C235.052 25.0015 235.15 24.4615 235.158 23.9166V23.7744ZM230.624 24.4141C230.591 24.7363 230.459 25.0409 230.247 25.2882C230.036 25.5354 229.753 25.7138 229.437 25.8C229.365 25.8356 229.257 25.8356 229.149 25.8711C228.757 25.9387 228.36 25.9743 227.962 25.9777H224.4V22.2108H227.818C228.314 22.2042 228.808 22.2519 229.293 22.3529H229.329C229.365 22.3529 229.365 22.3529 229.401 22.3885C229.437 22.424 229.509 22.424 229.581 22.4595L229.617 22.4951C229.653 22.5306 229.689 22.5306 229.761 22.5662C229.988 22.6947 230.181 22.8743 230.325 23.0903C230.469 23.3064 230.559 23.5529 230.588 23.81V24.1298C230.588 24.1298 230.66 24.3786 230.624 24.4141ZM229.545 18.7992C229.34 18.8915 229.121 18.9514 228.897 18.9769H224.364V16.3116H228.933C229.084 16.3346 229.23 16.3827 229.365 16.4538C229.579 16.5581 229.764 16.7135 229.902 16.9058C230.04 17.0981 230.128 17.3213 230.157 17.5554C230.193 18.1951 230.013 18.5505 229.545 18.7992ZM253.615 29.0339C253.57 28.9455 253.545 28.8485 253.543 28.7496C253.545 28.7304 253.543 28.7109 253.537 28.6924C253.531 28.6739 253.521 28.6572 253.507 28.643L253.471 28.4653C253.327 27.5769 253.291 25.8711 253.255 24.5918V13.1843H248.722V21.7133C248.686 22.3529 248.542 23.4901 248.074 24.2009C247.748 24.6461 247.322 25.0098 246.828 25.2627C246.335 25.5157 245.788 25.6511 245.232 25.6579H244.944C244.351 25.6149 243.781 25.4188 243.289 25.0893C242.635 24.6197 242.145 23.9618 241.886 23.2058V23.1703C241.78 22.7501 241.708 22.3223 241.67 21.8909V21.8554C241.67 21.7133 241.634 21.6067 241.634 21.5356V21.4645C241.418 18.3372 241.634 13.5042 241.634 13.4331V13.2199H237.208V21.7133C237.238 23.0165 237.456 24.3089 237.856 25.5513C238.097 26.1258 238.399 26.6737 238.756 27.186C238.828 27.3008 238.912 27.4081 239.007 27.5058C239.113 27.6034 239.21 27.7104 239.295 27.8257C239.849 28.3858 240.509 28.8326 241.238 29.1405H241.274C242.196 29.5195 243.19 29.7012 244.188 29.6736H244.26C244.441 29.6821 244.622 29.67 244.8 29.6381C245.595 29.6081 246.376 29.4232 247.099 29.0939C247.821 28.7645 248.471 28.2973 249.01 27.719C249.081 28.4653 249.225 28.9629 249.477 29.2116L249.513 29.2472H253.687L253.615 29.0339Z" fill="#3D3834"/>
<path d="M94.4803 8.77734C94.1927 9.14366 93.8285 9.4444 93.4125 9.65902C92.9964 9.8736 92.5385 9.99711 92.0697 10.0211C91.558 10.0365 91.0499 9.93174 90.5871 9.71553C90.1244 9.49946 89.72 9.17785 89.4073 8.77734L87.2846 9.91453C87.6904 10.8019 88.3459 11.5554 89.1731 12.0851C90.0006 12.6146 90.9645 12.8986 91.9503 12.9021C92.9361 12.9057 93.9021 12.6296 94.7336 12.1061C95.5649 11.5827 96.2263 10.8343 96.6391 9.95007L94.4803 8.77734ZM48.6793 38.0245H47.456V41.1517H46.2687V38.0245H45.0454V37.0294H48.7153V38.0245H48.6793ZM51.2697 37.0294H52.4571V37.6335C52.5977 37.4221 52.7903 37.2493 53.0169 37.1314C53.2432 37.0134 53.4961 36.9537 53.7523 36.9583C54.7237 36.9583 55.6592 37.7046 55.6592 39.0906C55.6592 40.4765 54.7597 41.2228 53.7523 41.2228C53.5037 41.2285 53.2572 41.1766 53.0324 41.0718C52.8075 40.9669 52.6107 40.8116 52.4571 40.6187V42.3955H51.2697V37.0294ZM54.4719 39.0906C54.4452 38.9001 54.3638 38.7212 54.2374 38.575C54.1109 38.4288 53.9447 38.3215 53.7584 38.2657C53.572 38.2103 53.3731 38.2092 53.186 38.2626C52.9988 38.3157 52.8312 38.421 52.7029 38.5657C52.5747 38.7104 52.4913 38.8886 52.4628 39.0788C52.4344 39.2693 52.4617 39.4637 52.5423 39.6389C52.6229 39.8141 52.7521 39.9627 52.9158 40.0671C53.0793 40.1716 53.2698 40.2273 53.4645 40.2278C53.6077 40.2231 53.7487 40.1894 53.8782 40.1286C54.008 40.0681 54.1237 39.9819 54.2182 39.8752C54.3125 39.7684 54.3838 39.6438 54.4276 39.5088C54.4711 39.3738 54.4863 39.2316 54.4719 39.0906Z" fill="#00A0DE"/>
<path d="M58.2136 39.9438C58.2136 39.0554 58.8972 38.6289 59.9046 38.6289C60.2489 38.6233 60.591 38.6836 60.912 38.8066V38.7355C60.912 38.238 60.6242 37.9893 60.0126 37.9893C59.6183 37.9845 59.227 38.0569 58.8612 38.2025L58.5734 37.3141C59.0796 37.0813 59.6348 36.9718 60.1925 36.9942C60.4457 36.9761 60.6998 37.0077 60.9408 37.087C61.1816 37.1663 61.4041 37.2918 61.5956 37.4562C61.7608 37.6321 61.8874 37.8393 61.968 38.0657C62.0484 38.2919 62.0809 38.532 62.0634 38.7711V41.1521H60.912V40.6901C60.7556 40.866 60.5614 41.0051 60.3436 41.0973C60.1257 41.1897 59.8897 41.2327 59.6528 41.2231C58.8612 41.2231 58.2136 40.7967 58.2136 39.9438ZM60.912 39.695V39.4818C60.6749 39.377 60.4162 39.3283 60.1565 39.3397C59.6528 39.3397 59.329 39.5529 59.329 39.9083C59.329 40.2636 59.5808 40.4058 59.9766 40.4058C60.5522 40.4058 60.912 40.1215 60.912 39.695Z" fill="#00A0DE"/>
<path d="M68.8274 41.1515H67.6401V39.5878H66.201V41.1515H65.0137V37.0292H66.201V38.6283H67.6401V37.0292H68.8274V41.1515ZM71.6338 39.0903C71.6298 38.806 71.6842 38.5242 71.7935 38.2612C71.9027 37.9984 72.0647 37.7602 72.2699 37.5612C72.475 37.3618 72.7189 37.2058 72.9866 37.102C73.2545 36.9984 73.5409 36.9494 73.8285 36.9581C74.1409 36.9442 74.4524 37.0011 74.7391 37.1244C75.0261 37.2473 75.2808 37.4336 75.4835 37.6688L74.7999 38.344C74.6776 38.2115 74.5268 38.1077 74.3588 38.0402C74.1908 37.9727 74.0098 37.9428 73.8285 37.9531C73.6867 37.962 73.5479 37.9986 73.4205 38.0608C73.293 38.123 73.1792 38.2093 73.0855 38.3149C72.9919 38.4206 72.9204 38.5436 72.875 38.6767C72.8297 38.8096 72.8114 38.9503 72.8211 39.0903C72.8071 39.2341 72.8236 39.3793 72.8696 39.5164C72.9157 39.6535 72.9902 39.7797 73.0884 39.8867C73.1866 39.9937 73.3064 40.0793 73.4399 40.138C73.5736 40.1967 73.7182 40.2272 73.8645 40.2275C74.2315 40.213 74.5791 40.0605 74.8359 39.8011L75.5195 40.4763C75.2994 40.7234 75.0258 40.9183 74.719 41.0468C74.4122 41.1752 74.08 41.2337 73.7472 41.218C73.4144 41.2024 73.0894 41.1129 72.7963 40.9562C72.5033 40.7996 72.2497 40.5798 72.0544 40.3132C71.7929 39.9566 71.6463 39.5304 71.6338 39.0903ZM81.9957 41.1515H80.8084V38.0242H79.3692V41.1515H78.1819V37.0292H81.9597V41.1515H81.9957ZM84.802 39.0903C84.8063 38.8025 84.8686 38.5182 84.9852 38.2545C85.1018 37.9906 85.2706 37.7523 85.4817 37.5537C85.6929 37.3554 85.9418 37.2001 86.2146 37.0981C86.4873 36.9961 86.7773 36.9481 87.0687 36.9581C87.3582 36.9486 87.6467 36.9967 87.9171 37.0995C88.1873 37.2022 88.4337 37.3579 88.6421 37.5569C88.8502 37.7558 89.0157 37.9942 89.1285 38.2577C89.2413 38.5211 89.2994 38.8043 89.2994 39.0903C89.2954 39.3782 89.2332 39.6624 89.1163 39.9262C88.9996 40.1901 88.8308 40.4283 88.6197 40.627C88.4085 40.8254 88.1594 40.9803 87.8869 41.0825C87.6145 41.1849 87.3241 41.2325 87.0327 41.2226C86.7416 41.2382 86.4506 41.1945 86.1775 41.0939C85.9045 40.9932 85.6554 40.8379 85.4461 40.6376C85.2365 40.4375 85.0711 40.1967 84.9603 39.9304C84.8495 39.6643 84.7956 39.3782 84.802 39.0903ZM88.1481 39.0903C88.1553 38.945 88.1329 38.7998 88.0822 38.6632C88.0315 38.5267 87.9534 38.4017 87.8527 38.2957C87.7519 38.1895 87.6305 38.1044 87.4958 38.0455C87.3612 37.9869 87.2159 37.9553 87.0687 37.9531C86.9198 37.9496 86.7718 37.9771 86.6344 38.0339C86.497 38.0907 86.3733 38.1756 86.2714 38.2829C86.1692 38.3902 86.0915 38.5178 86.0429 38.6568C85.9943 38.7959 85.9761 38.9437 85.9893 39.0903C85.9821 39.2356 86.0045 39.3809 86.0552 39.5175C86.1059 39.654 86.184 39.779 86.2847 39.8849C86.3855 39.9912 86.5069 40.0762 86.6416 40.1351C86.7762 40.1938 86.9215 40.2254 87.0687 40.2275C87.2176 40.2311 87.3656 40.2036 87.503 40.1467C87.6404 40.0899 87.7641 40.0051 87.866 39.8977C87.9682 39.7904 88.0459 39.6628 88.0945 39.5239C88.143 39.3847 88.1613 39.237 88.1481 39.0903ZM92.1057 37.0292H93.293V37.6333C93.4337 37.4219 93.6263 37.2491 93.8529 37.1312C94.0792 37.0132 94.3321 36.9535 94.5883 36.9581C95.5597 36.9581 96.4952 37.7044 96.4952 39.0903C96.4952 40.4763 95.5957 41.2226 94.5883 41.2226C94.3397 41.2282 94.0932 41.1764 93.8683 41.0715C93.6435 40.9667 93.4467 40.8114 93.293 40.6184V42.3953H92.1057V37.0292ZM95.3078 39.0903C95.2823 38.8984 95.2014 38.7183 95.0744 38.5708C94.9477 38.4234 94.7807 38.3152 94.5933 38.2591C94.4059 38.2033 94.2062 38.2019 94.018 38.2548C93.8298 38.3078 93.6611 38.4141 93.5323 38.5594C93.4033 38.7049 93.3195 38.8841 93.291 39.0755C93.2625 39.2668 93.2904 39.4622 93.3715 39.6383C93.4526 39.8144 93.5833 39.9636 93.7481 40.0681C93.9129 40.1726 94.1046 40.2279 94.3004 40.2275C94.4436 40.2229 94.5847 40.1891 94.7142 40.1284C94.844 40.0679 94.9597 39.9816 95.0542 39.875C95.1485 39.7682 95.2198 39.6435 95.2636 39.5086C95.3071 39.3736 95.3222 39.2314 95.3078 39.0903ZM102.396 38.0242H101.172V41.1515H99.9851V38.0242H98.7618V37.0292H102.432V38.0242H102.396ZM108.8 41.1515H107.613V39.5878H106.173V41.1515H104.986V37.0292H106.173V38.6283H107.613V37.0292H108.8V41.1515Z" fill="#00A0DE"/>
<path d="M111.57 39.9438C111.57 39.0554 112.254 38.6289 113.261 38.6289C113.606 38.6233 113.948 38.6836 114.269 38.8066V38.7355C114.269 38.238 113.981 37.9893 113.369 37.9893C112.975 37.9845 112.584 38.0569 112.218 38.2025L111.93 37.3141C112.436 37.0813 112.991 36.9718 113.549 36.9942C113.802 36.9761 114.056 37.0077 114.298 37.087C114.538 37.1663 114.761 37.2918 114.952 37.4562C115.117 37.6321 115.244 37.8393 115.325 38.0657C115.405 38.2919 115.438 38.532 115.42 38.7711V41.1521H114.269V40.6901C114.112 40.866 113.918 41.0051 113.7 41.0973C113.482 41.1897 113.246 41.2327 113.009 41.2231C112.218 41.2231 111.57 40.7967 111.57 39.9438ZM114.269 39.695V39.4818C114.032 39.377 113.773 39.3283 113.513 39.3397C113.009 39.3397 112.686 39.5529 112.686 39.9083C112.686 40.2636 112.938 40.4058 113.333 40.4058C113.909 40.4058 114.269 40.1215 114.269 39.695Z" fill="#00A0DE"/>
<path d="M122.04 41.1517H120.889V39.8368H120.241L119.378 41.1517H118.01L119.09 39.6236C118.828 39.5387 118.601 39.3709 118.445 39.1463C118.289 38.9215 118.212 38.6521 118.226 38.3798C118.226 37.5624 118.838 36.9939 119.917 36.9939H122.112V41.1517H122.04ZM120.889 38.9839V37.9534H120.097C119.666 37.9534 119.414 38.131 119.414 38.4864C119.414 38.8418 119.666 38.9839 120.097 38.9839H120.889ZM129.344 37.0294H130.531V38.7352L132.006 37.0294H133.373L131.826 38.7352L133.553 41.1517H132.15L131.035 39.5881L130.495 40.1567V41.1517H129.308V37.0294H129.344ZM135.604 39.0905C135.608 38.8027 135.671 38.5184 135.787 38.2547C135.904 37.9908 136.073 37.7526 136.284 37.5539C136.495 37.3556 136.744 37.2003 137.017 37.0983C137.289 36.9963 137.579 36.9484 137.871 36.9583C138.16 36.9489 138.449 36.997 138.719 37.0998C138.989 37.2025 139.236 37.3581 139.444 37.5571C139.652 37.7561 139.818 37.9944 139.931 38.2579C140.043 38.5214 140.102 38.8045 140.102 39.0905C140.098 39.3784 140.035 39.6627 139.918 39.9264C139.802 40.1903 139.633 40.4285 139.422 40.6272C139.211 40.8256 138.961 40.9805 138.689 41.0828C138.417 41.1851 138.126 41.2327 137.835 41.2228C137.544 41.2384 137.253 41.1947 136.98 41.0941C136.707 40.9934 136.458 40.8381 136.248 40.6378C136.039 40.4377 135.873 40.197 135.762 39.9306C135.652 39.6645 135.598 39.3784 135.604 39.0905ZM138.95 39.0905C138.957 38.9452 138.935 38.8 138.884 38.6634C138.834 38.5269 138.756 38.4019 138.655 38.2959C138.554 38.1897 138.433 38.1046 138.298 38.0458C138.163 37.9871 138.018 37.9555 137.871 37.9534C137.722 37.9498 137.574 37.9773 137.437 38.0341C137.299 38.091 137.175 38.1758 137.074 38.2831C136.971 38.3905 136.894 38.518 136.845 38.657C136.796 38.7962 136.778 38.9439 136.791 39.0905C136.784 39.2358 136.807 39.3811 136.857 39.5177C136.908 39.6542 136.986 39.7792 137.087 39.8852C137.188 39.9914 137.309 40.0765 137.444 40.1353C137.578 40.194 137.724 40.2256 137.871 40.2277C138.019 40.228 138.165 40.1983 138.301 40.1403C138.437 40.0825 138.559 39.9975 138.661 39.8908C138.762 39.7842 138.84 39.6582 138.89 39.5205C138.939 39.3828 138.96 39.2365 138.95 39.0905ZM142.908 37.0294H144.095L145.211 38.7707L146.362 37.0294H147.549V41.1517H146.362V38.6641L145.211 40.3699L144.059 38.6996V41.1517H142.908V37.0294ZM154.349 41.1517H153.162V38.0244H151.723V41.1517H150.535V37.0294H154.349V41.1517Z" fill="#00A0DE"/>
<path d="M157.119 39.9438C157.119 39.0554 157.803 38.6289 158.81 38.6289C159.155 38.6233 159.497 38.6836 159.818 38.8066V38.7355C159.818 38.238 159.53 37.9893 158.918 37.9893C158.524 37.9845 158.133 38.0569 157.767 38.2025L157.479 37.3141C157.985 37.0813 158.541 36.9718 159.098 36.9942C159.352 36.9761 159.606 37.0077 159.847 37.087C160.087 37.1663 160.31 37.2918 160.501 37.4562C160.667 37.6321 160.793 37.8393 160.874 38.0657C160.954 38.2919 160.987 38.532 160.969 38.7711V41.1521H159.818V40.6901C159.661 40.866 159.467 41.0051 159.249 41.0973C159.031 41.1897 158.795 41.2327 158.559 41.2231C157.767 41.2231 157.119 40.7967 157.119 39.9438ZM159.818 39.695V39.4818C159.581 39.377 159.322 39.3283 159.062 39.3397C158.559 39.3397 158.235 39.5529 158.235 39.9083C158.235 40.2636 158.487 40.4058 158.882 40.4058C159.458 40.4058 159.818 40.1215 159.818 39.695Z" fill="#00A0DE"/>
<path d="M167.733 41.152H166.546V39.5884H165.107V41.152H163.919V37.0297H165.107V38.6289H166.546V37.0297H167.733V41.152ZM174.605 41.152H173.454V38.771L171.835 41.152H170.719V37.0297H171.871V39.4462L173.49 37.0297H174.605V41.152ZM181.297 41.152H180.11V39.8371H179.462L178.599 41.152H177.232L178.311 39.6239C178.049 39.539 177.822 39.3712 177.666 39.1466C177.51 38.9218 177.433 38.6524 177.447 38.3801C177.447 37.5627 178.059 36.9941 179.138 36.9941H181.333L181.297 41.152ZM180.11 38.9842V37.9536H179.318C178.887 37.9536 178.635 38.1313 178.635 38.4867C178.635 38.8421 178.887 38.9842 179.318 38.9842H180.11Z" fill="#00A0DE"/>
</svg>
