<svg width="175" height="43" viewBox="0 0 175 43" fill="none" xmlns="http://www.w3.org/2000/svg">
<g clip-path="url(#clip0_1153_5193)">
<path d="M45.756 25.6199C46.918 25.6199 47.805 25.3199 48.414 24.7199C49.022 24.1199 49.419 23.2299 49.604 22.0489H44.15C43.947 22.0489 43.8 22.0269 43.708 21.9789C43.616 21.9329 43.568 21.7909 43.568 21.5459V18.5099C43.568 18.2639 43.61 18.1119 43.694 18.0479C43.776 17.9829 43.929 17.9509 44.15 17.9509H49.549C49.455 17.3829 49.299 16.9079 49.078 16.5259C48.8742 16.161 48.5958 15.8431 48.261 15.5929C47.934 15.3528 47.5624 15.1805 47.168 15.0859C46.7602 14.984 46.3413 14.933 45.921 14.9339C45.59 14.9339 45.286 14.9419 45.008 14.9619C44.731 14.9799 44.459 15.0159 44.191 15.0719C43.924 15.1279 43.648 15.1959 43.362 15.2799C43.075 15.3629 42.747 15.4599 42.379 15.5699C42.046 15.6809 41.82 15.7039 41.7 15.6399C41.58 15.5749 41.456 15.3679 41.327 15.0159L40.467 12.7459C40.4055 12.5978 40.3551 12.4454 40.316 12.2899C40.288 12.1699 40.28 12.0679 40.288 11.9859C40.298 11.9019 40.344 11.8339 40.428 11.7779C40.51 11.7219 40.625 11.6479 40.773 11.5559C41.6061 11.1242 42.4958 10.8122 43.416 10.6289C44.367 10.4349 45.378 10.3379 46.448 10.3379C47.851 10.3379 49.101 10.5549 50.198 10.9879C51.297 11.4219 52.22 12.0499 52.967 12.8709C53.714 13.6909 54.282 14.6939 54.669 15.8749C55.057 17.0549 55.25 18.3949 55.25 19.8889C55.25 21.3289 55.089 22.6809 54.767 23.9439C54.443 25.2079 53.927 26.3109 53.217 27.2519C52.506 28.1939 51.579 28.9359 50.434 29.4809C49.289 30.0249 47.897 30.2979 46.254 30.2979C45.054 30.2979 43.888 30.1719 42.753 29.9239C41.617 29.6739 40.496 29.2179 39.389 28.5539C39.185 28.4419 39.075 28.3139 39.057 28.1659C39.037 28.0189 39.093 27.8059 39.223 27.5289L40.413 25.0389C40.542 24.7239 40.667 24.5489 40.787 24.5109C40.907 24.4749 41.105 24.5109 41.382 24.6229C41.972 24.8439 42.613 25.0659 43.306 25.2859C43.998 25.5079 44.815 25.6189 45.756 25.6189V25.6199ZM75.459 29.4119C75.459 29.6339 75.427 29.7859 75.362 29.8699C75.298 29.9519 75.109 29.9939 74.795 29.9939H70.864C70.44 29.9939 70.227 29.7999 70.227 29.4119V22.1049H64.082V29.4119C64.082 29.6339 64.05 29.7859 63.984 29.8699C63.92 29.9519 63.73 29.9939 63.417 29.9939H59.487C59.062 29.9939 58.85 29.7999 58.85 29.4119V11.1979C58.85 10.8099 59.062 10.6159 59.487 10.6159H63.417C63.73 10.6159 63.92 10.6579 63.984 10.7399C64.05 10.8239 64.082 10.9759 64.082 11.1979V17.7299H70.227V11.1979C70.227 10.8099 70.44 10.6159 70.864 10.6159H74.795C75.109 10.6159 75.298 10.6579 75.362 10.7399C75.427 10.8239 75.459 10.9759 75.459 11.1979V29.4119ZM94.062 29.3579C94.062 29.7819 93.887 29.9939 93.535 29.9939H84.981C83.875 29.9939 82.975 29.8369 82.283 29.5239C81.591 29.2099 81.046 28.7989 80.65 28.2909C80.2562 27.7903 79.9773 27.2093 79.833 26.5889C79.6878 25.9812 79.6137 25.3587 79.612 24.7339V15.8759C79.612 15.2109 79.704 14.5609 79.889 13.9239C80.073 13.2869 80.373 12.7239 80.789 12.2359C81.204 11.7459 81.753 11.3539 82.436 11.0599C83.118 10.7639 83.948 10.6159 84.927 10.6159H93.093C93.315 10.6159 93.457 10.6479 93.521 10.7119C93.587 10.7779 93.619 10.9659 93.619 11.2819V14.4079C93.619 14.6489 93.581 14.8099 93.509 14.8929C93.435 14.9749 93.296 15.0169 93.093 15.0169H86.505C86.135 15.0169 85.84 15.0689 85.619 15.1709C85.397 15.2709 85.231 15.3959 85.121 15.5439C85.0095 15.6905 84.9335 15.861 84.899 16.0419C84.8618 16.2239 84.843 16.4091 84.843 16.5949V17.7579H92.263C92.484 17.7579 92.626 17.7959 92.692 17.8699C92.756 17.9429 92.788 18.1369 92.788 18.4499V21.3299C92.788 21.7529 92.612 21.9669 92.263 21.9669H84.843V24.0419C84.843 24.3919 84.885 24.6699 84.967 24.8729C85.051 25.0749 85.167 25.2269 85.315 25.3289C85.462 25.4309 85.637 25.4949 85.84 25.5229C86.0604 25.552 86.2826 25.566 86.505 25.5649H93.535C93.757 25.5649 93.901 25.5969 93.965 25.6619C94.03 25.7259 94.062 25.9159 94.062 26.2299V29.3579ZM102.339 29.4399C102.339 29.6619 102.307 29.8099 102.243 29.8829C102.177 29.9569 101.989 29.9929 101.675 29.9929H97.744C97.319 29.9929 97.107 29.8099 97.107 29.4399V12.4439C97.107 11.9439 97.217 11.5149 97.439 11.1559C97.66 10.7959 98.149 10.6159 98.907 10.6159H105.938C107.027 10.6159 107.99 10.7719 108.831 11.0869C109.671 11.4009 110.376 11.8389 110.948 12.4019C111.518 12.9618 111.961 13.6368 112.249 14.3819C112.545 15.1369 112.692 15.9579 112.692 16.8449C112.692 17.1399 112.665 17.5079 112.609 17.9519C112.554 18.3949 112.439 18.8569 112.263 19.3359C112.087 19.8159 111.833 20.3009 111.502 20.7899C111.17 21.2779 110.722 21.7169 110.159 22.1049C109.596 22.4919 108.895 22.8049 108.056 23.0449C107.216 23.2849 106.214 23.4049 105.052 23.4049H102.339V29.4399ZM107.295 17.2049C107.295 17.0209 107.267 16.8029 107.211 16.5539C107.158 16.3115 107.06 16.0814 106.921 15.8759C106.766 15.6573 106.562 15.4774 106.326 15.3499C106.066 15.2029 105.735 15.1289 105.329 15.1289H102.339V19.3089H105.329C105.974 19.3089 106.464 19.0919 106.796 18.6589C107.127 18.2239 107.295 17.7389 107.295 17.2049ZM120.83 29.4399C120.83 29.6619 120.798 29.8099 120.732 29.8829C120.668 29.9569 120.479 29.9929 120.165 29.9929H116.235C115.81 29.9929 115.598 29.8099 115.598 29.4399V15.8759C115.598 15.2109 115.69 14.5609 115.874 13.9239C116.059 13.2869 116.359 12.7239 116.774 12.2359C117.19 11.7459 117.739 11.3539 118.421 11.0599C119.104 10.7639 119.935 10.6159 120.914 10.6159H129.328C129.55 10.6159 129.693 10.6479 129.758 10.7119C129.822 10.7779 129.855 10.9659 129.855 11.2819V14.4079C129.855 14.6489 129.817 14.8099 129.743 14.8929C129.67 14.9749 129.532 15.0169 129.328 15.0169H122.49C122.122 15.0169 121.827 15.0689 121.605 15.1709C121.383 15.2709 121.217 15.3959 121.107 15.5439C120.996 15.6906 120.92 15.8611 120.886 16.0419C120.849 16.2239 120.83 16.4091 120.83 16.5949V29.4399ZM144.028 18.9489L141.536 23.0459L137.772 28.7489C137.62 28.9806 137.453 29.2021 137.272 29.4119C137.141 29.5654 136.982 29.6924 136.803 29.7859C136.637 29.8699 136.443 29.9259 136.222 29.9519C136 29.9799 135.732 29.9939 135.419 29.9939H134.118C133.288 29.9939 132.742 29.7859 132.484 29.3699C132.226 28.9559 132.097 28.4349 132.097 27.8079V11.1979C132.097 10.8099 132.309 10.6159 132.734 10.6159H136.526C136.839 10.6159 137.029 10.6579 137.093 10.7399C137.158 10.8239 137.191 10.9759 137.191 11.1979V21.7179H137.384L139.82 17.8959L143.64 11.8629C143.825 11.5669 143.99 11.3359 144.138 11.1699C144.286 11.0039 144.442 10.8799 144.61 10.7959C144.776 10.7119 144.97 10.6619 145.191 10.6439C145.411 10.6259 145.679 10.6159 145.993 10.6159H147.295C148.07 10.6159 148.599 10.7639 148.887 11.0599C149.172 11.3539 149.315 11.9349 149.315 12.8039V29.4119C149.315 29.7999 149.103 29.9939 148.679 29.9939H144.886C144.572 29.9939 144.382 29.9519 144.318 29.8699C144.254 29.7859 144.222 29.6339 144.222 29.4119V18.9499L144.028 18.9489ZM153.745 24.0149C153.911 23.2949 154.159 22.6949 154.492 22.2149C154.824 21.7349 155.415 21.3849 156.264 21.1639V21.1079C155.691 20.9419 155.211 20.6969 154.824 20.3749C154.449 20.0662 154.134 19.6901 153.897 19.2659C153.663 18.8464 153.495 18.3939 153.397 17.9239C153.297 17.4439 153.246 16.9549 153.246 16.4569C153.246 15.5709 153.384 14.7729 153.661 14.0619C153.931 13.3616 154.358 12.7323 154.908 12.2219C155.461 11.7049 156.148 11.3079 156.969 11.0319C157.79 10.7539 158.745 10.6159 159.834 10.6159H166.894C167.651 10.6159 168.14 10.7779 168.36 11.0999C168.582 11.4229 168.693 11.8699 168.693 12.4439V29.4399C168.693 29.8099 168.48 29.9939 168.056 29.9939H164.125C163.811 29.9939 163.622 29.9569 163.558 29.8839C163.493 29.8099 163.461 29.6619 163.461 29.4399V22.4099H161.661C160.887 22.4099 160.328 22.5899 159.986 22.9499C159.646 23.3099 159.373 23.8859 159.171 24.6799L158.062 29.3029C158.023 29.46 157.942 29.6037 157.828 29.7189C157.726 29.8109 157.606 29.8789 157.467 29.9259C157.324 29.9726 157.175 29.9959 157.025 29.9949H152.72C152.499 29.9949 152.383 29.9399 152.375 29.8289C152.365 29.7189 152.388 29.5329 152.443 29.2749L153.745 24.0149ZM158.644 16.7069C158.644 17.2419 158.811 17.6419 159.143 17.9099C159.474 18.1779 159.862 18.3109 160.305 18.3109H163.461V15.1299H160.305C159.696 15.1299 159.267 15.2959 159.017 15.6269C158.777 15.9358 158.646 16.3156 158.644 16.7069Z" fill="#44749D"/>
<path d="M42.178 34.2494H42.149C42.1263 34.2933 42.1069 34.3387 42.091 34.3854C42.06 34.4664 42.025 34.5534 41.987 34.6464L41.884 34.9104L41.831 35.0504C41.8087 35.1085 41.7854 35.1662 41.761 35.2234L41.641 35.5164L41.498 35.8704C41.447 35.9964 41.398 36.1134 41.35 36.2244L41.228 36.5174L41.158 36.6844C41.1382 36.7535 41.1018 36.8167 41.052 36.8684C41.013 36.9024 40.947 36.9184 40.858 36.9184H40.664C40.575 36.9184 40.508 36.9024 40.468 36.8684C40.4156 36.8181 40.3779 36.7545 40.359 36.6844C40.348 36.6524 40.323 36.5944 40.287 36.5114C40.249 36.4284 40.209 36.3314 40.163 36.2214L40.016 35.8704C39.9667 35.7537 39.9181 35.6367 39.87 35.5194C39.824 35.4104 39.783 35.3124 39.746 35.2294C39.71 35.1454 39.684 35.0884 39.673 35.0564L39.373 34.3074H39.339V37.2994C39.339 37.3424 39.33 37.3694 39.315 37.3814C39.3 37.3924 39.272 37.3984 39.229 37.3984H38.94C38.9106 37.4006 38.8812 37.3947 38.855 37.3814C38.838 37.3694 38.829 37.3424 38.829 37.2994V33.5874C38.829 33.4974 38.848 33.4274 38.887 33.3734C38.927 33.3204 39.003 33.2934 39.116 33.2934H39.273C39.36 33.2934 39.423 33.3094 39.47 33.3384C39.514 33.3684 39.556 33.4304 39.595 33.5284L40.402 35.5304C40.409 35.5474 40.43 35.5984 40.462 35.6864L40.574 35.9734C40.614 36.0764 40.652 36.1714 40.685 36.2594C40.719 36.3474 40.738 36.3994 40.747 36.4154H40.77C40.775 36.3984 40.794 36.3484 40.829 36.2624C40.9044 36.0781 40.9774 35.8927 41.048 35.7064C41.0662 35.6549 41.0865 35.6042 41.109 35.5544L41.197 35.3344C41.239 35.2274 41.289 35.1044 41.347 34.9634C41.402 34.8224 41.463 34.6734 41.527 34.5154L41.706 34.0734L41.846 33.7194C41.884 33.6194 41.909 33.5564 41.922 33.5284C41.961 33.4304 42.004 33.3684 42.05 33.3384C42.1093 33.3061 42.1765 33.2909 42.244 33.2944H42.401C42.519 33.2944 42.595 33.3204 42.631 33.3744C42.6714 33.4378 42.691 33.5123 42.687 33.5874V37.2994C42.687 37.3424 42.68 37.3694 42.665 37.3814C42.648 37.3924 42.62 37.3984 42.577 37.3984H42.289C42.249 37.3984 42.222 37.3924 42.205 37.3814C42.187 37.3694 42.178 37.3424 42.178 37.2994V34.2494ZM46.301 37.2754C46.301 37.3184 46.294 37.3494 46.28 37.3694C46.266 37.3894 46.237 37.3984 46.19 37.3984H44.56C44.37 37.3984 44.211 37.3714 44.084 37.3184C43.967 37.2706 43.8628 37.1959 43.78 37.1004C43.7024 37.0086 43.647 36.9001 43.618 36.7834C43.5866 36.6572 43.5712 36.5275 43.572 36.3974V34.3004C43.572 34.1684 43.589 34.0414 43.624 33.9174C43.6578 33.7989 43.7168 33.6891 43.797 33.5954C43.8824 33.5007 43.9875 33.426 44.105 33.3764C44.229 33.3224 44.382 33.2944 44.561 33.2944H46.16C46.203 33.2944 46.23 33.3044 46.245 33.3244C46.259 33.3434 46.265 33.3744 46.265 33.4174V33.6634C46.265 33.7054 46.259 33.7364 46.245 33.7534C46.231 33.7714 46.203 33.7804 46.16 33.7804H44.568C44.403 33.7804 44.285 33.8174 44.212 33.8884C44.142 33.9604 44.105 34.0734 44.105 34.2254V34.9864H45.966C46.009 34.9864 46.039 34.9964 46.051 35.0164C46.065 35.0354 46.072 35.0664 46.072 35.1094V35.3324C46.0744 35.3631 46.0675 35.3938 46.052 35.4204C46.039 35.4404 46.009 35.4494 45.966 35.4494H44.105V36.4694C44.105 36.6014 44.14 36.7064 44.21 36.7864C44.28 36.8664 44.4 36.9064 44.568 36.9064H46.189C46.237 36.9064 46.266 36.9174 46.279 36.9364C46.294 36.9554 46.301 36.9864 46.301 37.0304V37.2754ZM47.682 35.1734C47.5516 35.1096 47.442 35.0101 47.366 34.8864C47.2828 34.7501 47.2214 34.6017 47.184 34.4464L46.932 33.4004C46.9246 33.3775 46.9235 33.3529 46.929 33.3294C46.936 33.3024 46.96 33.2894 47.003 33.2894H47.325C47.345 33.2894 47.365 33.2924 47.387 33.2994C47.407 33.3084 47.423 33.3294 47.43 33.3644L47.693 34.3774C47.73 34.5054 47.774 34.6104 47.829 34.6874C47.8721 34.7536 47.9278 34.8107 47.993 34.8553C48.0583 34.8999 48.1316 34.9312 48.209 34.9474C48.279 34.9614 48.347 34.9684 48.414 34.9684H49.069V33.3884C49.066 33.3484 49.071 33.3244 49.085 33.3154C49.099 33.3054 49.122 33.2994 49.158 33.2994H49.503C49.535 33.2994 49.559 33.3054 49.573 33.3154C49.589 33.3254 49.598 33.3484 49.598 33.3874V34.9684H50.258C50.321 34.9684 50.388 34.9614 50.458 34.9484C50.5353 34.9322 50.6087 34.9009 50.6739 34.8563C50.7391 34.8117 50.7949 34.7546 50.838 34.6884C50.893 34.6104 50.938 34.5054 50.974 34.3774L51.237 33.3644C51.244 33.3294 51.259 33.3084 51.28 33.2994C51.3 33.2928 51.3209 33.2894 51.342 33.2894H51.669C51.712 33.2894 51.737 33.3024 51.743 33.3294C51.7483 33.3526 51.7472 33.3768 51.74 33.3994L51.482 34.4474C51.4482 34.6029 51.388 34.7514 51.304 34.8864C51.2273 35.0088 51.1187 35.108 50.99 35.1734V35.2034C51.0796 35.2294 51.1648 35.2685 51.243 35.3194C51.3688 35.4132 51.4644 35.5419 51.518 35.6894C51.545 35.7634 51.57 35.8454 51.594 35.9344L51.956 37.2944C51.965 37.3134 51.965 37.3354 51.959 37.3604C51.954 37.3854 51.927 37.3984 51.881 37.3984H51.523C51.5018 37.3987 51.4808 37.3949 51.461 37.3874C51.441 37.3784 51.425 37.3574 51.418 37.3234L51.061 36.0164C51.0362 35.9196 50.9989 35.8265 50.95 35.7394C50.9113 35.6715 50.8581 35.6129 50.7941 35.568C50.7301 35.523 50.657 35.4928 50.58 35.4794C50.4914 35.4621 50.4012 35.454 50.311 35.4554H49.598V37.3104C49.598 37.3504 49.589 37.3744 49.574 37.3844C49.552 37.3954 49.5275 37.4002 49.503 37.3984H49.164C49.128 37.3984 49.103 37.3944 49.087 37.3844C49.072 37.3744 49.064 37.3494 49.064 37.3104L49.069 35.4554H48.355C48.254 35.4554 48.165 35.4624 48.086 35.4784C48.0114 35.4924 47.9408 35.5224 47.879 35.5664C47.8144 35.6125 47.7599 35.6714 47.719 35.7394C47.6684 35.826 47.63 35.9193 47.605 36.0164L47.255 37.3234C47.243 37.3574 47.228 37.3784 47.208 37.3874C47.1895 37.3947 47.1698 37.3981 47.15 37.3974H46.793C46.745 37.3974 46.717 37.3854 46.71 37.3604C46.7016 37.3389 46.7016 37.315 46.71 37.2934L47.079 35.9344C47.1002 35.8515 47.1256 35.7698 47.155 35.6894C47.1823 35.6167 47.2189 35.5478 47.264 35.4844C47.3099 35.4207 47.366 35.3649 47.43 35.3194C47.5078 35.2682 47.5927 35.2288 47.682 35.2024V35.1734ZM53.492 35.8704C53.472 36.0304 53.451 36.1644 53.43 36.2724C53.4112 36.3659 53.3875 36.4584 53.359 36.5494C53.3374 36.6185 53.3096 36.6854 53.276 36.7494C53.247 36.8034 53.216 36.8574 53.18 36.9134H55.24V33.7794H53.755L53.492 35.8704ZM52.77 37.3984L52.712 38.2714C52.708 38.3294 52.682 38.3584 52.635 38.3584H52.349C52.326 38.3584 52.308 38.3534 52.296 38.3424C52.284 38.3294 52.277 38.3054 52.273 38.2714L52.196 37.1344C52.1915 37.0825 52.2057 37.0308 52.236 36.9884C52.264 36.9494 52.317 36.9274 52.396 36.9184L52.584 36.9064C52.649 36.8324 52.704 36.7524 52.75 36.6664C52.794 36.5814 52.833 36.4854 52.864 36.3794C52.896 36.2744 52.921 36.1564 52.944 36.0254C52.964 35.8954 52.987 35.7434 53.01 35.5724L53.25 33.7044C53.2621 33.5961 53.3013 33.4926 53.364 33.4034C53.421 33.3304 53.518 33.2934 53.654 33.2934H55.416C55.546 33.2934 55.638 33.3244 55.696 33.3844C55.752 33.4464 55.78 33.5384 55.78 33.6644V36.9184L55.98 36.9304C56.0338 36.9327 56.0853 36.9531 56.126 36.9884C56.165 37.0244 56.184 37.0804 56.184 37.1584L56.114 38.2714C56.109 38.3054 56.102 38.3294 56.09 38.3414C56.079 38.3534 56.06 38.3584 56.038 38.3584H55.751C55.7339 38.3592 55.7171 38.3535 55.704 38.3424C55.692 38.3294 55.687 38.3054 55.687 38.2714L55.651 37.3984H52.77ZM58.28 36.8014C58.225 36.9424 58.168 37.0594 58.107 37.1534C58.0549 37.2374 57.9863 37.31 57.9053 37.3668C57.8244 37.4235 57.7327 37.4632 57.636 37.4834C57.5282 37.5063 57.4182 37.517 57.308 37.5154C57.258 37.5154 57.191 37.5124 57.108 37.5044C57.0208 37.4953 56.9347 37.4775 56.851 37.4514C56.811 37.4404 56.788 37.4274 56.778 37.4164C56.768 37.4054 56.768 37.3864 56.776 37.3574L56.834 37.0654C56.841 37.0354 56.852 37.0164 56.866 37.0124C56.8881 37.0081 56.9109 37.0081 56.933 37.0124C57.02 37.0244 57.092 37.0324 57.151 37.0384C57.2068 37.0442 57.263 37.0452 57.319 37.0414C57.4178 37.0406 57.5146 37.0129 57.599 36.9614C57.675 36.9134 57.739 36.8214 57.795 36.6844L57.952 36.2744H57.859C57.8045 36.2764 57.7501 36.2676 57.699 36.2484C57.658 36.2304 57.616 36.1714 57.577 36.0694L56.448 33.3644C56.428 33.3184 56.448 33.2944 56.507 33.2944H56.917C56.955 33.2944 56.982 33.3024 56.994 33.3184C57.0089 33.3351 57.0198 33.3549 57.026 33.3764L57.643 34.9044L58.046 35.9234H58.087L58.479 34.8634L59.048 33.3634C59.059 33.3334 59.073 33.3134 59.091 33.3054C59.1148 33.2973 59.1399 33.2935 59.165 33.2944H59.533C59.565 33.2944 59.585 33.3024 59.592 33.3184C59.6 33.3334 59.6 33.3514 59.592 33.3714L58.28 36.8014ZM62.707 33.4004C62.707 33.3574 62.716 33.3294 62.734 33.3184C62.75 33.3054 62.778 33.2994 62.817 33.2994H63.134C63.177 33.2994 63.206 33.3054 63.222 33.3184C63.237 33.3284 63.245 33.3574 63.245 33.4004V37.2994C63.245 37.3424 63.237 37.3694 63.222 37.3814C63.206 37.3924 63.177 37.3984 63.134 37.3984H62.817C62.778 37.3984 62.75 37.3924 62.734 37.3814C62.716 37.3694 62.707 37.3424 62.707 37.2994V35.4714H60.645V37.2994C60.645 37.3424 60.638 37.3694 60.622 37.3814C60.606 37.3924 60.576 37.3984 60.534 37.3984H60.208C60.179 37.3997 60.1502 37.3938 60.124 37.3814C60.104 37.3694 60.094 37.3424 60.094 37.2994V33.3994C60.094 33.3574 60.104 33.3294 60.124 33.3184C60.1498 33.3046 60.1788 33.2981 60.208 33.2994H60.534C60.576 33.2994 60.606 33.3054 60.622 33.3184C60.638 33.3284 60.645 33.3574 60.645 33.4004V35.0034H62.707V33.4004ZM66.753 37.3984C66.7242 37.3998 66.6954 37.3961 66.668 37.3874C66.647 37.3784 66.628 37.3534 66.612 37.3104L66.319 36.4504H64.669L64.376 37.3104C64.356 37.3694 64.315 37.3984 64.252 37.3984H63.855C63.815 37.3984 63.79 37.3884 63.781 37.3664C63.7715 37.3414 63.7704 37.314 63.778 37.2884L65.101 33.5224C65.133 33.4294 65.168 33.3684 65.207 33.3384C65.246 33.3094 65.31 33.2924 65.401 33.2884H65.576C65.681 33.2884 65.752 33.3054 65.79 33.3414C65.8371 33.3932 65.8717 33.4551 65.891 33.5224L67.21 37.2884C67.2155 37.3001 67.2187 37.3127 67.2192 37.3256C67.2197 37.3385 67.2176 37.3514 67.213 37.3634C67.203 37.3874 67.178 37.3984 67.139 37.3984H66.753ZM65.774 34.7524L65.5 33.8904H65.47L65.207 34.7234L64.808 35.9764H66.168L65.774 34.7524ZM67.743 33.5874C67.743 33.4854 67.763 33.4104 67.807 33.3614C67.85 33.3124 67.925 33.2884 68.034 33.2884H69.396C69.579 33.2884 69.747 33.3184 69.902 33.3764C70.055 33.4354 70.188 33.5164 70.299 33.6244C70.409 33.7324 70.496 33.8614 70.559 34.0124C70.621 34.1614 70.652 34.3274 70.652 34.5054C70.652 34.6114 70.635 34.7374 70.599 34.8804C70.5594 35.0387 70.4859 35.1866 70.3838 35.3138C70.2816 35.441 70.153 35.5446 70.007 35.6174C69.837 35.7084 69.62 35.7534 69.355 35.7534H68.27V37.2994C68.27 37.3424 68.261 37.3694 68.246 37.3814C68.23 37.3924 68.201 37.3984 68.158 37.3984H67.854C67.8246 37.4006 67.7952 37.3947 67.769 37.3814C67.751 37.3694 67.743 37.3424 67.743 37.2994V33.5874ZM70.101 34.5354C70.1005 34.4494 70.0881 34.364 70.064 34.2814C70.0384 34.1928 69.9936 34.1109 69.933 34.0414C69.8614 33.9623 69.7733 33.8999 69.675 33.8584C69.5448 33.8063 69.4052 33.7818 69.265 33.7864H68.275V35.2794H69.276C69.553 35.2794 69.76 35.2134 69.896 35.0824C70.033 34.9524 70.101 34.7694 70.101 34.5354ZM74.651 35.3324C74.651 36.0184 74.504 36.5454 74.21 36.9124C73.914 37.2794 73.476 37.4634 72.895 37.4634C72.316 37.4634 71.885 37.2814 71.599 36.9184C71.311 36.5554 71.168 36.0354 71.168 35.3544C71.168 35.0154 71.211 34.7144 71.298 34.4514C71.387 34.1874 71.508 33.9664 71.663 33.7864C71.816 33.6064 72 33.4694 72.213 33.3764C72.4316 33.2817 72.6677 33.234 72.906 33.2364C73.192 33.2364 73.443 33.2834 73.662 33.3794C73.881 33.4754 74.063 33.6134 74.21 33.7944C74.356 33.9764 74.466 34.1964 74.54 34.4544C74.614 34.7104 74.652 35.0034 74.652 35.3324H74.651ZM74.101 35.3544C74.101 35.1404 74.084 34.9344 74.051 34.7374C74.0224 34.5532 73.9608 34.3757 73.869 34.2134C73.783 34.0629 73.6588 33.9377 73.509 33.8504C73.3295 33.7541 73.1275 33.7075 72.924 33.7154C72.714 33.7154 72.531 33.7584 72.379 33.8454C72.227 33.9304 72.0974 34.0504 72.001 34.1954C71.902 34.3444 71.829 34.5154 71.78 34.7104C71.7299 34.9139 71.7051 35.1228 71.706 35.3324C71.706 35.5734 71.726 35.7954 71.764 35.9964C71.804 36.1984 71.869 36.3714 71.961 36.5164C72.0504 36.6611 72.1763 36.7797 72.326 36.8604C72.48 36.9424 72.671 36.9824 72.901 36.9824C73.126 36.9824 73.317 36.9384 73.472 36.8474C73.625 36.7584 73.75 36.6374 73.843 36.4854C73.9407 36.325 74.0085 36.1481 74.043 35.9634C74.081 35.7684 74.101 35.5664 74.101 35.3544ZM76.203 35.8704C76.183 36.0304 76.163 36.1644 76.142 36.2724C76.119 36.3794 76.097 36.4714 76.071 36.5494C76.05 36.6184 76.0229 36.6853 75.99 36.7494C75.96 36.8034 75.928 36.8574 75.892 36.9134H77.954V33.7794H76.467L76.203 35.8704ZM75.483 37.3984L75.423 38.2714C75.421 38.3294 75.395 38.3584 75.349 38.3584H75.061C75.038 38.3584 75.021 38.3534 75.008 38.3424C74.998 38.3294 74.988 38.3054 74.985 38.2714L74.909 37.1344C74.9031 37.0827 74.9167 37.0307 74.947 36.9884C74.977 36.9494 75.031 36.9274 75.109 36.9184L75.296 36.9064C75.362 36.8324 75.416 36.7524 75.463 36.6664C75.507 36.5814 75.545 36.4854 75.577 36.3794C75.607 36.2744 75.634 36.1564 75.655 36.0254C75.678 35.8954 75.7 35.7434 75.724 35.5724L75.964 33.7044C75.9755 33.5959 76.0147 33.4923 76.078 33.4034C76.133 33.3304 76.231 33.2934 76.368 33.2934H78.13C78.258 33.2934 78.351 33.3244 78.407 33.3844C78.464 33.4464 78.492 33.5384 78.492 33.6644V36.9184L78.692 36.9304C78.7458 36.9327 78.7973 36.9531 78.838 36.9884C78.877 37.0244 78.896 37.0804 78.896 37.1584L78.826 38.2714C78.823 38.3054 78.814 38.3294 78.803 38.3414C78.79 38.3534 78.773 38.3584 78.75 38.3584H78.463C78.4546 38.359 78.4462 38.3579 78.4383 38.3551C78.4304 38.3524 78.4232 38.348 78.417 38.3424C78.404 38.3294 78.399 38.3054 78.399 38.2714L78.364 37.3984H75.483ZM82.106 33.4004C82.106 33.3574 82.114 33.3294 82.132 33.3184C82.149 33.3054 82.177 33.2994 82.216 33.2994H82.532C82.575 33.2994 82.605 33.3054 82.62 33.3184C82.635 33.3284 82.644 33.3574 82.644 33.4004V37.2994C82.644 37.3424 82.635 37.3694 82.62 37.3814C82.605 37.3924 82.575 37.3984 82.532 37.3984H82.216C82.176 37.3984 82.149 37.3924 82.132 37.3814C82.114 37.3694 82.106 37.3424 82.106 37.2994V35.4714H80.044V37.2994C80.044 37.3424 80.037 37.3694 80.02 37.3814C80.005 37.3924 79.975 37.3984 79.932 37.3984H79.606C79.577 37.3997 79.5482 37.3938 79.522 37.3814C79.502 37.3694 79.493 37.3424 79.493 37.2994V33.3994C79.493 33.3574 79.503 33.3294 79.523 33.3184C79.5485 33.3048 79.5771 33.2982 79.606 33.2994H79.932C79.975 33.2994 80.005 33.3054 80.02 33.3184C80.037 33.3284 80.044 33.3574 80.044 33.4004V35.0034H82.106V33.4004ZM86.151 37.3984C86.1222 37.3997 86.0935 37.396 86.066 37.3874C86.046 37.3784 86.026 37.3534 86.01 37.3104L85.717 36.4504H84.067L83.774 37.3104C83.754 37.3694 83.713 37.3984 83.652 37.3984H83.252C83.214 37.3984 83.189 37.3884 83.179 37.3664C83.1695 37.3414 83.1684 37.314 83.176 37.2884L84.5 33.5224C84.531 33.4294 84.566 33.3684 84.605 33.3384C84.645 33.3094 84.708 33.2924 84.799 33.2884H84.974C85.079 33.2884 85.15 33.3054 85.188 33.3414C85.2354 33.3933 85.2706 33.4552 85.291 33.5224L86.608 37.2884C86.6136 37.3001 86.6167 37.3127 86.6172 37.3256C86.6177 37.3385 86.6156 37.3514 86.611 37.3634C86.601 37.3874 86.576 37.3984 86.537 37.3984H86.151ZM85.174 34.7524L84.898 33.8904H84.868L84.605 34.7234L84.208 35.9764H85.566L85.174 34.7524ZM89.419 35.6364H88.581C88.386 35.6364 88.217 35.6734 88.075 35.7504C87.933 35.8274 87.829 35.9794 87.767 36.2104L87.463 37.3284C87.454 37.3634 87.441 37.3844 87.418 37.3904C87.3981 37.3957 87.3776 37.3984 87.357 37.3984H86.977C86.946 37.3984 86.925 37.3914 86.915 37.3784C86.9052 37.3636 86.9003 37.3461 86.901 37.3284V37.2984L87.223 36.1154C87.265 35.9724 87.326 35.8484 87.404 35.7454C87.4993 35.6298 87.625 35.5432 87.767 35.4954C87.5599 35.4185 87.3831 35.2768 87.263 35.0914C87.1468 34.9014 87.0878 34.682 87.093 34.4594C87.093 34.2914 87.123 34.1364 87.181 33.9944C87.24 33.8514 87.323 33.7294 87.434 33.6244C87.542 33.5214 87.674 33.4404 87.825 33.3824C87.9881 33.3219 88.161 33.292 88.335 33.2944H89.67C89.783 33.2944 89.86 33.3184 89.904 33.3644C89.947 33.4114 89.968 33.4844 89.968 33.5874V37.3174C89.968 37.3524 89.961 37.3744 89.946 37.3844C89.924 37.3952 89.8995 37.4001 89.875 37.3984H89.518C89.4915 37.4004 89.465 37.3955 89.441 37.3844C89.426 37.3744 89.419 37.3524 89.419 37.3174V35.6364ZM88.394 33.7864C88.2673 33.7821 88.1411 33.805 88.024 33.8534C87.935 33.8918 87.8552 33.9488 87.79 34.0204C87.7323 34.0853 87.6906 34.1626 87.668 34.2464C87.6454 34.3234 87.6336 34.4032 87.633 34.4834C87.6306 34.5736 87.6461 34.6634 87.6787 34.7475C87.7113 34.8316 87.7604 34.9084 87.823 34.9734C87.949 35.1074 88.153 35.1734 88.435 35.1734H89.419V33.7864H88.394ZM93.307 33.7734H92.165C92.129 33.7734 92.106 33.7684 92.097 33.7534C92.087 33.7404 92.083 33.7154 92.083 33.6804V33.3934C92.083 33.3634 92.087 33.3384 92.097 33.3234C92.107 33.3084 92.129 33.2994 92.165 33.2994H95.034C95.069 33.2994 95.091 33.3084 95.101 33.3234C95.111 33.3384 95.115 33.3634 95.115 33.3934V33.6804C95.115 33.7154 95.111 33.7404 95.101 33.7544C95.091 33.7684 95.069 33.7744 95.034 33.7744H93.856V37.2994C93.856 37.3424 93.849 37.3694 93.834 37.3814C93.817 37.3924 93.79 37.3984 93.751 37.3984H93.417C93.3876 37.4004 93.3583 37.3945 93.332 37.3814C93.315 37.3694 93.307 37.3424 93.307 37.2994V33.7734ZM95.637 33.5874C95.637 33.4854 95.658 33.4104 95.7 33.3614C95.744 33.3124 95.82 33.2884 95.929 33.2884H97.291C97.474 33.2884 97.642 33.3184 97.796 33.3764C97.949 33.4354 98.081 33.5164 98.193 33.6244C98.303 33.7324 98.391 33.8614 98.453 34.0124C98.515 34.1614 98.547 34.3274 98.547 34.5054C98.547 34.6114 98.529 34.7374 98.494 34.8804C98.459 35.0254 98.394 35.1624 98.299 35.2904C98.203 35.4204 98.07 35.5284 97.902 35.6184C97.732 35.7084 97.515 35.7534 97.249 35.7534H96.163V37.2994C96.163 37.3424 96.156 37.3694 96.139 37.3814C96.124 37.3924 96.095 37.3984 96.052 37.3984H95.748C95.7186 37.4004 95.6893 37.3945 95.663 37.3814C95.646 37.3694 95.636 37.3424 95.636 37.2994L95.637 33.5874ZM97.997 34.5354C97.9962 34.4494 97.9834 34.3639 97.959 34.2814C97.9326 34.1927 97.8872 34.1108 97.826 34.0414C97.7546 33.962 97.6665 33.8995 97.568 33.8584C97.4378 33.806 97.2982 33.7815 97.158 33.7864H96.168V35.2794H97.171C97.447 35.2794 97.655 35.2134 97.791 35.0824C97.928 34.9524 97.996 34.7694 97.996 34.5354H97.997ZM101.515 37.3984C101.486 37.3997 101.457 37.396 101.43 37.3874C101.409 37.3784 101.39 37.3534 101.374 37.3104L101.081 36.4504H99.431L99.138 37.3104C99.118 37.3694 99.078 37.3984 99.015 37.3984H98.617C98.577 37.3984 98.554 37.3884 98.544 37.3664C98.5337 37.3416 98.5327 37.3139 98.541 37.2884L99.864 33.5224C99.895 33.4294 99.93 33.3684 99.969 33.3384C100.028 33.3037 100.095 33.2864 100.163 33.2884H100.338C100.444 33.2884 100.515 33.3054 100.552 33.3414C100.599 33.3933 100.635 33.4552 100.655 33.5224L101.972 37.2884C101.978 37.3001 101.981 37.3127 101.981 37.3256C101.982 37.3385 101.98 37.3514 101.975 37.3634C101.965 37.3874 101.94 37.3984 101.901 37.3984H101.515ZM100.538 34.7524L100.262 33.8904H100.232L99.969 34.7234L99.572 35.9764H100.929L100.538 34.7524ZM105.116 33.4004C105.116 33.3574 105.126 33.3294 105.142 33.3184C105.16 33.3054 105.188 33.2994 105.227 33.2994H105.544C105.587 33.2994 105.616 33.3054 105.632 33.3184C105.647 33.3284 105.655 33.3574 105.655 33.4004V37.2994C105.655 37.3424 105.647 37.3694 105.632 37.3814C105.616 37.3924 105.587 37.3984 105.544 37.3984H105.227C105.198 37.4004 105.168 37.3945 105.142 37.3814C105.125 37.3694 105.116 37.3424 105.116 37.2994V35.4714H103.056V37.2994C103.056 37.3424 103.047 37.3694 103.032 37.3814C103.016 37.3924 102.986 37.3984 102.942 37.3984H102.616C102.588 37.3996 102.559 37.3938 102.534 37.3814C102.514 37.3694 102.504 37.3424 102.504 37.2994V33.3994C102.504 33.3574 102.514 33.3294 102.534 33.3184C102.559 33.3047 102.587 33.2981 102.616 33.2994H102.942C102.986 33.2994 103.016 33.3054 103.032 33.3184C103.047 33.3284 103.055 33.3574 103.055 33.4004V35.0034H105.115L105.116 33.4004ZM108.256 36.9594C108.426 36.9594 108.59 36.9394 108.746 36.9004C108.902 36.8614 109.048 36.8114 109.185 36.7484C109.228 36.7284 109.26 36.7284 109.28 36.7434C109.3 36.7584 109.312 36.7764 109.32 36.7964L109.432 37.0414C109.455 37.0884 109.462 37.1214 109.455 37.1374C109.442 37.1601 109.424 37.1793 109.402 37.1934C109.309 37.2494 109.207 37.2934 109.1 37.3284C108.995 37.3629 108.887 37.3903 108.778 37.4104C108.574 37.4449 108.367 37.4626 108.16 37.4634C107.91 37.467 107.661 37.425 107.426 37.3394C107.215 37.2619 107.027 37.133 106.878 36.9644C106.72 36.7788 106.603 36.5616 106.536 36.3274C106.45 36.0285 106.41 35.7184 106.416 35.4074C106.416 35.0804 106.458 34.7834 106.545 34.5154C106.631 34.2474 106.752 34.0194 106.908 33.8294C107.065 33.6414 107.253 33.4954 107.473 33.3934C107.693 33.2934 107.936 33.2414 108.203 33.2414C108.369 33.2414 108.543 33.2564 108.723 33.2854C108.902 33.3154 109.092 33.3804 109.291 33.4814C109.312 33.4911 109.328 33.5078 109.338 33.5284C109.345 33.5484 109.34 33.5774 109.32 33.6164L109.185 33.8854C109.177 33.9051 109.164 33.9223 109.147 33.9354C109.133 33.9454 109.111 33.9424 109.08 33.9274C108.811 33.8069 108.52 33.7445 108.226 33.7444C108.003 33.7444 107.812 33.7924 107.654 33.8844C107.497 33.9775 107.363 34.1051 107.263 34.2574C107.158 34.4124 107.083 34.5894 107.037 34.7904C106.989 34.9904 106.967 35.1974 106.967 35.4074C106.967 35.6224 106.987 35.8234 107.028 36.0114C107.068 36.1984 107.138 36.3624 107.238 36.5034C107.338 36.6434 107.47 36.7534 107.636 36.8364C107.802 36.9184 108.008 36.9594 108.256 36.9594ZM113.173 37.3104C113.173 37.3504 113.166 37.3744 113.153 37.3844C113.139 37.3944 113.115 37.3984 113.079 37.3984H112.734C112.709 37.3999 112.683 37.3951 112.66 37.3844C112.644 37.3744 112.634 37.3494 112.634 37.3104V33.7734H110.574V37.3104C110.574 37.3504 110.566 37.3744 110.553 37.3844C110.539 37.3944 110.515 37.3984 110.48 37.3984H110.129C110.104 37.4002 110.08 37.3954 110.058 37.3844C110.042 37.3744 110.034 37.3494 110.034 37.3104V33.6634C110.034 33.5384 110.066 33.4464 110.132 33.3844C110.2 33.323 110.289 33.2907 110.38 33.2944H112.828C112.874 33.2918 112.921 33.2983 112.965 33.3138C113.008 33.3292 113.049 33.3533 113.083 33.3844C113.143 33.4464 113.173 33.5384 113.173 33.6644V37.3104ZM117.418 35.3324C117.418 36.0184 117.27 36.5454 116.976 36.9124C116.681 37.2794 116.243 37.4634 115.662 37.4634C115.083 37.4634 114.652 37.2814 114.364 36.9184C114.078 36.5554 113.934 36.0354 113.934 35.3544C113.934 35.0154 113.978 34.7144 114.066 34.4514C114.153 34.1874 114.275 33.9664 114.429 33.7864C114.579 33.6096 114.767 33.4694 114.979 33.3764C115.192 33.2834 115.423 33.2364 115.673 33.2364C115.959 33.2364 116.21 33.2834 116.428 33.3794C116.648 33.4754 116.83 33.6134 116.976 33.7944C117.123 33.9764 117.233 34.1964 117.306 34.4544C117.381 34.7104 117.418 35.0034 117.418 35.3324ZM116.868 35.3544C116.868 35.1404 116.851 34.9344 116.818 34.7374C116.789 34.5534 116.727 34.3759 116.636 34.2134C116.55 34.0629 116.426 33.9377 116.276 33.8504C116.096 33.7541 115.895 33.7075 115.691 33.7154C115.481 33.7154 115.298 33.7584 115.146 33.8454C114.994 33.9304 114.864 34.0504 114.768 34.1954C114.669 34.3444 114.595 34.5154 114.547 34.7104C114.497 34.9139 114.472 35.1228 114.473 35.3324C114.473 35.5734 114.493 35.7954 114.531 35.9964C114.571 36.1984 114.636 36.3714 114.728 36.5164C114.817 36.6611 114.943 36.7797 115.093 36.8604C115.246 36.9424 115.437 36.9824 115.667 36.9824C115.893 36.9824 116.084 36.9384 116.237 36.8474C116.392 36.7584 116.517 36.6374 116.61 36.4854C116.707 36.3247 116.775 36.1479 116.81 35.9634C116.848 35.7684 116.868 35.5664 116.868 35.3544ZM118.179 33.5874C118.179 33.4854 118.2 33.4104 118.244 33.3614C118.287 33.3124 118.362 33.2884 118.471 33.2884H119.833C120.015 33.2884 120.184 33.3184 120.339 33.3764C120.492 33.4354 120.625 33.5164 120.736 33.6244C120.846 33.7324 120.933 33.8614 120.996 34.0124C121.058 34.1614 121.089 34.3274 121.089 34.5054C121.089 34.6114 121.072 34.7374 121.036 34.8804C121.001 35.0254 120.936 35.1624 120.841 35.2904C120.746 35.4204 120.613 35.5284 120.445 35.6184C120.275 35.7084 120.057 35.7534 119.792 35.7534H118.706V37.2994C118.706 37.3424 118.698 37.3694 118.683 37.3814C118.667 37.3924 118.638 37.3984 118.595 37.3984H118.291C118.262 37.4006 118.232 37.3947 118.206 37.3814C118.188 37.3694 118.179 37.3424 118.179 37.2994V33.5874ZM120.539 34.5354C120.538 34.4494 120.525 34.3639 120.501 34.2814C120.475 34.1927 120.43 34.1108 120.369 34.0414C120.298 33.9624 120.21 33.9 120.112 33.8584C119.982 33.8063 119.842 33.7818 119.702 33.7864H118.712V35.2794H119.712C119.99 35.2794 120.197 35.2134 120.333 35.0824C120.47 34.9524 120.538 34.7694 120.538 34.5354H120.539ZM122.594 33.7734H121.453C121.416 33.7734 121.394 33.7684 121.384 33.7534C121.374 33.7404 121.37 33.7154 121.37 33.6804V33.3934C121.37 33.3634 121.375 33.3384 121.384 33.3234C121.394 33.3084 121.416 33.2994 121.453 33.2994H124.322C124.356 33.2994 124.379 33.3084 124.389 33.3234C124.399 33.3384 124.404 33.3634 124.404 33.3934V33.6804C124.404 33.7154 124.398 33.7404 124.389 33.7544C124.379 33.7684 124.356 33.7744 124.322 33.7744H123.145V37.2994C123.145 37.3424 123.137 37.3694 123.121 37.3814C123.106 37.3924 123.078 37.3984 123.039 37.3984H122.706C122.677 37.4006 122.647 37.3947 122.621 37.3814C122.603 37.3694 122.594 37.3424 122.594 37.2994V33.7734ZM127.536 33.3994C127.536 33.3574 127.545 33.3294 127.563 33.3184C127.58 33.3054 127.607 33.2994 127.646 33.2994H127.963C128.006 33.2994 128.035 33.3054 128.051 33.3184C128.066 33.3284 128.074 33.3574 128.074 33.4004V37.2994C128.074 37.3424 128.066 37.3694 128.051 37.3814C128.035 37.3924 128.006 37.3984 127.963 37.3984H127.646C127.607 37.3984 127.58 37.3924 127.563 37.3814C127.545 37.3694 127.536 37.3424 127.536 37.2994V35.4714H125.474V37.2994C125.474 37.3424 125.468 37.3694 125.451 37.3814C125.435 37.3924 125.406 37.3984 125.363 37.3984H125.037C125.008 37.3997 124.979 37.3938 124.953 37.3814C124.933 37.3694 124.923 37.3424 124.923 37.2994V33.3994C124.923 33.3574 124.933 33.3294 124.953 33.3184C124.979 33.3046 125.008 33.2981 125.037 33.2994H125.363C125.406 33.2994 125.435 33.3054 125.451 33.3184C125.468 33.3284 125.474 33.3574 125.474 33.4004V35.0034H127.536V33.3994ZM131.582 37.3984C131.553 37.3998 131.524 37.3961 131.497 37.3874C131.476 37.3784 131.457 37.3534 131.441 37.3104L131.148 36.4504H129.498L129.205 37.3104C129.185 37.3694 129.144 37.3984 129.081 37.3984H128.684C128.644 37.3984 128.619 37.3884 128.61 37.3664C128.6 37.3414 128.599 37.314 128.607 37.2884L129.931 33.5224C129.961 33.4294 129.997 33.3684 130.036 33.3384C130.075 33.3094 130.139 33.2924 130.23 33.2884H130.405C130.51 33.2884 130.581 33.3054 130.619 33.3414C130.666 33.3933 130.702 33.4552 130.722 33.5224L132.039 37.2884C132.045 37.3001 132.048 37.3127 132.048 37.3256C132.049 37.3385 132.047 37.3514 132.042 37.3634C132.032 37.3874 132.007 37.3984 131.968 37.3984H131.582ZM130.605 34.7524L130.329 33.8904H130.299L130.036 34.7234L129.637 35.9764H130.997L130.605 34.7524ZM134.849 35.6364H134.012C133.817 35.6364 133.648 35.6734 133.506 35.7504C133.362 35.8274 133.26 35.9794 133.198 36.2104L132.894 37.3284C132.885 37.3634 132.871 37.3844 132.849 37.3904C132.829 37.3957 132.809 37.3984 132.788 37.3984H132.408C132.376 37.3984 132.356 37.3914 132.346 37.3784C132.336 37.3636 132.331 37.3461 132.332 37.3284V37.2984L132.654 36.1154C132.696 35.9724 132.757 35.8484 132.835 35.7454C132.93 35.6298 133.056 35.5432 133.198 35.4954C132.991 35.4185 132.814 35.2768 132.694 35.0914C132.578 34.9014 132.519 34.682 132.524 34.4594C132.524 34.2914 132.554 34.1364 132.612 33.9944C132.671 33.8514 132.754 33.7294 132.864 33.6244C132.974 33.5214 133.104 33.4404 133.256 33.3824C133.419 33.3219 133.592 33.292 133.766 33.2944H135.1C135.213 33.2944 135.291 33.3184 135.335 33.3644C135.378 33.4114 135.399 33.4844 135.399 33.5874V37.3174C135.399 37.3524 135.392 37.3744 135.376 37.3844C135.354 37.3951 135.33 37.3999 135.306 37.3984H134.948C134.922 37.4002 134.896 37.3954 134.872 37.3844C134.856 37.3744 134.849 37.3524 134.849 37.3174V35.6364ZM133.825 33.7864C133.698 33.7821 133.572 33.805 133.455 33.8534C133.366 33.8918 133.286 33.9488 133.221 34.0204C133.163 34.0853 133.122 34.1626 133.099 34.2464C133.076 34.3234 133.065 34.4032 133.064 34.4834C133.062 34.5736 133.077 34.6634 133.11 34.7475C133.142 34.8316 133.191 34.9084 133.254 34.9734C133.38 35.1074 133.584 35.1734 133.865 35.1734H134.849V33.7864H133.825ZM139.896 35.2024C139.985 35.2288 140.07 35.2682 140.148 35.3194C140.274 35.4132 140.369 35.5419 140.423 35.6894C140.451 35.7634 140.476 35.8454 140.5 35.9344L140.868 37.2944C140.876 37.3157 140.876 37.3392 140.868 37.3604C140.861 37.3854 140.836 37.3984 140.792 37.3984H140.435C140.413 37.3984 140.391 37.3947 140.37 37.3874C140.348 37.3784 140.33 37.3574 140.324 37.3234L139.973 36.0164C139.948 35.9196 139.91 35.8265 139.861 35.7394C139.822 35.672 139.768 35.6138 139.704 35.5689C139.641 35.524 139.568 35.4935 139.491 35.4794C139.403 35.4621 139.313 35.4541 139.223 35.4554H138.392V37.3104C138.392 37.3504 138.385 37.3744 138.371 37.3844C138.357 37.3944 138.333 37.3984 138.298 37.3984H137.958C137.934 37.3997 137.91 37.3949 137.888 37.3844C137.872 37.3744 137.865 37.3494 137.865 37.3104V33.3874C137.865 33.3484 137.872 33.3244 137.887 33.3154C137.909 33.304 137.933 33.2985 137.958 33.2994H138.304C138.339 33.2994 138.363 33.3054 138.376 33.3154C138.39 33.3254 138.396 33.3484 138.392 33.3874V34.9684H139.17C139.232 34.9684 139.3 34.9614 139.369 34.9484C139.447 34.9328 139.52 34.9017 139.585 34.857C139.651 34.8123 139.706 34.755 139.749 34.6884C139.804 34.6104 139.85 34.5054 139.885 34.3774L140.148 33.3644C140.155 33.3294 140.171 33.3084 140.192 33.2994C140.211 33.2931 140.232 33.2897 140.252 33.2894H140.575C140.622 33.2894 140.649 33.3024 140.655 33.3294C140.661 33.3525 140.66 33.3769 140.652 33.3994L140.394 34.4474C140.357 34.6015 140.295 34.7486 140.212 34.8834C140.134 35.0066 140.025 35.1067 139.896 35.1734V35.2024ZM144.832 35.3324C144.832 36.0184 144.685 36.5454 144.39 36.9124C144.095 37.2794 143.657 37.4634 143.076 37.4634C142.497 37.4634 142.066 37.2814 141.778 36.9184C141.492 36.5554 141.348 36.0354 141.348 35.3544C141.348 35.0154 141.392 34.7144 141.48 34.4514C141.567 34.1874 141.689 33.9664 141.843 33.7864C141.997 33.6064 142.181 33.4694 142.394 33.3764C142.613 33.2817 142.849 33.234 143.087 33.2364C143.373 33.2364 143.624 33.2834 143.843 33.3794C144.061 33.4754 144.244 33.6134 144.39 33.7944C144.537 33.9764 144.647 34.1964 144.72 34.4544C144.795 34.7104 144.832 35.0034 144.832 35.3324ZM144.282 35.3544C144.282 35.1404 144.265 34.9344 144.232 34.7374C144.203 34.5532 144.142 34.3757 144.05 34.2134C143.964 34.0629 143.84 33.9377 143.69 33.8504C143.51 33.7541 143.309 33.7075 143.105 33.7154C142.895 33.7154 142.712 33.7584 142.56 33.8454C142.408 33.9304 142.278 34.0504 142.182 34.1954C142.083 34.3444 142.009 34.5154 141.961 34.7104C141.911 34.9139 141.886 35.1228 141.887 35.3324C141.887 35.5734 141.907 35.7954 141.945 35.9964C141.985 36.1984 142.05 36.3714 142.142 36.5164C142.231 36.6611 142.357 36.7797 142.507 36.8604C142.66 36.9424 142.851 36.9824 143.081 36.9824C143.307 36.9824 143.498 36.9384 143.653 36.8474C143.806 36.7584 143.93 36.6374 144.023 36.4854C144.12 36.3247 144.188 36.1479 144.223 35.9634C144.263 35.7684 144.282 35.5664 144.282 35.3544ZM148.942 34.2494H148.912C148.891 34.2939 148.871 34.3392 148.854 34.3854C148.824 34.4664 148.789 34.5534 148.752 34.6464C148.715 34.7394 148.68 34.8274 148.649 34.9104L148.596 35.0504C148.584 35.0814 148.561 35.1404 148.526 35.2234C148.49 35.3074 148.451 35.4044 148.406 35.5164L148.262 35.8704L148.115 36.2244L147.993 36.5174C147.956 36.6014 147.934 36.6574 147.922 36.6844C147.903 36.7536 147.867 36.8169 147.817 36.8684C147.777 36.9024 147.712 36.9184 147.622 36.9184H147.429C147.339 36.9184 147.273 36.9024 147.231 36.8684C147.18 36.8175 147.143 36.7541 147.124 36.6844C147.101 36.6262 147.076 36.5685 147.05 36.5114C147.008 36.4154 146.967 36.3187 146.928 36.2214L146.78 35.8704C146.73 35.7537 146.681 35.6367 146.633 35.5194C146.594 35.4221 146.553 35.3254 146.511 35.2294C146.485 35.1723 146.46 35.1147 146.437 35.0564L146.137 34.3074H146.102V37.2994C146.102 37.3424 146.095 37.3694 146.08 37.3814C146.063 37.3924 146.035 37.3984 145.992 37.3984H145.704C145.664 37.3984 145.637 37.3924 145.62 37.3814C145.602 37.3694 145.593 37.3424 145.593 37.2994V33.5874C145.593 33.4974 145.613 33.4274 145.652 33.3734C145.691 33.3204 145.766 33.2934 145.881 33.2934H146.037C146.105 33.2895 146.173 33.3051 146.233 33.3384C146.278 33.3684 146.32 33.4304 146.359 33.5284L147.166 35.5304C147.174 35.5474 147.196 35.5984 147.227 35.6864C147.261 35.7744 147.297 35.8694 147.339 35.9734C147.379 36.0764 147.417 36.1714 147.449 36.2594C147.482 36.3474 147.503 36.3994 147.51 36.4154H147.534C147.538 36.3984 147.558 36.3484 147.593 36.2624C147.669 36.0781 147.742 35.8927 147.813 35.7064C147.845 35.6214 147.866 35.5694 147.873 35.5544L147.961 35.3344L148.11 34.9634L148.291 34.5154L148.471 34.0734C148.524 33.9364 148.571 33.8184 148.611 33.7194L148.685 33.5284C148.725 33.4304 148.768 33.3684 148.815 33.3384C148.874 33.306 148.94 33.2908 149.007 33.2944H149.165C149.282 33.2944 149.359 33.3204 149.396 33.3744C149.436 33.4378 149.456 33.5123 149.452 33.5874V37.2994C149.452 37.3424 149.444 37.3694 149.428 37.3814C149.413 37.3924 149.385 37.3984 149.342 37.3984H149.052C149.013 37.3984 148.985 37.3924 148.968 37.3814C148.952 37.3694 148.942 37.3424 148.942 37.2994V34.2494ZM153.474 37.3104C153.474 37.3504 153.467 37.3744 153.454 37.3844C153.441 37.3944 153.415 37.3984 153.381 37.3984H153.035C153.01 37.4 152.985 37.3952 152.962 37.3844C152.944 37.3744 152.936 37.3494 152.936 37.3104V33.7734H150.874V37.3104C150.874 37.3504 150.869 37.3744 150.854 37.3844C150.841 37.3944 150.816 37.3984 150.781 37.3984H150.429C150.405 37.4002 150.381 37.3953 150.359 37.3844C150.344 37.3744 150.336 37.3494 150.336 37.3104V33.6634C150.336 33.5384 150.368 33.4464 150.432 33.3844C150.5 33.3231 150.59 33.2908 150.682 33.2944H153.128C153.238 33.2944 153.323 33.3244 153.383 33.3844C153.445 33.4464 153.474 33.5384 153.474 33.6644V37.3104ZM156.981 37.3984C156.952 37.3997 156.923 37.396 156.896 37.3874C156.876 37.3784 156.857 37.3534 156.841 37.3104L156.548 36.4504H154.898L154.605 37.3104C154.585 37.3694 154.545 37.3984 154.482 37.3984H154.083C154.044 37.3984 154.021 37.3884 154.011 37.3664C154.001 37.3416 154 37.3139 154.008 37.2884L155.331 33.5224C155.361 33.4294 155.396 33.3684 155.435 33.3384C155.494 33.3037 155.561 33.2864 155.629 33.2884H155.805C155.911 33.2884 155.982 33.3054 156.018 33.3414C156.065 33.3933 156.101 33.4552 156.121 33.5224L157.439 37.2884C157.445 37.3001 157.448 37.3127 157.448 37.3256C157.449 37.3385 157.447 37.3514 157.442 37.3634C157.432 37.3874 157.407 37.3984 157.368 37.3984H156.981ZM156.004 34.7524L155.728 33.8904H155.698L155.435 34.7234L155.038 35.9764H156.396L156.004 34.7524ZM160.582 33.4004C160.582 33.3574 160.592 33.3294 160.609 33.3184C160.627 33.3054 160.655 33.2994 160.694 33.2994H161.01C161.054 33.2994 161.083 33.3054 161.098 33.3184C161.113 33.3284 161.122 33.3574 161.122 33.4004V37.2994C161.122 37.3424 161.113 37.3694 161.098 37.3814C161.083 37.3924 161.054 37.3984 161.01 37.3984H160.694C160.665 37.4004 160.635 37.3945 160.609 37.3814C160.592 37.3694 160.582 37.3424 160.582 37.2994V35.4714H158.522V37.2994C158.522 37.3424 158.514 37.3694 158.498 37.3814C158.483 37.3924 158.452 37.3984 158.409 37.3984H158.083C158.055 37.3996 158.027 37.3938 158.001 37.3814C157.981 37.3694 157.971 37.3424 157.971 37.2994V33.3994C157.971 33.3574 157.981 33.3294 158.001 33.3184C158.026 33.3047 158.054 33.2981 158.083 33.2994H158.409C158.452 33.2994 158.483 33.3054 158.499 33.3184C158.514 33.3284 158.522 33.3574 158.522 33.4004V35.0034H160.582V33.4004ZM164.64 34.0204L164.132 34.8984L162.772 37.1644C162.736 37.231 162.692 37.2922 162.639 37.3464C162.599 37.3814 162.537 37.3984 162.45 37.3984H162.286C162.177 37.3984 162.102 37.3744 162.061 37.3254C162.02 37.2774 162.001 37.2034 162.001 37.1054V33.3824C162.001 33.3424 162.007 33.3194 162.022 33.3094C162.044 33.2984 162.068 33.2932 162.093 33.2944H162.439C162.474 33.2944 162.498 33.2994 162.512 33.3094C162.526 33.3194 162.532 33.3434 162.532 33.3824V36.6554H162.549L163.025 35.8524L164.425 33.5284C164.46 33.4619 164.505 33.4009 164.558 33.3474C164.598 33.3124 164.66 33.2944 164.746 33.2944H164.909C165.022 33.2944 165.099 33.3194 165.139 33.3684C165.177 33.4174 165.197 33.4894 165.197 33.5874V37.3104C165.197 37.3504 165.188 37.3744 165.173 37.3844C165.151 37.3953 165.127 37.4002 165.103 37.3984H164.758C164.723 37.3984 164.698 37.3944 164.684 37.3844C164.671 37.3744 164.664 37.3494 164.664 37.3104V34.0204H164.64ZM168.353 35.6364H167.515C167.32 35.6364 167.151 35.6734 167.009 35.7504C166.867 35.8274 166.764 35.9794 166.701 36.2104L166.397 37.3284C166.389 37.3634 166.375 37.3844 166.354 37.3904C166.333 37.3956 166.312 37.3983 166.291 37.3984H165.911C165.88 37.3984 165.859 37.3914 165.849 37.3784C165.839 37.3636 165.834 37.3461 165.835 37.3284V37.2984L166.157 36.1154C166.2 35.9724 166.26 35.8484 166.338 35.7454C166.433 35.6298 166.559 35.5432 166.701 35.4954C166.494 35.4183 166.318 35.2767 166.198 35.0914C166.082 34.9014 166.023 34.682 166.028 34.4594C166.028 34.2914 166.057 34.1364 166.115 33.9944C166.174 33.8514 166.259 33.7294 166.368 33.6244C166.476 33.5214 166.608 33.4404 166.759 33.3824C166.913 33.3234 167.081 33.2944 167.269 33.2944H168.604C168.718 33.2944 168.796 33.3184 168.838 33.3644C168.881 33.4114 168.903 33.4844 168.903 33.5874V37.3174C168.903 37.3524 168.895 37.3744 168.88 37.3844C168.858 37.3954 168.833 37.4002 168.809 37.3984H168.452C168.417 37.3984 168.392 37.3944 168.376 37.3844C168.36 37.3744 168.353 37.3524 168.353 37.3174V35.6364ZM167.328 33.7864C167.201 33.7821 167.075 33.805 166.958 33.8534C166.869 33.8919 166.79 33.9489 166.725 34.0204C166.667 34.0852 166.625 34.1625 166.602 34.2464C166.579 34.3234 166.568 34.4032 166.567 34.4834C166.565 34.5736 166.58 34.6634 166.613 34.7475C166.645 34.8316 166.694 34.9084 166.757 34.9734C166.883 35.1074 167.088 35.1734 167.369 35.1734H168.353V33.7864H167.328Z" fill="#44749D"/>
</g>
<g clip-path="url(#clip1_1153_5193)">
<path d="M0 9.29617C9.33 -0.172827 23.484 3.91217 27.562 14.7782H21.167C17.49 9.11317 9.179 7.51017 3.476 13.9462L0 9.29617ZM4.239 27.0502H20.853C21.75 25.5752 22.316 23.8242 22.41 21.8652H8.166L4.239 27.0502ZM28.405 27.0502H29.955L33.625 21.8652H29.3C29.2491 23.6273 28.9474 25.3732 28.404 27.0502H28.405ZM4.239 15.3902H29.956L33.625 20.5762H8.165L4.239 15.3902ZM28.699 21.1872V21.2132C28.699 36.6452 10.677 44.0692 0.008 33.0942L3.428 28.4822C10.701 36.8992 23.036 31.6152 23.036 21.2782C23.036 21.2482 23.036 21.2182 23.034 21.1882L28.699 21.1872Z" fill="#44749D"/>
<path d="M45.756 25.6199C46.918 25.6199 47.805 25.3199 48.414 24.7199C49.022 24.1199 49.419 23.2299 49.604 22.0489H44.15C43.947 22.0489 43.8 22.0269 43.708 21.9789C43.616 21.9329 43.568 21.7909 43.568 21.5459V18.5099C43.568 18.2639 43.61 18.1119 43.694 18.0479C43.776 17.9829 43.929 17.9509 44.15 17.9509H49.549C49.455 17.3829 49.299 16.9079 49.078 16.5259C48.8742 16.161 48.5958 15.8431 48.261 15.5929C47.934 15.3528 47.5624 15.1805 47.168 15.0859C46.7602 14.984 46.3413 14.933 45.921 14.9339C45.59 14.9339 45.286 14.9419 45.008 14.9619C44.731 14.9799 44.459 15.0159 44.191 15.0719C43.924 15.1279 43.648 15.1959 43.362 15.2799C43.075 15.3629 42.747 15.4599 42.379 15.5699C42.046 15.6809 41.82 15.7039 41.7 15.6399C41.58 15.5749 41.456 15.3679 41.327 15.0159L40.467 12.7459C40.4055 12.5978 40.3551 12.4454 40.316 12.2899C40.288 12.1699 40.28 12.0679 40.288 11.9859C40.298 11.9019 40.344 11.8339 40.428 11.7779C40.51 11.7219 40.625 11.6479 40.773 11.5559C41.6061 11.1242 42.4958 10.8122 43.416 10.6289C44.367 10.4349 45.378 10.3379 46.448 10.3379C47.851 10.3379 49.101 10.5549 50.198 10.9879C51.297 11.4219 52.22 12.0499 52.967 12.8709C53.714 13.6909 54.282 14.6939 54.669 15.8749C55.057 17.0549 55.25 18.3949 55.25 19.8889C55.25 21.3289 55.089 22.6809 54.767 23.9439C54.443 25.2079 53.927 26.3109 53.217 27.2519C52.506 28.1939 51.579 28.9359 50.434 29.4809C49.289 30.0249 47.897 30.2979 46.254 30.2979C45.054 30.2979 43.888 30.1719 42.753 29.9239C41.617 29.6739 40.496 29.2179 39.389 28.5539C39.185 28.4419 39.075 28.3139 39.057 28.1659C39.037 28.0189 39.093 27.8059 39.223 27.5289L40.413 25.0389C40.542 24.7239 40.667 24.5489 40.787 24.5109C40.907 24.4749 41.105 24.5109 41.382 24.6229C41.972 24.8439 42.613 25.0659 43.306 25.2859C43.998 25.5079 44.815 25.6189 45.756 25.6189V25.6199ZM75.459 29.4119C75.459 29.6339 75.427 29.7859 75.362 29.8699C75.298 29.9519 75.109 29.9939 74.795 29.9939H70.864C70.44 29.9939 70.227 29.7999 70.227 29.4119V22.1049H64.082V29.4119C64.082 29.6339 64.05 29.7859 63.984 29.8699C63.92 29.9519 63.73 29.9939 63.417 29.9939H59.487C59.062 29.9939 58.85 29.7999 58.85 29.4119V11.1979C58.85 10.8099 59.062 10.6159 59.487 10.6159H63.417C63.73 10.6159 63.92 10.6579 63.984 10.7399C64.05 10.8239 64.082 10.9759 64.082 11.1979V17.7299H70.227V11.1979C70.227 10.8099 70.44 10.6159 70.864 10.6159H74.795C75.109 10.6159 75.298 10.6579 75.362 10.7399C75.427 10.8239 75.459 10.9759 75.459 11.1979V29.4119ZM94.062 29.3579C94.062 29.7819 93.887 29.9939 93.535 29.9939H84.981C83.875 29.9939 82.975 29.8369 82.283 29.5239C81.591 29.2099 81.046 28.7989 80.65 28.2909C80.2562 27.7903 79.9773 27.2093 79.833 26.5889C79.6878 25.9812 79.6137 25.3587 79.612 24.7339V15.8759C79.612 15.2109 79.704 14.5609 79.889 13.9239C80.073 13.2869 80.373 12.7239 80.789 12.2359C81.204 11.7459 81.753 11.3539 82.436 11.0599C83.118 10.7639 83.948 10.6159 84.927 10.6159H93.093C93.315 10.6159 93.457 10.6479 93.521 10.7119C93.587 10.7779 93.619 10.9659 93.619 11.2819V14.4079C93.619 14.6489 93.581 14.8099 93.509 14.8929C93.435 14.9749 93.296 15.0169 93.093 15.0169H86.505C86.135 15.0169 85.84 15.0689 85.619 15.1709C85.397 15.2709 85.231 15.3959 85.121 15.5439C85.0095 15.6905 84.9335 15.861 84.899 16.0419C84.8618 16.2239 84.843 16.4091 84.843 16.5949V17.7579H92.263C92.484 17.7579 92.626 17.7959 92.692 17.8699C92.756 17.9429 92.788 18.1369 92.788 18.4499V21.3299C92.788 21.7529 92.612 21.9669 92.263 21.9669H84.843V24.0419C84.843 24.3919 84.885 24.6699 84.967 24.8729C85.051 25.0749 85.167 25.2269 85.315 25.3289C85.462 25.4309 85.637 25.4949 85.84 25.5229C86.0604 25.552 86.2826 25.566 86.505 25.5649H93.535C93.757 25.5649 93.901 25.5969 93.965 25.6619C94.03 25.7259 94.062 25.9159 94.062 26.2299V29.3579ZM102.339 29.4399C102.339 29.6619 102.307 29.8099 102.243 29.8829C102.177 29.9569 101.989 29.9929 101.675 29.9929H97.744C97.319 29.9929 97.107 29.8099 97.107 29.4399V12.4439C97.107 11.9439 97.217 11.5149 97.439 11.1559C97.66 10.7959 98.149 10.6159 98.907 10.6159H105.938C107.027 10.6159 107.99 10.7719 108.831 11.0869C109.671 11.4009 110.376 11.8389 110.948 12.4019C111.518 12.9618 111.961 13.6368 112.249 14.3819C112.545 15.1369 112.692 15.9579 112.692 16.8449C112.692 17.1399 112.665 17.5079 112.609 17.9519C112.554 18.3949 112.439 18.8569 112.263 19.3359C112.087 19.8159 111.833 20.3009 111.502 20.7899C111.17 21.2779 110.722 21.7169 110.159 22.1049C109.596 22.4919 108.895 22.8049 108.056 23.0449C107.216 23.2849 106.214 23.4049 105.052 23.4049H102.339V29.4399ZM107.295 17.2049C107.295 17.0209 107.267 16.8029 107.211 16.5539C107.158 16.3115 107.06 16.0814 106.921 15.8759C106.766 15.6573 106.562 15.4774 106.326 15.3499C106.066 15.2029 105.735 15.1289 105.329 15.1289H102.339V19.3089H105.329C105.974 19.3089 106.464 19.0919 106.796 18.6589C107.127 18.2239 107.295 17.7389 107.295 17.2049ZM120.83 29.4399C120.83 29.6619 120.798 29.8099 120.732 29.8829C120.668 29.9569 120.479 29.9929 120.165 29.9929H116.235C115.81 29.9929 115.598 29.8099 115.598 29.4399V15.8759C115.598 15.2109 115.69 14.5609 115.874 13.9239C116.059 13.2869 116.359 12.7239 116.774 12.2359C117.19 11.7459 117.739 11.3539 118.421 11.0599C119.104 10.7639 119.935 10.6159 120.914 10.6159H129.328C129.55 10.6159 129.693 10.6479 129.758 10.7119C129.822 10.7779 129.855 10.9659 129.855 11.2819V14.4079C129.855 14.6489 129.817 14.8099 129.743 14.8929C129.67 14.9749 129.532 15.0169 129.328 15.0169H122.49C122.122 15.0169 121.827 15.0689 121.605 15.1709C121.383 15.2709 121.217 15.3959 121.107 15.5439C120.996 15.6906 120.92 15.8611 120.886 16.0419C120.849 16.2239 120.83 16.4091 120.83 16.5949V29.4399ZM144.028 18.9489L141.536 23.0459L137.772 28.7489C137.62 28.9806 137.453 29.2021 137.272 29.4119C137.141 29.5654 136.982 29.6924 136.803 29.7859C136.637 29.8699 136.443 29.9259 136.222 29.9519C136 29.9799 135.732 29.9939 135.419 29.9939H134.118C133.288 29.9939 132.742 29.7859 132.484 29.3699C132.226 28.9559 132.097 28.4349 132.097 27.8079V11.1979C132.097 10.8099 132.309 10.6159 132.734 10.6159H136.526C136.839 10.6159 137.029 10.6579 137.093 10.7399C137.158 10.8239 137.191 10.9759 137.191 11.1979V21.7179H137.384L139.82 17.8959L143.64 11.8629C143.825 11.5669 143.99 11.3359 144.138 11.1699C144.286 11.0039 144.442 10.8799 144.61 10.7959C144.776 10.7119 144.97 10.6619 145.191 10.6439C145.411 10.6259 145.679 10.6159 145.993 10.6159H147.295C148.07 10.6159 148.599 10.7639 148.887 11.0599C149.172 11.3539 149.315 11.9349 149.315 12.8039V29.4119C149.315 29.7999 149.103 29.9939 148.679 29.9939H144.886C144.572 29.9939 144.382 29.9519 144.318 29.8699C144.254 29.7859 144.222 29.6339 144.222 29.4119V18.9499L144.028 18.9489ZM153.745 24.0149C153.911 23.2949 154.159 22.6949 154.492 22.2149C154.824 21.7349 155.415 21.3849 156.264 21.1639V21.1079C155.691 20.9419 155.211 20.6969 154.824 20.3749C154.449 20.0662 154.134 19.6901 153.897 19.2659C153.663 18.8464 153.495 18.3939 153.397 17.9239C153.297 17.4439 153.246 16.9549 153.246 16.4569C153.246 15.5709 153.384 14.7729 153.661 14.0619C153.931 13.3616 154.358 12.7323 154.908 12.2219C155.461 11.7049 156.148 11.3079 156.969 11.0319C157.79 10.7539 158.745 10.6159 159.834 10.6159H166.894C167.651 10.6159 168.14 10.7779 168.36 11.0999C168.582 11.4229 168.693 11.8699 168.693 12.4439V29.4399C168.693 29.8099 168.48 29.9939 168.056 29.9939H164.125C163.811 29.9939 163.622 29.9569 163.558 29.8839C163.493 29.8099 163.461 29.6619 163.461 29.4399V22.4099H161.661C160.887 22.4099 160.328 22.5899 159.986 22.9499C159.646 23.3099 159.373 23.8859 159.171 24.6799L158.062 29.3029C158.023 29.46 157.942 29.6037 157.828 29.7189C157.726 29.8109 157.606 29.8789 157.467 29.9259C157.324 29.9726 157.175 29.9959 157.025 29.9949H152.72C152.499 29.9949 152.383 29.9399 152.375 29.8289C152.365 29.7189 152.388 29.5329 152.443 29.2749L153.745 24.0149ZM158.644 16.7069C158.644 17.2419 158.811 17.6419 159.143 17.9099C159.474 18.1779 159.862 18.3109 160.305 18.3109H163.461V15.1299H160.305C159.696 15.1299 159.267 15.2959 159.017 15.6269C158.777 15.9358 158.646 16.3156 158.644 16.7069Z" fill="#44749D"/>
<path d="M42.178 34.2494H42.149C42.1263 34.2933 42.1069 34.3387 42.091 34.3854C42.06 34.4664 42.025 34.5534 41.987 34.6464L41.884 34.9104L41.831 35.0504C41.8087 35.1085 41.7854 35.1662 41.761 35.2234L41.641 35.5164L41.498 35.8704C41.447 35.9964 41.398 36.1134 41.35 36.2244L41.228 36.5174L41.158 36.6844C41.1382 36.7535 41.1018 36.8167 41.052 36.8684C41.013 36.9024 40.947 36.9184 40.858 36.9184H40.664C40.575 36.9184 40.508 36.9024 40.468 36.8684C40.4156 36.8181 40.3779 36.7545 40.359 36.6844C40.348 36.6524 40.323 36.5944 40.287 36.5114C40.249 36.4284 40.209 36.3314 40.163 36.2214L40.016 35.8704C39.9667 35.7537 39.9181 35.6367 39.87 35.5194C39.824 35.4104 39.783 35.3124 39.746 35.2294C39.71 35.1454 39.684 35.0884 39.673 35.0564L39.373 34.3074H39.339V37.2994C39.339 37.3424 39.33 37.3694 39.315 37.3814C39.3 37.3924 39.272 37.3984 39.229 37.3984H38.94C38.9106 37.4006 38.8812 37.3947 38.855 37.3814C38.838 37.3694 38.829 37.3424 38.829 37.2994V33.5874C38.829 33.4974 38.848 33.4274 38.887 33.3734C38.927 33.3204 39.003 33.2934 39.116 33.2934H39.273C39.36 33.2934 39.423 33.3094 39.47 33.3384C39.514 33.3684 39.556 33.4304 39.595 33.5284L40.402 35.5304C40.409 35.5474 40.43 35.5984 40.462 35.6864L40.574 35.9734C40.614 36.0764 40.652 36.1714 40.685 36.2594C40.719 36.3474 40.738 36.3994 40.747 36.4154H40.77C40.775 36.3984 40.794 36.3484 40.829 36.2624C40.9044 36.0781 40.9774 35.8927 41.048 35.7064C41.0662 35.6549 41.0865 35.6042 41.109 35.5544L41.197 35.3344C41.239 35.2274 41.289 35.1044 41.347 34.9634C41.402 34.8224 41.463 34.6734 41.527 34.5154L41.706 34.0734L41.846 33.7194C41.884 33.6194 41.909 33.5564 41.922 33.5284C41.961 33.4304 42.004 33.3684 42.05 33.3384C42.1093 33.3061 42.1765 33.2909 42.244 33.2944H42.401C42.519 33.2944 42.595 33.3204 42.631 33.3744C42.6714 33.4378 42.691 33.5123 42.687 33.5874V37.2994C42.687 37.3424 42.68 37.3694 42.665 37.3814C42.648 37.3924 42.62 37.3984 42.577 37.3984H42.289C42.249 37.3984 42.222 37.3924 42.205 37.3814C42.187 37.3694 42.178 37.3424 42.178 37.2994V34.2494ZM46.301 37.2754C46.301 37.3184 46.294 37.3494 46.28 37.3694C46.266 37.3894 46.237 37.3984 46.19 37.3984H44.56C44.37 37.3984 44.211 37.3714 44.084 37.3184C43.967 37.2706 43.8628 37.1959 43.78 37.1004C43.7024 37.0086 43.647 36.9001 43.618 36.7834C43.5866 36.6572 43.5712 36.5275 43.572 36.3974V34.3004C43.572 34.1684 43.589 34.0414 43.624 33.9174C43.6578 33.7989 43.7168 33.6891 43.797 33.5954C43.8824 33.5007 43.9875 33.426 44.105 33.3764C44.229 33.3224 44.382 33.2944 44.561 33.2944H46.16C46.203 33.2944 46.23 33.3044 46.245 33.3244C46.259 33.3434 46.265 33.3744 46.265 33.4174V33.6634C46.265 33.7054 46.259 33.7364 46.245 33.7534C46.231 33.7714 46.203 33.7804 46.16 33.7804H44.568C44.403 33.7804 44.285 33.8174 44.212 33.8884C44.142 33.9604 44.105 34.0734 44.105 34.2254V34.9864H45.966C46.009 34.9864 46.039 34.9964 46.051 35.0164C46.065 35.0354 46.072 35.0664 46.072 35.1094V35.3324C46.0744 35.3631 46.0675 35.3938 46.052 35.4204C46.039 35.4404 46.009 35.4494 45.966 35.4494H44.105V36.4694C44.105 36.6014 44.14 36.7064 44.21 36.7864C44.28 36.8664 44.4 36.9064 44.568 36.9064H46.189C46.237 36.9064 46.266 36.9174 46.279 36.9364C46.294 36.9554 46.301 36.9864 46.301 37.0304V37.2754ZM47.682 35.1734C47.5516 35.1096 47.442 35.0101 47.366 34.8864C47.2828 34.7501 47.2214 34.6017 47.184 34.4464L46.932 33.4004C46.9246 33.3775 46.9235 33.3529 46.929 33.3294C46.936 33.3024 46.96 33.2894 47.003 33.2894H47.325C47.345 33.2894 47.365 33.2924 47.387 33.2994C47.407 33.3084 47.423 33.3294 47.43 33.3644L47.693 34.3774C47.73 34.5054 47.774 34.6104 47.829 34.6874C47.8721 34.7536 47.9278 34.8107 47.993 34.8553C48.0583 34.8999 48.1316 34.9312 48.209 34.9474C48.279 34.9614 48.347 34.9684 48.414 34.9684H49.069V33.3884C49.066 33.3484 49.071 33.3244 49.085 33.3154C49.099 33.3054 49.122 33.2994 49.158 33.2994H49.503C49.535 33.2994 49.559 33.3054 49.573 33.3154C49.589 33.3254 49.598 33.3484 49.598 33.3874V34.9684H50.258C50.321 34.9684 50.388 34.9614 50.458 34.9484C50.5353 34.9322 50.6087 34.9009 50.6739 34.8563C50.7391 34.8117 50.7949 34.7546 50.838 34.6884C50.893 34.6104 50.938 34.5054 50.974 34.3774L51.237 33.3644C51.244 33.3294 51.259 33.3084 51.28 33.2994C51.3 33.2928 51.3209 33.2894 51.342 33.2894H51.669C51.712 33.2894 51.737 33.3024 51.743 33.3294C51.7483 33.3526 51.7472 33.3768 51.74 33.3994L51.482 34.4474C51.4482 34.6029 51.388 34.7514 51.304 34.8864C51.2273 35.0088 51.1187 35.108 50.99 35.1734V35.2034C51.0796 35.2294 51.1648 35.2685 51.243 35.3194C51.3688 35.4132 51.4644 35.5419 51.518 35.6894C51.545 35.7634 51.57 35.8454 51.594 35.9344L51.956 37.2944C51.965 37.3134 51.965 37.3354 51.959 37.3604C51.954 37.3854 51.927 37.3984 51.881 37.3984H51.523C51.5018 37.3987 51.4808 37.3949 51.461 37.3874C51.441 37.3784 51.425 37.3574 51.418 37.3234L51.061 36.0164C51.0362 35.9196 50.9989 35.8265 50.95 35.7394C50.9113 35.6715 50.8581 35.6129 50.7941 35.568C50.7301 35.523 50.657 35.4928 50.58 35.4794C50.4914 35.4621 50.4012 35.454 50.311 35.4554H49.598V37.3104C49.598 37.3504 49.589 37.3744 49.574 37.3844C49.552 37.3954 49.5275 37.4002 49.503 37.3984H49.164C49.128 37.3984 49.103 37.3944 49.087 37.3844C49.072 37.3744 49.064 37.3494 49.064 37.3104L49.069 35.4554H48.355C48.254 35.4554 48.165 35.4624 48.086 35.4784C48.0114 35.4924 47.9408 35.5224 47.879 35.5664C47.8144 35.6125 47.7599 35.6714 47.719 35.7394C47.6684 35.826 47.63 35.9193 47.605 36.0164L47.255 37.3234C47.243 37.3574 47.228 37.3784 47.208 37.3874C47.1895 37.3947 47.1698 37.3981 47.15 37.3974H46.793C46.745 37.3974 46.717 37.3854 46.71 37.3604C46.7016 37.3389 46.7016 37.315 46.71 37.2934L47.079 35.9344C47.1002 35.8515 47.1256 35.7698 47.155 35.6894C47.1823 35.6167 47.2189 35.5478 47.264 35.4844C47.3099 35.4207 47.366 35.3649 47.43 35.3194C47.5078 35.2682 47.5927 35.2288 47.682 35.2024V35.1734ZM53.492 35.8704C53.472 36.0304 53.451 36.1644 53.43 36.2724C53.4112 36.3659 53.3875 36.4584 53.359 36.5494C53.3374 36.6185 53.3096 36.6854 53.276 36.7494C53.247 36.8034 53.216 36.8574 53.18 36.9134H55.24V33.7794H53.755L53.492 35.8704ZM52.77 37.3984L52.712 38.2714C52.708 38.3294 52.682 38.3584 52.635 38.3584H52.349C52.326 38.3584 52.308 38.3534 52.296 38.3424C52.284 38.3294 52.277 38.3054 52.273 38.2714L52.196 37.1344C52.1915 37.0825 52.2057 37.0308 52.236 36.9884C52.264 36.9494 52.317 36.9274 52.396 36.9184L52.584 36.9064C52.649 36.8324 52.704 36.7524 52.75 36.6664C52.794 36.5814 52.833 36.4854 52.864 36.3794C52.896 36.2744 52.921 36.1564 52.944 36.0254C52.964 35.8954 52.987 35.7434 53.01 35.5724L53.25 33.7044C53.2621 33.5961 53.3013 33.4926 53.364 33.4034C53.421 33.3304 53.518 33.2934 53.654 33.2934H55.416C55.546 33.2934 55.638 33.3244 55.696 33.3844C55.752 33.4464 55.78 33.5384 55.78 33.6644V36.9184L55.98 36.9304C56.0338 36.9327 56.0853 36.9531 56.126 36.9884C56.165 37.0244 56.184 37.0804 56.184 37.1584L56.114 38.2714C56.109 38.3054 56.102 38.3294 56.09 38.3414C56.079 38.3534 56.06 38.3584 56.038 38.3584H55.751C55.7339 38.3592 55.7171 38.3535 55.704 38.3424C55.692 38.3294 55.687 38.3054 55.687 38.2714L55.651 37.3984H52.77ZM58.28 36.8014C58.225 36.9424 58.168 37.0594 58.107 37.1534C58.0549 37.2374 57.9863 37.31 57.9053 37.3668C57.8244 37.4235 57.7327 37.4632 57.636 37.4834C57.5282 37.5063 57.4182 37.517 57.308 37.5154C57.258 37.5154 57.191 37.5124 57.108 37.5044C57.0208 37.4953 56.9347 37.4775 56.851 37.4514C56.811 37.4404 56.788 37.4274 56.778 37.4164C56.768 37.4054 56.768 37.3864 56.776 37.3574L56.834 37.0654C56.841 37.0354 56.852 37.0164 56.866 37.0124C56.8881 37.0081 56.9109 37.0081 56.933 37.0124C57.02 37.0244 57.092 37.0324 57.151 37.0384C57.2068 37.0442 57.263 37.0452 57.319 37.0414C57.4178 37.0406 57.5146 37.0129 57.599 36.9614C57.675 36.9134 57.739 36.8214 57.795 36.6844L57.952 36.2744H57.859C57.8045 36.2764 57.7501 36.2676 57.699 36.2484C57.658 36.2304 57.616 36.1714 57.577 36.0694L56.448 33.3644C56.428 33.3184 56.448 33.2944 56.507 33.2944H56.917C56.955 33.2944 56.982 33.3024 56.994 33.3184C57.0089 33.3351 57.0198 33.3549 57.026 33.3764L57.643 34.9044L58.046 35.9234H58.087L58.479 34.8634L59.048 33.3634C59.059 33.3334 59.073 33.3134 59.091 33.3054C59.1148 33.2973 59.1399 33.2935 59.165 33.2944H59.533C59.565 33.2944 59.585 33.3024 59.592 33.3184C59.6 33.3334 59.6 33.3514 59.592 33.3714L58.28 36.8014ZM62.707 33.4004C62.707 33.3574 62.716 33.3294 62.734 33.3184C62.75 33.3054 62.778 33.2994 62.817 33.2994H63.134C63.177 33.2994 63.206 33.3054 63.222 33.3184C63.237 33.3284 63.245 33.3574 63.245 33.4004V37.2994C63.245 37.3424 63.237 37.3694 63.222 37.3814C63.206 37.3924 63.177 37.3984 63.134 37.3984H62.817C62.778 37.3984 62.75 37.3924 62.734 37.3814C62.716 37.3694 62.707 37.3424 62.707 37.2994V35.4714H60.645V37.2994C60.645 37.3424 60.638 37.3694 60.622 37.3814C60.606 37.3924 60.576 37.3984 60.534 37.3984H60.208C60.179 37.3997 60.1502 37.3938 60.124 37.3814C60.104 37.3694 60.094 37.3424 60.094 37.2994V33.3994C60.094 33.3574 60.104 33.3294 60.124 33.3184C60.1498 33.3046 60.1788 33.2981 60.208 33.2994H60.534C60.576 33.2994 60.606 33.3054 60.622 33.3184C60.638 33.3284 60.645 33.3574 60.645 33.4004V35.0034H62.707V33.4004ZM66.753 37.3984C66.7242 37.3998 66.6954 37.3961 66.668 37.3874C66.647 37.3784 66.628 37.3534 66.612 37.3104L66.319 36.4504H64.669L64.376 37.3104C64.356 37.3694 64.315 37.3984 64.252 37.3984H63.855C63.815 37.3984 63.79 37.3884 63.781 37.3664C63.7715 37.3414 63.7704 37.314 63.778 37.2884L65.101 33.5224C65.133 33.4294 65.168 33.3684 65.207 33.3384C65.246 33.3094 65.31 33.2924 65.401 33.2884H65.576C65.681 33.2884 65.752 33.3054 65.79 33.3414C65.8371 33.3932 65.8717 33.4551 65.891 33.5224L67.21 37.2884C67.2155 37.3001 67.2187 37.3127 67.2192 37.3256C67.2197 37.3385 67.2176 37.3514 67.213 37.3634C67.203 37.3874 67.178 37.3984 67.139 37.3984H66.753ZM65.774 34.7524L65.5 33.8904H65.47L65.207 34.7234L64.808 35.9764H66.168L65.774 34.7524ZM67.743 33.5874C67.743 33.4854 67.763 33.4104 67.807 33.3614C67.85 33.3124 67.925 33.2884 68.034 33.2884H69.396C69.579 33.2884 69.747 33.3184 69.902 33.3764C70.055 33.4354 70.188 33.5164 70.299 33.6244C70.409 33.7324 70.496 33.8614 70.559 34.0124C70.621 34.1614 70.652 34.3274 70.652 34.5054C70.652 34.6114 70.635 34.7374 70.599 34.8804C70.5594 35.0387 70.4859 35.1866 70.3838 35.3138C70.2816 35.441 70.153 35.5446 70.007 35.6174C69.837 35.7084 69.62 35.7534 69.355 35.7534H68.27V37.2994C68.27 37.3424 68.261 37.3694 68.246 37.3814C68.23 37.3924 68.201 37.3984 68.158 37.3984H67.854C67.8246 37.4006 67.7952 37.3947 67.769 37.3814C67.751 37.3694 67.743 37.3424 67.743 37.2994V33.5874ZM70.101 34.5354C70.1005 34.4494 70.0881 34.364 70.064 34.2814C70.0384 34.1928 69.9936 34.1109 69.933 34.0414C69.8614 33.9623 69.7733 33.8999 69.675 33.8584C69.5448 33.8063 69.4052 33.7818 69.265 33.7864H68.275V35.2794H69.276C69.553 35.2794 69.76 35.2134 69.896 35.0824C70.033 34.9524 70.101 34.7694 70.101 34.5354ZM74.651 35.3324C74.651 36.0184 74.504 36.5454 74.21 36.9124C73.914 37.2794 73.476 37.4634 72.895 37.4634C72.316 37.4634 71.885 37.2814 71.599 36.9184C71.311 36.5554 71.168 36.0354 71.168 35.3544C71.168 35.0154 71.211 34.7144 71.298 34.4514C71.387 34.1874 71.508 33.9664 71.663 33.7864C71.816 33.6064 72 33.4694 72.213 33.3764C72.4316 33.2817 72.6677 33.234 72.906 33.2364C73.192 33.2364 73.443 33.2834 73.662 33.3794C73.881 33.4754 74.063 33.6134 74.21 33.7944C74.356 33.9764 74.466 34.1964 74.54 34.4544C74.614 34.7104 74.652 35.0034 74.652 35.3324H74.651ZM74.101 35.3544C74.101 35.1404 74.084 34.9344 74.051 34.7374C74.0224 34.5532 73.9608 34.3757 73.869 34.2134C73.783 34.0629 73.6588 33.9377 73.509 33.8504C73.3295 33.7541 73.1275 33.7075 72.924 33.7154C72.714 33.7154 72.531 33.7584 72.379 33.8454C72.227 33.9304 72.0974 34.0504 72.001 34.1954C71.902 34.3444 71.829 34.5154 71.78 34.7104C71.7299 34.9139 71.7051 35.1228 71.706 35.3324C71.706 35.5734 71.726 35.7954 71.764 35.9964C71.804 36.1984 71.869 36.3714 71.961 36.5164C72.0504 36.6611 72.1763 36.7797 72.326 36.8604C72.48 36.9424 72.671 36.9824 72.901 36.9824C73.126 36.9824 73.317 36.9384 73.472 36.8474C73.625 36.7584 73.75 36.6374 73.843 36.4854C73.9407 36.325 74.0085 36.1481 74.043 35.9634C74.081 35.7684 74.101 35.5664 74.101 35.3544ZM76.203 35.8704C76.183 36.0304 76.163 36.1644 76.142 36.2724C76.119 36.3794 76.097 36.4714 76.071 36.5494C76.05 36.6184 76.0229 36.6853 75.99 36.7494C75.96 36.8034 75.928 36.8574 75.892 36.9134H77.954V33.7794H76.467L76.203 35.8704ZM75.483 37.3984L75.423 38.2714C75.421 38.3294 75.395 38.3584 75.349 38.3584H75.061C75.038 38.3584 75.021 38.3534 75.008 38.3424C74.998 38.3294 74.988 38.3054 74.985 38.2714L74.909 37.1344C74.9031 37.0827 74.9167 37.0307 74.947 36.9884C74.977 36.9494 75.031 36.9274 75.109 36.9184L75.296 36.9064C75.362 36.8324 75.416 36.7524 75.463 36.6664C75.507 36.5814 75.545 36.4854 75.577 36.3794C75.607 36.2744 75.634 36.1564 75.655 36.0254C75.678 35.8954 75.7 35.7434 75.724 35.5724L75.964 33.7044C75.9755 33.5959 76.0147 33.4923 76.078 33.4034C76.133 33.3304 76.231 33.2934 76.368 33.2934H78.13C78.258 33.2934 78.351 33.3244 78.407 33.3844C78.464 33.4464 78.492 33.5384 78.492 33.6644V36.9184L78.692 36.9304C78.7458 36.9327 78.7973 36.9531 78.838 36.9884C78.877 37.0244 78.896 37.0804 78.896 37.1584L78.826 38.2714C78.823 38.3054 78.814 38.3294 78.803 38.3414C78.79 38.3534 78.773 38.3584 78.75 38.3584H78.463C78.4546 38.359 78.4462 38.3579 78.4383 38.3551C78.4304 38.3524 78.4232 38.348 78.417 38.3424C78.404 38.3294 78.399 38.3054 78.399 38.2714L78.364 37.3984H75.483ZM82.106 33.4004C82.106 33.3574 82.114 33.3294 82.132 33.3184C82.149 33.3054 82.177 33.2994 82.216 33.2994H82.532C82.575 33.2994 82.605 33.3054 82.62 33.3184C82.635 33.3284 82.644 33.3574 82.644 33.4004V37.2994C82.644 37.3424 82.635 37.3694 82.62 37.3814C82.605 37.3924 82.575 37.3984 82.532 37.3984H82.216C82.176 37.3984 82.149 37.3924 82.132 37.3814C82.114 37.3694 82.106 37.3424 82.106 37.2994V35.4714H80.044V37.2994C80.044 37.3424 80.037 37.3694 80.02 37.3814C80.005 37.3924 79.975 37.3984 79.932 37.3984H79.606C79.577 37.3997 79.5482 37.3938 79.522 37.3814C79.502 37.3694 79.493 37.3424 79.493 37.2994V33.3994C79.493 33.3574 79.503 33.3294 79.523 33.3184C79.5485 33.3048 79.5771 33.2982 79.606 33.2994H79.932C79.975 33.2994 80.005 33.3054 80.02 33.3184C80.037 33.3284 80.044 33.3574 80.044 33.4004V35.0034H82.106V33.4004ZM86.151 37.3984C86.1222 37.3997 86.0935 37.396 86.066 37.3874C86.046 37.3784 86.026 37.3534 86.01 37.3104L85.717 36.4504H84.067L83.774 37.3104C83.754 37.3694 83.713 37.3984 83.652 37.3984H83.252C83.214 37.3984 83.189 37.3884 83.179 37.3664C83.1695 37.3414 83.1684 37.314 83.176 37.2884L84.5 33.5224C84.531 33.4294 84.566 33.3684 84.605 33.3384C84.645 33.3094 84.708 33.2924 84.799 33.2884H84.974C85.079 33.2884 85.15 33.3054 85.188 33.3414C85.2354 33.3933 85.2706 33.4552 85.291 33.5224L86.608 37.2884C86.6136 37.3001 86.6167 37.3127 86.6172 37.3256C86.6177 37.3385 86.6156 37.3514 86.611 37.3634C86.601 37.3874 86.576 37.3984 86.537 37.3984H86.151ZM85.174 34.7524L84.898 33.8904H84.868L84.605 34.7234L84.208 35.9764H85.566L85.174 34.7524ZM89.419 35.6364H88.581C88.386 35.6364 88.217 35.6734 88.075 35.7504C87.933 35.8274 87.829 35.9794 87.767 36.2104L87.463 37.3284C87.454 37.3634 87.441 37.3844 87.418 37.3904C87.3981 37.3957 87.3776 37.3984 87.357 37.3984H86.977C86.946 37.3984 86.925 37.3914 86.915 37.3784C86.9052 37.3636 86.9003 37.3461 86.901 37.3284V37.2984L87.223 36.1154C87.265 35.9724 87.326 35.8484 87.404 35.7454C87.4993 35.6298 87.625 35.5432 87.767 35.4954C87.5599 35.4185 87.3831 35.2768 87.263 35.0914C87.1468 34.9014 87.0878 34.682 87.093 34.4594C87.093 34.2914 87.123 34.1364 87.181 33.9944C87.24 33.8514 87.323 33.7294 87.434 33.6244C87.542 33.5214 87.674 33.4404 87.825 33.3824C87.9881 33.3219 88.161 33.292 88.335 33.2944H89.67C89.783 33.2944 89.86 33.3184 89.904 33.3644C89.947 33.4114 89.968 33.4844 89.968 33.5874V37.3174C89.968 37.3524 89.961 37.3744 89.946 37.3844C89.924 37.3952 89.8995 37.4001 89.875 37.3984H89.518C89.4915 37.4004 89.465 37.3955 89.441 37.3844C89.426 37.3744 89.419 37.3524 89.419 37.3174V35.6364ZM88.394 33.7864C88.2673 33.7821 88.1411 33.805 88.024 33.8534C87.935 33.8918 87.8552 33.9488 87.79 34.0204C87.7323 34.0853 87.6906 34.1626 87.668 34.2464C87.6454 34.3234 87.6336 34.4032 87.633 34.4834C87.6306 34.5736 87.6461 34.6634 87.6787 34.7475C87.7113 34.8316 87.7604 34.9084 87.823 34.9734C87.949 35.1074 88.153 35.1734 88.435 35.1734H89.419V33.7864H88.394ZM93.307 33.7734H92.165C92.129 33.7734 92.106 33.7684 92.097 33.7534C92.087 33.7404 92.083 33.7154 92.083 33.6804V33.3934C92.083 33.3634 92.087 33.3384 92.097 33.3234C92.107 33.3084 92.129 33.2994 92.165 33.2994H95.034C95.069 33.2994 95.091 33.3084 95.101 33.3234C95.111 33.3384 95.115 33.3634 95.115 33.3934V33.6804C95.115 33.7154 95.111 33.7404 95.101 33.7544C95.091 33.7684 95.069 33.7744 95.034 33.7744H93.856V37.2994C93.856 37.3424 93.849 37.3694 93.834 37.3814C93.817 37.3924 93.79 37.3984 93.751 37.3984H93.417C93.3876 37.4004 93.3583 37.3945 93.332 37.3814C93.315 37.3694 93.307 37.3424 93.307 37.2994V33.7734ZM95.637 33.5874C95.637 33.4854 95.658 33.4104 95.7 33.3614C95.744 33.3124 95.82 33.2884 95.929 33.2884H97.291C97.474 33.2884 97.642 33.3184 97.796 33.3764C97.949 33.4354 98.081 33.5164 98.193 33.6244C98.303 33.7324 98.391 33.8614 98.453 34.0124C98.515 34.1614 98.547 34.3274 98.547 34.5054C98.547 34.6114 98.529 34.7374 98.494 34.8804C98.459 35.0254 98.394 35.1624 98.299 35.2904C98.203 35.4204 98.07 35.5284 97.902 35.6184C97.732 35.7084 97.515 35.7534 97.249 35.7534H96.163V37.2994C96.163 37.3424 96.156 37.3694 96.139 37.3814C96.124 37.3924 96.095 37.3984 96.052 37.3984H95.748C95.7186 37.4004 95.6893 37.3945 95.663 37.3814C95.646 37.3694 95.636 37.3424 95.636 37.2994L95.637 33.5874ZM97.997 34.5354C97.9962 34.4494 97.9834 34.3639 97.959 34.2814C97.9326 34.1927 97.8872 34.1108 97.826 34.0414C97.7546 33.962 97.6665 33.8995 97.568 33.8584C97.4378 33.806 97.2982 33.7815 97.158 33.7864H96.168V35.2794H97.171C97.447 35.2794 97.655 35.2134 97.791 35.0824C97.928 34.9524 97.996 34.7694 97.996 34.5354H97.997ZM101.515 37.3984C101.486 37.3997 101.457 37.396 101.43 37.3874C101.409 37.3784 101.39 37.3534 101.374 37.3104L101.081 36.4504H99.431L99.138 37.3104C99.118 37.3694 99.078 37.3984 99.015 37.3984H98.617C98.577 37.3984 98.554 37.3884 98.544 37.3664C98.5337 37.3416 98.5327 37.3139 98.541 37.2884L99.864 33.5224C99.895 33.4294 99.93 33.3684 99.969 33.3384C100.028 33.3037 100.095 33.2864 100.163 33.2884H100.338C100.444 33.2884 100.515 33.3054 100.552 33.3414C100.599 33.3933 100.635 33.4552 100.655 33.5224L101.972 37.2884C101.978 37.3001 101.981 37.3127 101.981 37.3256C101.982 37.3385 101.98 37.3514 101.975 37.3634C101.965 37.3874 101.94 37.3984 101.901 37.3984H101.515ZM100.538 34.7524L100.262 33.8904H100.232L99.969 34.7234L99.572 35.9764H100.929L100.538 34.7524ZM105.116 33.4004C105.116 33.3574 105.126 33.3294 105.142 33.3184C105.16 33.3054 105.188 33.2994 105.227 33.2994H105.544C105.587 33.2994 105.616 33.3054 105.632 33.3184C105.647 33.3284 105.655 33.3574 105.655 33.4004V37.2994C105.655 37.3424 105.647 37.3694 105.632 37.3814C105.616 37.3924 105.587 37.3984 105.544 37.3984H105.227C105.198 37.4004 105.168 37.3945 105.142 37.3814C105.125 37.3694 105.116 37.3424 105.116 37.2994V35.4714H103.056V37.2994C103.056 37.3424 103.047 37.3694 103.032 37.3814C103.016 37.3924 102.986 37.3984 102.942 37.3984H102.616C102.588 37.3996 102.559 37.3938 102.534 37.3814C102.514 37.3694 102.504 37.3424 102.504 37.2994V33.3994C102.504 33.3574 102.514 33.3294 102.534 33.3184C102.559 33.3047 102.587 33.2981 102.616 33.2994H102.942C102.986 33.2994 103.016 33.3054 103.032 33.3184C103.047 33.3284 103.055 33.3574 103.055 33.4004V35.0034H105.115L105.116 33.4004ZM108.256 36.9594C108.426 36.9594 108.59 36.9394 108.746 36.9004C108.902 36.8614 109.048 36.8114 109.185 36.7484C109.228 36.7284 109.26 36.7284 109.28 36.7434C109.3 36.7584 109.312 36.7764 109.32 36.7964L109.432 37.0414C109.455 37.0884 109.462 37.1214 109.455 37.1374C109.442 37.1601 109.424 37.1793 109.402 37.1934C109.309 37.2494 109.207 37.2934 109.1 37.3284C108.995 37.3629 108.887 37.3903 108.778 37.4104C108.574 37.4449 108.367 37.4626 108.16 37.4634C107.91 37.467 107.661 37.425 107.426 37.3394C107.215 37.2619 107.027 37.133 106.878 36.9644C106.72 36.7788 106.603 36.5616 106.536 36.3274C106.45 36.0285 106.41 35.7184 106.416 35.4074C106.416 35.0804 106.458 34.7834 106.545 34.5154C106.631 34.2474 106.752 34.0194 106.908 33.8294C107.065 33.6414 107.253 33.4954 107.473 33.3934C107.693 33.2934 107.936 33.2414 108.203 33.2414C108.369 33.2414 108.543 33.2564 108.723 33.2854C108.902 33.3154 109.092 33.3804 109.291 33.4814C109.312 33.4911 109.328 33.5078 109.338 33.5284C109.345 33.5484 109.34 33.5774 109.32 33.6164L109.185 33.8854C109.177 33.9051 109.164 33.9223 109.147 33.9354C109.133 33.9454 109.111 33.9424 109.08 33.9274C108.811 33.8069 108.52 33.7445 108.226 33.7444C108.003 33.7444 107.812 33.7924 107.654 33.8844C107.497 33.9775 107.363 34.1051 107.263 34.2574C107.158 34.4124 107.083 34.5894 107.037 34.7904C106.989 34.9904 106.967 35.1974 106.967 35.4074C106.967 35.6224 106.987 35.8234 107.028 36.0114C107.068 36.1984 107.138 36.3624 107.238 36.5034C107.338 36.6434 107.47 36.7534 107.636 36.8364C107.802 36.9184 108.008 36.9594 108.256 36.9594ZM113.173 37.3104C113.173 37.3504 113.166 37.3744 113.153 37.3844C113.139 37.3944 113.115 37.3984 113.079 37.3984H112.734C112.709 37.3999 112.683 37.3951 112.66 37.3844C112.644 37.3744 112.634 37.3494 112.634 37.3104V33.7734H110.574V37.3104C110.574 37.3504 110.566 37.3744 110.553 37.3844C110.539 37.3944 110.515 37.3984 110.48 37.3984H110.129C110.104 37.4002 110.08 37.3954 110.058 37.3844C110.042 37.3744 110.034 37.3494 110.034 37.3104V33.6634C110.034 33.5384 110.066 33.4464 110.132 33.3844C110.2 33.323 110.289 33.2907 110.38 33.2944H112.828C112.874 33.2918 112.921 33.2983 112.965 33.3138C113.008 33.3292 113.049 33.3533 113.083 33.3844C113.143 33.4464 113.173 33.5384 113.173 33.6644V37.3104ZM117.418 35.3324C117.418 36.0184 117.27 36.5454 116.976 36.9124C116.681 37.2794 116.243 37.4634 115.662 37.4634C115.083 37.4634 114.652 37.2814 114.364 36.9184C114.078 36.5554 113.934 36.0354 113.934 35.3544C113.934 35.0154 113.978 34.7144 114.066 34.4514C114.153 34.1874 114.275 33.9664 114.429 33.7864C114.579 33.6096 114.767 33.4694 114.979 33.3764C115.192 33.2834 115.423 33.2364 115.673 33.2364C115.959 33.2364 116.21 33.2834 116.428 33.3794C116.648 33.4754 116.83 33.6134 116.976 33.7944C117.123 33.9764 117.233 34.1964 117.306 34.4544C117.381 34.7104 117.418 35.0034 117.418 35.3324ZM116.868 35.3544C116.868 35.1404 116.851 34.9344 116.818 34.7374C116.789 34.5534 116.727 34.3759 116.636 34.2134C116.55 34.0629 116.426 33.9377 116.276 33.8504C116.096 33.7541 115.895 33.7075 115.691 33.7154C115.481 33.7154 115.298 33.7584 115.146 33.8454C114.994 33.9304 114.864 34.0504 114.768 34.1954C114.669 34.3444 114.595 34.5154 114.547 34.7104C114.497 34.9139 114.472 35.1228 114.473 35.3324C114.473 35.5734 114.493 35.7954 114.531 35.9964C114.571 36.1984 114.636 36.3714 114.728 36.5164C114.817 36.6611 114.943 36.7797 115.093 36.8604C115.246 36.9424 115.437 36.9824 115.667 36.9824C115.893 36.9824 116.084 36.9384 116.237 36.8474C116.392 36.7584 116.517 36.6374 116.61 36.4854C116.707 36.3247 116.775 36.1479 116.81 35.9634C116.848 35.7684 116.868 35.5664 116.868 35.3544ZM118.179 33.5874C118.179 33.4854 118.2 33.4104 118.244 33.3614C118.287 33.3124 118.362 33.2884 118.471 33.2884H119.833C120.015 33.2884 120.184 33.3184 120.339 33.3764C120.492 33.4354 120.625 33.5164 120.736 33.6244C120.846 33.7324 120.933 33.8614 120.996 34.0124C121.058 34.1614 121.089 34.3274 121.089 34.5054C121.089 34.6114 121.072 34.7374 121.036 34.8804C121.001 35.0254 120.936 35.1624 120.841 35.2904C120.746 35.4204 120.613 35.5284 120.445 35.6184C120.275 35.7084 120.057 35.7534 119.792 35.7534H118.706V37.2994C118.706 37.3424 118.698 37.3694 118.683 37.3814C118.667 37.3924 118.638 37.3984 118.595 37.3984H118.291C118.262 37.4006 118.232 37.3947 118.206 37.3814C118.188 37.3694 118.179 37.3424 118.179 37.2994V33.5874ZM120.539 34.5354C120.538 34.4494 120.525 34.3639 120.501 34.2814C120.475 34.1927 120.43 34.1108 120.369 34.0414C120.298 33.9624 120.21 33.9 120.112 33.8584C119.982 33.8063 119.842 33.7818 119.702 33.7864H118.712V35.2794H119.712C119.99 35.2794 120.197 35.2134 120.333 35.0824C120.47 34.9524 120.538 34.7694 120.538 34.5354H120.539ZM122.594 33.7734H121.453C121.416 33.7734 121.394 33.7684 121.384 33.7534C121.374 33.7404 121.37 33.7154 121.37 33.6804V33.3934C121.37 33.3634 121.375 33.3384 121.384 33.3234C121.394 33.3084 121.416 33.2994 121.453 33.2994H124.322C124.356 33.2994 124.379 33.3084 124.389 33.3234C124.399 33.3384 124.404 33.3634 124.404 33.3934V33.6804C124.404 33.7154 124.398 33.7404 124.389 33.7544C124.379 33.7684 124.356 33.7744 124.322 33.7744H123.145V37.2994C123.145 37.3424 123.137 37.3694 123.121 37.3814C123.106 37.3924 123.078 37.3984 123.039 37.3984H122.706C122.677 37.4006 122.647 37.3947 122.621 37.3814C122.603 37.3694 122.594 37.3424 122.594 37.2994V33.7734ZM127.536 33.3994C127.536 33.3574 127.545 33.3294 127.563 33.3184C127.58 33.3054 127.607 33.2994 127.646 33.2994H127.963C128.006 33.2994 128.035 33.3054 128.051 33.3184C128.066 33.3284 128.074 33.3574 128.074 33.4004V37.2994C128.074 37.3424 128.066 37.3694 128.051 37.3814C128.035 37.3924 128.006 37.3984 127.963 37.3984H127.646C127.607 37.3984 127.58 37.3924 127.563 37.3814C127.545 37.3694 127.536 37.3424 127.536 37.2994V35.4714H125.474V37.2994C125.474 37.3424 125.468 37.3694 125.451 37.3814C125.435 37.3924 125.406 37.3984 125.363 37.3984H125.037C125.008 37.3997 124.979 37.3938 124.953 37.3814C124.933 37.3694 124.923 37.3424 124.923 37.2994V33.3994C124.923 33.3574 124.933 33.3294 124.953 33.3184C124.979 33.3046 125.008 33.2981 125.037 33.2994H125.363C125.406 33.2994 125.435 33.3054 125.451 33.3184C125.468 33.3284 125.474 33.3574 125.474 33.4004V35.0034H127.536V33.3994ZM131.582 37.3984C131.553 37.3998 131.524 37.3961 131.497 37.3874C131.476 37.3784 131.457 37.3534 131.441 37.3104L131.148 36.4504H129.498L129.205 37.3104C129.185 37.3694 129.144 37.3984 129.081 37.3984H128.684C128.644 37.3984 128.619 37.3884 128.61 37.3664C128.6 37.3414 128.599 37.314 128.607 37.2884L129.931 33.5224C129.961 33.4294 129.997 33.3684 130.036 33.3384C130.075 33.3094 130.139 33.2924 130.23 33.2884H130.405C130.51 33.2884 130.581 33.3054 130.619 33.3414C130.666 33.3933 130.702 33.4552 130.722 33.5224L132.039 37.2884C132.045 37.3001 132.048 37.3127 132.048 37.3256C132.049 37.3385 132.047 37.3514 132.042 37.3634C132.032 37.3874 132.007 37.3984 131.968 37.3984H131.582ZM130.605 34.7524L130.329 33.8904H130.299L130.036 34.7234L129.637 35.9764H130.997L130.605 34.7524ZM134.849 35.6364H134.012C133.817 35.6364 133.648 35.6734 133.506 35.7504C133.362 35.8274 133.26 35.9794 133.198 36.2104L132.894 37.3284C132.885 37.3634 132.871 37.3844 132.849 37.3904C132.829 37.3957 132.809 37.3984 132.788 37.3984H132.408C132.376 37.3984 132.356 37.3914 132.346 37.3784C132.336 37.3636 132.331 37.3461 132.332 37.3284V37.2984L132.654 36.1154C132.696 35.9724 132.757 35.8484 132.835 35.7454C132.93 35.6298 133.056 35.5432 133.198 35.4954C132.991 35.4185 132.814 35.2768 132.694 35.0914C132.578 34.9014 132.519 34.682 132.524 34.4594C132.524 34.2914 132.554 34.1364 132.612 33.9944C132.671 33.8514 132.754 33.7294 132.864 33.6244C132.974 33.5214 133.104 33.4404 133.256 33.3824C133.419 33.3219 133.592 33.292 133.766 33.2944H135.1C135.213 33.2944 135.291 33.3184 135.335 33.3644C135.378 33.4114 135.399 33.4844 135.399 33.5874V37.3174C135.399 37.3524 135.392 37.3744 135.376 37.3844C135.354 37.3951 135.33 37.3999 135.306 37.3984H134.948C134.922 37.4002 134.896 37.3954 134.872 37.3844C134.856 37.3744 134.849 37.3524 134.849 37.3174V35.6364ZM133.825 33.7864C133.698 33.7821 133.572 33.805 133.455 33.8534C133.366 33.8918 133.286 33.9488 133.221 34.0204C133.163 34.0853 133.122 34.1626 133.099 34.2464C133.076 34.3234 133.065 34.4032 133.064 34.4834C133.062 34.5736 133.077 34.6634 133.11 34.7475C133.142 34.8316 133.191 34.9084 133.254 34.9734C133.38 35.1074 133.584 35.1734 133.865 35.1734H134.849V33.7864H133.825ZM139.896 35.2024C139.985 35.2288 140.07 35.2682 140.148 35.3194C140.274 35.4132 140.369 35.5419 140.423 35.6894C140.451 35.7634 140.476 35.8454 140.5 35.9344L140.868 37.2944C140.876 37.3157 140.876 37.3392 140.868 37.3604C140.861 37.3854 140.836 37.3984 140.792 37.3984H140.435C140.413 37.3984 140.391 37.3947 140.37 37.3874C140.348 37.3784 140.33 37.3574 140.324 37.3234L139.973 36.0164C139.948 35.9196 139.91 35.8265 139.861 35.7394C139.822 35.672 139.768 35.6138 139.704 35.5689C139.641 35.524 139.568 35.4935 139.491 35.4794C139.403 35.4621 139.313 35.4541 139.223 35.4554H138.392V37.3104C138.392 37.3504 138.385 37.3744 138.371 37.3844C138.357 37.3944 138.333 37.3984 138.298 37.3984H137.958C137.934 37.3997 137.91 37.3949 137.888 37.3844C137.872 37.3744 137.865 37.3494 137.865 37.3104V33.3874C137.865 33.3484 137.872 33.3244 137.887 33.3154C137.909 33.304 137.933 33.2985 137.958 33.2994H138.304C138.339 33.2994 138.363 33.3054 138.376 33.3154C138.39 33.3254 138.396 33.3484 138.392 33.3874V34.9684H139.17C139.232 34.9684 139.3 34.9614 139.369 34.9484C139.447 34.9328 139.52 34.9017 139.585 34.857C139.651 34.8123 139.706 34.755 139.749 34.6884C139.804 34.6104 139.85 34.5054 139.885 34.3774L140.148 33.3644C140.155 33.3294 140.171 33.3084 140.192 33.2994C140.211 33.2931 140.232 33.2897 140.252 33.2894H140.575C140.622 33.2894 140.649 33.3024 140.655 33.3294C140.661 33.3525 140.66 33.3769 140.652 33.3994L140.394 34.4474C140.357 34.6015 140.295 34.7486 140.212 34.8834C140.134 35.0066 140.025 35.1067 139.896 35.1734V35.2024ZM144.832 35.3324C144.832 36.0184 144.685 36.5454 144.39 36.9124C144.095 37.2794 143.657 37.4634 143.076 37.4634C142.497 37.4634 142.066 37.2814 141.778 36.9184C141.492 36.5554 141.348 36.0354 141.348 35.3544C141.348 35.0154 141.392 34.7144 141.48 34.4514C141.567 34.1874 141.689 33.9664 141.843 33.7864C141.997 33.6064 142.181 33.4694 142.394 33.3764C142.613 33.2817 142.849 33.234 143.087 33.2364C143.373 33.2364 143.624 33.2834 143.843 33.3794C144.061 33.4754 144.244 33.6134 144.39 33.7944C144.537 33.9764 144.647 34.1964 144.72 34.4544C144.795 34.7104 144.832 35.0034 144.832 35.3324ZM144.282 35.3544C144.282 35.1404 144.265 34.9344 144.232 34.7374C144.203 34.5532 144.142 34.3757 144.05 34.2134C143.964 34.0629 143.84 33.9377 143.69 33.8504C143.51 33.7541 143.309 33.7075 143.105 33.7154C142.895 33.7154 142.712 33.7584 142.56 33.8454C142.408 33.9304 142.278 34.0504 142.182 34.1954C142.083 34.3444 142.009 34.5154 141.961 34.7104C141.911 34.9139 141.886 35.1228 141.887 35.3324C141.887 35.5734 141.907 35.7954 141.945 35.9964C141.985 36.1984 142.05 36.3714 142.142 36.5164C142.231 36.6611 142.357 36.7797 142.507 36.8604C142.66 36.9424 142.851 36.9824 143.081 36.9824C143.307 36.9824 143.498 36.9384 143.653 36.8474C143.806 36.7584 143.93 36.6374 144.023 36.4854C144.12 36.3247 144.188 36.1479 144.223 35.9634C144.263 35.7684 144.282 35.5664 144.282 35.3544ZM148.942 34.2494H148.912C148.891 34.2939 148.871 34.3392 148.854 34.3854C148.824 34.4664 148.789 34.5534 148.752 34.6464C148.715 34.7394 148.68 34.8274 148.649 34.9104L148.596 35.0504C148.584 35.0814 148.561 35.1404 148.526 35.2234C148.49 35.3074 148.451 35.4044 148.406 35.5164L148.262 35.8704L148.115 36.2244L147.993 36.5174C147.956 36.6014 147.934 36.6574 147.922 36.6844C147.903 36.7536 147.867 36.8169 147.817 36.8684C147.777 36.9024 147.712 36.9184 147.622 36.9184H147.429C147.339 36.9184 147.273 36.9024 147.231 36.8684C147.18 36.8175 147.143 36.7541 147.124 36.6844C147.101 36.6262 147.076 36.5685 147.05 36.5114C147.008 36.4154 146.967 36.3187 146.928 36.2214L146.78 35.8704C146.73 35.7537 146.681 35.6367 146.633 35.5194C146.594 35.4221 146.553 35.3254 146.511 35.2294C146.485 35.1723 146.46 35.1147 146.437 35.0564L146.137 34.3074H146.102V37.2994C146.102 37.3424 146.095 37.3694 146.08 37.3814C146.063 37.3924 146.035 37.3984 145.992 37.3984H145.704C145.664 37.3984 145.637 37.3924 145.62 37.3814C145.602 37.3694 145.593 37.3424 145.593 37.2994V33.5874C145.593 33.4974 145.613 33.4274 145.652 33.3734C145.691 33.3204 145.766 33.2934 145.881 33.2934H146.037C146.105 33.2895 146.173 33.3051 146.233 33.3384C146.278 33.3684 146.32 33.4304 146.359 33.5284L147.166 35.5304C147.174 35.5474 147.196 35.5984 147.227 35.6864C147.261 35.7744 147.297 35.8694 147.339 35.9734C147.379 36.0764 147.417 36.1714 147.449 36.2594C147.482 36.3474 147.503 36.3994 147.51 36.4154H147.534C147.538 36.3984 147.558 36.3484 147.593 36.2624C147.669 36.0781 147.742 35.8927 147.813 35.7064C147.845 35.6214 147.866 35.5694 147.873 35.5544L147.961 35.3344L148.11 34.9634L148.291 34.5154L148.471 34.0734C148.524 33.9364 148.571 33.8184 148.611 33.7194L148.685 33.5284C148.725 33.4304 148.768 33.3684 148.815 33.3384C148.874 33.306 148.94 33.2908 149.007 33.2944H149.165C149.282 33.2944 149.359 33.3204 149.396 33.3744C149.436 33.4378 149.456 33.5123 149.452 33.5874V37.2994C149.452 37.3424 149.444 37.3694 149.428 37.3814C149.413 37.3924 149.385 37.3984 149.342 37.3984H149.052C149.013 37.3984 148.985 37.3924 148.968 37.3814C148.952 37.3694 148.942 37.3424 148.942 37.2994V34.2494ZM153.474 37.3104C153.474 37.3504 153.467 37.3744 153.454 37.3844C153.441 37.3944 153.415 37.3984 153.381 37.3984H153.035C153.01 37.4 152.985 37.3952 152.962 37.3844C152.944 37.3744 152.936 37.3494 152.936 37.3104V33.7734H150.874V37.3104C150.874 37.3504 150.869 37.3744 150.854 37.3844C150.841 37.3944 150.816 37.3984 150.781 37.3984H150.429C150.405 37.4002 150.381 37.3953 150.359 37.3844C150.344 37.3744 150.336 37.3494 150.336 37.3104V33.6634C150.336 33.5384 150.368 33.4464 150.432 33.3844C150.5 33.3231 150.59 33.2908 150.682 33.2944H153.128C153.238 33.2944 153.323 33.3244 153.383 33.3844C153.445 33.4464 153.474 33.5384 153.474 33.6644V37.3104ZM156.981 37.3984C156.952 37.3997 156.923 37.396 156.896 37.3874C156.876 37.3784 156.857 37.3534 156.841 37.3104L156.548 36.4504H154.898L154.605 37.3104C154.585 37.3694 154.545 37.3984 154.482 37.3984H154.083C154.044 37.3984 154.021 37.3884 154.011 37.3664C154.001 37.3416 154 37.3139 154.008 37.2884L155.331 33.5224C155.361 33.4294 155.396 33.3684 155.435 33.3384C155.494 33.3037 155.561 33.2864 155.629 33.2884H155.805C155.911 33.2884 155.982 33.3054 156.018 33.3414C156.065 33.3933 156.101 33.4552 156.121 33.5224L157.439 37.2884C157.445 37.3001 157.448 37.3127 157.448 37.3256C157.449 37.3385 157.447 37.3514 157.442 37.3634C157.432 37.3874 157.407 37.3984 157.368 37.3984H156.981ZM156.004 34.7524L155.728 33.8904H155.698L155.435 34.7234L155.038 35.9764H156.396L156.004 34.7524ZM160.582 33.4004C160.582 33.3574 160.592 33.3294 160.609 33.3184C160.627 33.3054 160.655 33.2994 160.694 33.2994H161.01C161.054 33.2994 161.083 33.3054 161.098 33.3184C161.113 33.3284 161.122 33.3574 161.122 33.4004V37.2994C161.122 37.3424 161.113 37.3694 161.098 37.3814C161.083 37.3924 161.054 37.3984 161.01 37.3984H160.694C160.665 37.4004 160.635 37.3945 160.609 37.3814C160.592 37.3694 160.582 37.3424 160.582 37.2994V35.4714H158.522V37.2994C158.522 37.3424 158.514 37.3694 158.498 37.3814C158.483 37.3924 158.452 37.3984 158.409 37.3984H158.083C158.055 37.3996 158.027 37.3938 158.001 37.3814C157.981 37.3694 157.971 37.3424 157.971 37.2994V33.3994C157.971 33.3574 157.981 33.3294 158.001 33.3184C158.026 33.3047 158.054 33.2981 158.083 33.2994H158.409C158.452 33.2994 158.483 33.3054 158.499 33.3184C158.514 33.3284 158.522 33.3574 158.522 33.4004V35.0034H160.582V33.4004ZM164.64 34.0204L164.132 34.8984L162.772 37.1644C162.736 37.231 162.692 37.2922 162.639 37.3464C162.599 37.3814 162.537 37.3984 162.45 37.3984H162.286C162.177 37.3984 162.102 37.3744 162.061 37.3254C162.02 37.2774 162.001 37.2034 162.001 37.1054V33.3824C162.001 33.3424 162.007 33.3194 162.022 33.3094C162.044 33.2984 162.068 33.2932 162.093 33.2944H162.439C162.474 33.2944 162.498 33.2994 162.512 33.3094C162.526 33.3194 162.532 33.3434 162.532 33.3824V36.6554H162.549L163.025 35.8524L164.425 33.5284C164.46 33.4619 164.505 33.4009 164.558 33.3474C164.598 33.3124 164.66 33.2944 164.746 33.2944H164.909C165.022 33.2944 165.099 33.3194 165.139 33.3684C165.177 33.4174 165.197 33.4894 165.197 33.5874V37.3104C165.197 37.3504 165.188 37.3744 165.173 37.3844C165.151 37.3953 165.127 37.4002 165.103 37.3984H164.758C164.723 37.3984 164.698 37.3944 164.684 37.3844C164.671 37.3744 164.664 37.3494 164.664 37.3104V34.0204H164.64ZM168.353 35.6364H167.515C167.32 35.6364 167.151 35.6734 167.009 35.7504C166.867 35.8274 166.764 35.9794 166.701 36.2104L166.397 37.3284C166.389 37.3634 166.375 37.3844 166.354 37.3904C166.333 37.3956 166.312 37.3983 166.291 37.3984H165.911C165.88 37.3984 165.859 37.3914 165.849 37.3784C165.839 37.3636 165.834 37.3461 165.835 37.3284V37.2984L166.157 36.1154C166.2 35.9724 166.26 35.8484 166.338 35.7454C166.433 35.6298 166.559 35.5432 166.701 35.4954C166.494 35.4183 166.318 35.2767 166.198 35.0914C166.082 34.9014 166.023 34.682 166.028 34.4594C166.028 34.2914 166.057 34.1364 166.115 33.9944C166.174 33.8514 166.259 33.7294 166.368 33.6244C166.476 33.5214 166.608 33.4404 166.759 33.3824C166.913 33.3234 167.081 33.2944 167.269 33.2944H168.604C168.718 33.2944 168.796 33.3184 168.838 33.3644C168.881 33.4114 168.903 33.4844 168.903 33.5874V37.3174C168.903 37.3524 168.895 37.3744 168.88 37.3844C168.858 37.3954 168.833 37.4002 168.809 37.3984H168.452C168.417 37.3984 168.392 37.3944 168.376 37.3844C168.36 37.3744 168.353 37.3524 168.353 37.3174V35.6364ZM167.328 33.7864C167.201 33.7821 167.075 33.805 166.958 33.8534C166.869 33.8919 166.79 33.9489 166.725 34.0204C166.667 34.0852 166.625 34.1625 166.602 34.2464C166.579 34.3234 166.568 34.4032 166.567 34.4834C166.565 34.5736 166.58 34.6634 166.613 34.7475C166.645 34.8316 166.694 34.9084 166.757 34.9734C166.883 35.1074 167.088 35.1734 167.369 35.1734H168.353V33.7864H167.328Z" fill="#44749D"/>
</g>
<defs>
<clipPath id="clip0_1153_5193">
<rect width="175" height="34.359" fill="white" transform="translate(0 4)"/>
</clipPath>
<clipPath id="clip1_1153_5193">
<rect width="175" height="34.359" fill="white" transform="translate(0 4)"/>
</clipPath>
</defs>
</svg>
