<svg width="244" height="43" viewBox="0 0 244 43" fill="none" xmlns="http://www.w3.org/2000/svg">
<path d="M4.202 25.957L20.78 29.14L22.068 26.917L7.332 20.55L4.202 25.958V25.957ZM11.882 12.69L24.777 22.244L26.065 20.02L15.013 7.282L11.883 12.69H11.882ZM8.03 19.348L22.766 25.717L24.079 23.445L11.184 13.892L8.03 19.348ZM19.227 0L15.747 6.02L26.8 18.76L28.438 15.936L19.227 0ZM0 33.227H18.42L20.057 30.403L3.48 27.22L0 33.227ZM29.231 25.789L33.541 33.227H38.441L29.231 17.305L20.021 33.227H24.921L29.231 25.789Z" fill="#FCAF17"/>
<path d="M68.43 33.2034H75.45L77.063 30.3554H68.431V33.2034H68.43ZM68.43 25.2954V28.1434H78.34L79.989 25.2954H68.43ZM217.214 28.6724V20.2604H214.107V33.2034H216.708L224.184 24.7314V33.2034H227.29V20.2604H224.546L217.214 28.6724ZM86.695 20.2604L79.255 33.2034H82.915L87.815 24.6584L92.751 33.2034H96.604L89.164 20.2604H86.695ZM64.339 30.3544L56.899 17.4004H54.359L46.918 30.3544H45.052V37.0004H48.013V33.2024H63.243V37.0004H66.205V30.3544H64.339ZM50.626 30.3544L55.526 21.7984L60.462 30.3544H50.626ZM165.877 20.2604H151.418V23.1084H164.215L165.877 20.2604ZM82.878 20.2604H68.431V23.1084H81.229L82.878 20.2604ZM241.255 20.2604L233.923 28.6724V20.2604H230.817V33.2034H233.429L240.894 24.7314V33.2034H244V20.2604H241.255ZM207.473 25.2954H200.671V20.2604H197.564V33.2034H200.671V28.1434H207.473V33.2034H210.579V20.2604H207.473V25.2954ZM169.682 20.2604L162.242 33.2034H165.914L170.814 24.6584L175.75 33.2034H179.591L172.15 20.2604H169.682ZM138.981 24.9004H134.262V20.2494H131.156V33.2034H138.957C141.064 33.2034 143.255 32.0384 143.255 28.9854C143.243 24.9724 140.426 24.9004 138.981 24.9004ZM138.801 30.4644H134.25V27.5804H138.801C139.33 27.5804 140.137 27.7244 140.137 29.0224C140.137 30.2234 139.475 30.4644 138.801 30.4644ZM147.903 20.2604H144.833V33.2154H147.903V20.2604ZM104.43 19.9474C99.24 19.9474 96.785 23.1204 96.785 26.6654C96.785 30.3664 99.18 33.3824 104.43 33.3824C106.717 33.3824 112.014 32.3254 112.014 26.6654C112.014 22.9644 109.643 19.9474 104.43 19.9474ZM104.394 30.5344C101.396 30.5344 100.132 28.8164 100.132 26.7014C100.132 24.3814 101.576 22.8314 104.394 22.8314C107.572 22.8314 108.655 24.3814 108.655 26.7014C108.655 29.4774 106.573 30.5344 104.394 30.5344ZM151.418 33.2034H158.437L160.062 30.3554H151.418V33.2034ZM151.418 25.2954V28.1434H161.326L162.987 25.2954H151.418ZM183.961 28.6004V20.2604H180.855V33.2034H183.468L190.944 24.8034V33.2034H194.05V20.2604H191.438L183.961 28.6004ZM125.57 25.5724C126.388 25.2234 127.087 24.6594 127.087 23.2524C127.087 20.5724 124.835 20.2604 123.246 20.2604H114.855V33.2154H123.391C127.303 33.2154 128.11 31.0644 128.11 29.0934C128.122 26.8704 126.858 25.9564 125.57 25.5724ZM117.925 23.0004H122.897C123.643 23.0004 123.956 23.3854 123.956 24.1304C123.956 24.8994 123.463 25.2954 122.897 25.2954H117.925V23.0004ZM123.391 30.4634H117.925V27.6874H123.391C124.269 27.6874 124.908 27.9034 124.908 29.0574C124.908 29.9704 124.522 30.4634 123.391 30.4634Z" fill="#1D1D1B"/>
</svg>
