<svg width="114" height="43" viewBox="0 0 114 43" fill="none" xmlns="http://www.w3.org/2000/svg">
<path fill-rule="evenodd" clip-rule="evenodd" d="M114 8.02134C114 8.02134 111.88 7.7666 109.376 7.7666C106.935 7.7666 104.88 8.02134 104.88 8.02134V15.9818H114V8.02134Z" fill="#E4003E"/>
<path fill-rule="evenodd" clip-rule="evenodd" d="M114 26.8076H104.88V34.8955C104.88 34.8955 107.449 35.1501 109.504 35.1501C111.559 35.1501 114 34.8317 114 34.8317V26.8076Z" fill="#E4003E"/>
<path fill-rule="evenodd" clip-rule="evenodd" d="M99.4202 8.02148H88.1807L80.3454 17.7651H76.6846V8.02148H66.9866V34.9596H76.6846V24.834H80.2169L88.1166 34.9596H100.127L88.3736 20.6308L99.4202 8.02148Z" fill="#242265"/>
<path fill-rule="evenodd" clip-rule="evenodd" d="M30.6353 8.02148H0V34.9596H9.82645V15.6635H20.8089V34.9596H30.6353V8.02148Z" fill="#242265"/>
<path fill-rule="evenodd" clip-rule="evenodd" d="M35.388 15.1544L33.9751 8.02181C33.9751 8.02181 43.1592 7.32129 48.8752 7.32129C54.5913 7.32129 61.4634 8.02181 61.4634 8.02181C61.4634 8.02181 63.5828 13.4986 63.5828 21.2044C63.5828 28.91 61.3991 34.96 61.3991 34.96C61.3991 34.96 54.8482 35.6605 48.8111 35.6605C42.7739 35.6605 33.9751 34.96 33.9751 34.96L35.388 27.8274C35.388 27.8274 41.5536 28.2732 46.8201 28.2732C52.0865 28.2732 54.1417 27.8274 54.1417 27.8274C54.1417 27.8274 54.3986 26.4901 54.5271 24.9616H41.939V18.0839H54.5913C54.4628 16.3007 54.206 15.2181 54.206 15.2181C54.206 15.2181 49.9028 14.7723 46.242 14.7723C42.517 14.7086 35.388 15.1544 35.388 15.1544Z" fill="#242265"/>
</svg>
