<svg width="146" height="168" viewBox="0 0 146 168" fill="none" xmlns="http://www.w3.org/2000/svg">
<g clip-path="url(#clip0_880_63)">
<circle cx="74.5" cy="1.5" r="1.5" fill="#1E1B26"/>
<circle cx="83.5" cy="1.5" r="1.5" fill="#1E1B26"/>
<circle cx="92.5" cy="1.5" r="1.5" fill="#1E1B26"/>
<circle cx="101.5" cy="1.5" r="1.5" fill="#1E1B26"/>
<circle cx="110.5" cy="1.5" r="1.5" fill="#1E1B26"/>
<circle cx="119.5" cy="1.5" r="1.5" fill="#1E1B26"/>
<circle cx="128.5" cy="1.5" r="1.5" fill="#1E1B26"/>
<circle cx="137.5" cy="1.5" r="1.5" fill="#1E1B26"/>
<circle cx="74.5" cy="10.5" r="1.5" fill="#1E1B26"/>
<circle cx="83.5" cy="10.5" r="1.5" fill="#1E1B26"/>
<circle cx="92.5" cy="10.5" r="1.5" fill="#1E1B26"/>
<circle cx="101.5" cy="10.5" r="1.5" fill="#1E1B26"/>
<circle cx="110.5" cy="10.5" r="1.5" fill="#1E1B26"/>
<circle cx="119.5" cy="10.5" r="1.5" fill="#1E1B26"/>
<circle cx="128.5" cy="10.5" r="1.5" fill="#1E1B26"/>
<circle cx="137.5" cy="10.5" r="1.5" fill="#1E1B26"/>
<circle cx="74.5" cy="19.5" r="1.5" fill="#1E1B26"/>
<circle cx="83.5" cy="19.5" r="1.5" fill="#1E1B26"/>
<circle cx="92.5" cy="19.5" r="1.5" fill="#1E1B26"/>
<circle cx="101.5" cy="19.5" r="1.5" fill="#1E1B26"/>
<circle cx="110.5" cy="19.5" r="1.5" fill="#1E1B26"/>
<circle cx="119.5" cy="19.5" r="1.5" fill="#1E1B26"/>
<circle cx="128.5" cy="19.5" r="1.5" fill="#1E1B26"/>
<circle cx="137.5" cy="19.5" r="1.5" fill="#1E1B26"/>
<circle cx="74.5" cy="28.5" r="1.5" fill="#1E1B26"/>
<circle cx="83.5" cy="28.5" r="1.5" fill="#1E1B26"/>
<circle cx="92.5" cy="28.5" r="1.5" fill="#1E1B26"/>
<circle cx="101.5" cy="28.5" r="1.5" fill="#1E1B26"/>
<circle cx="110.5" cy="28.5" r="1.5" fill="#1E1B26"/>
<circle cx="119.5" cy="28.5" r="1.5" fill="#1E1B26"/>
<circle cx="128.5" cy="28.5" r="1.5" fill="#1E1B26"/>
<circle cx="137.5" cy="28.5" r="1.5" fill="#1E1B26"/>
<circle cx="74.5" cy="37.5" r="1.5" fill="#1E1B26"/>
<circle cx="83.5" cy="37.5" r="1.5" fill="#1E1B26"/>
<circle cx="92.5" cy="37.5" r="1.5" fill="#1E1B26"/>
<circle cx="101.5" cy="37.5" r="1.5" fill="#1E1B26"/>
<circle cx="110.5" cy="37.5" r="1.5" fill="#1E1B26"/>
<circle cx="119.5" cy="37.5" r="1.5" fill="#1E1B26"/>
<circle cx="128.5" cy="37.5" r="1.5" fill="#1E1B26"/>
<circle cx="137.5" cy="37.5" r="1.5" fill="#1E1B26"/>
<circle cx="74.5" cy="46.5" r="1.5" fill="#1E1B26"/>
<circle cx="83.5" cy="46.5" r="1.5" fill="#1E1B26"/>
<circle cx="92.5" cy="46.5" r="1.5" fill="#1E1B26"/>
<circle cx="101.5" cy="46.5" r="1.5" fill="#1E1B26"/>
<circle cx="110.5" cy="46.5" r="1.5" fill="#1E1B26"/>
<circle cx="119.5" cy="46.5" r="1.5" fill="#1E1B26"/>
<circle cx="128.5" cy="46.5" r="1.5" fill="#1E1B26"/>
<circle cx="137.5" cy="46.5" r="1.5" fill="#1E1B26"/>
<circle cx="74.5" cy="55.5" r="1.5" fill="#1E1B26"/>
<circle cx="83.5" cy="55.5" r="1.5" fill="#1E1B26"/>
<circle cx="92.5" cy="55.5" r="1.5" fill="#1E1B26"/>
<circle cx="101.5" cy="55.5" r="1.5" fill="#1E1B26"/>
<circle cx="110.5" cy="55.5" r="1.5" fill="#1E1B26"/>
<circle cx="119.5" cy="55.5" r="1.5" fill="#1E1B26"/>
<circle cx="128.5" cy="55.5" r="1.5" fill="#1E1B26"/>
<circle cx="137.5" cy="55.5" r="1.5" fill="#1E1B26"/>
<circle cx="74.5" cy="64.5" r="1.5" fill="#1E1B26"/>
<circle cx="83.5" cy="64.5" r="1.5" fill="#1E1B26"/>
<circle cx="92.5" cy="64.5" r="1.5" fill="#1E1B26"/>
<circle cx="101.5" cy="64.5" r="1.5" fill="#1E1B26"/>
<circle cx="110.5" cy="64.5" r="1.5" fill="#1E1B26"/>
<circle cx="119.5" cy="64.5" r="1.5" fill="#1E1B26"/>
<circle cx="128.5" cy="64.5" r="1.5" fill="#1E1B26"/>
<circle cx="137.5" cy="64.5" r="1.5" fill="#1E1B26"/>
<circle cx="74.5" cy="73.5" r="1.5" fill="#1E1B26"/>
<circle cx="83.5" cy="73.5" r="1.5" fill="#1E1B26"/>
<circle cx="92.5" cy="73.5" r="1.5" fill="#1E1B26"/>
<circle cx="101.5" cy="73.5" r="1.5" fill="#1E1B26"/>
<circle cx="110.5" cy="73.5" r="1.5" fill="#1E1B26"/>
<circle cx="119.5" cy="73.5" r="1.5" fill="#1E1B26"/>
<circle cx="128.5" cy="73.5" r="1.5" fill="#1E1B26"/>
<circle cx="137.5" cy="73.5" r="1.5" fill="#1E1B26"/>
<circle cx="74.5" cy="82.5" r="1.5" fill="#1E1B26"/>
<circle cx="83.5" cy="82.5" r="1.5" fill="#1E1B26"/>
<circle cx="92.5" cy="82.5" r="1.5" fill="#1E1B26"/>
<circle cx="101.5" cy="82.5" r="1.5" fill="#1E1B26"/>
<circle cx="110.5" cy="82.5" r="1.5" fill="#1E1B26"/>
<circle cx="119.5" cy="82.5" r="1.5" fill="#1E1B26"/>
<circle cx="128.5" cy="82.5" r="1.5" fill="#1E1B26"/>
<circle cx="137.5" cy="82.5" r="1.5" fill="#1E1B26"/>
<circle cx="74.5" cy="91.5" r="1.5" fill="#1E1B26"/>
<circle cx="83.5" cy="91.5" r="1.5" fill="#1E1B26"/>
<circle cx="92.5" cy="91.5" r="1.5" fill="#1E1B26"/>
<circle cx="101.5" cy="91.5" r="1.5" fill="#1E1B26"/>
<circle cx="110.5" cy="91.5" r="1.5" fill="#1E1B26"/>
<circle cx="119.5" cy="91.5" r="1.5" fill="#1E1B26"/>
<circle cx="128.5" cy="91.5" r="1.5" fill="#1E1B26"/>
<circle cx="137.5" cy="91.5" r="1.5" fill="#1E1B26"/>
<circle cx="74.5" cy="109.5" r="1.5" fill="#1E1B26"/>
<circle cx="83.5" cy="109.5" r="1.5" fill="#1E1B26"/>
<circle cx="92.5" cy="109.5" r="1.5" fill="#1E1B26"/>
<circle cx="101.5" cy="109.5" r="1.5" fill="#1E1B26"/>
<circle cx="110.5" cy="109.5" r="1.5" fill="#1E1B26"/>
<circle cx="119.5" cy="109.5" r="1.5" fill="#1E1B26"/>
<circle cx="128.5" cy="109.5" r="1.5" fill="#1E1B26"/>
<circle cx="137.5" cy="109.5" r="1.5" fill="#1E1B26"/>
<circle cx="74.5" cy="136.5" r="1.5" fill="#1E1B26"/>
<circle cx="83.5" cy="136.5" r="1.5" fill="#1E1B26"/>
<circle cx="92.5" cy="136.5" r="1.5" fill="#1E1B26"/>
<circle cx="101.5" cy="136.5" r="1.5" fill="#1E1B26"/>
<circle cx="110.5" cy="136.5" r="1.5" fill="#1E1B26"/>
<circle cx="119.5" cy="136.5" r="1.5" fill="#1E1B26"/>
<circle cx="128.5" cy="136.5" r="1.5" fill="#1E1B26"/>
<circle cx="137.5" cy="136.5" r="1.5" fill="#1E1B26"/>
<circle cx="74.5" cy="145.5" r="1.5" fill="#1E1B26"/>
<circle cx="83.5" cy="145.5" r="1.5" fill="#1E1B26"/>
<circle cx="92.5" cy="145.5" r="1.5" fill="#1E1B26"/>
<circle cx="101.5" cy="145.5" r="1.5" fill="#1E1B26"/>
<circle cx="110.5" cy="145.5" r="1.5" fill="#1E1B26"/>
<circle cx="119.5" cy="145.5" r="1.5" fill="#1E1B26"/>
<circle cx="128.5" cy="145.5" r="1.5" fill="#1E1B26"/>
<circle cx="137.5" cy="145.5" r="1.5" fill="#1E1B26"/>
<circle cx="74.5" cy="127.5" r="1.5" fill="#1E1B26"/>
<circle cx="83.5" cy="127.5" r="1.5" fill="#1E1B26"/>
<circle cx="92.5" cy="127.5" r="1.5" fill="#1E1B26"/>
<circle cx="101.5" cy="127.5" r="1.5" fill="#1E1B26"/>
<circle cx="110.5" cy="127.5" r="1.5" fill="#1E1B26"/>
<circle cx="119.5" cy="127.5" r="1.5" fill="#1E1B26"/>
<circle cx="128.5" cy="127.5" r="1.5" fill="#1E1B26"/>
<circle cx="137.5" cy="127.5" r="1.5" fill="#1E1B26"/>
<circle cx="74.5" cy="154.5" r="1.5" fill="#1E1B26"/>
<circle cx="83.5" cy="154.5" r="1.5" fill="#1E1B26"/>
<circle cx="92.5" cy="154.5" r="1.5" fill="#1E1B26"/>
<circle cx="101.5" cy="154.5" r="1.5" fill="#1E1B26"/>
<circle cx="110.5" cy="154.5" r="1.5" fill="#1E1B26"/>
<circle cx="119.5" cy="154.5" r="1.5" fill="#1E1B26"/>
<circle cx="128.5" cy="154.5" r="1.5" fill="#1E1B26"/>
<circle cx="137.5" cy="154.5" r="1.5" fill="#1E1B26"/>
<circle cx="74.5" cy="100.5" r="1.5" fill="#1E1B26"/>
<circle cx="83.5" cy="100.5" r="1.5" fill="#1E1B26"/>
<circle cx="92.5" cy="100.5" r="1.5" fill="#1E1B26"/>
<circle cx="101.5" cy="100.5" r="1.5" fill="#1E1B26"/>
<circle cx="110.5" cy="100.5" r="1.5" fill="#1E1B26"/>
<circle cx="119.5" cy="100.5" r="1.5" fill="#1E1B26"/>
<circle cx="128.5" cy="100.5" r="1.5" fill="#1E1B26"/>
<circle cx="137.5" cy="100.5" r="1.5" fill="#1E1B26"/>
<circle cx="74.5" cy="118.5" r="1.5" fill="#1E1B26"/>
<circle cx="83.5" cy="118.5" r="1.5" fill="#1E1B26"/>
<circle cx="92.5" cy="118.5" r="1.5" fill="#1E1B26"/>
<circle cx="101.5" cy="118.5" r="1.5" fill="#1E1B26"/>
<circle cx="110.5" cy="118.5" r="1.5" fill="#1E1B26"/>
<circle cx="119.5" cy="118.5" r="1.5" fill="#1E1B26"/>
<circle cx="128.5" cy="118.5" r="1.5" fill="#1E1B26"/>
<circle cx="137.5" cy="118.5" r="1.5" fill="#1E1B26"/>
</g>
<g clip-path="url(#clip1_880_63)">
<circle cx="1.5" cy="1.5" r="1.5" fill="#1E1B26"/>
<circle cx="10.5" cy="1.5" r="1.5" fill="#1E1B26"/>
<circle cx="19.5" cy="1.5" r="1.5" fill="#1E1B26"/>
<circle cx="28.5" cy="1.5" r="1.5" fill="#1E1B26"/>
<circle cx="37.5" cy="1.5" r="1.5" fill="#1E1B26"/>
<circle cx="46.5" cy="1.5" r="1.5" fill="#1E1B26"/>
<circle cx="55.5" cy="1.5" r="1.5" fill="#1E1B26"/>
<circle cx="64.5" cy="1.5" r="1.5" fill="#1E1B26"/>
<circle cx="1.5" cy="10.5" r="1.5" fill="#1E1B26"/>
<circle cx="10.5" cy="10.5" r="1.5" fill="#1E1B26"/>
<circle cx="19.5" cy="10.5" r="1.5" fill="#1E1B26"/>
<circle cx="28.5" cy="10.5" r="1.5" fill="#1E1B26"/>
<circle cx="37.5" cy="10.5" r="1.5" fill="#1E1B26"/>
<circle cx="46.5" cy="10.5" r="1.5" fill="#1E1B26"/>
<circle cx="55.5" cy="10.5" r="1.5" fill="#1E1B26"/>
<circle cx="64.5" cy="10.5" r="1.5" fill="#1E1B26"/>
<circle cx="1.5" cy="19.5" r="1.5" fill="#1E1B26"/>
<circle cx="10.5" cy="19.5" r="1.5" fill="#1E1B26"/>
<circle cx="19.5" cy="19.5" r="1.5" fill="#1E1B26"/>
<circle cx="28.5" cy="19.5" r="1.5" fill="#1E1B26"/>
<circle cx="37.5" cy="19.5" r="1.5" fill="#1E1B26"/>
<circle cx="46.5" cy="19.5" r="1.5" fill="#1E1B26"/>
<circle cx="55.5" cy="19.5" r="1.5" fill="#1E1B26"/>
<circle cx="64.5" cy="19.5" r="1.5" fill="#1E1B26"/>
<circle cx="1.5" cy="28.5" r="1.5" fill="#1E1B26"/>
<circle cx="10.5" cy="28.5" r="1.5" fill="#1E1B26"/>
<circle cx="19.5" cy="28.5" r="1.5" fill="#1E1B26"/>
<circle cx="28.5" cy="28.5" r="1.5" fill="#1E1B26"/>
<circle cx="37.5" cy="28.5" r="1.5" fill="#1E1B26"/>
<circle cx="46.5" cy="28.5" r="1.5" fill="#1E1B26"/>
<circle cx="55.5" cy="28.5" r="1.5" fill="#1E1B26"/>
<circle cx="64.5" cy="28.5" r="1.5" fill="#1E1B26"/>
<circle cx="1.5" cy="37.5" r="1.5" fill="#1E1B26"/>
<circle cx="10.5" cy="37.5" r="1.5" fill="#1E1B26"/>
<circle cx="19.5" cy="37.5" r="1.5" fill="#1E1B26"/>
<circle cx="28.5" cy="37.5" r="1.5" fill="#1E1B26"/>
<circle cx="37.5" cy="37.5" r="1.5" fill="#1E1B26"/>
<circle cx="46.5" cy="37.5" r="1.5" fill="#1E1B26"/>
<circle cx="55.5" cy="37.5" r="1.5" fill="#1E1B26"/>
<circle cx="64.5" cy="37.5" r="1.5" fill="#1E1B26"/>
<circle cx="1.5" cy="46.5" r="1.5" fill="#1E1B26"/>
<circle cx="10.5" cy="46.5" r="1.5" fill="#1E1B26"/>
<circle cx="19.5" cy="46.5" r="1.5" fill="#1E1B26"/>
<circle cx="28.5" cy="46.5" r="1.5" fill="#1E1B26"/>
<circle cx="37.5" cy="46.5" r="1.5" fill="#1E1B26"/>
<circle cx="46.5" cy="46.5" r="1.5" fill="#1E1B26"/>
<circle cx="55.5" cy="46.5" r="1.5" fill="#1E1B26"/>
<circle cx="64.5" cy="46.5" r="1.5" fill="#1E1B26"/>
<circle cx="1.5" cy="55.5" r="1.5" fill="#1E1B26"/>
<circle cx="10.5" cy="55.5" r="1.5" fill="#1E1B26"/>
<circle cx="19.5" cy="55.5" r="1.5" fill="#1E1B26"/>
<circle cx="28.5" cy="55.5" r="1.5" fill="#1E1B26"/>
<circle cx="37.5" cy="55.5" r="1.5" fill="#1E1B26"/>
<circle cx="46.5" cy="55.5" r="1.5" fill="#1E1B26"/>
<circle cx="55.5" cy="55.5" r="1.5" fill="#1E1B26"/>
<circle cx="64.5" cy="55.5" r="1.5" fill="#1E1B26"/>
<circle cx="1.5" cy="64.5" r="1.5" fill="#1E1B26"/>
<circle cx="10.5" cy="64.5" r="1.5" fill="#1E1B26"/>
<circle cx="19.5" cy="64.5" r="1.5" fill="#1E1B26"/>
<circle cx="28.5" cy="64.5" r="1.5" fill="#1E1B26"/>
<circle cx="37.5" cy="64.5" r="1.5" fill="#1E1B26"/>
<circle cx="46.5" cy="64.5" r="1.5" fill="#1E1B26"/>
<circle cx="55.5" cy="64.5" r="1.5" fill="#1E1B26"/>
<circle cx="64.5" cy="64.5" r="1.5" fill="#1E1B26"/>
<circle cx="1.5" cy="73.5" r="1.5" fill="#1E1B26"/>
<circle cx="10.5" cy="73.5" r="1.5" fill="#1E1B26"/>
<circle cx="19.5" cy="73.5" r="1.5" fill="#1E1B26"/>
<circle cx="28.5" cy="73.5" r="1.5" fill="#1E1B26"/>
<circle cx="37.5" cy="73.5" r="1.5" fill="#1E1B26"/>
<circle cx="46.5" cy="73.5" r="1.5" fill="#1E1B26"/>
<circle cx="55.5" cy="73.5" r="1.5" fill="#1E1B26"/>
<circle cx="64.5" cy="73.5" r="1.5" fill="#1E1B26"/>
<circle cx="1.5" cy="82.5" r="1.5" fill="#1E1B26"/>
<circle cx="10.5" cy="82.5" r="1.5" fill="#1E1B26"/>
<circle cx="19.5" cy="82.5" r="1.5" fill="#1E1B26"/>
<circle cx="28.5" cy="82.5" r="1.5" fill="#1E1B26"/>
<circle cx="37.5" cy="82.5" r="1.5" fill="#1E1B26"/>
<circle cx="46.5" cy="82.5" r="1.5" fill="#1E1B26"/>
<circle cx="55.5" cy="82.5" r="1.5" fill="#1E1B26"/>
<circle cx="64.5" cy="82.5" r="1.5" fill="#1E1B26"/>
<circle cx="1.5" cy="91.5" r="1.5" fill="#1E1B26"/>
<circle cx="10.5" cy="91.5" r="1.5" fill="#1E1B26"/>
<circle cx="19.5" cy="91.5" r="1.5" fill="#1E1B26"/>
<circle cx="28.5" cy="91.5" r="1.5" fill="#1E1B26"/>
<circle cx="37.5" cy="91.5" r="1.5" fill="#1E1B26"/>
<circle cx="46.5" cy="91.5" r="1.5" fill="#1E1B26"/>
<circle cx="55.5" cy="91.5" r="1.5" fill="#1E1B26"/>
<circle cx="64.5" cy="91.5" r="1.5" fill="#1E1B26"/>
<circle cx="1.5" cy="109.5" r="1.5" fill="#1E1B26"/>
<circle cx="10.5" cy="109.5" r="1.5" fill="#1E1B26"/>
<circle cx="19.5" cy="109.5" r="1.5" fill="#1E1B26"/>
<circle cx="28.5" cy="109.5" r="1.5" fill="#1E1B26"/>
<circle cx="37.5" cy="109.5" r="1.5" fill="#1E1B26"/>
<circle cx="46.5" cy="109.5" r="1.5" fill="#1E1B26"/>
<circle cx="55.5" cy="109.5" r="1.5" fill="#1E1B26"/>
<circle cx="64.5" cy="109.5" r="1.5" fill="#1E1B26"/>
<circle cx="1.5" cy="136.5" r="1.5" fill="#1E1B26"/>
<circle cx="10.5" cy="136.5" r="1.5" fill="#1E1B26"/>
<circle cx="19.5" cy="136.5" r="1.5" fill="#1E1B26"/>
<circle cx="28.5" cy="136.5" r="1.5" fill="#1E1B26"/>
<circle cx="37.5" cy="136.5" r="1.5" fill="#1E1B26"/>
<circle cx="46.5" cy="136.5" r="1.5" fill="#1E1B26"/>
<circle cx="55.5" cy="136.5" r="1.5" fill="#1E1B26"/>
<circle cx="64.5" cy="136.5" r="1.5" fill="#1E1B26"/>
<circle cx="1.5" cy="145.5" r="1.5" fill="#1E1B26"/>
<circle cx="10.5" cy="145.5" r="1.5" fill="#1E1B26"/>
<circle cx="19.5" cy="145.5" r="1.5" fill="#1E1B26"/>
<circle cx="28.5" cy="145.5" r="1.5" fill="#1E1B26"/>
<circle cx="37.5" cy="145.5" r="1.5" fill="#1E1B26"/>
<circle cx="46.5" cy="145.5" r="1.5" fill="#1E1B26"/>
<circle cx="55.5" cy="145.5" r="1.5" fill="#1E1B26"/>
<circle cx="64.5" cy="145.5" r="1.5" fill="#1E1B26"/>
<circle cx="1.5" cy="127.5" r="1.5" fill="#1E1B26"/>
<circle cx="10.5" cy="127.5" r="1.5" fill="#1E1B26"/>
<circle cx="19.5" cy="127.5" r="1.5" fill="#1E1B26"/>
<circle cx="28.5" cy="127.5" r="1.5" fill="#1E1B26"/>
<circle cx="37.5" cy="127.5" r="1.5" fill="#1E1B26"/>
<circle cx="46.5" cy="127.5" r="1.5" fill="#1E1B26"/>
<circle cx="55.5" cy="127.5" r="1.5" fill="#1E1B26"/>
<circle cx="64.5" cy="127.5" r="1.5" fill="#1E1B26"/>
<circle cx="1.5" cy="154.5" r="1.5" fill="#1E1B26"/>
<circle cx="10.5" cy="154.5" r="1.5" fill="#1E1B26"/>
<circle cx="19.5" cy="154.5" r="1.5" fill="#1E1B26"/>
<circle cx="28.5" cy="154.5" r="1.5" fill="#1E1B26"/>
<circle cx="37.5" cy="154.5" r="1.5" fill="#1E1B26"/>
<circle cx="46.5" cy="154.5" r="1.5" fill="#1E1B26"/>
<circle cx="55.5" cy="154.5" r="1.5" fill="#1E1B26"/>
<circle cx="64.5" cy="154.5" r="1.5" fill="#1E1B26"/>
<circle cx="1.5" cy="100.5" r="1.5" fill="#1E1B26"/>
<circle cx="10.5" cy="100.5" r="1.5" fill="#1E1B26"/>
<circle cx="19.5" cy="100.5" r="1.5" fill="#1E1B26"/>
<circle cx="28.5" cy="100.5" r="1.5" fill="#1E1B26"/>
<circle cx="37.5" cy="100.5" r="1.5" fill="#1E1B26"/>
<circle cx="46.5" cy="100.5" r="1.5" fill="#1E1B26"/>
<circle cx="55.5" cy="100.5" r="1.5" fill="#1E1B26"/>
<circle cx="64.5" cy="100.5" r="1.5" fill="#1E1B26"/>
<circle cx="1.5" cy="118.5" r="1.5" fill="#1E1B26"/>
<circle cx="10.5" cy="118.5" r="1.5" fill="#1E1B26"/>
<circle cx="19.5" cy="118.5" r="1.5" fill="#1E1B26"/>
<circle cx="28.5" cy="118.5" r="1.5" fill="#1E1B26"/>
<circle cx="37.5" cy="118.5" r="1.5" fill="#1E1B26"/>
<circle cx="46.5" cy="118.5" r="1.5" fill="#1E1B26"/>
<circle cx="55.5" cy="118.5" r="1.5" fill="#1E1B26"/>
<circle cx="64.5" cy="118.5" r="1.5" fill="#1E1B26"/>
</g>
<defs>
<clipPath id="clip0_880_63">
<rect width="73" height="168" fill="white" transform="translate(73)"/>
</clipPath>
<clipPath id="clip1_880_63">
<rect width="73" height="168" fill="white"/>
</clipPath>
</defs>
</svg>
