<svg width="73" height="168" viewBox="0 0 73 168" fill="none" xmlns="http://www.w3.org/2000/svg">
<g clip-path="url(#clip0_859_11188)">
<circle cx="1.5" cy="1.5" r="1.5" fill="#FCCDCD"/>
<circle cx="10.5" cy="1.5" r="1.5" fill="#FCCDCD"/>
<circle cx="19.5" cy="1.5" r="1.5" fill="#FCCDCD"/>
<circle cx="28.5" cy="1.5" r="1.5" fill="#FCCDCD"/>
<circle cx="37.5" cy="1.5" r="1.5" fill="#FCCDCD"/>
<circle cx="46.5" cy="1.5" r="1.5" fill="#FCCDCD"/>
<circle cx="55.5" cy="1.5" r="1.5" fill="#FCCDCD"/>
<circle cx="64.5" cy="1.5" r="1.5" fill="#FCCDCD"/>
<circle cx="1.5" cy="10.5" r="1.5" fill="#FCCDCD"/>
<circle cx="10.5" cy="10.5" r="1.5" fill="#FCCDCD"/>
<circle cx="19.5" cy="10.5" r="1.5" fill="#FCCDCD"/>
<circle cx="28.5" cy="10.5" r="1.5" fill="#FCCDCD"/>
<circle cx="37.5" cy="10.5" r="1.5" fill="#FCCDCD"/>
<circle cx="46.5" cy="10.5" r="1.5" fill="#FCCDCD"/>
<circle cx="55.5" cy="10.5" r="1.5" fill="#FCCDCD"/>
<circle cx="64.5" cy="10.5" r="1.5" fill="#FCCDCD"/>
<circle cx="1.5" cy="19.5" r="1.5" fill="#FCCDCD"/>
<circle cx="10.5" cy="19.5" r="1.5" fill="#FCCDCD"/>
<circle cx="19.5" cy="19.5" r="1.5" fill="#FCCDCD"/>
<circle cx="28.5" cy="19.5" r="1.5" fill="#FCCDCD"/>
<circle cx="37.5" cy="19.5" r="1.5" fill="#FCCDCD"/>
<circle cx="46.5" cy="19.5" r="1.5" fill="#FCCDCD"/>
<circle cx="55.5" cy="19.5" r="1.5" fill="#FCCDCD"/>
<circle cx="64.5" cy="19.5" r="1.5" fill="#FCCDCD"/>
<circle cx="1.5" cy="28.5" r="1.5" fill="#FCCDCD"/>
<circle cx="10.5" cy="28.5" r="1.5" fill="#FCCDCD"/>
<circle cx="19.5" cy="28.5" r="1.5" fill="#FCCDCD"/>
<circle cx="28.5" cy="28.5" r="1.5" fill="#FCCDCD"/>
<circle cx="37.5" cy="28.5" r="1.5" fill="#FCCDCD"/>
<circle cx="46.5" cy="28.5" r="1.5" fill="#FCCDCD"/>
<circle cx="55.5" cy="28.5" r="1.5" fill="#FCCDCD"/>
<circle cx="64.5" cy="28.5" r="1.5" fill="#FCCDCD"/>
<circle cx="1.5" cy="37.5" r="1.5" fill="#FCCDCD"/>
<circle cx="10.5" cy="37.5" r="1.5" fill="#FCCDCD"/>
<circle cx="19.5" cy="37.5" r="1.5" fill="#FCCDCD"/>
<circle cx="28.5" cy="37.5" r="1.5" fill="#FCCDCD"/>
<circle cx="37.5" cy="37.5" r="1.5" fill="#FCCDCD"/>
<circle cx="46.5" cy="37.5" r="1.5" fill="#FCCDCD"/>
<circle cx="55.5" cy="37.5" r="1.5" fill="#FCCDCD"/>
<circle cx="64.5" cy="37.5" r="1.5" fill="#FCCDCD"/>
<circle cx="1.5" cy="46.5" r="1.5" fill="#FCCDCD"/>
<circle cx="10.5" cy="46.5" r="1.5" fill="#FCCDCD"/>
<circle cx="19.5" cy="46.5" r="1.5" fill="#FCCDCD"/>
<circle cx="28.5" cy="46.5" r="1.5" fill="#FCCDCD"/>
<circle cx="37.5" cy="46.5" r="1.5" fill="#FCCDCD"/>
<circle cx="46.5" cy="46.5" r="1.5" fill="#FCCDCD"/>
<circle cx="55.5" cy="46.5" r="1.5" fill="#FCCDCD"/>
<circle cx="64.5" cy="46.5" r="1.5" fill="#FCCDCD"/>
<circle cx="1.5" cy="55.5" r="1.5" fill="#FCCDCD"/>
<circle cx="10.5" cy="55.5" r="1.5" fill="#FCCDCD"/>
<circle cx="19.5" cy="55.5" r="1.5" fill="#FCCDCD"/>
<circle cx="28.5" cy="55.5" r="1.5" fill="#FCCDCD"/>
<circle cx="37.5" cy="55.5" r="1.5" fill="#FCCDCD"/>
<circle cx="46.5" cy="55.5" r="1.5" fill="#FCCDCD"/>
<circle cx="55.5" cy="55.5" r="1.5" fill="#FCCDCD"/>
<circle cx="64.5" cy="55.5" r="1.5" fill="#FCCDCD"/>
<circle cx="1.5" cy="64.5" r="1.5" fill="#FCCDCD"/>
<circle cx="10.5" cy="64.5" r="1.5" fill="#FCCDCD"/>
<circle cx="19.5" cy="64.5" r="1.5" fill="#FCCDCD"/>
<circle cx="28.5" cy="64.5" r="1.5" fill="#FCCDCD"/>
<circle cx="37.5" cy="64.5" r="1.5" fill="#FCCDCD"/>
<circle cx="46.5" cy="64.5" r="1.5" fill="#FCCDCD"/>
<circle cx="55.5" cy="64.5" r="1.5" fill="#FCCDCD"/>
<circle cx="64.5" cy="64.5" r="1.5" fill="#FCCDCD"/>
<circle cx="1.5" cy="73.5" r="1.5" fill="#FCCDCD"/>
<circle cx="10.5" cy="73.5" r="1.5" fill="#FCCDCD"/>
<circle cx="19.5" cy="73.5" r="1.5" fill="#FCCDCD"/>
<circle cx="28.5" cy="73.5" r="1.5" fill="#FCCDCD"/>
<circle cx="37.5" cy="73.5" r="1.5" fill="#FCCDCD"/>
<circle cx="46.5" cy="73.5" r="1.5" fill="#FCCDCD"/>
<circle cx="55.5" cy="73.5" r="1.5" fill="#FCCDCD"/>
<circle cx="64.5" cy="73.5" r="1.5" fill="#FCCDCD"/>
<circle cx="1.5" cy="82.5" r="1.5" fill="#FCCDCD"/>
<circle cx="10.5" cy="82.5" r="1.5" fill="#FCCDCD"/>
<circle cx="19.5" cy="82.5" r="1.5" fill="#FCCDCD"/>
<circle cx="28.5" cy="82.5" r="1.5" fill="#FCCDCD"/>
<circle cx="37.5" cy="82.5" r="1.5" fill="#FCCDCD"/>
<circle cx="46.5" cy="82.5" r="1.5" fill="#FCCDCD"/>
<circle cx="55.5" cy="82.5" r="1.5" fill="#FCCDCD"/>
<circle cx="64.5" cy="82.5" r="1.5" fill="#FCCDCD"/>
<circle cx="1.5" cy="91.5" r="1.5" fill="#FCCDCD"/>
<circle cx="10.5" cy="91.5" r="1.5" fill="#FCCDCD"/>
<circle cx="19.5" cy="91.5" r="1.5" fill="#FCCDCD"/>
<circle cx="28.5" cy="91.5" r="1.5" fill="#FCCDCD"/>
<circle cx="37.5" cy="91.5" r="1.5" fill="#FCCDCD"/>
<circle cx="46.5" cy="91.5" r="1.5" fill="#FCCDCD"/>
<circle cx="55.5" cy="91.5" r="1.5" fill="#FCCDCD"/>
<circle cx="64.5" cy="91.5" r="1.5" fill="#FCCDCD"/>
<circle cx="1.5" cy="109.5" r="1.5" fill="#FCCDCD"/>
<circle cx="10.5" cy="109.5" r="1.5" fill="#FCCDCD"/>
<circle cx="19.5" cy="109.5" r="1.5" fill="#FCCDCD"/>
<circle cx="28.5" cy="109.5" r="1.5" fill="#FCCDCD"/>
<circle cx="37.5" cy="109.5" r="1.5" fill="#FCCDCD"/>
<circle cx="46.5" cy="109.5" r="1.5" fill="#FCCDCD"/>
<circle cx="55.5" cy="109.5" r="1.5" fill="#FCCDCD"/>
<circle cx="64.5" cy="109.5" r="1.5" fill="#FCCDCD"/>
<circle cx="1.5" cy="136.5" r="1.5" fill="#FCCDCD"/>
<circle cx="10.5" cy="136.5" r="1.5" fill="#FCCDCD"/>
<circle cx="19.5" cy="136.5" r="1.5" fill="#FCCDCD"/>
<circle cx="28.5" cy="136.5" r="1.5" fill="#FCCDCD"/>
<circle cx="37.5" cy="136.5" r="1.5" fill="#FCCDCD"/>
<circle cx="46.5" cy="136.5" r="1.5" fill="#FCCDCD"/>
<circle cx="55.5" cy="136.5" r="1.5" fill="#FCCDCD"/>
<circle cx="64.5" cy="136.5" r="1.5" fill="#FCCDCD"/>
<circle cx="1.5" cy="145.5" r="1.5" fill="#FCCDCD"/>
<circle cx="10.5" cy="145.5" r="1.5" fill="#FCCDCD"/>
<circle cx="19.5" cy="145.5" r="1.5" fill="#FCCDCD"/>
<circle cx="28.5" cy="145.5" r="1.5" fill="#FCCDCD"/>
<circle cx="37.5" cy="145.5" r="1.5" fill="#FCCDCD"/>
<circle cx="46.5" cy="145.5" r="1.5" fill="#FCCDCD"/>
<circle cx="55.5" cy="145.5" r="1.5" fill="#FCCDCD"/>
<circle cx="64.5" cy="145.5" r="1.5" fill="#FCCDCD"/>
<circle cx="1.5" cy="127.5" r="1.5" fill="#FCCDCD"/>
<circle cx="10.5" cy="127.5" r="1.5" fill="#FCCDCD"/>
<circle cx="19.5" cy="127.5" r="1.5" fill="#FCCDCD"/>
<circle cx="28.5" cy="127.5" r="1.5" fill="#FCCDCD"/>
<circle cx="37.5" cy="127.5" r="1.5" fill="#FCCDCD"/>
<circle cx="46.5" cy="127.5" r="1.5" fill="#FCCDCD"/>
<circle cx="55.5" cy="127.5" r="1.5" fill="#FCCDCD"/>
<circle cx="64.5" cy="127.5" r="1.5" fill="#FCCDCD"/>
<circle cx="1.5" cy="154.5" r="1.5" fill="#FCCDCD"/>
<circle cx="10.5" cy="154.5" r="1.5" fill="#FCCDCD"/>
<circle cx="19.5" cy="154.5" r="1.5" fill="#FCCDCD"/>
<circle cx="28.5" cy="154.5" r="1.5" fill="#FCCDCD"/>
<circle cx="37.5" cy="154.5" r="1.5" fill="#FCCDCD"/>
<circle cx="46.5" cy="154.5" r="1.5" fill="#FCCDCD"/>
<circle cx="55.5" cy="154.5" r="1.5" fill="#FCCDCD"/>
<circle cx="64.5" cy="154.5" r="1.5" fill="#FCCDCD"/>
<circle cx="1.5" cy="100.5" r="1.5" fill="#FCCDCD"/>
<circle cx="10.5" cy="100.5" r="1.5" fill="#FCCDCD"/>
<circle cx="19.5" cy="100.5" r="1.5" fill="#FCCDCD"/>
<circle cx="28.5" cy="100.5" r="1.5" fill="#FCCDCD"/>
<circle cx="37.5" cy="100.5" r="1.5" fill="#FCCDCD"/>
<circle cx="46.5" cy="100.5" r="1.5" fill="#FCCDCD"/>
<circle cx="55.5" cy="100.5" r="1.5" fill="#FCCDCD"/>
<circle cx="64.5" cy="100.5" r="1.5" fill="#FCCDCD"/>
<circle cx="1.5" cy="118.5" r="1.5" fill="#FCCDCD"/>
<circle cx="10.5" cy="118.5" r="1.5" fill="#FCCDCD"/>
<circle cx="19.5" cy="118.5" r="1.5" fill="#FCCDCD"/>
<circle cx="28.5" cy="118.5" r="1.5" fill="#FCCDCD"/>
<circle cx="37.5" cy="118.5" r="1.5" fill="#FCCDCD"/>
<circle cx="46.5" cy="118.5" r="1.5" fill="#FCCDCD"/>
<circle cx="55.5" cy="118.5" r="1.5" fill="#FCCDCD"/>
<circle cx="64.5" cy="118.5" r="1.5" fill="#FCCDCD"/>
</g>
<defs>
<clipPath id="clip0_859_11188">
<rect width="73" height="168" fill="white"/>
</clipPath>
</defs>
</svg>
