<svg width="84" height="72" viewBox="0 0 84 72" fill="none" xmlns="http://www.w3.org/2000/svg">
<g clip-path="url(#clip0_1041_1771)">
<path d="M55.1297 19.8035V12.8232L55.875 12.6655C57.6447 12.3142 59.2703 11.4457 60.5461 10.17C61.8219 8.89418 62.6904 7.26853 63.0417 5.49885L63.185 4.76785H74.322C74.5876 4.73724 74.8326 4.61006 75.0104 4.41051C75.1883 4.21097 75.2866 3.95299 75.2866 3.68568C75.2866 3.41837 75.1883 3.1604 75.0104 2.96085C74.8326 2.76131 74.5876 2.63413 74.322 2.60352H9.82201C9.55646 2.63413 9.31143 2.76131 9.13357 2.96085C8.95571 3.1604 8.85742 3.41837 8.85742 3.68568C8.85742 3.95299 8.95571 4.21097 9.13357 4.41051C9.31143 4.61006 9.55646 4.73724 9.82201 4.76785H20.959L21.1023 5.49885C21.4536 7.26853 22.3221 8.89418 23.5979 10.17C24.8737 11.4457 26.4993 12.3142 28.269 12.6655L29.0143 12.8232V19.8035C29.0138 20.0074 29.0736 20.2069 29.1863 20.3768L35.708 30.8258V38.5372C35.708 38.8236 35.8208 39.0986 36.022 39.3024C36.2232 39.5063 36.4966 39.6227 36.783 39.6265H41.083V68.2932C41.083 68.5783 41.1963 68.8517 41.3979 69.0533C41.5995 69.2549 41.8729 69.3682 42.158 69.3682C42.4431 69.3682 42.7165 69.2549 42.9181 69.0533C43.1197 68.8517 43.233 68.5783 43.233 68.2932V39.6265H47.533C47.8194 39.6227 48.0928 39.5063 48.294 39.3024C48.4952 39.0986 48.608 38.8236 48.608 38.5372V30.8258L55.144 20.3768C55.1879 20.1876 55.1829 19.9903 55.1297 19.8035ZM46.3003 31.5855V37.4335H37.7003V31.5568L46.3003 31.5855ZM61.035 4.82518L60.605 6.05785C60.1234 7.41054 59.2356 8.58137 58.0631 9.41011C56.8905 10.2388 55.4905 10.685 54.0547 10.6875H29.9603C28.5181 10.6897 27.1105 10.246 25.9302 9.41726C24.7499 8.58848 23.8546 7.41512 23.367 6.05785L22.937 4.82518H61.035ZM52.1053 20.8785L46.759 29.4785H37.2417L31.9097 20.8785H52.1053ZM52.9653 12.8518V18.8002H31.0353V12.9235L52.9653 12.8518Z" fill="#A0A0A0"/>
<path d="M74.2638 59.1484H50.0262C49.7422 59.1521 49.4709 59.2666 49.2701 59.4674C49.0693 59.6682 48.9549 59.9395 48.9512 60.2234V68.2644C48.9549 68.5484 49.0693 68.8197 49.2701 69.0205C49.4709 69.2213 49.7422 69.3357 50.0262 69.3394H74.2638C74.5478 69.3357 74.8191 69.2213 75.0199 69.0205C75.2207 68.8197 75.3351 68.5484 75.3388 68.2644V60.2234C75.3351 59.9395 75.2207 59.6682 75.0199 59.4674C74.8191 59.2666 74.5478 59.1521 74.2638 59.1484ZM51.1155 67.1751V61.3128H73.1745V67.1751H51.1155Z" fill="#A0A0A0"/>
<path d="M33.9728 59.1484H9.73516C9.4512 59.1521 9.17992 59.2666 8.97912 59.4674C8.77832 59.6682 8.66387 59.9395 8.66016 60.2234V68.2644C8.66387 68.5484 8.77832 68.8197 8.97912 69.0205C9.17992 69.2213 9.4512 69.3357 9.73516 69.3394H33.9728C34.2568 69.3357 34.5281 69.2213 34.7289 69.0205C34.9297 68.8197 35.0441 68.5484 35.0478 68.2644V60.2234C35.0441 59.9395 34.9297 59.6682 34.7289 59.4674C34.5281 59.2666 34.2568 59.1521 33.9728 59.1484ZM32.8835 61.3128V67.1751H10.8245V61.3128H32.8835Z" fill="#A0A0A0"/>
<path d="M57.0929 41.7333C57.0933 41.444 56.98 41.166 56.7775 40.9593C56.5685 40.7669 56.2948 40.6602 56.0107 40.6602C55.7266 40.6602 55.4529 40.7669 55.2439 40.9593L51.4599 44.8007C51.2599 45.009 51.1471 45.2859 51.1445 45.5747C51.1447 45.7871 51.2079 45.9948 51.326 46.1714C51.4441 46.348 51.612 46.4857 51.8083 46.5669C52.0046 46.6482 52.2206 46.6695 52.429 46.6281C52.6374 46.5867 52.8289 46.4845 52.9792 46.3343L56.7775 42.5503C56.8845 42.4439 56.9678 42.3162 57.0222 42.1754C57.0765 42.0346 57.1006 41.884 57.0929 41.7333Z" fill="url(#paint0_linear_1041_1771)"/>
<path d="M55.3875 53.2721H60.7338C61.0189 53.2721 61.2924 53.1588 61.494 52.9572C61.6956 52.7556 61.8088 52.4822 61.8088 52.1971C61.8088 51.912 61.6956 51.6385 61.494 51.4369C61.2924 51.2353 61.0189 51.1221 60.7338 51.1221H55.3875C55.1024 51.1221 54.829 51.2353 54.6274 51.4369C54.4258 51.6385 54.3125 51.912 54.3125 52.1971C54.3125 52.4822 54.4258 52.7556 54.6274 52.9572C54.829 53.1588 55.1024 53.2721 55.3875 53.2721Z" fill="url(#paint1_linear_1041_1771)"/>
<path d="M31.7794 46.6493C32.0645 46.6493 32.3379 46.5361 32.5395 46.3345C32.7411 46.1329 32.8544 45.8594 32.8544 45.5743C32.8518 45.2856 32.739 45.0087 32.5391 44.8003L28.7551 41.0163C28.6584 40.8994 28.5384 40.8039 28.4026 40.7361C28.2669 40.6682 28.1186 40.6295 27.967 40.6223C27.8154 40.6151 27.6641 40.6397 27.5225 40.6944C27.381 40.7492 27.2525 40.8329 27.1452 40.9402C27.0379 41.0474 26.9543 41.176 26.8995 41.3175C26.8448 41.459 26.8202 41.6104 26.8274 41.7619C26.8346 41.9135 26.8733 42.0619 26.9412 42.1976C27.009 42.3333 27.1045 42.4533 27.2214 42.55L31.0197 46.334C31.2211 46.5357 31.4944 46.6491 31.7794 46.6493Z" fill="url(#paint2_linear_1041_1771)"/>
<path d="M22.1777 52.1962C22.1777 52.3386 22.206 52.4795 22.2609 52.6109C22.3158 52.7423 22.3963 52.8614 22.4976 52.9614C22.599 53.0615 22.7192 53.1403 22.8513 53.1935C22.9834 53.2467 23.1247 53.2731 23.2671 53.2712H28.6134C28.8985 53.2712 29.1719 53.1579 29.3735 52.9563C29.5751 52.7547 29.6884 52.4813 29.6884 52.1962C29.6884 51.9111 29.5751 51.6377 29.3735 51.436C29.1719 51.2344 28.8985 51.1212 28.6134 51.1212H23.2671C23.1247 51.1193 22.9834 51.1457 22.8513 51.1989C22.7192 51.252 22.599 51.3309 22.4976 51.4309C22.3963 51.5309 22.3158 51.6501 22.2609 51.7815C22.206 51.9128 22.1777 52.0538 22.1777 52.1962Z" fill="url(#paint3_linear_1041_1771)"/>
<path d="M73.6959 21.2773H71.4524C71.1052 19.7173 70.1771 18.9373 68.668 18.9373C67.7066 18.9373 66.9921 19.2633 66.5247 19.9155C66.0573 20.5548 65.8236 21.565 65.8236 22.946V24.634C65.8236 27.3065 66.7718 28.6427 68.668 28.6427C69.4559 28.6427 70.0702 28.4573 70.5109 28.0865C70.9516 27.7029 71.2654 27.1083 71.4524 26.3027H73.6758C73.2352 29.1542 71.5659 30.58 68.668 30.58C67.0255 30.58 65.7502 30.0813 64.8421 29.0839C63.9474 28.0865 63.5 26.6032 63.5 24.634V22.946C63.5 20.9768 63.9474 19.4935 64.8421 18.4961C65.7502 17.4987 67.0255 17 68.668 17C70.0702 17 71.1987 17.3644 72.0533 18.0933C72.9213 18.8094 73.4689 19.8707 73.6959 21.2773Z" fill="#EBEBEB"/>
<path d="M81.7467 20.817H83.87V30.4074H81.7667V29.5442C81.513 29.9151 81.1992 30.1836 80.8253 30.3498C80.4647 30.5033 79.9572 30.58 79.3029 30.58C78.1544 30.58 77.253 30.2667 76.5987 29.6401C75.9577 29.0136 75.6372 28.0673 75.6372 26.8014V20.817H77.7805V26.5904C77.7805 27.3704 77.9408 27.9331 78.2613 28.2783C78.5818 28.6108 79.0625 28.777 79.7035 28.777C80.3579 28.777 80.8586 28.5852 81.2059 28.2016C81.5664 27.818 81.7467 27.2873 81.7467 26.6096V20.817Z" fill="#EBEBEB"/>
<path d="M63.5 36.5093V34.5801H72.5267V36.0509L66.4491 45.8499H72.7259V47.7601H63.5V46.2893L69.5776 36.5093H63.5Z" fill="#EBEBEB"/>
<path d="M76.7024 47.7601H74.5702V38.2094H76.6625V39.0689C77.1939 38.3813 78.0175 38.0374 79.1334 38.0374C80.2758 38.0374 81.1659 38.3494 81.8035 38.9734C82.4412 39.5847 82.76 40.5206 82.76 41.7813V47.7601H80.6478V42.0105C80.6478 40.5716 80.0168 39.8521 78.7548 39.8521C78.1171 39.8521 77.6123 40.0495 77.2404 40.4442C76.8817 40.8263 76.7024 41.342 76.7024 41.9914V47.7601Z" fill="#EBEBEB"/>
</g>
<defs>
<linearGradient id="paint0_linear_1041_1771" x1="51.0355" y1="45.7194" x2="55.5319" y2="39.3723" gradientUnits="userSpaceOnUse">
<stop stop-color="#FC1212"/>
<stop offset="1" stop-color="#FFA7A7"/>
</linearGradient>
<linearGradient id="paint1_linear_1041_1771" x1="54.1752" y1="52.9384" x2="54.8389" y2="49.6501" gradientUnits="userSpaceOnUse">
<stop stop-color="#FC1212"/>
<stop offset="1" stop-color="#FFA7A7"/>
</linearGradient>
<linearGradient id="paint2_linear_1041_1771" x1="26.7157" y1="45.7139" x2="31.232" y2="39.297" gradientUnits="userSpaceOnUse">
<stop stop-color="#FC1212"/>
<stop offset="1" stop-color="#FFA7A7"/>
</linearGradient>
<linearGradient id="paint3_linear_1041_1771" x1="22.0401" y1="52.9376" x2="22.7029" y2="49.6486" gradientUnits="userSpaceOnUse">
<stop stop-color="#FC1212"/>
<stop offset="1" stop-color="#FFA7A7"/>
</linearGradient>
<clipPath id="clip0_1041_1771">
<rect width="84" height="72" fill="white"/>
</clipPath>
</defs>
</svg>
