<svg width="84" height="72" viewBox="0 0 84 72" fill="none" xmlns="http://www.w3.org/2000/svg">
<g clip-path="url(#clip0_1041_1787)">
<path d="M55.4265 19.8035V12.8232L56.1719 12.6655C57.9416 12.3142 59.5672 11.4457 60.843 10.17C62.1188 8.89418 62.9873 7.26853 63.3385 5.49885L63.4819 4.76785H74.6189C74.8844 4.73724 75.1295 4.61006 75.3073 4.41051C75.4852 4.21097 75.5835 3.95299 75.5835 3.68568C75.5835 3.41837 75.4852 3.1604 75.3073 2.96085C75.1295 2.76131 74.8844 2.63413 74.6189 2.60352H10.1189C9.85333 2.63413 9.60831 2.76131 9.43044 2.96085C9.25258 3.1604 9.1543 3.41837 9.1543 3.68568C9.1543 3.95299 9.25258 4.21097 9.43044 4.41051C9.60831 4.61006 9.85333 4.73724 10.1189 4.76785H21.2559L21.3992 5.49885C21.7505 7.26853 22.619 8.89418 23.8948 10.17C25.1705 11.4457 26.7962 12.3142 28.5659 12.6655L29.3112 12.8232V19.8035C29.3106 20.0074 29.3705 20.2069 29.4832 20.3768L36.0049 30.8258V38.5372C36.0049 38.8236 36.1177 39.0986 36.3189 39.3024C36.5201 39.5063 36.7935 39.6227 37.0799 39.6265H41.3799V68.2932C41.3799 68.5783 41.4931 68.8517 41.6947 69.0533C41.8963 69.2549 42.1698 69.3682 42.4549 69.3682C42.74 69.3682 43.0134 69.2549 43.215 69.0533C43.4166 68.8517 43.5299 68.5783 43.5299 68.2932V39.6265H47.8299C48.1163 39.6227 48.3897 39.5063 48.5909 39.3024C48.7921 39.0986 48.9049 38.8236 48.9049 38.5372V30.8258L55.4409 20.3768C55.4847 20.1876 55.4798 19.9903 55.4265 19.8035ZM46.5972 31.5855V37.4335H37.9972V31.5568L46.5972 31.5855ZM61.3319 4.82518L60.9019 6.05785C60.4203 7.41054 59.5325 8.58137 58.3599 9.41011C57.1874 10.2388 55.7874 10.685 54.3515 10.6875H30.2572C28.815 10.6897 27.4074 10.246 26.2271 9.41726C25.0468 8.58848 24.1515 7.41512 23.6639 6.05785L23.2339 4.82518H61.3319ZM52.4022 20.8785L47.0559 29.4785H37.5385L32.2065 20.8785H52.4022ZM53.2622 12.8518V18.8002H31.3322V12.9235L53.2622 12.8518Z" fill="#A0A0A0"/>
<path d="M74.5607 59.1484H50.323C50.0391 59.1521 49.7678 59.2666 49.567 59.4674C49.3662 59.6682 49.2518 59.9395 49.248 60.2234V68.2644C49.2518 68.5484 49.3662 68.8197 49.567 69.0205C49.7678 69.2213 50.0391 69.3357 50.323 69.3394H74.5607C74.8447 69.3357 75.116 69.2213 75.3168 69.0205C75.5176 68.8197 75.632 68.5484 75.6357 68.2644V60.2234C75.632 59.9395 75.5176 59.6682 75.3168 59.4674C75.116 59.2666 74.8447 59.1521 74.5607 59.1484ZM51.4124 67.1751V61.3128H73.4714V67.1751H51.4124Z" fill="#A0A0A0"/>
<path d="M34.2697 59.1484H10.032C9.74808 59.1521 9.4768 59.2666 9.276 59.4674C9.07519 59.6682 8.96074 59.9395 8.95703 60.2234V68.2644C8.96074 68.5484 9.07519 68.8197 9.276 69.0205C9.4768 69.2213 9.74808 69.3357 10.032 69.3394H34.2697C34.5537 69.3357 34.8249 69.2213 35.0257 69.0205C35.2265 68.8197 35.341 68.5484 35.3447 68.2644V60.2234C35.341 59.9395 35.2265 59.6682 35.0257 59.4674C34.8249 59.2666 34.5537 59.1521 34.2697 59.1484ZM33.1804 61.3128V67.1751H11.1214V61.3128H33.1804Z" fill="#A0A0A0"/>
<path d="M57.3897 41.7333C57.3902 41.444 57.2769 41.166 57.0744 40.9593C56.8654 40.7669 56.5917 40.6602 56.3076 40.6602C56.0235 40.6602 55.7498 40.7669 55.5407 40.9593L51.7567 44.8007C51.5568 45.009 51.444 45.2859 51.4414 45.5747C51.4416 45.7871 51.5047 45.9948 51.6229 46.1714C51.741 46.348 51.9088 46.4857 52.1051 46.5669C52.3015 46.6482 52.5175 46.6695 52.7259 46.6281C52.9343 46.5867 53.1257 46.4845 53.2761 46.3343L57.0744 42.5503C57.1814 42.4439 57.2647 42.3162 57.319 42.1754C57.3734 42.0346 57.3975 41.884 57.3897 41.7333Z" fill="url(#paint0_linear_1041_1787)"/>
<path d="M55.6844 53.2721H61.0307C61.3158 53.2721 61.5892 53.1588 61.7908 52.9572C61.9924 52.7556 62.1057 52.4822 62.1057 52.1971C62.1057 51.912 61.9924 51.6385 61.7908 51.4369C61.5892 51.2353 61.3158 51.1221 61.0307 51.1221H55.6844C55.3993 51.1221 55.1258 51.2353 54.9242 51.4369C54.7226 51.6385 54.6094 51.912 54.6094 52.1971C54.6094 52.4822 54.7226 52.7556 54.9242 52.9572C55.1258 53.1588 55.3993 53.2721 55.6844 53.2721Z" fill="url(#paint1_linear_1041_1787)"/>
<path d="M32.0763 46.6493C32.3614 46.6493 32.6348 46.5361 32.8364 46.3345C33.038 46.1329 33.1513 45.8594 33.1513 45.5743C33.1487 45.2856 33.0359 45.0087 32.8359 44.8003L29.0519 41.0163C28.9553 40.8994 28.8352 40.8039 28.6995 40.7361C28.5638 40.6682 28.4154 40.6295 28.2639 40.6223C28.1123 40.6151 27.9609 40.6397 27.8194 40.6944C27.6779 40.7492 27.5494 40.8329 27.4421 40.9402C27.3348 41.0474 27.2511 41.176 27.1964 41.3175C27.1417 41.459 27.1171 41.6104 27.1243 41.7619C27.1314 41.9135 27.1702 42.0619 27.238 42.1976C27.3059 42.3333 27.4013 42.4533 27.5183 42.55L31.3166 46.334C31.518 46.5357 31.7913 46.6491 32.0763 46.6493Z" fill="url(#paint2_linear_1041_1787)"/>
<path d="M22.4746 52.1962C22.4746 52.3386 22.5029 52.4795 22.5578 52.6109C22.6127 52.7423 22.6932 52.8614 22.7945 52.9614C22.8959 53.0615 23.0161 53.1403 23.1482 53.1935C23.2802 53.2467 23.4216 53.2731 23.5639 53.2712H28.9103C29.1954 53.2712 29.4688 53.1579 29.6704 52.9563C29.872 52.7547 29.9853 52.4813 29.9853 52.1962C29.9853 51.9111 29.872 51.6377 29.6704 51.436C29.4688 51.2344 29.1954 51.1212 28.9103 51.1212H23.5639C23.4216 51.1193 23.2802 51.1457 23.1482 51.1989C23.0161 51.252 22.8959 51.3309 22.7945 51.4309C22.6932 51.5309 22.6127 51.6501 22.5578 51.7815C22.5029 51.9128 22.4746 52.0538 22.4746 52.1962Z" fill="url(#paint3_linear_1041_1787)"/>
<path d="M73.8873 38.2773H71.6438C71.2966 36.7173 70.3685 35.9373 68.8595 35.9373C67.898 35.9373 67.1835 36.2633 66.7161 36.9155C66.2487 37.5548 66.015 38.565 66.015 39.946V41.634C66.015 44.3065 66.9632 45.6427 68.8595 45.6427C69.6473 45.6427 70.2616 45.4573 70.7023 45.0865C71.143 44.7029 71.4568 44.1083 71.6438 43.3027H73.8673C73.4266 46.1542 71.7573 47.58 68.8595 47.58C67.2169 47.58 65.9416 47.0813 65.0335 46.0839C64.1388 45.0865 63.6914 43.6032 63.6914 41.634V39.946C63.6914 37.9768 64.1388 36.4935 65.0335 35.4961C65.9416 34.4987 67.2169 34 68.8595 34C70.2616 34 71.3901 34.3644 72.2447 35.0933C73.1127 35.8094 73.6603 36.8707 73.8873 38.2773Z" fill="#EBEBEB"/>
<path d="M81.9381 37.817H84.0614V47.4074H81.9581V46.5442C81.7044 46.9151 81.3906 47.1836 81.0167 47.3498C80.6561 47.5033 80.1486 47.58 79.4943 47.58C78.3458 47.58 77.4444 47.2667 76.7901 46.6401C76.1491 46.0136 75.8286 45.0673 75.8286 43.8014V37.817H77.9719V43.5904C77.9719 44.3704 78.1322 44.9331 78.4527 45.2783C78.7732 45.6108 79.2539 45.777 79.8949 45.777C80.5493 45.777 81.0501 45.5852 81.3973 45.2016C81.7578 44.818 81.9381 44.2873 81.9381 43.6096V37.817Z" fill="#EBEBEB"/>
</g>
<defs>
<linearGradient id="paint0_linear_1041_1787" x1="51.3324" y1="45.7194" x2="55.8288" y2="39.3723" gradientUnits="userSpaceOnUse">
<stop stop-color="#FC1212"/>
<stop offset="1" stop-color="#FFA7A7"/>
</linearGradient>
<linearGradient id="paint1_linear_1041_1787" x1="54.472" y1="52.9384" x2="55.1358" y2="49.6501" gradientUnits="userSpaceOnUse">
<stop stop-color="#FC1212"/>
<stop offset="1" stop-color="#FFA7A7"/>
</linearGradient>
<linearGradient id="paint2_linear_1041_1787" x1="27.0126" y1="45.7139" x2="31.5289" y2="39.297" gradientUnits="userSpaceOnUse">
<stop stop-color="#FC1212"/>
<stop offset="1" stop-color="#FFA7A7"/>
</linearGradient>
<linearGradient id="paint3_linear_1041_1787" x1="22.337" y1="52.9376" x2="22.9997" y2="49.6486" gradientUnits="userSpaceOnUse">
<stop stop-color="#FC1212"/>
<stop offset="1" stop-color="#FFA7A7"/>
</linearGradient>
<clipPath id="clip0_1041_1787">
<rect width="84" height="72" fill="white"/>
</clipPath>
</defs>
</svg>
