<svg width="72" height="72" viewBox="0 0 72 72" fill="none" xmlns="http://www.w3.org/2000/svg">
<path d="M13.2466 11.8528H18.8826V16.5757C18.9014 17.6985 19.3606 18.7691 20.1613 19.5565C20.9621 20.3439 22.0402 20.785 23.1632 20.7849H27.4437V43.8428C27.4764 44.0371 27.5601 44.2193 27.6863 44.3707L35.1915 53.1173C35.2959 53.2287 35.4218 53.3178 35.5616 53.3791C35.7014 53.4404 35.8522 53.4727 36.0048 53.474C36.2679 53.4744 36.5219 53.3779 36.7183 53.2029L36.8181 53.103L44.3519 44.3707C44.5195 44.1709 44.6105 43.918 44.6087 43.6573V20.8277H48.8893C49.4449 20.839 49.9973 20.7399 50.5143 20.5359C51.0313 20.332 51.5027 20.0274 51.9009 19.6397C52.2992 19.2521 52.6164 18.7891 52.8343 18.2778C53.0521 17.7665 53.1662 17.217 53.1698 16.6613V11.8528H58.8772C61.1612 11.8157 63.3404 10.888 64.9502 9.26749C66.5601 7.64695 67.4734 5.46172 67.4954 3.17756C67.4917 2.89489 67.3778 2.62484 67.1779 2.42494C66.978 2.22505 66.7079 2.11112 66.4253 2.10742H5.57014C5.28747 2.11112 5.01742 2.22505 4.81752 2.42494C4.61763 2.62484 4.5037 2.89489 4.5 3.17756C4.52623 5.48258 5.4584 7.68472 7.09507 9.30803C8.73173 10.9313 10.9414 11.8455 13.2466 11.8528ZM42.4685 20.7849V43.2292L36.0048 50.7059L29.5697 43.2292V20.7849H42.4685ZM50.9297 11.8528V16.5757C50.9297 16.8486 50.8757 17.1188 50.7708 17.3707C50.666 17.6227 50.5123 17.8514 50.3187 18.0437C50.125 18.236 49.8953 18.3881 49.6426 18.4912C49.3899 18.5944 49.1194 18.6465 48.8465 18.6446H23.1632C22.6132 18.6408 22.087 18.4197 21.6994 18.0294C21.3118 17.6392 21.0942 17.1114 21.0943 16.5614V11.8528H50.9297ZM6.69735 4.19062H65.1982C64.9566 5.71265 64.1861 7.10076 63.0221 8.11075C61.8582 9.12075 60.3753 9.68793 58.8344 9.71253H13.2466C11.6842 9.7101 10.1733 9.15404 8.98214 8.1431C7.79096 7.13217 6.99661 5.73177 6.74015 4.19062H6.69735Z" fill="#A0A0A0"/>
<path d="M68.8223 45.7408L65.5406 39.8907C65.4438 39.7256 65.3065 39.5879 65.1418 39.4906C64.977 39.3932 64.7902 39.3394 64.5989 39.3342C64.4153 39.3473 64.2361 39.3958 64.0709 39.4769L36.0048 55.2579L7.85307 39.4341C7.6904 39.3484 7.50901 39.3042 7.32513 39.3057H7.03976C6.76834 39.3812 6.53763 39.5606 6.39768 39.8051L3.10166 45.7123C3.02972 45.8362 2.98376 45.9735 2.96659 46.1158C2.94942 46.258 2.96139 46.4023 3.00178 46.5398C3.0371 46.6733 3.09972 46.798 3.18567 46.9061C3.27163 47.0141 3.37906 47.1032 3.50117 47.1676L15.8292 54.0736L19.1252 55.8857V69.0555C19.1661 69.3049 19.2952 69.5314 19.489 69.6937C19.6827 69.8561 19.9283 69.9435 20.181 69.9402H51.8143C52.097 69.9365 52.367 69.8225 52.5669 69.6226C52.7668 69.4227 52.8807 69.1527 52.8844 68.87V55.9713L68.4656 47.2675C68.7101 47.1276 68.8896 46.8969 68.965 46.6254C69.0039 46.4761 69.0112 46.3204 68.9867 46.1681C68.9621 46.0158 68.9061 45.8703 68.8223 45.7408ZM36.0048 65.1888C36.1883 65.1757 36.3676 65.1272 36.5327 65.0461L50.6871 57.1128V67.7999H21.3225V57.1128L35.4769 65.0603C35.642 65.1395 35.8218 65.1832 36.0048 65.1888ZM66.3824 45.8407L36.0048 62.9058L16.885 52.2044L5.58437 45.8407L7.78172 41.8455L35.4626 57.3982C35.6253 57.4839 35.8067 57.528 35.9905 57.5266C36.1753 57.5214 36.3562 57.4725 36.5185 57.3839L64.1851 41.874L66.3824 45.8407Z" fill="#A0A0A0"/>
<path d="M17.7132 37.807C17.8748 37.8972 18.0562 37.9462 18.2412 37.9497C18.5253 37.9384 18.795 37.8213 18.9974 37.6216C19.0966 37.5199 19.1743 37.3992 19.2258 37.2668C19.2773 37.1345 19.3015 36.993 19.2971 36.8511C19.304 36.7608 19.304 36.6702 19.2971 36.58C19.2095 36.3258 19.0318 36.1126 18.7977 35.9807L12.5623 32.4564C12.4088 32.3596 12.2301 32.3099 12.0487 32.3137C11.7648 32.3137 11.4926 32.4264 11.292 32.6271C11.0913 32.8278 10.9785 33.1 10.9785 33.3838C10.9809 33.5757 11.0336 33.7636 11.1312 33.9288C11.2289 34.0941 11.3681 34.2308 11.535 34.3255L17.7132 37.807Z" fill="url(#paint0_linear_1041_4997)"/>
<path d="M53.7257 37.9929C53.9116 37.9962 54.0946 37.9467 54.2536 37.8502L60.4747 34.3687C60.7225 34.2293 60.9067 33.9991 60.9883 33.7267C61.0425 33.5638 61.0573 33.3904 61.0314 33.2207C61.0055 33.051 60.9397 32.8899 60.8394 32.7506C60.7392 32.6113 60.6072 32.4978 60.4545 32.4194C60.3018 32.341 60.1327 32.3001 59.961 32.2998C59.776 32.3033 59.5947 32.3523 59.4331 32.4425L53.2263 35.9953C53.0096 36.1042 52.8364 36.2835 52.7349 36.5037C52.6334 36.724 52.6098 36.9722 52.6678 37.2076C52.7258 37.443 52.8621 37.6518 53.0543 37.7997C53.2465 37.9475 53.4832 38.0257 53.7257 38.0215V37.9929Z" fill="url(#paint1_linear_1041_4997)"/>
<defs>
<linearGradient id="paint0_linear_1041_4997" x1="10.826" y1="37.0751" x2="14.3103" y2="29.764" gradientUnits="userSpaceOnUse">
<stop stop-color="#FC1212"/>
<stop offset="1" stop-color="#FFA7A7"/>
</linearGradient>
<linearGradient id="paint1_linear_1041_4997" x1="52.4827" y1="37.1337" x2="56.0312" y2="29.7257" gradientUnits="userSpaceOnUse">
<stop stop-color="#FC1212"/>
<stop offset="1" stop-color="#FFA7A7"/>
</linearGradient>
</defs>
</svg>
