<svg width="72" height="72" viewBox="0 0 72 72" fill="none" xmlns="http://www.w3.org/2000/svg">
<path d="M43.6582 54.118C43.6582 53.7012 43.996 53.3633 44.4129 53.3633H47.2338C47.6507 53.3633 47.9885 53.7012 47.9885 54.118C47.9885 54.5348 47.6507 54.8727 47.2338 54.8727H44.4129C43.996 54.8727 43.6582 54.5348 43.6582 54.118Z" fill="url(#paint0_linear_1041_4986)"/>
<path d="M37.7312 41.7227H40.552C40.9689 41.7227 41.3067 42.0605 41.3067 42.4773C41.3067 42.8942 40.9689 43.232 40.552 43.232H37.7312C37.3144 43.232 36.9766 42.8942 36.9766 42.4773C36.9766 42.0605 37.3144 41.7227 37.7312 41.7227Z" fill="url(#paint1_linear_1041_4986)"/>
<path d="M51.2598 16.0096C51.2598 15.5928 51.5976 15.2549 52.0145 15.2549C52.4314 15.2549 52.7691 15.5928 52.7691 16.0096V18.8305C52.7691 19.2473 52.4314 19.5852 52.0145 19.5852C51.5976 19.5852 51.2598 19.2473 51.2598 18.8305V16.0096Z" fill="url(#paint2_linear_1041_4986)"/>
<path d="M38.0156 31.283C38.0156 30.8662 38.3534 30.5283 38.7703 30.5283C39.1872 30.5283 39.525 30.8662 39.525 31.283V34.1038C39.525 34.5206 39.1872 34.8585 38.7703 34.8585C38.3534 34.8585 38.0156 34.5206 38.0156 34.1038V31.283Z" fill="url(#paint3_linear_1041_4986)"/>
<path fill-rule="evenodd" clip-rule="evenodd" d="M64.0952 49.1757L63.8413 49.6215L64.3542 49.6242C68.4085 49.6463 71.7006 52.9509 71.7006 57.0101C71.7006 61.0831 68.3867 64.3971 64.3137 64.3971H7.69541L7.69267 64.3969L7.6852 64.3969C3.61337 64.3955 0.300781 61.0822 0.300781 57.0101C0.300781 52.9509 3.59279 49.6464 7.64694 49.6242L8.16107 49.6214L7.90566 49.1752C7.28791 48.0959 6.93294 46.8486 6.93294 45.5187C6.93294 41.4467 10.2455 38.1333 14.3174 38.1318L14.3249 38.1318L14.3277 38.1317H28.8237V25.5154C28.8237 24.9426 29.1612 24.4815 29.7728 24.1004C30.3878 23.7173 31.2346 23.4471 32.1332 23.2604C33.9256 22.8879 35.8223 22.8671 36.2107 22.8671C36.7122 22.8671 39.6132 22.9029 41.6547 23.6354L42.056 23.7794L42.0562 10.2545L42.0559 10.2453C42.058 9.67504 42.3953 9.21573 43.005 8.83587C43.6199 8.4527 44.4667 8.18254 45.3653 7.99582C47.1577 7.62339 49.0544 7.60254 49.4428 7.60254C49.8312 7.60254 51.728 7.62339 53.5204 7.99582C54.419 8.18254 55.2658 8.4527 55.8807 8.83587C56.4923 9.21696 56.8298 9.67803 56.8298 10.2509V38.1317H57.6815C61.7544 38.1317 65.0683 41.4458 65.0683 45.5187C65.0683 46.8085 64.7252 48.0697 64.0952 49.1757ZM43.5654 11.9739L43.9678 12.12C45.4278 12.6502 47.4916 12.899 49.5431 12.8872C51.5949 12.8755 53.5921 12.6035 54.9177 12.1202L55.3205 11.9733V38.1317H43.5654V11.9739ZM38.7481 62.8877L39.295 62.3699C40.7195 61.021 41.6038 59.0993 41.6038 57.0101C41.6038 55.0427 40.8034 53.08 39.2948 51.6502L38.7486 51.1325H64.3137C67.5548 51.1325 70.1913 53.769 70.1913 57.0101C70.1913 60.2513 67.5548 62.8877 64.3137 62.8877H38.7481ZM55.4182 10.2509L54.8704 10.52C53.6145 11.1369 51.4283 11.3935 49.3313 11.3767C48.2744 11.3682 47.2241 11.2901 46.3027 11.1478C45.3871 11.0064 44.5773 10.7984 44.0146 10.5195L43.4701 10.2498L44.0153 9.98155C45.2135 9.39217 47.3529 9.11455 49.4419 9.11443C51.5309 9.1143 53.671 9.39167 54.8705 9.98153L55.4182 10.2509ZM42.1812 25.5132L41.6401 25.7838C41.0333 26.0872 40.189 26.3009 39.2487 26.4391C38.3033 26.578 37.2398 26.6434 36.1817 26.6395C35.1236 26.6355 34.0652 26.5621 33.1299 26.4213C32.1998 26.2813 31.3709 26.0716 30.784 25.785L30.2341 25.5165L30.7832 25.2463C31.5934 24.8476 33.4819 24.3765 36.2107 24.3765C38.9395 24.3765 40.8279 24.8476 41.6384 25.2463L42.1812 25.5132ZM30.3331 27.238L30.7359 27.3849C32.1625 27.9051 34.2044 28.1574 36.2495 28.1514C38.2946 28.1454 40.3008 27.8811 41.6547 27.3956L42.056 27.2517V38.1317H30.3331V27.238ZM23.0529 39.641L22.5065 40.1588C21.9882 40.6499 21.542 41.2238 21.2109 41.7875L20.9523 42.2278L20.6936 41.7876C20.3429 41.191 19.8925 40.6273 19.398 40.1588L18.8516 39.641H23.0529ZM12.2195 62.8879L12.7658 62.3701C13.2773 61.8854 13.725 61.3139 14.0614 60.7414L14.32 60.3012L14.5787 60.7413C14.9265 61.333 15.3755 61.8975 15.8743 62.3701L16.4208 62.8879H12.2195ZM25.484 62.8879L26.0302 62.3701C26.5255 61.9007 26.9762 61.3365 27.3258 60.7414L27.5845 60.3011L27.8432 60.7414C28.1854 61.3238 28.6327 61.8903 29.1388 62.3702L29.6848 62.8879H25.484ZM33.7426 49.6231L33.9995 49.1741C34.6631 48.0143 34.9715 46.738 34.9715 45.5187C34.9715 43.5477 34.1673 41.5838 32.6626 40.1589L32.1158 39.641H57.6814C60.9225 39.641 63.5588 42.2775 63.5588 45.5187C63.559 47.0278 63.0004 48.4374 61.9778 49.5283L61.8889 49.6231H33.7426ZM27.5845 39.6412C30.8251 39.6412 33.4621 42.2769 33.4621 45.5188C33.4621 48.7364 30.8423 51.3964 27.5845 51.3964C24.3434 51.3964 21.7069 48.7601 21.7069 45.5188C21.7069 42.2779 24.3429 39.6412 27.5845 39.6412ZM14.3201 39.6412C17.5606 39.6412 20.1975 42.277 20.1975 45.5188C20.1975 48.7599 17.5612 51.3964 14.3201 51.3964C11.0789 51.3964 8.44245 48.7601 8.44245 45.5188C8.44245 42.2775 11.0789 39.6412 14.3201 39.6412ZM7.68777 62.8877C4.44662 62.8877 1.81016 60.2514 1.81016 57.0101C1.81016 53.7688 4.44662 51.1325 7.68777 51.1325C10.9289 51.1325 13.5654 53.769 13.5654 57.0101C13.5654 60.2508 10.9295 62.8877 7.68777 62.8877ZM20.9522 62.8877C17.7106 62.8877 15.0747 60.2509 15.0747 57.0101C15.0747 53.769 17.7111 51.1325 20.9522 51.1325C24.1934 51.1325 26.8298 53.769 26.8298 57.0101C26.8298 60.2508 24.194 62.8877 20.9522 62.8877ZM40.0944 57.0101C40.0944 60.2513 37.4581 62.8877 34.217 62.8877C30.9755 62.8877 28.3393 60.2511 28.3393 57.0101C28.3393 53.7566 30.9913 51.1325 34.217 51.1325C37.4581 51.1325 40.0944 53.769 40.0944 57.0101Z" fill="#A0A0A0"/>
<defs>
<linearGradient id="paint0_linear_1041_4986" x1="43.5789" y1="54.6384" x2="44.1348" y2="52.3722" gradientUnits="userSpaceOnUse">
<stop stop-color="#FC1212"/>
<stop offset="1" stop-color="#FFA7A7"/>
</linearGradient>
<linearGradient id="paint1_linear_1041_4986" x1="36.8972" y1="42.9978" x2="37.4532" y2="40.7316" gradientUnits="userSpaceOnUse">
<stop stop-color="#FC1212"/>
<stop offset="1" stop-color="#FFA7A7"/>
</linearGradient>
<linearGradient id="paint2_linear_1041_4986" x1="51.2321" y1="18.9132" x2="53.9734" y2="17.5556" gradientUnits="userSpaceOnUse">
<stop stop-color="#FC1212"/>
<stop offset="1" stop-color="#FFA7A7"/>
</linearGradient>
<linearGradient id="paint3_linear_1041_4986" x1="37.988" y1="34.1866" x2="40.7292" y2="32.8289" gradientUnits="userSpaceOnUse">
<stop stop-color="#FC1212"/>
<stop offset="1" stop-color="#FFA7A7"/>
</linearGradient>
</defs>
</svg>
