<svg width="40" height="40" viewBox="0 0 40 40" fill="none" xmlns="http://www.w3.org/2000/svg">
<path fill-rule="evenodd" clip-rule="evenodd" d="M33.7097 3H6.29032C4.47571 3 3 4.47571 3 6.29032V33.7097C3 35.5243 4.47571 37 6.29032 37H33.7097C35.5243 37 37 35.5243 37 33.7097V6.29032C37 4.47571 35.5243 3 33.7097 3ZM10.129 15.0647C12.8507 15.0647 15.0645 12.8503 15.0645 10.1292C15.0645 9.82654 14.8194 9.58086 14.5161 9.58086C11.7945 9.58086 9.58065 11.7952 9.58065 14.5163C9.58065 14.8191 9.82578 15.0647 10.129 15.0647ZM13.9217 10.7237C13.6656 12.3656 12.3654 13.6658 10.7235 13.9219C10.9796 12.28 12.2798 10.9798 13.9217 10.7237ZM10.6774 10.1288C10.6774 10.4316 10.4323 10.6772 10.129 10.6772C7.40738 10.6772 5.19354 8.46284 5.19354 5.74175C5.19354 5.43904 5.43867 5.19336 5.74193 5.19336C8.46357 5.19336 10.6774 7.40775 10.6774 10.1288ZM9.53457 9.53439C7.8927 9.2783 6.59248 7.97807 6.33638 6.3362C7.97825 6.59229 9.27848 7.89252 9.53457 9.53439ZM9.58065 24.3876C9.58065 24.6903 9.82578 24.936 10.129 24.936C12.8507 24.936 15.0645 22.7216 15.0645 20.0005C15.0645 19.6978 14.8194 19.4521 14.5161 19.4521C11.7945 19.4521 9.58065 21.6665 9.58065 24.3876ZM10.7235 23.7932C10.9796 22.1513 12.2798 20.8511 13.9217 20.595C13.6656 22.2369 12.3654 23.5371 10.7235 23.7932ZM10.6774 19.9999C10.6774 20.3026 10.4323 20.5483 10.129 20.5483C7.40738 20.5483 5.19354 18.3339 5.19354 15.6128C5.19354 15.3101 5.43867 15.0645 5.74193 15.0645C8.46357 15.0645 10.6774 17.2788 10.6774 19.9999ZM9.53457 19.4055C7.8927 19.1494 6.59248 17.8492 6.33638 16.2073C7.97825 16.4634 9.27848 17.7636 9.53457 19.4055ZM14.5161 29.3223C11.7945 29.3223 9.58065 31.5367 9.58065 34.2578C9.58065 34.5605 9.82578 34.8062 10.129 34.8062C12.8507 34.8062 15.0645 32.5918 15.0645 29.8707C15.0645 29.568 14.8194 29.3223 14.5161 29.3223ZM10.7235 33.6634C10.9796 32.0215 12.2798 30.7213 13.9217 30.4652C13.6656 32.107 12.3654 33.4073 10.7235 33.6634ZM5.74193 24.9355C8.46357 24.9355 10.6774 27.1499 10.6774 29.871C10.6774 30.1737 10.4323 30.4194 10.129 30.4194C7.40738 30.4194 5.19354 28.205 5.19354 25.4839C5.19354 25.1812 5.43867 24.9355 5.74193 24.9355ZM6.33638 26.0784C7.97825 26.3345 9.27848 27.6347 9.53457 29.2766C7.8927 29.0205 6.59248 27.7203 6.33638 26.0784ZM20 15.0647C22.7216 15.0647 24.9355 12.8503 24.9355 10.1292C24.9355 9.82654 24.6903 9.58086 24.3871 9.58086C21.6654 9.58086 19.4516 11.7952 19.4516 14.5163C19.4516 14.8191 19.6967 15.0647 20 15.0647ZM23.7926 10.7237C23.5365 12.3656 22.2363 13.6658 20.5944 13.9219C20.8505 12.28 22.1508 10.9798 23.7926 10.7237ZM20.5484 10.1288C20.5484 10.4316 20.3033 10.6772 20 10.6772C17.2784 10.6772 15.0645 8.46284 15.0645 5.74175C15.0645 5.43904 15.3096 5.19336 15.6129 5.19336C18.3345 5.19336 20.5484 7.40775 20.5484 10.1288ZM19.4055 9.53439C17.7637 9.2783 16.4634 7.97807 16.2074 6.3362C17.8492 6.59229 19.1495 7.89252 19.4055 9.53439ZM20 24.936C22.7216 24.936 24.9355 22.7216 24.9355 20.0005C24.9355 19.6978 24.6903 19.4521 24.3871 19.4521C21.6654 19.4521 19.4516 21.6665 19.4516 24.3876C19.4516 24.6903 19.6967 24.936 20 24.936ZM23.7926 20.595C23.5365 22.2369 22.2363 23.5371 20.5944 23.7932C20.8505 22.1513 22.1508 20.8511 23.7926 20.595ZM15.6129 15.0645C18.3345 15.0645 20.5484 17.2788 20.5484 19.9999C20.5484 20.3026 20.3033 20.5483 20 20.5483C17.2784 20.5483 15.0645 18.3339 15.0645 15.6128C15.0645 15.3101 15.3096 15.0645 15.6129 15.0645ZM16.2074 16.2073C17.8492 16.4634 19.1495 17.7636 19.4055 19.4055C17.7637 19.1494 16.4634 17.8492 16.2074 16.2073ZM24.3871 29.3223C21.6654 29.3223 19.4516 31.5367 19.4516 34.2578C19.4516 34.5605 19.6967 34.8062 20 34.8062C22.7216 34.8062 24.9355 32.5918 24.9355 29.8707C24.9355 29.568 24.6903 29.3223 24.3871 29.3223ZM20.5944 33.6634C20.8505 32.0215 22.1508 30.7213 23.7926 30.4652C23.5365 32.107 22.2363 33.4073 20.5944 33.6634ZM15.6129 24.9355C18.3345 24.9355 20.5484 27.1499 20.5484 29.871C20.5484 30.1737 20.3033 30.4194 20 30.4194C17.2784 30.4194 15.0645 28.205 15.0645 25.4839C15.0645 25.1812 15.3096 24.9355 15.6129 24.9355ZM16.2074 26.0784C17.8492 26.3345 19.1495 27.6347 19.4055 29.2766C17.7637 29.0205 16.4634 27.7203 16.2074 26.0784ZM34.2581 9.58086C31.5364 9.58086 29.3226 11.7952 29.3226 14.5163C29.3226 14.8191 29.5677 15.0647 29.871 15.0647C32.5926 15.0647 34.8065 12.8503 34.8065 10.1292C34.8065 9.82654 34.5613 9.58086 34.2581 9.58086ZM30.4654 13.9219C30.7215 12.28 32.0218 10.9798 33.6636 10.7237C33.4075 12.3656 32.1073 13.6658 30.4654 13.9219ZM30.4194 10.1288C30.4194 10.4316 30.1742 10.6772 29.871 10.6772C27.1493 10.6772 24.9355 8.46284 24.9355 5.74175C24.9355 5.43904 25.1806 5.19336 25.4839 5.19336C28.2055 5.19336 30.4194 7.40775 30.4194 10.1288ZM29.2765 9.53439C27.6346 9.2783 26.3344 7.97807 26.0783 6.3362C27.7202 6.59229 29.0204 7.89252 29.2765 9.53439ZM34.2581 19.4521C31.5364 19.4521 29.3226 21.6665 29.3226 24.3876C29.3226 24.6903 29.5677 24.936 29.871 24.936C32.5926 24.936 34.8065 22.7216 34.8065 20.0005C34.8065 19.6978 34.5613 19.4521 34.2581 19.4521ZM30.4654 23.7932C30.7215 22.1513 32.0218 20.8511 33.6636 20.595C33.4075 22.2369 32.1073 23.5371 30.4654 23.7932ZM29.871 20.5483C27.1493 20.5483 24.9355 18.3339 24.9355 15.6128C24.9355 15.3101 25.1806 15.0645 25.4839 15.0645C28.2055 15.0645 30.4194 17.2788 30.4194 19.9999C30.4194 20.3026 30.1742 20.5483 29.871 20.5483ZM29.2765 19.4055C27.6346 19.1494 26.3344 17.8492 26.0783 16.2073C27.7202 16.4634 29.0204 17.7636 29.2765 19.4055ZM34.2581 29.3223C31.5364 29.3223 29.3226 31.5367 29.3226 34.2578C29.3226 34.5605 29.5677 34.8062 29.871 34.8062C32.5926 34.8062 34.8065 32.5918 34.8065 29.8707C34.8065 29.568 34.5613 29.3223 34.2581 29.3223ZM30.4654 33.6634C30.7215 32.0215 32.0218 30.7213 33.6636 30.4652C33.4075 32.107 32.1073 33.4073 30.4654 33.6634ZM25.4839 24.9355C28.2055 24.9355 30.4194 27.1499 30.4194 29.871C30.4194 30.1737 30.1742 30.4194 29.871 30.4194C27.1493 30.4194 24.9355 28.205 24.9355 25.4839C24.9355 25.1812 25.1806 24.9355 25.4839 24.9355ZM26.0783 26.0784C27.7202 26.3345 29.0204 27.6347 29.2765 29.2766C27.6346 29.0205 26.3344 27.7203 26.0783 26.0784Z" fill="#A0A0A0"/>
</svg>
