<svg width="40" height="40" viewBox="0 0 40 40" fill="none" xmlns="http://www.w3.org/2000/svg">
<path fill-rule="evenodd" clip-rule="evenodd" d="M33.7097 3H6.29032C4.47571 3 3 4.47571 3 6.29032V33.7097C3 35.5243 4.47571 37 6.29032 37H33.7097C35.5243 37 37 35.5243 37 33.7097V6.29032C37 4.47571 35.5243 3 33.7097 3ZM10.129 15.0659C12.8507 15.0659 15.0645 12.8515 15.0645 10.1304C15.0645 9.82771 14.8194 9.58203 14.5161 9.58203C11.7945 9.58203 9.58063 11.7964 9.58063 14.5175C9.58063 14.8202 9.82576 15.0659 10.129 15.0659ZM10.6774 10.1298C10.6774 10.4325 10.4323 10.6782 10.129 10.6782C7.40738 10.6782 5.19354 8.46382 5.19354 5.74272C5.19354 5.44001 5.43867 5.19434 5.74193 5.19434C8.46357 5.19434 10.6774 7.40872 10.6774 10.1298ZM9.58063 24.3876C9.58063 24.6903 9.82576 24.936 10.129 24.936C12.8507 24.936 15.0645 22.7216 15.0645 20.0005C15.0645 19.6978 14.8194 19.4521 14.5161 19.4521C11.7945 19.4521 9.58063 21.6665 9.58063 24.3876ZM10.6774 20C10.6774 20.3027 10.4323 20.5484 10.129 20.5484C7.40738 20.5484 5.19354 18.334 5.19354 15.6129C5.19354 15.3102 5.43867 15.0645 5.74193 15.0645C8.46357 15.0645 10.6774 17.2789 10.6774 20ZM14.5161 29.323C11.7945 29.323 9.58064 31.5374 9.58064 34.2585C9.58064 34.5612 9.82577 34.8069 10.129 34.8069C12.8507 34.8069 15.0645 32.5925 15.0645 29.8714C15.0645 29.5687 14.8194 29.323 14.5161 29.323ZM5.74193 24.9365C8.46357 24.9365 10.6774 27.1509 10.6774 29.872C10.6774 30.1747 10.4323 30.4204 10.129 30.4204C7.40738 30.4204 5.19354 28.206 5.19354 25.4849C5.19354 25.1822 5.43867 24.9365 5.74193 24.9365ZM20 15.0659C22.7216 15.0659 24.9355 12.8515 24.9355 10.1304C24.9355 9.82771 24.6903 9.58203 24.3871 9.58203C21.6654 9.58203 19.4516 11.7964 19.4516 14.5175C19.4516 14.8202 19.6967 15.0659 20 15.0659ZM20.5484 10.1298C20.5484 10.4325 20.3033 10.6782 20 10.6782C17.2784 10.6782 15.0646 8.46382 15.0646 5.74272C15.0646 5.44001 15.3097 5.19434 15.6129 5.19434C18.3346 5.19434 20.5484 7.40872 20.5484 10.1298ZM20 24.936C22.7216 24.936 24.9355 22.7216 24.9355 20.0005C24.9355 19.6978 24.6903 19.4521 24.3871 19.4521C21.6654 19.4521 19.4516 21.6665 19.4516 24.3876C19.4516 24.6903 19.6967 24.936 20 24.936ZM15.6129 15.0645C18.3346 15.0645 20.5484 17.2789 20.5484 20C20.5484 20.3027 20.3033 20.5484 20 20.5484C17.2784 20.5484 15.0646 18.334 15.0646 15.6129C15.0646 15.3102 15.3097 15.0645 15.6129 15.0645ZM24.3871 29.323C21.6654 29.323 19.4516 31.5374 19.4516 34.2585C19.4516 34.5612 19.6967 34.8069 20 34.8069C22.7216 34.8069 24.9355 32.5925 24.9355 29.8714C24.9355 29.5687 24.6903 29.323 24.3871 29.323ZM15.613 24.9365C18.3346 24.9365 20.5484 27.1509 20.5484 29.872C20.5484 30.1747 20.3033 30.4204 20.0001 30.4204C17.2784 30.4204 15.0646 28.206 15.0646 25.4849C15.0646 25.1822 15.3097 24.9365 15.613 24.9365ZM34.258 9.58203C31.5363 9.58203 29.3225 11.7964 29.3225 14.5175C29.3225 14.8202 29.5676 15.0659 29.8709 15.0659C32.5925 15.0659 34.8064 12.8515 34.8064 10.1304C34.8064 9.82771 34.5613 9.58203 34.258 9.58203ZM30.4193 10.1298C30.4193 10.4325 30.1742 10.6782 29.8709 10.6782C27.1493 10.6782 24.9354 8.46382 24.9354 5.74272C24.9354 5.44001 25.1806 5.19434 25.4838 5.19434C28.2055 5.19434 30.4193 7.40872 30.4193 10.1298ZM34.258 19.4521C31.5363 19.4521 29.3225 21.6665 29.3225 24.3876C29.3225 24.6903 29.5676 24.936 29.8709 24.936C32.5925 24.936 34.8064 22.7216 34.8064 20.0005C34.8064 19.6978 34.5613 19.4521 34.258 19.4521ZM29.8709 20.5484C27.1493 20.5484 24.9354 18.334 24.9354 15.6129C24.9354 15.3102 25.1806 15.0645 25.4838 15.0645C28.2055 15.0645 30.4193 17.2789 30.4193 20C30.4193 20.3027 30.1742 20.5484 29.8709 20.5484ZM34.258 29.323C31.5364 29.323 29.3225 31.5374 29.3225 34.2585C29.3225 34.5612 29.5677 34.8069 29.8709 34.8069C32.5926 34.8069 34.8064 32.5925 34.8064 29.8714C34.8064 29.5687 34.5613 29.323 34.258 29.323ZM25.4838 24.9365C28.2055 24.9365 30.4193 27.1509 30.4193 29.872C30.4193 30.1747 30.1742 30.4204 29.8709 30.4204C27.1493 30.4204 24.9354 28.206 24.9354 25.4849C24.9354 25.1822 25.1806 24.9365 25.4838 24.9365Z" fill="#A0A0A0"/>
</svg>
