<svg width="40" height="40" viewBox="0 0 40 40" fill="none" xmlns="http://www.w3.org/2000/svg">
<path d="M34.2581 3H5.74194C4.23003 3 3 4.23003 3 5.74194V34.2581C3 35.77 4.23003 37 5.74194 37H34.2581C35.77 37 37 35.77 37 34.2581V5.74194C37 4.23003 35.77 3 34.2581 3ZM35.9032 34.2581C35.9032 35.1651 35.1651 35.9032 34.2581 35.9032H5.74194C4.8349 35.9032 4.09677 35.1651 4.09677 34.2581V5.74194C4.09677 4.8349 4.8349 4.09677 5.74194 4.09677H34.2581C35.1651 4.09677 35.9032 4.8349 35.9032 5.74194V34.2581Z" fill="#A0A0A0"/>
<path d="M6.8387 8.48368C7.74574 8.48368 8.48387 7.74555 8.48387 6.83852C8.48387 5.93149 7.74574 5.19336 6.8387 5.19336C5.93167 5.19336 5.19354 5.93149 5.19354 6.83852C5.19354 7.74555 5.93167 8.48368 6.8387 8.48368ZM6.8387 6.29013C7.14141 6.29013 7.38709 6.53581 7.38709 6.83852C7.38709 7.14123 7.14141 7.38691 6.8387 7.38691C6.53599 7.38691 6.29032 7.14123 6.29032 6.83852C6.29032 6.53581 6.53599 6.29013 6.8387 6.29013Z" fill="#A0A0A0"/>
<path d="M11.2258 8.48368C12.1328 8.48368 12.871 7.74555 12.871 6.83852C12.871 5.93149 12.1328 5.19336 11.2258 5.19336C10.3188 5.19336 9.58063 5.93149 9.58063 6.83852C9.58063 7.74555 10.3188 8.48368 11.2258 8.48368ZM11.2258 6.29013C11.5285 6.29013 11.7742 6.53581 11.7742 6.83852C11.7742 7.14123 11.5285 7.38691 11.2258 7.38691C10.9231 7.38691 10.6774 7.14123 10.6774 6.83852C10.6774 6.53581 10.9231 6.29013 11.2258 6.29013Z" fill="#A0A0A0"/>
<path d="M15.6129 8.48368C16.52 8.48368 17.2581 7.74555 17.2581 6.83852C17.2581 5.93149 16.52 5.19336 15.6129 5.19336C14.7059 5.19336 13.9678 5.93149 13.9678 6.83852C13.9678 7.74555 14.7059 8.48368 15.6129 8.48368ZM15.6129 6.29013C15.9156 6.29013 16.1613 6.53581 16.1613 6.83852C16.1613 7.14123 15.9156 7.38691 15.6129 7.38691C15.3102 7.38691 15.0645 7.14123 15.0645 6.83852C15.0645 6.53581 15.3102 6.29013 15.6129 6.29013Z" fill="#A0A0A0"/>
<path d="M20 8.48368C20.9071 8.48368 21.6452 7.74555 21.6452 6.83852C21.6452 5.93149 20.9071 5.19336 20 5.19336C19.093 5.19336 18.3549 5.93149 18.3549 6.83852C18.3549 7.74555 19.093 8.48368 20 8.48368ZM20 6.29013C20.3027 6.29013 20.5484 6.53581 20.5484 6.83852C20.5484 7.14123 20.3027 7.38691 20 7.38691C19.6973 7.38691 19.4516 7.14123 19.4516 6.83852C19.4516 6.53581 19.6973 6.29013 20 6.29013Z" fill="#A0A0A0"/>
<path d="M24.3871 8.48368C25.2941 8.48368 26.0323 7.74555 26.0323 6.83852C26.0323 5.93149 25.2941 5.19336 24.3871 5.19336C23.4801 5.19336 22.7419 5.93149 22.7419 6.83852C22.7419 7.74555 23.4801 8.48368 24.3871 8.48368ZM24.3871 6.29013C24.6898 6.29013 24.9355 6.53581 24.9355 6.83852C24.9355 7.14123 24.6898 7.38691 24.3871 7.38691C24.0844 7.38691 23.8387 7.14123 23.8387 6.83852C23.8387 6.53581 24.0844 6.29013 24.3871 6.29013Z" fill="#A0A0A0"/>
<path d="M28.7742 8.48368C29.6812 8.48368 30.4194 7.74555 30.4194 6.83852C30.4194 5.93149 29.6812 5.19336 28.7742 5.19336C27.8672 5.19336 27.129 5.93149 27.129 6.83852C27.129 7.74555 27.8672 8.48368 28.7742 8.48368ZM28.7742 6.29013C29.0769 6.29013 29.3226 6.53581 29.3226 6.83852C29.3226 7.14123 29.0769 7.38691 28.7742 7.38691C28.4715 7.38691 28.2258 7.14123 28.2258 6.83852C28.2258 6.53581 28.4715 6.29013 28.7742 6.29013Z" fill="#A0A0A0"/>
<path d="M33.1613 5.19336C32.2543 5.19336 31.5162 5.93149 31.5162 6.83852C31.5162 7.74555 32.2543 8.48368 33.1613 8.48368C34.0684 8.48368 34.8065 7.74555 34.8065 6.83852C34.8065 5.93149 34.0684 5.19336 33.1613 5.19336ZM33.1613 7.38691C32.8586 7.38691 32.6129 7.14123 32.6129 6.83852C32.6129 6.53581 32.8586 6.29013 33.1613 6.29013C33.464 6.29013 33.7097 6.53581 33.7097 6.83852C33.7097 7.14123 33.464 7.38691 33.1613 7.38691Z" fill="#A0A0A0"/>
<path d="M7.38708 11.2262C7.38708 12.1332 8.12521 12.8714 9.03225 12.8714C9.93928 12.8714 10.6774 12.1332 10.6774 11.2262C10.6774 10.3192 9.93928 9.58105 9.03225 9.58105C8.12521 9.58105 7.38708 10.3192 7.38708 11.2262ZM9.03225 10.6778C9.33496 10.6778 9.58063 10.9235 9.58063 11.2262C9.58063 11.5289 9.33496 11.7746 9.03225 11.7746C8.72954 11.7746 8.48386 11.5289 8.48386 11.2262C8.48386 10.9235 8.72954 10.6778 9.03225 10.6778Z" fill="#A0A0A0"/>
<path d="M11.7742 11.2262C11.7742 12.1332 12.5124 12.8714 13.4194 12.8714C14.3264 12.8714 15.0646 12.1332 15.0646 11.2262C15.0646 10.3192 14.3264 9.58105 13.4194 9.58105C12.5124 9.58105 11.7742 10.3192 11.7742 11.2262ZM13.4194 10.6778C13.7221 10.6778 13.9678 10.9235 13.9678 11.2262C13.9678 11.5289 13.7221 11.7746 13.4194 11.7746C13.1167 11.7746 12.871 11.5289 12.871 11.2262C12.871 10.9235 13.1167 10.6778 13.4194 10.6778Z" fill="#A0A0A0"/>
<path d="M16.1613 11.2262C16.1613 12.1332 16.8994 12.8714 17.8065 12.8714C18.7135 12.8714 19.4516 12.1332 19.4516 11.2262C19.4516 10.3192 18.7135 9.58105 17.8065 9.58105C16.8994 9.58105 16.1613 10.3192 16.1613 11.2262ZM17.8065 10.6778C18.1092 10.6778 18.3549 10.9235 18.3549 11.2262C18.3549 11.5289 18.1092 11.7746 17.8065 11.7746C17.5038 11.7746 17.2581 11.5289 17.2581 11.2262C17.2581 10.9235 17.5038 10.6778 17.8065 10.6778Z" fill="#A0A0A0"/>
<path d="M20.5484 11.2262C20.5484 12.1332 21.2865 12.8714 22.1936 12.8714C23.1006 12.8714 23.8387 12.1332 23.8387 11.2262C23.8387 10.3192 23.1006 9.58105 22.1936 9.58105C21.2865 9.58105 20.5484 10.3192 20.5484 11.2262ZM22.1936 10.6778C22.4963 10.6778 22.7419 10.9235 22.7419 11.2262C22.7419 11.5289 22.4963 11.7746 22.1936 11.7746C21.8909 11.7746 21.6452 11.5289 21.6452 11.2262C21.6452 10.9235 21.8909 10.6778 22.1936 10.6778Z" fill="#A0A0A0"/>
<path d="M24.9355 11.2262C24.9355 12.1332 25.6736 12.8714 26.5806 12.8714C27.4877 12.8714 28.2258 12.1332 28.2258 11.2262C28.2258 10.3192 27.4877 9.58105 26.5806 9.58105C25.6736 9.58105 24.9355 10.3192 24.9355 11.2262ZM26.5806 10.6778C26.8834 10.6778 27.129 10.9235 27.129 11.2262C27.129 11.5289 26.8834 11.7746 26.5806 11.7746C26.2779 11.7746 26.0323 11.5289 26.0323 11.2262C26.0323 10.9235 26.2779 10.6778 26.5806 10.6778Z" fill="#A0A0A0"/>
<path d="M32.613 11.2262C32.613 10.3192 31.8748 9.58105 30.9678 9.58105C30.0608 9.58105 29.3226 10.3192 29.3226 11.2262C29.3226 12.1332 30.0608 12.8714 30.9678 12.8714C31.8748 12.8714 32.613 12.1332 32.613 11.2262ZM30.9678 11.7746C30.6651 11.7746 30.4194 11.5289 30.4194 11.2262C30.4194 10.9235 30.6651 10.6778 30.9678 10.6778C31.2705 10.6778 31.5162 10.9235 31.5162 11.2262C31.5162 11.5289 31.2705 11.7746 30.9678 11.7746Z" fill="#A0A0A0"/>
<path d="M6.8387 17.2581C7.74574 17.2581 8.48387 16.52 8.48387 15.6129C8.48387 14.7059 7.74574 13.9678 6.8387 13.9678C5.93167 13.9678 5.19354 14.7059 5.19354 15.6129C5.19354 16.52 5.93167 17.2581 6.8387 17.2581ZM6.8387 15.0645C7.14141 15.0645 7.38709 15.3102 7.38709 15.6129C7.38709 15.9156 7.14141 16.1613 6.8387 16.1613C6.53599 16.1613 6.29032 15.9156 6.29032 15.6129C6.29032 15.3102 6.53599 15.0645 6.8387 15.0645Z" fill="#A0A0A0"/>
<path d="M12.871 15.6129C12.871 14.7059 12.1328 13.9678 11.2258 13.9678C10.3188 13.9678 9.58063 14.7059 9.58063 15.6129C9.58063 16.52 10.3188 17.2581 11.2258 17.2581C12.1328 17.2581 12.871 16.52 12.871 15.6129ZM10.6774 15.6129C10.6774 15.3102 10.9231 15.0645 11.2258 15.0645C11.5285 15.0645 11.7742 15.3102 11.7742 15.6129C11.7742 15.9156 11.5285 16.1613 11.2258 16.1613C10.9231 16.1613 10.6774 15.9156 10.6774 15.6129Z" fill="#A0A0A0"/>
<path d="M17.2581 15.6129C17.2581 14.7059 16.52 13.9678 15.6129 13.9678C14.7059 13.9678 13.9678 14.7059 13.9678 15.6129C13.9678 16.52 14.7059 17.2581 15.6129 17.2581C16.52 17.2581 17.2581 16.52 17.2581 15.6129ZM15.0645 15.6129C15.0645 15.3102 15.3102 15.0645 15.6129 15.0645C15.9156 15.0645 16.1613 15.3102 16.1613 15.6129C16.1613 15.9156 15.9156 16.1613 15.6129 16.1613C15.3102 16.1613 15.0645 15.9156 15.0645 15.6129Z" fill="#A0A0A0"/>
<path d="M21.6452 15.6129C21.6452 14.7059 20.9071 13.9678 20 13.9678C19.093 13.9678 18.3549 14.7059 18.3549 15.6129C18.3549 16.52 19.093 17.2581 20 17.2581C20.9071 17.2581 21.6452 16.52 21.6452 15.6129ZM19.4516 15.6129C19.4516 15.3102 19.6973 15.0645 20 15.0645C20.3027 15.0645 20.5484 15.3102 20.5484 15.6129C20.5484 15.9156 20.3027 16.1613 20 16.1613C19.6973 16.1613 19.4516 15.9156 19.4516 15.6129Z" fill="#A0A0A0"/>
<path d="M26.0323 15.6129C26.0323 14.7059 25.2941 13.9678 24.3871 13.9678C23.4801 13.9678 22.7419 14.7059 22.7419 15.6129C22.7419 16.52 23.4801 17.2581 24.3871 17.2581C25.2941 17.2581 26.0323 16.52 26.0323 15.6129ZM23.8387 15.6129C23.8387 15.3102 24.0844 15.0645 24.3871 15.0645C24.6898 15.0645 24.9355 15.3102 24.9355 15.6129C24.9355 15.9156 24.6898 16.1613 24.3871 16.1613C24.0844 16.1613 23.8387 15.9156 23.8387 15.6129Z" fill="#A0A0A0"/>
<path d="M30.4194 15.6129C30.4194 14.7059 29.6812 13.9678 28.7742 13.9678C27.8672 13.9678 27.129 14.7059 27.129 15.6129C27.129 16.52 27.8672 17.2581 28.7742 17.2581C29.6812 17.2581 30.4194 16.52 30.4194 15.6129ZM28.2258 15.6129C28.2258 15.3102 28.4715 15.0645 28.7742 15.0645C29.0769 15.0645 29.3226 15.3102 29.3226 15.6129C29.3226 15.9156 29.0769 16.1613 28.7742 16.1613C28.4715 16.1613 28.2258 15.9156 28.2258 15.6129Z" fill="#A0A0A0"/>
<path d="M33.1613 13.9678C32.2543 13.9678 31.5162 14.7059 31.5162 15.6129C31.5162 16.52 32.2543 17.2581 33.1613 17.2581C34.0684 17.2581 34.8065 16.52 34.8065 15.6129C34.8065 14.7059 34.0684 13.9678 33.1613 13.9678ZM33.1613 16.1613C32.8586 16.1613 32.6129 15.9156 32.6129 15.6129C32.6129 15.3102 32.8586 15.0645 33.1613 15.0645C33.464 15.0645 33.7097 15.3102 33.7097 15.6129C33.7097 15.9156 33.464 16.1613 33.1613 16.1613Z" fill="#A0A0A0"/>
<path d="M7.38708 20.0006C7.38708 20.9077 8.12521 21.6458 9.03225 21.6458C9.93928 21.6458 10.6774 20.9077 10.6774 20.0006C10.6774 19.0936 9.93928 18.3555 9.03225 18.3555C8.12521 18.3555 7.38708 19.0936 7.38708 20.0006ZM9.58063 20.0006C9.58063 20.3033 9.33496 20.549 9.03225 20.549C8.72954 20.549 8.48386 20.3033 8.48386 20.0006C8.48386 19.6979 8.72954 19.4522 9.03225 19.4522C9.33496 19.4522 9.58063 19.6979 9.58063 20.0006Z" fill="#A0A0A0"/>
<path d="M15.0646 20.0006C15.0646 19.0936 14.3264 18.3555 13.4194 18.3555C12.5124 18.3555 11.7742 19.0936 11.7742 20.0006C11.7742 20.9077 12.5124 21.6458 13.4194 21.6458C14.3264 21.6458 15.0646 20.9077 15.0646 20.0006ZM12.871 20.0006C12.871 19.6979 13.1167 19.4522 13.4194 19.4522C13.7221 19.4522 13.9678 19.6979 13.9678 20.0006C13.9678 20.3033 13.7221 20.549 13.4194 20.549C13.1167 20.549 12.871 20.3033 12.871 20.0006Z" fill="#A0A0A0"/>
<path d="M19.4516 20.0006C19.4516 19.0936 18.7135 18.3555 17.8065 18.3555C16.8994 18.3555 16.1613 19.0936 16.1613 20.0006C16.1613 20.9077 16.8994 21.6458 17.8065 21.6458C18.7135 21.6458 19.4516 20.9077 19.4516 20.0006ZM17.2581 20.0006C17.2581 19.6979 17.5038 19.4522 17.8065 19.4522C18.1092 19.4522 18.3549 19.6979 18.3549 20.0006C18.3549 20.3033 18.1092 20.549 17.8065 20.549C17.5038 20.549 17.2581 20.3033 17.2581 20.0006Z" fill="#A0A0A0"/>
<path d="M23.8387 20.0006C23.8387 19.0936 23.1006 18.3555 22.1936 18.3555C21.2865 18.3555 20.5484 19.0936 20.5484 20.0006C20.5484 20.9077 21.2865 21.6458 22.1936 21.6458C23.1006 21.6458 23.8387 20.9077 23.8387 20.0006ZM21.6452 20.0006C21.6452 19.6979 21.8909 19.4522 22.1936 19.4522C22.4963 19.4522 22.7419 19.6979 22.7419 20.0006C22.7419 20.3033 22.4963 20.549 22.1936 20.549C21.8909 20.549 21.6452 20.3033 21.6452 20.0006Z" fill="#A0A0A0"/>
<path d="M28.2258 20.0006C28.2258 19.0936 27.4877 18.3555 26.5806 18.3555C25.6736 18.3555 24.9355 19.0936 24.9355 20.0006C24.9355 20.9077 25.6736 21.6458 26.5806 21.6458C27.4877 21.6458 28.2258 20.9077 28.2258 20.0006ZM26.0323 20.0006C26.0323 19.6979 26.2779 19.4522 26.5806 19.4522C26.8834 19.4522 27.129 19.6979 27.129 20.0006C27.129 20.3033 26.8834 20.549 26.5806 20.549C26.2779 20.549 26.0323 20.3033 26.0323 20.0006Z" fill="#A0A0A0"/>
<path d="M32.613 20.0006C32.613 19.0936 31.8748 18.3555 30.9678 18.3555C30.0608 18.3555 29.3226 19.0936 29.3226 20.0006C29.3226 20.9077 30.0608 21.6458 30.9678 21.6458C31.8748 21.6458 32.613 20.9077 32.613 20.0006ZM30.4194 20.0006C30.4194 19.6979 30.6651 19.4522 30.9678 19.4522C31.2705 19.4522 31.5162 19.6979 31.5162 20.0006C31.5162 20.3033 31.2705 20.549 30.9678 20.549C30.6651 20.549 30.4194 20.3033 30.4194 20.0006Z" fill="#A0A0A0"/>
<path d="M6.8387 26.0315C7.74574 26.0315 8.48387 25.2934 8.48387 24.3864C8.48387 23.4793 7.74574 22.7412 6.8387 22.7412C5.93167 22.7412 5.19354 23.4793 5.19354 24.3864C5.19354 25.2934 5.93167 26.0315 6.8387 26.0315ZM6.8387 23.838C7.14141 23.838 7.38709 24.0837 7.38709 24.3864C7.38709 24.6891 7.14141 24.9348 6.8387 24.9348C6.53599 24.9348 6.29032 24.6891 6.29032 24.3864C6.29032 24.0837 6.53599 23.838 6.8387 23.838Z" fill="#A0A0A0"/>
<path d="M11.2258 26.0315C12.1328 26.0315 12.871 25.2934 12.871 24.3864C12.871 23.4793 12.1328 22.7412 11.2258 22.7412C10.3188 22.7412 9.58063 23.4793 9.58063 24.3864C9.58063 25.2934 10.3188 26.0315 11.2258 26.0315ZM11.2258 23.838C11.5285 23.838 11.7742 24.0837 11.7742 24.3864C11.7742 24.6891 11.5285 24.9348 11.2258 24.9348C10.9231 24.9348 10.6774 24.6891 10.6774 24.3864C10.6774 24.0837 10.9231 23.838 11.2258 23.838Z" fill="#A0A0A0"/>
<path d="M15.6129 26.0315C16.52 26.0315 17.2581 25.2934 17.2581 24.3864C17.2581 23.4793 16.52 22.7412 15.6129 22.7412C14.7059 22.7412 13.9678 23.4793 13.9678 24.3864C13.9678 25.2934 14.7059 26.0315 15.6129 26.0315ZM15.6129 23.838C15.9156 23.838 16.1613 24.0837 16.1613 24.3864C16.1613 24.6891 15.9156 24.9348 15.6129 24.9348C15.3102 24.9348 15.0645 24.6891 15.0645 24.3864C15.0645 24.0837 15.3102 23.838 15.6129 23.838Z" fill="#A0A0A0"/>
<path d="M20 26.0315C20.9071 26.0315 21.6452 25.2934 21.6452 24.3864C21.6452 23.4793 20.9071 22.7412 20 22.7412C19.093 22.7412 18.3549 23.4793 18.3549 24.3864C18.3549 25.2934 19.093 26.0315 20 26.0315ZM20 23.838C20.3027 23.838 20.5484 24.0837 20.5484 24.3864C20.5484 24.6891 20.3027 24.9348 20 24.9348C19.6973 24.9348 19.4516 24.6891 19.4516 24.3864C19.4516 24.0837 19.6973 23.838 20 23.838Z" fill="#A0A0A0"/>
<path d="M24.3871 26.0315C25.2941 26.0315 26.0323 25.2934 26.0323 24.3864C26.0323 23.4793 25.2941 22.7412 24.3871 22.7412C23.4801 22.7412 22.7419 23.4793 22.7419 24.3864C22.7419 25.2934 23.4801 26.0315 24.3871 26.0315ZM24.3871 23.838C24.6898 23.838 24.9355 24.0837 24.9355 24.3864C24.9355 24.6891 24.6898 24.9348 24.3871 24.9348C24.0844 24.9348 23.8387 24.6891 23.8387 24.3864C23.8387 24.0837 24.0844 23.838 24.3871 23.838Z" fill="#A0A0A0"/>
<path d="M28.7742 26.0315C29.6812 26.0315 30.4194 25.2934 30.4194 24.3864C30.4194 23.4793 29.6812 22.7412 28.7742 22.7412C27.8672 22.7412 27.129 23.4793 27.129 24.3864C27.129 25.2934 27.8672 26.0315 28.7742 26.0315ZM28.7742 23.838C29.0769 23.838 29.3226 24.0837 29.3226 24.3864C29.3226 24.6891 29.0769 24.9348 28.7742 24.9348C28.4715 24.9348 28.2258 24.6891 28.2258 24.3864C28.2258 24.0837 28.4715 23.838 28.7742 23.838Z" fill="#A0A0A0"/>
<path d="M33.1613 22.7412C32.2543 22.7412 31.5162 23.4793 31.5162 24.3864C31.5162 25.2934 32.2543 26.0315 33.1613 26.0315C34.0684 26.0315 34.8065 25.2934 34.8065 24.3864C34.8065 23.4793 34.0684 22.7412 33.1613 22.7412ZM33.1613 24.9348C32.8586 24.9348 32.6129 24.6891 32.6129 24.3864C32.6129 24.0837 32.8586 23.838 33.1613 23.838C33.464 23.838 33.7097 24.0837 33.7097 24.3864C33.7097 24.6891 33.464 24.9348 33.1613 24.9348Z" fill="#A0A0A0"/>
<path d="M10.6774 28.7741C10.6774 27.867 9.93928 27.1289 9.03225 27.1289C8.12521 27.1289 7.38708 27.867 7.38708 28.7741C7.38708 29.6811 8.12521 30.4192 9.03225 30.4192C9.93928 30.4192 10.6774 29.6811 10.6774 28.7741ZM9.03225 29.3225C8.72954 29.3225 8.48386 29.0768 8.48386 28.7741C8.48386 28.4714 8.72954 28.2257 9.03225 28.2257C9.33496 28.2257 9.58063 28.4714 9.58063 28.7741C9.58063 29.0768 9.33496 29.3225 9.03225 29.3225Z" fill="#A0A0A0"/>
<path d="M15.0646 28.7741C15.0646 27.867 14.3264 27.1289 13.4194 27.1289C12.5124 27.1289 11.7742 27.867 11.7742 28.7741C11.7742 29.6811 12.5124 30.4192 13.4194 30.4192C14.3264 30.4192 15.0646 29.6811 15.0646 28.7741ZM13.4194 29.3225C13.1167 29.3225 12.871 29.0768 12.871 28.7741C12.871 28.4714 13.1167 28.2257 13.4194 28.2257C13.7221 28.2257 13.9678 28.4714 13.9678 28.7741C13.9678 29.0768 13.7221 29.3225 13.4194 29.3225Z" fill="#A0A0A0"/>
<path d="M19.4516 28.7741C19.4516 27.867 18.7135 27.1289 17.8065 27.1289C16.8994 27.1289 16.1613 27.867 16.1613 28.7741C16.1613 29.6811 16.8994 30.4192 17.8065 30.4192C18.7135 30.4192 19.4516 29.6811 19.4516 28.7741ZM17.8065 29.3225C17.5038 29.3225 17.2581 29.0768 17.2581 28.7741C17.2581 28.4714 17.5038 28.2257 17.8065 28.2257C18.1092 28.2257 18.3549 28.4714 18.3549 28.7741C18.3549 29.0768 18.1092 29.3225 17.8065 29.3225Z" fill="#A0A0A0"/>
<path d="M23.8387 28.7741C23.8387 27.867 23.1006 27.1289 22.1936 27.1289C21.2865 27.1289 20.5484 27.867 20.5484 28.7741C20.5484 29.6811 21.2865 30.4192 22.1936 30.4192C23.1006 30.4192 23.8387 29.6811 23.8387 28.7741ZM22.1936 29.3225C21.8909 29.3225 21.6452 29.0768 21.6452 28.7741C21.6452 28.4714 21.8909 28.2257 22.1936 28.2257C22.4963 28.2257 22.7419 28.4714 22.7419 28.7741C22.7419 29.0768 22.4963 29.3225 22.1936 29.3225Z" fill="#A0A0A0"/>
<path d="M28.2258 28.7741C28.2258 27.867 27.4877 27.1289 26.5806 27.1289C25.6736 27.1289 24.9355 27.867 24.9355 28.7741C24.9355 29.6811 25.6736 30.4192 26.5806 30.4192C27.4877 30.4192 28.2258 29.6811 28.2258 28.7741ZM26.5806 29.3225C26.2779 29.3225 26.0323 29.0768 26.0323 28.7741C26.0323 28.4714 26.2779 28.2257 26.5806 28.2257C26.8834 28.2257 27.129 28.4714 27.129 28.7741C27.129 29.0768 26.8834 29.3225 26.5806 29.3225Z" fill="#A0A0A0"/>
<path d="M32.613 28.7741C32.613 27.867 31.8748 27.1289 30.9678 27.1289C30.0608 27.1289 29.3226 27.867 29.3226 28.7741C29.3226 29.6811 30.0608 30.4192 30.9678 30.4192C31.8748 30.4192 32.613 29.6811 32.613 28.7741ZM30.9678 29.3225C30.6651 29.3225 30.4194 29.0768 30.4194 28.7741C30.4194 28.4714 30.6651 28.2257 30.9678 28.2257C31.2705 28.2257 31.5162 28.4714 31.5162 28.7741C31.5162 29.0768 31.2705 29.3225 30.9678 29.3225Z" fill="#A0A0A0"/>
<path d="M6.8387 31.5156C5.93167 31.5156 5.19354 32.2538 5.19354 33.1608C5.19354 34.0678 5.93167 34.8059 6.8387 34.8059C7.74574 34.8059 8.48387 34.0678 8.48387 33.1608C8.48387 32.2538 7.74574 31.5156 6.8387 31.5156ZM6.8387 33.7092C6.53599 33.7092 6.29032 33.4635 6.29032 33.1608C6.29032 32.8581 6.53599 32.6124 6.8387 32.6124C7.14141 32.6124 7.38709 32.8581 7.38709 33.1608C7.38709 33.4635 7.14141 33.7092 6.8387 33.7092Z" fill="#A0A0A0"/>
<path d="M11.2258 31.5156C10.3188 31.5156 9.58063 32.2538 9.58063 33.1608C9.58063 34.0678 10.3188 34.8059 11.2258 34.8059C12.1328 34.8059 12.871 34.0678 12.871 33.1608C12.871 32.2538 12.1328 31.5156 11.2258 31.5156ZM11.2258 33.7092C10.9231 33.7092 10.6774 33.4635 10.6774 33.1608C10.6774 32.8581 10.9231 32.6124 11.2258 32.6124C11.5285 32.6124 11.7742 32.8581 11.7742 33.1608C11.7742 33.4635 11.5285 33.7092 11.2258 33.7092Z" fill="#A0A0A0"/>
<path d="M15.6129 31.5156C14.7059 31.5156 13.9678 32.2538 13.9678 33.1608C13.9678 34.0678 14.7059 34.8059 15.6129 34.8059C16.52 34.8059 17.2581 34.0678 17.2581 33.1608C17.2581 32.2538 16.52 31.5156 15.6129 31.5156ZM15.6129 33.7092C15.3102 33.7092 15.0645 33.4635 15.0645 33.1608C15.0645 32.8581 15.3102 32.6124 15.6129 32.6124C15.9156 32.6124 16.1613 32.8581 16.1613 33.1608C16.1613 33.4635 15.9156 33.7092 15.6129 33.7092Z" fill="#A0A0A0"/>
<path d="M20 31.5156C19.093 31.5156 18.3549 32.2538 18.3549 33.1608C18.3549 34.0678 19.093 34.8059 20 34.8059C20.9071 34.8059 21.6452 34.0678 21.6452 33.1608C21.6452 32.2538 20.9071 31.5156 20 31.5156ZM20 33.7092C19.6973 33.7092 19.4516 33.4635 19.4516 33.1608C19.4516 32.8581 19.6973 32.6124 20 32.6124C20.3027 32.6124 20.5484 32.8581 20.5484 33.1608C20.5484 33.4635 20.3027 33.7092 20 33.7092Z" fill="#A0A0A0"/>
<path d="M24.3871 31.5156C23.4801 31.5156 22.7419 32.2538 22.7419 33.1608C22.7419 34.0678 23.4801 34.8059 24.3871 34.8059C25.2941 34.8059 26.0323 34.0678 26.0323 33.1608C26.0323 32.2538 25.2941 31.5156 24.3871 31.5156ZM24.3871 33.7092C24.0844 33.7092 23.8387 33.4635 23.8387 33.1608C23.8387 32.8581 24.0844 32.6124 24.3871 32.6124C24.6898 32.6124 24.9355 32.8581 24.9355 33.1608C24.9355 33.4635 24.6898 33.7092 24.3871 33.7092Z" fill="#A0A0A0"/>
<path d="M28.7742 31.5156C27.8672 31.5156 27.129 32.2538 27.129 33.1608C27.129 34.0678 27.8672 34.8059 28.7742 34.8059C29.6812 34.8059 30.4194 34.0678 30.4194 33.1608C30.4194 32.2538 29.6812 31.5156 28.7742 31.5156ZM28.7742 33.7092C28.4715 33.7092 28.2258 33.4635 28.2258 33.1608C28.2258 32.8581 28.4715 32.6124 28.7742 32.6124C29.0769 32.6124 29.3226 32.8581 29.3226 33.1608C29.3226 33.4635 29.0769 33.7092 28.7742 33.7092Z" fill="#A0A0A0"/>
<path d="M33.1613 31.5156C32.2543 31.5156 31.5162 32.2538 31.5162 33.1608C31.5162 34.0678 32.2543 34.8059 33.1613 34.8059C34.0684 34.8059 34.8065 34.0678 34.8065 33.1608C34.8065 32.2538 34.0684 31.5156 33.1613 31.5156ZM33.1613 33.7092C32.8586 33.7092 32.6129 33.4635 32.6129 33.1608C32.6129 32.8581 32.8586 32.6124 33.1613 32.6124C33.464 32.6124 33.7097 32.8581 33.7097 33.1608C33.7097 33.4635 33.464 33.7092 33.1613 33.7092Z" fill="#A0A0A0"/>
</svg>
