<svg width="40" height="40" viewBox="0 0 40 40" fill="none" xmlns="http://www.w3.org/2000/svg">
<g clip-path="url(#clip0_626_18287)">
<path d="M37.3425 7.29125L37.6606 6.97312C38.3631 6.27062 38.75 5.33687 38.75 4.34375C38.75 2.29312 37.0819 0.625 35.0312 0.625C34.0381 0.625 33.1044 1.01188 32.4019 1.71438L31.8475 2.26875C31.1625 1.26313 30.0187 0.625 28.765 0.625C27.7856 0.625 26.8594 1.00188 26.1575 1.68563L2.06375 25.1775C1.18937 25.865 0.625 26.9294 0.625 28.125C0.625 30.1931 2.30687 31.875 4.375 31.875C5.57 31.875 6.63375 31.3113 7.32063 30.4381L9.79375 27.965C10.1519 28.6575 10.7175 29.2231 11.41 29.5813L8.31187 32.6794C7.43875 33.3662 6.875 34.43 6.875 35.625C6.875 37.6931 8.55688 39.375 10.625 39.375C11.82 39.375 12.8837 38.8112 13.5706 37.9381L38.2856 13.2231C38.9881 12.5206 39.375 11.5869 39.375 10.5938C39.375 9.16375 38.5606 7.91188 37.3425 7.29125ZM14.375 29.7812C15.05 29.5413 15.6362 29.1156 16.0706 28.5631L16.875 27.7588V32.8662L14.375 35.3662V29.7812ZM30 5.88375V12.8663L27.5 15.3663V8.38375L30 5.88375ZM26.25 16.6163L23.75 19.1163V12.1337L26.25 9.63375V16.6163ZM20 22.8662V15.8837L22.5 13.3837V20.3662L20 22.8662ZM21.25 12.8663V8.21688L23.75 5.77938V10.3663L21.25 12.8663ZM20 14.1163L17.5 16.6163V11.8731L20 9.43563V14.1163ZM16.25 17.8663L13.75 20.3662V15.5294L16.25 13.0919V17.8663ZM15 20.8838V23.0075C14.515 22.7256 13.9619 22.5513 13.3712 22.5125L15 20.8838ZM16.25 24.1812V19.6337L18.75 17.1337V24.1162L16.8625 26.0037C16.8188 25.3337 16.6012 24.7106 16.25 24.1812ZM18.125 26.5088L20.625 24.0088V29.1162L18.125 31.6162V26.5088ZM21.875 22.7588L24.375 20.2588V25.3662L21.875 27.8662V22.7588ZM25.625 19.0087L28.125 16.5087V21.6162L25.625 24.1162V19.0087ZM29.375 15.2587L31.875 12.7587V17.8663L29.375 20.3662V15.2587ZM33.125 11.5087L35.625 9.00875V14.1163L33.125 16.6163V11.5087ZM37.5 4.34375C37.5 5.00312 37.2431 5.62313 36.7769 6.08938L35 7.86625V1.87813C35.0106 1.87813 35.0206 1.875 35.0312 1.875C36.3925 1.875 37.5 2.9825 37.5 4.34375ZM33.2856 2.59812C33.4263 2.4575 33.5844 2.34312 33.75 2.24187V9.11687L31.25 11.6169V4.63375L33.2856 2.59812ZM30.9469 3.16937L28.75 5.36625V1.87625C28.755 1.87625 28.76 1.875 28.765 1.875C29.6812 1.875 30.5162 2.3825 30.9469 3.16937ZM27.0306 2.58063C27.1731 2.44188 27.3331 2.32937 27.5 2.22937V6.61625L25 9.11625V4.56063L27.0306 2.58063ZM4.375 30.625C2.99625 30.625 1.875 29.5037 1.875 28.125C1.875 26.7463 2.99625 25.625 4.375 25.625C5.75375 25.625 6.875 26.7463 6.875 28.125C6.875 29.5037 5.75375 30.625 4.375 30.625ZM8.1125 27.8787C7.99062 26.0212 6.51438 24.5312 4.6625 24.3894L8.75 20.4044V22.5H10V19.1856L12.5 16.7481V21.6162L10.8119 23.3044C9.93875 23.9912 9.375 25.055 9.375 26.25C9.375 26.3675 9.38188 26.4837 9.3925 26.5987L8.1125 27.8787ZM10.625 26.25C10.625 24.8713 11.7463 23.75 13.125 23.75C14.5037 23.75 15.625 24.8713 15.625 26.25C15.625 27.6287 14.5037 28.75 13.125 28.75C11.7463 28.75 10.625 27.6287 10.625 26.25ZM13.125 30V32.8375C12.5181 32.2925 11.735 31.9438 10.8712 31.8869L12.7762 29.9819C12.8912 29.9931 13.0075 30 13.125 30ZM10.625 38.125C9.24625 38.125 8.125 37.0037 8.125 35.625C8.125 34.2463 9.24625 33.125 10.625 33.125C12.0037 33.125 13.125 34.2463 13.125 35.625C13.125 37.0037 12.0037 38.125 10.625 38.125ZM37.4019 12.3394L36.875 12.8663V8.4475C37.6294 8.87562 38.125 9.6825 38.125 10.5931C38.125 11.2531 37.8681 11.8731 37.4019 12.3394Z" fill="#A0A0A0"/>
</g>
<defs>
<clipPath id="clip0_626_18287">
<rect width="40" height="40" fill="white"/>
</clipPath>
</defs>
</svg>
