<svg width="40" height="40" viewBox="0 0 40 40" fill="none" xmlns="http://www.w3.org/2000/svg">
<path d="M30.9194 30.0735L21.875 25.2504V2.50041C21.8751 2.38427 21.8427 2.27041 21.7817 2.1716C21.7206 2.07279 21.6333 1.99295 21.5294 1.94104L19.0294 0.691037C18.9401 0.646375 18.8414 0.623749 18.7416 0.625053C18.6418 0.626358 18.5437 0.651556 18.4556 0.698537L9.08063 5.69854C8.98066 5.75191 8.89709 5.83146 8.83885 5.92867C8.78062 6.02588 8.7499 6.13709 8.75 6.25041V31.8754C8.75011 31.985 8.77904 32.0927 8.83389 32.1875C8.88874 32.2824 8.96758 32.3612 9.0625 32.416L20.9375 39.291C21.0324 39.3463 21.1402 39.3754 21.25 39.3754C21.3526 39.3753 21.4536 39.3502 21.5444 39.3023L30.9194 34.3023C31.0193 34.2489 31.1029 34.1694 31.1611 34.0722C31.2194 33.9749 31.2501 33.8637 31.25 33.7504V30.6254C31.2501 30.5121 31.2194 30.4009 31.1611 30.3037C31.1029 30.2065 31.0193 30.1269 30.9194 30.0735ZM29.2944 30.6254L21.25 34.9167L13.2031 30.6254L21.25 26.3342L29.2944 30.6254ZM12.5 7.87541L20.625 3.54229V25.2504L12.5 29.5835V7.87541ZM18.7594 1.95354L19.8881 2.51604L11.8656 6.79666L10.7362 6.23416L18.7594 1.95354ZM10 7.26166L11.25 7.88666V30.6254C11.2499 30.7387 11.2806 30.8499 11.3389 30.9472C11.3971 31.0444 11.4807 31.1239 11.5806 31.1773L20.625 36.0004V37.6654L10 31.5154V7.26166ZM21.875 37.7085V36.0004L30 31.6667V33.3754L21.875 37.7085Z" fill="#A0A0A0"/>
</svg>
