<svg width="40" height="40" viewBox="0 0 40 40" fill="none" xmlns="http://www.w3.org/2000/svg">
<path d="M9.48624 14.6463C11.4191 14.6463 12.9916 13.0739 12.9916 11.141C12.9916 9.20817 11.4191 7.63574 9.48624 7.63574C7.55346 7.63574 5.98096 9.20817 5.98096 11.141C5.98096 13.0739 7.55346 14.6463 9.48624 14.6463ZM9.48624 8.67748C10.8447 8.67748 11.9499 9.78262 11.9499 11.1411C11.9499 12.4996 10.8447 13.6047 9.48624 13.6047C8.12776 13.6047 7.02262 12.4996 7.02262 11.1411C7.02262 9.78262 8.12776 8.67748 9.48624 8.67748Z" fill="#A0A0A0"/>
<path d="M30.5137 14.6463C32.4465 14.6463 34.019 13.0739 34.019 11.141C34.019 9.20817 32.4465 7.63574 30.5137 7.63574C28.5809 7.63574 27.0084 9.20817 27.0084 11.141C27.0084 13.0739 28.5809 14.6463 30.5137 14.6463ZM30.5137 8.67748C31.8722 8.67748 32.9773 9.78262 32.9773 11.1411C32.9773 12.4996 31.8722 13.6047 30.5137 13.6047C29.1552 13.6047 28.05 12.4996 28.05 11.1411C28.05 9.78262 29.1553 8.67748 30.5137 8.67748Z" fill="#A0A0A0"/>
<path fill-rule="evenodd" clip-rule="evenodd" d="M30.2267 18.3989C30.322 18.4027 30.4176 18.4051 30.5138 18.4051C34.5192 18.4051 37.7778 15.1465 37.7778 11.1411C37.7778 7.13564 34.5192 3.87702 30.5138 3.87702C26.5084 3.87702 23.2497 7.13564 23.2497 11.1411C23.2497 13.15 24.0696 14.9709 25.3922 16.2872C23.6479 15.7916 21.8334 15.536 20 15.536C18.1663 15.536 16.3516 15.7917 14.6072 16.2874C15.93 14.9711 16.7501 13.15 16.7501 11.1408C16.7501 7.13557 13.4915 3.87695 9.48612 3.87695C5.48077 3.87695 2.22223 7.13557 2.22223 11.1408C2.22223 12.9854 2.91466 14.7437 4.17181 16.0919L5.92695 17.4738C7.00744 18.0829 8.23814 18.4047 9.48612 18.4047C9.58251 18.4047 9.67841 18.4022 9.7739 18.3986C6.89452 20.1523 4.50042 22.6263 2.84376 25.5641C2.59299 26.0083 2.53035 26.5238 2.66758 27.0154C2.80473 27.5066 3.12487 27.9152 3.56938 28.1662C4.48681 28.6831 5.65376 28.3575 6.17036 27.4405C7.53001 25.0298 9.50515 23.0056 11.8822 21.5867C13.113 20.852 14.4354 20.2919 15.8108 19.9165C13.9518 21.2334 12.7361 23.4011 12.7361 25.8475C12.7361 29.8529 15.9947 33.1116 20.0001 33.1116C24.0055 33.1116 27.2641 29.8529 27.2641 25.8475C27.2641 23.4011 26.0484 21.2334 24.1894 19.9165C25.5647 20.2919 26.8872 20.852 28.1179 21.5867C29.0781 22.1597 29.981 22.8374 30.8017 23.6007L32.1866 25.0637C32.8058 25.805 33.3586 26.6047 33.8298 27.4404C34.1678 28.04 34.8058 28.4125 35.4947 28.4125C35.8218 28.4125 36.1457 28.3272 36.4312 28.166C36.8754 27.9152 37.1956 27.5066 37.3327 27.0154C37.4699 26.5238 37.4073 26.0084 37.1566 25.5643C35.4997 22.6265 33.1058 20.1526 30.2267 18.3989ZM3.2639 11.1408C3.2639 12.7208 3.85688 14.2268 4.93369 15.3815L6.43841 16.5663C7.36313 17.0876 8.41695 17.3631 9.48612 17.3631C12.9172 17.3631 15.7084 14.5718 15.7084 11.1408C15.7084 7.70987 12.9171 4.91862 9.48612 4.91862C6.05515 4.91862 3.2639 7.70994 3.2639 11.1408ZM28.6518 20.6922C29.6749 21.3028 30.6368 22.0247 31.5112 22.8379L32.986 24.3959C33.6458 25.1858 34.235 26.038 34.7372 26.9289C34.8909 27.2015 35.1811 27.3708 35.4946 27.3708C35.6447 27.3708 35.7875 27.3332 35.9191 27.2589C36.1212 27.1448 36.2669 26.9588 36.3293 26.7354C36.3916 26.512 36.3633 26.2779 36.2493 26.0761C34.6524 23.2444 32.3329 20.8672 29.5416 19.2013C26.666 17.4849 23.3666 16.5777 20.0002 16.5777C16.6337 16.5777 13.3343 17.4849 10.4588 19.2013C7.66744 20.8672 5.34793 23.2444 3.75112 26.0759C3.63709 26.2778 3.60876 26.5119 3.67105 26.7353C3.73341 26.9588 3.87911 27.1447 4.08119 27.2588C4.28279 27.3725 4.51702 27.4009 4.74049 27.3385C4.96376 27.2762 5.14931 27.1308 5.26306 26.929C6.71175 24.3604 8.81598 22.2038 11.3485 20.6922C13.9552 19.1362 16.9469 18.3138 20.0002 18.3138C23.0534 18.3138 26.0451 19.1362 28.6518 20.6922ZM30.5138 4.91869C27.0827 4.91869 24.2914 7.71001 24.2914 11.1411C24.2914 14.5721 27.0827 17.3634 30.5138 17.3634C33.9449 17.3634 36.7362 14.5721 36.7362 11.1411C36.7362 7.71001 33.9448 4.91869 30.5138 4.91869ZM20 32.0699C23.4311 32.0699 26.2224 29.2786 26.2224 25.8475C26.2224 22.4165 23.4311 19.6252 20 19.6252C16.569 19.6252 13.7777 22.4165 13.7777 25.8475C13.7777 29.2786 16.569 32.0699 20 32.0699Z" fill="#A0A0A0"/>
<path d="M16.4947 25.847C16.4947 27.7799 18.0672 29.3523 20 29.3523C21.9327 29.3523 23.5053 27.7798 23.5053 25.847C23.5053 23.9142 21.9327 22.3418 20 22.3418C18.0672 22.3418 16.4947 23.9142 16.4947 25.847ZM22.4636 25.847C22.4636 27.2055 21.3584 28.3106 20 28.3106C18.6415 28.3106 17.5364 27.2054 17.5364 25.847C17.5364 24.4886 18.6415 23.3834 20 23.3834C21.3584 23.3834 22.4636 24.4886 22.4636 25.847Z" fill="#A0A0A0"/>
<path d="M29.099 35.3125C29.0119 35.4219 28.8854 35.4896 28.7429 35.5031L28.3295 35.5422C28.1876 35.5556 28.0492 35.5129 27.9416 35.4217C27.8341 35.3306 27.7726 35.2046 27.7683 35.0668L27.7151 33.3222C27.7072 33.0645 27.9098 32.843 28.1762 32.8179L28.3426 32.8022C28.3594 32.8005 28.376 32.7998 28.3925 32.7998C28.6388 32.7998 28.8552 32.9724 28.8968 33.2105L29.1971 34.9318C29.221 35.0678 29.186 35.203 29.099 35.3125Z" fill="#A0A0A0"/>
<path d="M34.8513 32.8378C34.8332 32.9751 34.7607 33.0951 34.6473 33.1757L34.318 33.4096C34.2044 33.4902 34.0667 33.5197 33.9296 33.4924C33.7927 33.4651 33.6769 33.3852 33.6035 33.2674L32.6749 31.7754C32.5378 31.5551 32.5968 31.2644 32.809 31.1137L32.9415 31.0197C33.1537 30.8689 33.4501 30.9074 33.6162 31.1069L34.7415 32.4592C34.8303 32.566 34.8694 32.7004 34.8513 32.8378Z" fill="#A0A0A0"/>
<path d="M12.8062 35.0669C12.802 35.2047 12.7405 35.3307 12.633 35.4219C12.5255 35.513 12.3877 35.5561 12.2451 35.5423L11.8317 35.5032C11.6892 35.4898 11.5627 35.422 11.4756 35.3126C11.3886 35.2031 11.3536 35.0679 11.3774 34.9319L11.6777 33.2105C11.7193 32.9724 11.9357 32.7998 12.1819 32.7998C12.1985 32.7998 12.215 32.8006 12.2317 32.8022L12.3982 32.8179C12.6645 32.843 12.8673 33.0645 12.8594 33.3222L12.8062 35.0669Z" fill="#A0A0A0"/>
<path d="M7.90103 31.7744L6.97246 33.2663C6.89902 33.3842 6.78324 33.4641 6.64636 33.4914C6.50924 33.5187 6.37149 33.4893 6.25793 33.4086L5.92874 33.1748C5.81517 33.0942 5.74269 32.9742 5.72469 32.8369C5.70653 32.6995 5.74562 32.565 5.8346 32.4582L6.95977 31.106C7.05763 30.9884 7.20069 30.9268 7.34511 30.9268C7.4459 30.9268 7.54741 30.9568 7.63457 31.0188L7.76701 31.1128C7.9793 31.2635 8.03815 31.5541 7.90103 31.7744Z" fill="#A0A0A0"/>
</svg>
