<svg width="40" height="40" viewBox="0 0 40 40" fill="none" xmlns="http://www.w3.org/2000/svg">
<g clip-path="url(#clip0_628_18369)">
<path fill-rule="evenodd" clip-rule="evenodd" d="M38.2541 14.8249H38.1198V10.4253H38.2541C39.2168 10.4253 40 9.64211 40 8.67945C40 7.7168 39.2169 6.93359 38.2541 6.93359H8.76711H6.42336H1.74586C0.783125 6.93367 0 7.71687 0 8.67953C0 9.64219 0.783125 10.4254 1.74586 10.4254H1.88016V14.825H1.74586C0.783125 14.8249 0 15.608 0 16.5707C0 17.5334 0.783125 18.3166 1.74586 18.3166H38.2542C39.2169 18.3166 40.0001 17.5334 40.0001 16.5707C40 15.608 39.2169 14.8249 38.2541 14.8249ZM38.2541 8.10547H8.76711H6.42336H1.74586C1.42938 8.10547 1.17188 8.36297 1.17188 8.67945C1.17188 8.99594 1.42938 9.25344 1.74586 9.25344H38.2541C38.5706 9.25344 38.8281 8.99594 38.8281 8.67945C38.8281 8.36297 38.5706 8.10547 38.2541 8.10547ZM36.948 10.4253H3.05195V14.8249H36.948V10.4253ZM1.74586 17.1447H38.2541C38.5706 17.1447 38.8281 16.8872 38.8282 16.5707C38.8282 16.2543 38.5707 15.9968 38.2542 15.9968H1.74586C1.42938 15.9968 1.17188 16.2542 1.17188 16.5707C1.17188 16.8872 1.42938 17.1447 1.74586 17.1447Z" fill="#A0A0A0"/>
<path fill-rule="evenodd" clip-rule="evenodd" d="M38.2541 25.1752C39.2168 25.1752 40 24.392 40 23.4294C40 22.4667 39.2169 21.6836 38.2541 21.6836H18.5835H16.2398H1.74586C0.783125 21.6836 0 22.4668 0 23.4295C0 24.3921 0.783125 25.1752 1.74586 25.1752H1.88016V29.5748H1.74586C0.783125 29.5748 0 30.358 0 31.3206C0 32.2833 0.783125 33.0665 1.74586 33.0665H38.2542C39.2169 33.0665 40.0001 32.2833 40.0001 31.3206C40.0001 30.358 39.217 29.5748 38.2542 29.5748H38.1199V25.1752H38.2541ZM38.2541 22.8555H18.5835H16.2398H1.74586C1.42938 22.8555 1.17188 23.1129 1.17188 23.4294C1.17188 23.7459 1.42938 24.0034 1.74586 24.0034H38.2541C38.5706 24.0034 38.8281 23.7459 38.8281 23.4295C38.8281 23.113 38.5706 22.8555 38.2541 22.8555ZM38.2541 31.8946C38.5706 31.8946 38.8281 31.6371 38.8281 31.3206C38.8281 31.0042 38.5706 30.7467 38.2542 30.7467H1.74586C1.42938 30.7467 1.17188 31.0041 1.17188 31.3206C1.17188 31.6371 1.42938 31.8946 1.74586 31.8946H38.2541ZM3.05195 29.5748H36.948L36.948 25.1752H3.05195V29.5748Z" fill="#A0A0A0"/>
</g>
<defs>
<clipPath id="clip0_628_18369">
<rect width="40" height="40" fill="white"/>
</clipPath>
</defs>
</svg>
