<svg width="40" height="40" viewBox="0 0 40 40" fill="none" xmlns="http://www.w3.org/2000/svg">
<path fill-rule="evenodd" clip-rule="evenodd" d="M0 9.94601C0 10.3774 0.349766 10.7273 0.78125 10.7273H3.66352C4.18164 12.9743 5.39313 14.6336 6.9007 15.0638V31.5645C6.9007 32.952 6.44023 34.3636 5.63734 35.4375C4.95266 36.3534 4.09172 36.9223 3.39047 36.9223C2.95898 36.9223 2.60922 37.2721 2.60922 37.7035C2.60922 38.1349 2.95898 38.4848 3.39047 38.4848H32.7784C35.1238 38.4848 37.8502 35.4619 37.8502 31.564L37.8467 27.5019L37.8466 20.5529L37.8499 10.7271H39.2188C39.6502 10.7271 40 10.3773 40 9.94586V6.56258C40 6.13117 39.6502 5.78133 39.2188 5.78133H37.5758C36.959 3.09516 35.3948 1.33398 33.5598 1.33398L33.5559 1.33406H7.68227C5.81891 1.33406 4.26844 3.15695 3.66344 5.78141H0.78125C0.349766 5.78141 0 6.13125 0 6.56266L0 9.94601ZM36.2841 27.4723L36.284 27.458L36.2841 20.5713C36.2848 20.4219 36.2859 16.937 36.2868 13.6423C35.6244 14.5101 34.6323 15.208 33.4996 15.1737H8.4632V31.5645C8.4632 33.753 7.60344 35.6656 6.43406 36.9223H32.7783C33.4795 36.9223 34.3402 36.3534 35.0247 35.4376C35.8273 34.3638 36.2877 32.952 36.2877 31.5645C36.287 30.4717 36.2851 27.6262 36.2841 27.4723ZM34.6004 9.16469H38.4375V7.34383L34.6003 7.34398C34.5471 7.53023 34.4917 7.84281 34.4917 8.2543C34.4917 8.66578 34.5472 8.97836 34.6004 9.16469ZM34.2589 5.78133H35.9645C35.488 4.06609 34.5442 2.89695 33.5604 2.89641C32.544 2.89641 31.8557 4.00766 31.4959 4.81914C31.0201 5.89242 30.8313 7.0857 30.8313 8.25422C30.8313 9.76008 31.1597 11.1638 31.756 12.2069C32.2662 13.0993 32.9234 13.6112 33.5592 13.6112C34.9232 13.6112 35.6645 11.8055 35.964 10.7272H34.2589C33.4386 10.7272 32.9291 9.77961 32.9291 8.2543C32.9291 7.11023 33.2157 6.29117 33.7052 5.9532C33.8683 5.84055 34.0538 5.78133 34.2589 5.78133ZM7.68227 2.89664C7.04648 2.89664 6.38906 3.40859 5.87859 4.30133C5.49609 4.97008 5.22453 5.7875 5.07836 6.68445C4.91359 7.72453 4.91539 8.78383 5.07836 9.82391C5.22453 10.7209 5.49617 11.5381 5.87859 12.2069C6.38898 13.0994 7.04641 13.6112 7.68227 13.6112H30.8134C29.678 12.1048 29.2684 10.1079 29.2684 8.25437C29.2684 6.40195 29.6781 4.4032 30.8141 2.89664H7.68227ZM3.42625 7.34391H1.5625V9.16477H3.42625C3.37891 8.55922 3.37891 7.94945 3.42625 7.34391Z" fill="#A0A0A0"/>
<path fill-rule="evenodd" clip-rule="evenodd" d="M7.33335 22.2344L12.6667 22.2344L12.6667 23.7677L7.33335 23.7677L7.33335 22.2344Z" fill="#A0A0A0"/>
<path fill-rule="evenodd" clip-rule="evenodd" d="M15.3334 22.2344L20.6667 22.2344L20.6667 23.7677L15.3334 23.7677L15.3334 22.2344Z" fill="#A0A0A0"/>
<path fill-rule="evenodd" clip-rule="evenodd" d="M23.3334 22.2344L28.6667 22.2344L28.6667 23.7677L23.3334 23.7677L23.3334 22.2344Z" fill="#A0A0A0"/>
<path fill-rule="evenodd" clip-rule="evenodd" d="M31.3334 22.2344L36.6667 22.2344L36.6667 23.7677L31.3334 23.7677L31.3334 22.2344Z" fill="#A0A0A0"/>
</svg>
