<svg width="20" height="20" viewBox="0 0 20 20" fill="none" xmlns="http://www.w3.org/2000/svg">
<g opacity="0.7" clip-path="url(#clip0_751_1955)">
<path d="M2.08333 17.6H17.9167C19.1202 17.6 20.1 16.6202 20.1 15.4167V4.58333C20.1 3.37977 19.1202 2.4 17.9167 2.4H2.08333C0.879771 2.4 -0.1 3.37977 -0.1 4.58333V15.4167C-0.1 16.6202 0.879771 17.6 2.08333 17.6ZM0.933333 4.58333C0.933333 3.9494 1.4494 3.43333 2.08333 3.43333H17.9167C18.5506 3.43333 19.0667 3.9494 19.0667 4.58333V15.4167C19.0667 16.0506 18.5506 16.5667 17.9167 16.5667H2.08333C1.4494 16.5667 0.933333 16.0506 0.933333 15.4167V4.58333Z" fill="#E2E5EB" stroke="#E2E5EB" stroke-width="0.2"/>
<path d="M4.06699 7.91665C4.06699 9.12021 5.04676 10.1 6.25033 10.1C7.45389 10.1 8.43366 9.12021 8.43366 7.91665C8.43366 6.71308 7.45389 5.73331 6.25033 5.73331C5.04676 5.73331 4.06699 6.71308 4.06699 7.91665ZM5.10033 7.91665C5.10033 7.28271 5.61639 6.76665 6.25033 6.76665C6.88426 6.76665 7.40033 7.28271 7.40033 7.91665C7.40033 8.55058 6.88426 9.06665 6.25033 9.06665C5.61639 9.06665 5.10033 8.55058 5.10033 7.91665Z" fill="#E2E5EB" stroke="#E2E5EB" stroke-width="0.2"/>
<path d="M9.06667 13.75C9.06667 14.0352 9.2981 14.2666 9.58333 14.2666C9.86856 14.2666 10.1 14.0352 10.1 13.75V12.9166C10.1 11.7131 9.12023 10.7333 7.91667 10.7333H4.58333C3.37977 10.7333 2.4 11.7131 2.4 12.9166V13.75C2.4 14.0352 2.63144 14.2666 2.91667 14.2666C3.2019 14.2666 3.43333 14.0352 3.43333 13.75V12.9166C3.43333 12.2827 3.9494 11.7666 4.58333 11.7666H7.91667C8.5506 11.7666 9.06667 12.2827 9.06667 12.9166V13.75Z" fill="#E2E5EB" stroke="#E2E5EB" stroke-width="0.2"/>
<path d="M12.0837 7.60002H17.0837C17.3689 7.60002 17.6003 7.36858 17.6003 7.08335C17.6003 6.79813 17.3689 6.56669 17.0837 6.56669H12.0837C11.7984 6.56669 11.567 6.79813 11.567 7.08335C11.567 7.36858 11.7984 7.60002 12.0837 7.60002Z" fill="#E2E5EB" stroke="#E2E5EB" stroke-width="0.2"/>
<path d="M12.0837 10.9333H17.0837C17.3689 10.9333 17.6003 10.7019 17.6003 10.4167C17.6003 10.1314 17.3689 9.9 17.0837 9.9H12.0837C11.7984 9.9 11.567 10.1314 11.567 10.4167C11.567 10.7019 11.7984 10.9333 12.0837 10.9333Z" fill="#E2E5EB" stroke="#E2E5EB" stroke-width="0.2"/>
<path d="M12.0837 14.2666H17.0837C17.3689 14.2666 17.6003 14.0352 17.6003 13.75C17.6003 13.4648 17.3689 13.2333 17.0837 13.2333H12.0837C11.7984 13.2333 11.567 13.4648 11.567 13.75C11.567 14.0352 11.7984 14.2666 12.0837 14.2666Z" fill="#E2E5EB" stroke="#E2E5EB" stroke-width="0.2"/>
</g>
<defs>
<clipPath id="clip0_751_1955">
<rect width="20" height="20" fill="white"/>
</clipPath>
</defs>
</svg>
