<svg width="20" height="20" viewBox="0 0 20 20" fill="none" xmlns="http://www.w3.org/2000/svg">
<g opacity="0.7">
<path d="M17.8197 4.46962H7.22971C7.10439 4.17753 6.96077 3.89364 6.79971 3.61962C6.56948 3.13457 6.27335 2.68364 5.91971 2.27962C5.71968 2.04916 5.47467 1.862 5.19971 1.72962L4.91971 1.59962H4.68971C4.50062 1.59866 4.31452 1.64691 4.14971 1.73962L3.52971 2.09962C2.81466 2.59473 2.22403 3.24876 1.80416 4.01043C1.38429 4.77209 1.14659 5.62068 1.10971 6.48962C1.0949 8.1648 1.56741 9.80815 2.46971 11.2196L4.06971 13.9996C4.84527 15.4747 6.03828 16.6886 7.49971 17.4896C8.30952 17.9206 9.21237 18.1472 10.1297 18.1496C10.9292 18.1446 11.7191 17.9744 12.4497 17.6496V17.6496L13.0697 17.2896C13.2275 17.1921 13.3604 17.059 13.4576 16.901C13.5548 16.743 13.6138 16.5645 13.6297 16.3796C13.6451 16.074 13.601 15.7684 13.4997 15.4796C13.3479 14.9569 13.1223 14.4586 12.8297 13.9996C12.4889 13.3194 11.9836 12.7351 11.3597 12.2996C11.0799 12.1332 10.7603 12.0454 10.4347 12.0454C10.1091 12.0454 9.78957 12.1332 9.50971 12.2996L8.73971 12.7396C8.66507 12.787 8.57811 12.8114 8.48971 12.8096C8.36918 12.8043 8.2506 12.7772 8.13971 12.7296C7.92505 12.6315 7.73913 12.4801 7.59971 12.2896L5.68971 8.99962C5.59574 8.78249 5.55791 8.54521 5.57971 8.30962C5.58305 8.20747 5.6112 8.10766 5.66172 8.01881C5.71225 7.92995 5.78363 7.85473 5.86971 7.79962L6.42971 7.46962C6.46514 7.5202 6.50914 7.56419 6.55971 7.59962L10.6297 10.7996C10.9159 11.0264 11.2652 11.1591 11.6297 11.1796H11.6997C12.0639 11.1572 12.4126 11.0247 12.6997 10.7996L17.9997 6.64962V13.5096C17.9997 13.5096 17.9997 13.5696 17.8297 13.5696H13.9397C13.7753 13.5696 13.6176 13.6349 13.5013 13.7512C13.385 13.8675 13.3197 14.0252 13.3197 14.1896C13.3197 14.3541 13.385 14.5118 13.5013 14.628C13.6176 14.7443 13.7753 14.8096 13.9397 14.8096H17.8297C18.1888 14.8232 18.5387 14.6941 18.8029 14.4505C19.0671 14.2069 19.2241 13.8686 19.2397 13.5096V5.76962C19.232 5.59097 19.1891 5.41559 19.1136 5.25352C19.038 5.09145 18.9312 4.94588 18.7993 4.82513C18.6674 4.70438 18.513 4.61082 18.3449 4.54982C18.1768 4.48882 17.9984 4.46157 17.8197 4.46962V4.46962ZM7.54971 5.70962H17.1797L11.9397 9.82962C11.8571 9.88232 11.7656 9.91959 11.6697 9.93962C11.5682 9.92237 11.4722 9.88124 11.3897 9.81962L7.32971 6.63962C7.48187 6.37182 7.55794 6.06752 7.54971 5.75962V5.70962ZM4.34971 8.16962C4.27734 8.66951 4.37227 9.17929 4.61971 9.61962L6.52971 12.9096C6.78562 13.3586 7.18296 13.7102 7.65971 13.9096C7.92275 14.0195 8.20464 14.0773 8.48971 14.0796C8.79549 14.0856 9.09683 14.0059 9.35971 13.8496L10.1397 13.4096C10.2259 13.3513 10.3259 13.3168 10.4297 13.3096C10.5329 13.3197 10.6322 13.354 10.7197 13.4096C11.1447 13.7601 11.4863 14.2007 11.7197 14.6996C11.9603 15.0501 12.1552 15.4298 12.2997 15.8296C12.3402 15.9594 12.3637 16.0938 12.3697 16.2296L11.8497 16.5296C11.2796 16.7826 10.6634 16.9153 10.0397 16.9196C9.34045 16.9041 8.65492 16.7224 8.03971 16.3896C6.79614 15.6938 5.78165 14.6515 5.11971 13.3896V13.3896L3.53971 10.5796C2.78416 9.38262 2.38526 7.99513 2.38971 6.57962C2.39538 5.90704 2.56059 5.24541 2.87177 4.64912C3.18296 4.05284 3.63122 3.53892 4.17971 3.14962L4.69971 2.84962C4.80856 2.92928 4.90907 3.01974 4.99971 3.11962C5.27409 3.44407 5.50906 3.79989 5.69971 4.17962C6.01616 4.66267 6.22426 5.20851 6.30971 5.77962C6.32582 5.88356 6.30582 5.98988 6.25305 6.08086C6.20028 6.17184 6.11793 6.24199 6.01971 6.27962L5.24971 6.71962C4.99541 6.87257 4.78115 7.08383 4.62466 7.33597C4.46816 7.5881 4.37392 7.87386 4.34971 8.16962V8.16962Z" fill="#E2E5EB"/>
</g>
</svg>
