<svg width="20" height="20" viewBox="0 0 20 20" fill="none" xmlns="http://www.w3.org/2000/svg">
<g opacity="0.7">
<path d="M15.105 11.8907C13.7149 11.8907 12.584 13.0216 12.584 14.4118C12.584 15.8019 13.7149 16.9328 15.105 16.9328C16.4954 16.9328 17.626 15.8019 17.626 14.4118C17.626 13.0216 16.4951 11.8907 15.105 11.8907ZM15.105 15.6723C14.4098 15.6723 13.8445 15.1069 13.8445 14.4118C13.8445 13.7166 14.4098 13.1513 15.105 13.1513C15.8002 13.1513 16.3655 13.7166 16.3655 14.4118C16.3655 15.107 15.8002 15.6723 15.105 15.6723Z" fill="#E2E5EB"/>
<path d="M6.49172 11.8907C5.1016 11.8907 3.9707 13.0216 3.9707 14.4118C3.9707 15.8019 5.1016 16.9328 6.49172 16.9328C7.88184 16.9328 9.01273 15.8019 9.01273 14.4118C9.01273 13.0216 7.88184 11.8907 6.49172 11.8907ZM6.49172 15.6723C5.79656 15.6723 5.23121 15.1069 5.23121 14.4118C5.23121 13.7166 5.79656 13.1513 6.49172 13.1513C7.18668 13.1513 7.75223 13.7166 7.75223 14.4118C7.75223 15.107 7.18687 15.6723 6.49172 15.6723Z" fill="#E2E5EB"/>
<path d="M16.8025 4.67477C16.6954 4.46196 16.4775 4.3277 16.2393 4.3277H12.9199V5.58821H15.8506L17.5668 9.00164L18.6932 8.43524L16.8025 4.67477Z" fill="#E2E5EB"/>
<path d="M13.2142 13.8025H8.44531V15.063H13.2142V13.8025Z" fill="#E2E5EB"/>
<path d="M4.60121 13.8025H2.41637C2.06824 13.8025 1.78613 14.0846 1.78613 14.4327C1.78613 14.7808 2.06828 15.063 2.41637 15.063H4.60125C4.94938 15.063 5.23148 14.7808 5.23148 14.4327C5.23148 14.0846 4.94934 13.8025 4.60121 13.8025Z" fill="#E2E5EB"/>
<path d="M19.868 9.94954L18.6284 8.3529C18.5093 8.19911 18.3254 8.10919 18.1307 8.10919H13.5508V3.69743C13.5508 3.34931 13.2687 3.0672 12.9206 3.0672H2.41637C2.06824 3.0672 1.78613 3.34935 1.78613 3.69743C1.78613 4.04552 2.06828 4.32767 2.41637 4.32767H12.2903V8.73943C12.2903 9.08755 12.5725 9.36966 12.9205 9.36966H17.822L18.7399 10.552V13.8024H16.9962C16.648 13.8024 16.3659 14.0846 16.3659 14.4327C16.3659 14.7808 16.6481 15.0629 16.9962 15.0629H19.3701C19.7182 15.0629 20.0004 14.7808 20.0004 14.4327V10.3361C20.0004 10.1962 19.9538 10.0601 19.868 9.94954Z" fill="#E2E5EB"/>
<path d="M4.55871 10.6093H1.65953C1.31141 10.6093 1.0293 10.8914 1.0293 11.2395C1.0293 11.5876 1.31145 11.8697 1.65953 11.8697H4.55867C4.9068 11.8697 5.18891 11.5876 5.18891 11.2395C5.18895 10.8914 4.9068 10.6093 4.55871 10.6093Z" fill="#E2E5EB"/>
<path d="M6.0084 8.13019H0.630234C0.282148 8.13019 0 8.41234 0 8.76046C0 9.10859 0.282148 9.3907 0.630234 9.3907H6.0084C6.35652 9.3907 6.63863 9.10855 6.63863 8.76046C6.63863 8.41238 6.35652 8.13019 6.0084 8.13019Z" fill="#E2E5EB"/>
<path d="M7.0377 5.65125H1.65953C1.31141 5.65125 1.0293 5.93339 1.0293 6.28148C1.0293 6.6296 1.31145 6.91171 1.65953 6.91171H7.0377C7.38582 6.91171 7.66793 6.62957 7.66793 6.28148C7.66797 5.93339 7.38582 5.65125 7.0377 5.65125Z" fill="#E2E5EB"/>
</g>
</svg>
