<svg width="20" height="20" viewBox="0 0 20 20" fill="none" xmlns="http://www.w3.org/2000/svg">
<g opacity="0.7">
<path d="M13.6995 10.7168L12.6099 9.62728L15.4894 6.74781L15.8623 7.1207C16.1038 7.36216 16.5101 7.31459 16.6874 7.01913L18.9248 3.29017C19.0493 3.08267 19.0166 2.81705 18.8455 2.64597L17.3539 1.1544C17.1828 0.983285 16.9171 0.950623 16.7097 1.07508L12.9807 3.31246C12.6864 3.48902 12.637 3.89538 12.8791 4.13755L13.2521 4.51043L10.3726 7.3899L9.28301 6.30036C9.66651 4.86739 9.27535 3.30933 8.19062 2.22457C6.83377 0.867756 4.80259 0.653011 3.21412 1.50865C3.06737 1.58772 2.96665 1.73148 2.94242 1.89641C2.91823 2.06133 2.97343 2.22798 3.09132 2.34586L5.07042 4.32497C5.27606 4.53061 5.27606 4.86518 5.07042 5.07074C4.86479 5.27638 4.53026 5.27642 4.32462 5.07074L2.34551 3.0916C2.22763 2.97371 2.06094 2.91848 1.89605 2.94271C1.73113 2.96689 1.58736 3.06766 1.50829 3.21441C0.655891 4.79693 0.862831 6.82945 2.22429 8.19087C3.30662 9.2732 4.86387 9.66768 6.30007 9.2833L6.64371 9.62689L1.77254 14.4982C0.741501 15.5292 0.740868 17.1956 1.77254 18.2273C2.80066 19.2554 4.47351 19.2555 5.50167 18.2273L10.3728 13.356L10.7165 13.6997C10.333 15.1327 10.7242 16.6908 11.8089 17.7755C13.1657 19.1324 15.1969 19.3471 16.7854 18.4915C16.9321 18.4124 17.0329 18.2686 17.0571 18.1037C17.0813 17.9388 17.0261 17.7721 16.9082 17.6543L14.9291 15.6751C14.7235 15.4695 14.7235 15.1349 14.9291 14.9294C15.1347 14.7237 15.4693 14.7238 15.6749 14.9294L17.654 16.9085C17.7719 17.0264 17.9385 17.0815 18.1035 17.0574C18.2684 17.0332 18.4121 16.9324 18.4912 16.7857C19.3436 15.2031 19.1367 13.1706 17.7753 11.8092C16.6929 10.7269 15.1357 10.3324 13.6995 10.7168ZM16.8992 2.19135L17.8085 3.1006L16.1305 5.89727L14.1025 3.86936L16.8992 2.19135ZM13.9978 5.25624L14.7436 6.00201L11.8641 8.88148L11.1183 8.13571L13.9978 5.25624ZM4.75587 17.4816C4.13899 18.0984 3.13523 18.0984 2.51831 17.4816C1.89936 16.8626 1.89897 15.8633 2.51831 15.244L7.38944 10.3727L9.627 12.6103L4.75587 17.4816ZM17.8372 15.6002L16.4207 14.1836C15.8039 13.5668 14.8002 13.5668 14.1833 14.1836C13.5665 14.8004 13.5665 15.8041 14.1833 16.421L15.5999 17.8375C14.5236 18.1314 13.3668 17.8418 12.5547 17.0298C11.6952 16.1703 11.4034 14.8745 11.8113 13.7287C11.8795 13.5369 11.8313 13.3229 11.6873 13.179L6.82087 8.31251C6.67721 8.16886 6.46338 8.12017 6.27114 8.18858C5.12527 8.59645 3.82956 8.30457 2.97006 7.4451C2.15798 6.63302 1.86845 5.47626 2.1623 4.4L3.57885 5.81655C4.19566 6.43336 5.19935 6.43332 5.81623 5.81655C6.43304 5.19974 6.43304 4.19605 5.81623 3.57917L4.39968 2.16262C5.4759 1.8687 6.63274 2.1583 7.44481 2.97037C8.30432 3.82988 8.59617 5.12563 8.1883 6.27146C8.12002 6.46328 8.16826 6.67725 8.31223 6.82119L13.1786 11.6876C13.3226 11.8316 13.5366 11.8798 13.7284 11.8115C14.8742 11.4037 16.17 11.6955 17.0295 12.555C17.8416 13.3672 18.1311 14.5239 17.8372 15.6002Z" fill="#E2E5EB"/>
<path d="M7.85613 12.2495C7.65017 12.0436 7.31631 12.0436 7.11036 12.2495L3.88784 15.4721C3.68192 15.678 3.68192 16.0119 3.88784 16.2179C4.09383 16.4238 4.42766 16.4238 4.63361 16.2179L7.85609 12.9952C8.06201 12.7893 8.06201 12.4554 7.85613 12.2495Z" fill="#E2E5EB"/>
</g>
</svg>
